<?xml version="1.0" encoding="UTF-8"?>
<svg id="Capa_1" data-name="Capa 1" xmlns="http://www.w3.org/2000/svg" viewBox="0 0 142.13 190.19">
  <defs>
    <style>
      .cls-1 {
        fill: #fff;
      }

      .cls-1, .cls-2, .cls-3, .cls-4, .cls-5 {
        stroke-width: 0px;
      }

      .cls-1, .cls-3, .cls-4, .cls-5 {
        fill-rule: evenodd;
      }

      .cls-2, .cls-4 {
        fill: #000;
      }

      .cls-3 {
        fill: #4e331f;
      }

      .cls-5 {
        fill: #eccbb6;
      }
    </style>
  </defs>
  <g>
    <path class="cls-2" d="M23.35,169.15c-1.94.46-3.64,0-5.1-1.37-.25,1.79-1.22,2.88-2.91,3.28-1.24.3-2.12.24-2.63-.17l-.6-2.51c.5.19,1.02.22,1.56.09.95-.23,1.32-.81,1.09-1.74l-2.61-10.9,3.18-.76,2.33,9.74c1.18,1.67,2.87,2.24,5.06,1.72,1.83-.44,2.98-1.53,3.47-3.29.37-1.36.32-3.04-.16-5.05-.59-2.49-1.91-4.35-3.94-5.59-2.03-1.24-4.29-1.56-6.78-.97-2.27.54-3.99,1.5-5.14,2.86-1.3,1.54-1.68,3.41-1.16,5.61.26,1.11.79,1.96,1.57,2.55l-1.83,2.53c-1.37-1.01-2.28-2.46-2.74-4.37-.72-3.01-.22-5.63,1.51-7.85,1.58-2.06,3.91-3.46,6.98-4.2,3.42-.82,6.52-.43,9.31,1.16,2.78,1.59,4.58,4.09,5.4,7.49.67,2.82.57,5.25-.32,7.29-.97,2.31-2.81,3.78-5.53,4.44Z"/>
    <path class="cls-2" d="M37.52,165.79c-1.63.39-3.14.16-4.53-.69-1.38-.85-2.27-2.09-2.66-3.72-.39-1.63-.16-3.15.69-4.54.85-1.39,2.09-2.29,3.72-2.68,1.63-.39,3.14-.15,4.53.7,1.39.86,2.28,2.11,2.67,3.74s.16,3.14-.69,4.53c-.85,1.38-2.09,2.27-3.72,2.66ZM39.42,158.53c-.52.47-.96.75-1.31.84-.56.13-1.11.05-1.63-.26-.53-.31-.85-.74-.99-1.3-.08-.33-.05-.78.08-1.34-1.21.37-2.02.96-2.45,1.76-.42.8-.53,1.66-.31,2.57.23.95.74,1.68,1.53,2.19.79.51,1.66.65,2.61.42.95-.23,1.68-.75,2.2-1.57.51-.82.65-1.71.43-2.66l-.15-.64Z"/>
    <path class="cls-2" d="M54.12,161.8c-.89.21-1.73.03-2.5-.54-.72-.53-1.19-1.25-1.41-2.16l-.92-3.85c-.32-1.32-1.06-1.84-2.24-1.56-1.04.25-1.63,1.01-1.78,2.28-.06.36-.07.61-.04.75l1.57,6.56-2.86.68-2.65-11.08,2.86-.68.41,1.72c.66-1.54,1.61-2.45,2.84-2.74,1.11-.27,2.11-.1,2.99.49.88.59,1.46,1.44,1.72,2.56l.89,3.74c.22.94.84,1.28,1.85,1.04.35-.08.66-.25.93-.5l.5,2.1c-.5.57-1.23.97-2.18,1.2Z"/>
  </g>
  <g>
    <path class="cls-2" d="M80.01,163.76c-1.04.86-2.06,1.41-3.06,1.65-1.65.4-3.11.44-4.38.13l.77,3.23c.81,3.38-.34,5.44-3.45,6.18-1.63.39-2.76.32-3.39-.22l-.77-3.23c.64.24,1.31.28,2.01.11,1.2-.29,1.66-1.03,1.37-2.23l-3.36-14.05,4.13-.99,2,8.38c1.05.09,2.03.03,2.93-.19,1.7-.41,3.01-1.28,3.92-2.61.91-1.33,1.17-2.85.76-4.55-.59-2.48-2-4.14-4.21-4.99-1.92-.73-4.17-.79-6.75-.17-2.4.57-4.28,1.69-5.64,3.33-1.52,1.82-2.01,3.88-1.46,6.19.35,1.45,1.02,2.56,2.03,3.33l-2.36,3.26c-1.06-.78-1.84-1.6-2.34-2.46-.48-.78-.88-1.85-1.2-3.21-.82-3.43-.21-6.48,1.83-9.13,1.87-2.48,4.57-4.15,8.1-4.99,3.71-.89,6.99-.76,9.86.38,3.28,1.31,5.34,3.74,6.19,7.3.89,3.71-.3,6.89-3.56,9.55Z"/>
    <path class="cls-2" d="M101.84,167.31c-1.58.38-3.08-.36-4.5-2.22-.78,2.38-2.24,3.83-4.36,4.34-2.05.49-3.9.15-5.53-1.02-1.54-1.12-2.56-2.72-3.06-4.83-.5-2.08-.3-3.99.6-5.72.9-1.74,2.38-2.85,4.44-3.34,1.86-.44,3.75.07,5.67,1.54l-.58-2.44,3.68-.88,2.3,9.61c.29,1.21,1.08,1.65,2.39,1.34.43-.1,1.03-.24,1.38-.56l2.01,1.23c-.55,1.27-3.18,2.65-4.43,2.95ZM95.84,159.14c-1.16-1.73-2.7-2.37-4.61-1.92-1.21.29-2.11.97-2.7,2.06-.59,1.08-.74,2.22-.46,3.43s.94,2.15,1.96,2.85c1.02.7,2.13.9,3.34.61,1.91-.46,2.99-1.72,3.24-3.79l-.77-3.23Z"/>
    <path class="cls-2" d="M111.38,165.07c-2.05.49-3.99.2-5.81-.88-1.82-1.07-2.97-2.64-3.46-4.69l-4.71-19.68,3.68-.88,4.7,19.65c.25,1.05.89,1.87,1.9,2.44,1.02.58,2.05.74,3.11.49,1.21-.29,2.1-.92,2.68-1.89.58-.97.72-2.06.44-3.26-.16-.68-.57-1.39-1.22-2.13-.54,1.08-1.24,1.73-2.12,1.94-.75.18-1.51.04-2.26-.41-.76-.45-1.23-1.07-1.41-1.85-.21-.88-.03-1.71.54-2.49.57-.78,1.3-1.28,2.2-1.5,1.85-.44,3.51-.06,4.96,1.16,1.32,1.09,2.21,2.6,2.67,4.52.5,2.1.17,4.08-1,5.94-1.17,1.86-2.8,3.03-4.88,3.53Z"/>
    <path class="cls-2" d="M123.82,162.06c-1.22.11-2.26.09-3.25-.57-.99-.66-1.63-1.6-1.92-2.8l-5.41-22.65,3.94-.94,5.28,22.09c.28,1.15,1.1,1.56,2.48,1.23.48-.11,3.28-2.02,3.64-2.29l.64,2.67c-.68.72-2.31,2.98-5.39,3.27Z"/>
    <path class="cls-2" d="M134.38,159.58c-2.1.5-4.05.21-5.83-.89-1.78-1.1-2.93-2.7-3.43-4.8-.5-2.1-.21-4.05.88-5.85,1.09-1.8,2.69-2.95,4.79-3.45,2.1-.5,4.05-.2,5.84.91,1.79,1.11,2.93,2.71,3.44,4.82s.21,4.05-.89,5.83c-1.1,1.78-2.7,2.93-4.8,3.43ZM136.83,150.21c-.67.61-1.24.97-1.69,1.08-.73.17-1.43.06-2.1-.33-.68-.39-1.1-.95-1.28-1.68-.1-.43-.07-1,.1-1.73-1.55.48-2.6,1.23-3.15,2.26-.55,1.03-.68,2.14-.4,3.31s.95,2.17,1.97,2.83c1.02.66,2.14.84,3.37.55s2.17-.97,2.83-2.03c.66-1.06.84-2.2.55-3.43l-.2-.83Z"/>
  </g>
  <path class="cls-3" d="M138.59,162.65c1.04-.32,2.35-.35,3.06.61,1.02,1.16.32,3.19-1.19,3.49-17.99,3.7-50.56,12.36-68.56,16.04-.89.23-1.95.38-2.68-.31-1.4-1.08-.76-3.66,1.06-3.84,17.91-3.67,50.4-12.32,68.31-15.98Z"/>
  <g>
    <path class="cls-5" d="M72.77,26.74l-.21-2.17-.96-2.14s-.89-2.67-.28-4.85c.61-2.17,1.17-4.14,1.17-4.14l-3.24.93s3.39-7.87,4.73-9.87c1.34-2,5.26-4.4,7.93-4.28,2.67.12,6.75,1.18,6.75,1.18,0,0,5.36,1.59,6.22,2.84.86,1.25,2.01,2.97,2.07,4.32.06,1.34-.09,4.89-.26,5.96-.18,1.08-.33,1.93-.63,2.16-.3.23-2.58,1.86-2.58,1.86,0,0-.89,4.19-1.43,4.99-.54.8-1.53,2.35-1.53,2.35l-.88,1.81s-2.61,2.38-3.76,3.16c-1.15.78-3.52,2.77-3.52,2.77,0,0,.2,1.65.58,2.77.37,1.13,1.82,2.75,2.61,3.49.79.74,2.69,1.95,2.69,1.95l4.06,3.06s3.16,2.82,2.7,7.24c-.46,4.42-1.22,8-4.5,13.27l-2.21,4.73-2.34,2.27-1.31,6.29s-.05,2.58-.56,3.85c-.52,1.27-2.44,1.5-2.44,1.5l-1.12.19-.8.14-.52,3.37s-.09,3.21.37,4.49c.39,1.09,6.13,10.79,8.03,14.03l-37.39,1.44-1.51-13.46-1.01-.27-1.85-.65-1.62-.23s-1.76-.07-2.26-.37c-.51-.3-.76-.65-.76-.65l-.42-.67-2.31-.02-6.43.08s-3.71-2.95-4.48-5.35c-.77-2.41-2.51-12.59,6.09-19.26l15.91-.12.85-8.5s-.08-1.88-.71-4.24c-.63-2.35.08-3.69.08-3.69l1.41-2.67-12.6-5.97s-3.22,1.22-4.35,1.13c-1.13-.09-1.83-.04-1.83-.04,0,0-1.7.09-2.92.13-1.22.04-3.22-.04-3.13-1.4.09-1.35.57-2.62.57-2.62l-.22-.52s-1.22-1.96-1.57-5.58c-.35-3.62,1.17-4.88,4-5.49,2.83-.61,7.57-.44,9.62-.39,2.04.04,6.96.13,6.96.13l4.05.09s5.07-.96,7.64-1.21c2.57-.26,4.53-.06,5.79.74,1.25.81,5.59,3.51,5.59,3.51l.96.68s1.45-.03,1.8-.55c.35-.52,1.2-3.5,1.2-3.5Z"/>
    <path class="cls-1" d="M72.64,25.45l-.09-.88-.96-2.14s-.89-2.67-.28-4.85c.61-2.17,1.17-4.14,1.17-4.14l-3.24.93s3.39-7.87,4.73-9.87c1.34-2,5.26-4.4,7.93-4.28,2.67.12,6.75,1.18,6.75,1.18,0,0,5.36,1.59,6.22,2.84.86,1.25,2.01,2.97,2.07,4.32.06,1.34-.09,4.89-.26,5.96-.18,1.08-.33,1.93-.63,2.16-.3.23-2.58,1.86-2.58,1.86l-.02.09-.08-.06s.05-3.64-.05-4.65c-.11-1.02-3.05-3.64-3.05-3.64,0,0-2.62-.48-4.76-.48s-3.85,2.09-3.85,2.09l-3.96,2.25-2.57,2.09-1.23,3.53-1.34,4.17.15.86-.09.68h0ZM75.37,70.01s2.22.11,2.99.65c.77.54,2.03,2.72,2.03,2.72l1.07,3.1-.54,2.3-4.67,3.71-.04-1.65s.15-5.28-.19-6.35c-.34-1.07-1.19-3.75-1.19-3.75l.54-.73h0ZM86.37,40.53c-1.04.8-3.07,2.17-5.39,2.6-3.35.62-7.63-2.79-11.16-3.41,0,0-2.54-2.05-2.79-3.41-.25-1.36.06-2.85.06-2.85,0,0,.93-2.17,2.17-2.85.04-.02.09-.05.13-.07l-.59-.41s-4.34-2.71-5.59-3.51c-1.25-.81-3.21-1-5.79-.74-2.57.26-7.64,1.21-7.64,1.21l-4.05-.09s-4.92-.09-6.96-.13c-2.05-.04-6.79-.22-9.62.39-2.83.61-4.35,1.87-4,5.49.35,3.62,1.57,5.58,1.57,5.58l.22.52s-.48,1.26-.57,2.62c-.09,1.35,1.91,1.44,3.13,1.4,1.22-.04,2.92-.13,2.92-.13,0,0,.7-.04,1.83.04,1.13.09,4.35-1.13,4.35-1.13l.4.19c-.03-.13-.05-.21-.05-.21,0,0-4.76-2.9-5.9-3.88-1.14-.98-1.34-1.4-1.34-1.4,0,0,.2-2.51,1.4-3.13,1.21-.62,3.68-1.7,5.31-1.73,1.63-.03,3.71.16,4.98.88,1.27.72,4.2,3.07,4.2,3.07l6.64,4.37.72-.06,8.51,5.96,6.64,2.32,2.78.28s1.65,1.27,2.03,1.84c.38.57,5.18,1.32,5.18,1.32l-4.11,11.1-1.04-6.03-1.09-.83s.13,1.44-.58,1.73c-.71.29-1.38.13-1.38.13l-.54,1.48-7.43-.4-1.2-.72-.22-.86.84-1.52.56-.58-.21-.65-.72-.15-1.66.1-5.37,9.71-3.49,2.42-2.92.3v.02s-.25,0-.25,0l-.91.09h-10.1s-4.65.02-4.65.02c-8.6,6.67-6.86,16.85-6.09,19.26.01.04.02.08.04.11.06.14.11.28.17.42.52,1.11,1.54,2.28,2.45,3.19,1.23.79,2.43.91,2.43.91l7.46.07h.86s-.82-1.36-.46-1.65c.36-.28.45-.34.7-.24.26.11,1.06.45,1.06.45,0,0-1.21-1.93-.97-2.55.24-.63.85-.81,1.42-.45.58.36,2.01,1.79,2.01,1.79l1.27,1.09-.7-1.54-.39-1.41s-.28-1.2.68-.68c.96.51,1.62,1.84,2.01,2.35.39.51,1.96,1.98,1.96,1.98l1.13,1.08.79.63s-.73-2.12-.21-2.52c.53-.39.92-.27,1.4.24.48.51,1.54,1.51,1.54,1.51,0,0,9.8,1.02,9.99,1.12.2.1,4.07.46,4.07.46l.26-1.08-.43,15.84h14.72l-1.72-5.74-3.36-10.54-.72-5.32s1.07,0,2.48-.01l.19-1.26.8-.14,1.12-.19s1.92-.24,2.44-1.5c.52-1.27.56-3.85.56-3.85l1.31-6.29,2.34-2.27,2.21-4.73c3.28-5.26,4.04-8.84,4.5-13.27.46-4.42-2.7-7.24-2.7-7.24l-4.06-3.06s-1.03-.66-1.89-1.3Z"/>
    <path class="cls-3" d="M87.19,41.08l-1.62-.62c-1.7-1-2.92-2.75-3.24-4.24-.32-1.49-.32-2.34-.32-2.34-1.01.21-4.29-.05-5.51-2.07-1.22-2.02-1.48-6.43-1.48-6.43,0,0,.27.96.64,2.65.37,1.7,1.64,4.3,2.97,4.83,1.32.53,3.04.66,5.22-.89,2.17-1.55,4.19-2.71,5.45-4.64,1.26-1.93,1.78-3.85,1.78-3.85l.96-1.45.66-2.75.3-1.5s-.29-.66-.11-1.42c.18-.76-.13-3.07-.13-3.07,0,0,0,.8-.09,1.51-.09.71-.67,1.82-1.42,2.09-.75.27-1.17.83-1.17.83,0,0-.13-.39.9-1.54,1.03-1.16.9-1.93.39-3.35-.52-1.42-2.32-.39-2.32-.39l-1.16-1.42s-2.54-1.13-3.51.23c-.97,1.36-1.27,2.92-2.63,3.5-1.36.58-2.63,1.65-2.63,1.65,0,0,1.07-1.17,2.24-2.04,1.17-.88,1.07-.88,1.46-1.95.39-1.07,1.65-2.24,1.65-2.24,0,0-1.07.88-2.34,1.75-1.27.88-1.46,1.27-3.12,1.65-1.65.39-2.53,2.43-2.82,4.57-.29,2.14-1.36,4.87-1.36,4.87,0,0,.39-2.63.49-4.58.1-1.95-.4-.77-.4-.77,0,0-1.78,5.02-1.78,7.51s-.91,5.62-2.35,6.01c-1.44.39-3.4.39-3.4.39l.7-1.78s2.31,1.26,3.22-.57c.92-1.83,1.31-2.35.92-3.79-.39-1.44,1.18-6.54,2.74-9.8,1.57-3.27,3.27-2.74,4.97-3.53,1.7-.78,3.27-2.35,5.36-2.88,2.09-.52,3.27-.91,5.36.26,2.09,1.18,3.92,4.71,3.66,7.32-.26,2.61-1.05,3.03-1.05,3.03,0,0-.53,1.65-.65,2.24-.12.59-.13,1.55-.62,1.99-.49.44-1.85,2.55-1.71,3.93l.69,1.87s-.83-.19-1.28-1.67c0,0-.72.91-2.39,2.04-1.67,1.13-4.05,2.98-4.05,2.98l-.49.59s.8,3.42,1.76,4.46c.96,1.04,2.99,2.5,2.99,2.5,0,0-.36.24-.3.27Z"/>
    <path class="cls-3" d="M86.82,21.08s1.27-.67,2.78-.13c1.51.54,1.71.84,2.31.84,0,0-.34.77-1.47.27-1.14-.5-1.11-.87-3.62-.97Z"/>
    <path class="cls-3" d="M84.35,20.09s-.24-1.44-1.59-2.33c-1.36-.89-1.72-.87-2.09-1.36,0,0-.42.74.68,1.36,1.1.61,1.38.36,3,2.33Z"/>
    <path class="cls-3" d="M86.76,21.13s-.92.35-1.08.79c-.16.44-.95,2-.82,3.52.13,1.52,0,2.76-.58,2.79-.57.03-1.26-.16-1.86-.35-.6-.19-1.17-.54-1.33-.95-.16-.41.22-.76.22-.76,0,0-.09.7.54,1.05.63.35,1.9.51,1.9.51,0,0,.85.32.63-.98-.22-1.3-.19-2.7.41-3.84.6-1.14.73-1.65,1.96-1.78Z"/>
    <path class="cls-3" d="M81.63,27.4s.04.85.63.85,1.63-.22,1.63-.22l-2.26-.63Z"/>
    <path class="cls-3" d="M84.33,25.38s.06,1.4-.08,1.75c-.14.35-.44.69-.78.74-.35.05.6.08.78.08s.32.05.29-.09c-.03-.14.08-1.98.08-1.98,0,0-.27-.51-.29-.5Z"/>
    <path class="cls-3" d="M83.23,21.49s-2.84-.37-4.25-2.35c0,0,.83,1.1,1.41,1.67.58.58.09.42.89.8.8.38,1.07.19,1.07.19,0,0,.59.17.86.19.27.02.4.06.4.06,0,0,.02-.27.02-.36s-.4-.21-.4-.21Z"/>
    <path class="cls-3" d="M86.24,22.4s1.02.9,1.97,1.38c1.08.55,1.97.31,1.97.31,0,0-1.44.56-2,.37-.56-.19-1.25-.5-1.25-.5l-.69-1.56Z"/>
    <path class="cls-3" d="M81.92,29.31l-1.07-.57s-.43.11-1.2-.34c-.77-.45-.96-1.02-.96-1.02,0,0-.07.96.7,1.4.77.45,1.59.75,1.59.75l.41-.03s.26.28.53.41c.28.12.13.22.13.22l-.53-.12s.18.43,1.03.33c.85-.1.89-.3,1.45-.49.56-.19.66-.29.66-.29,0,0-.8.24-1.3.1-.5-.14-.84-.42-.84-.42l-.61.06Z"/>
    <path class="cls-3" d="M81.76,30.67s-.86-.01-1.46-.47c-.59-.45-.94-.96-.94-.96,0,0,.05.94.66,1.31.61.37,1.3.23,1.73.11Z"/>
    <path class="cls-3" d="M93.78,18.95s1.9-1.33,2.66-2.38c.76-1.05.09-1.9.57-3.61.48-1.71.29-6.65-1.71-8.84-2-2.19-11.41-4.94-15.02-3.9-3.61,1.05-6.75,3.23-8.08,6.75-1.33,3.52-3.33,7.98-3.33,7.98l3.03-1.19s-1.23,4.81-1.23,6.52,1.05,3.71,1.05,3.71l.86,1.05.46-1.86s-1.18-1.11-1.31-2.15c-.13-1.04-.52-2.22-.13-3.33.39-1.11,1.44-3.98,1.76-5.16.33-1.17.91-2.81,1.57-3.85.65-1.04,1.83-3.39,2.74-4.18.91-.78,1.17-1.04,1.17-1.04,0,0-1.24.07-1.7.39-.46.33-1.24.98-1.24.98,0,0,.91.39.33,1.04-.59.65-1.24,1.5-1.76,2.28-.52.78-1.83,4.7-1.83,4.7l-2.28.85s1.89-5.42,2.81-7.38c.91-1.96,4.63-5.61,8.29-5.74,3.66-.13,9.14,1.57,11.23,2.55,2.09.98,3.52,3.39,3.92,4.96.39,1.57-.07,3.66-.07,4.24s-.26,1.89-.26,1.89c0,0,.46-1.7-.07-2.94-.52-1.24-.85-1.89-1.83-2.74-.98-.85-2.02-1.37-2.02-1.37,0,0,2.81,2.28,3.26,3.79.46,1.5.26,3.39.26,4.44s-.85,1.83-.85,1.83l-1.24.85s.07.72-.02.87Z"/>
    <path class="cls-3" d="M72.2,22.25s-.05-3.28.69-4.95c.74-1.66,1.25-2.64,2.26-3.79,1.02-1.16,2.35-1.94,4.15-3.01,1.8-1.06,4.75-2.08,4.75-2.08,0,0-5.22,1.57-6.46,2.31-1.25.74-2.82,2.03-3.88,4.07-1.06,2.03-1.89,3.79-1.89,4.67s-.09,2.87-.09,2.87l.46.74v-.83Z"/>
    <path class="cls-3" d="M94.62,18.17s.55-3.19.03-4.3c-.52-1.1-.83-2.39-1.96-3.38-1.13-.98-2.42-1.6-2.42-1.6,0,0,2.33.55,3.16,1.75.83,1.2,1.56,2.64,1.65,3.47.09.83,0,2.7,0,2.7v.74s-.49.58-.46.61Z"/>
    <path class="cls-3" d="M95.38,17.44s.55-3.19.03-4.3c-.52-1.1-.83-2.39-1.96-3.38-1.13-.98-2.42-1.6-2.42-1.6,0,0,2.33.55,3.16,1.75.83,1.2,1.56,2.64,1.65,3.47.09.83,0,2.7,0,2.7v.74s-.49.58-.46.61Z"/>
    <path class="cls-3" d="M96.83,12.13s-.48-2.69-1.01-3.32c-.53-.63-2.16-2.5-3.42-3.17-1.25-.67-2.64-1.39-2.64-1.39,0,0,2.5.67,3.85,1.68,1.35,1.01,2.45,2.4,2.69,3.03.24.63.77,1.78.77,1.78l-.24,1.39Z"/>
    <path class="cls-3" d="M96.9,9.43s-.9-2.26-1.45-2.85c-.54-.59-2.62-1.99-2.62-1.99,0,0,2.58,1.49,3.16,2.31.59.82.86,1.45.86,1.45l.05,1.09Z"/>
    <path class="cls-3" d="M74.87,14.57s1.83-2.15,3.61-2.93c1.78-.78,3.93-1.83,3.93-1.83,0,0-1.78,1.69-3.29,2.15-1.51.46-2.88,1.42-4.25,2.61Z"/>
    <path class="cls-3" d="M72.29,22.43s.66-3.66.9-4.47c.24-.81,1.31-2.85,1.31-2.85,0,0-.92,2.76-1.2,3.5-.28.74-1.01,3.81-1.01,3.81Z"/>
    <path class="cls-3" d="M74.25,8.98s1.56-1.68,2.36-2.36c.8-.68,2-.88,2.65-1.36.64-.48,2.53-.88,2.53-.88,0,0-2.12.92-2.81,1.44-.68.52-1.52.72-2.24,1.28-.72.56-2.81,2.85-2.81,2.85l.32-.96Z"/>
    <path class="cls-3" d="M73.77,10.79s1.56-1.68,2.36-2.36c.8-.68,2-.88,2.65-1.36.64-.48,2.53-.88,2.53-.88,0,0-2.12.92-2.81,1.44-.68.52-1.52.72-2.24,1.28-.72.56-2.81,2.85-2.81,2.85l.32-.96Z"/>
    <path class="cls-3" d="M72.93,12.95s1.56-1.68,2.36-2.36c.8-.68,2-.88,2.65-1.36.64-.48,2.53-.88,2.53-.88,0,0-2.12.92-2.81,1.44-.68.52-1.52.72-2.24,1.28-.72.56-2.81,2.85-2.81,2.85l.32-.96Z"/>
    <path class="cls-3" d="M77.72,4.92s1.16-.66,2.13-.85c.98-.2,2.29-.54,2.58-.57.29-.02,1.93-.2,1.93-.2,0,0-1.52-.12-2.64-.05-1.12.07-1.39.05-1.81.22-.42.17-2.2,1.44-2.2,1.44Z"/>
    <path class="cls-3" d="M75.4,5.31s-1.1,1.29-1.71,2.51c-.61,1.22-.68,2.35-.93,3.16-.26.81.13,1.71.13,1.71,0,0,.19-1.77.48-2.93.29-1.16,1-2.55,2.03-4.45Z"/>
    <path class="cls-3" d="M83.23,22.43s-1.05.12-1.49.04c-.44-.08-1.28-.38-1.28-.38,0,0,1.01.59,1.74.61s1.03-.27,1.03-.27Z"/>
    <path class="cls-3" d="M86.49,24.01s.49.69.78.89c.29.2.95.46.95.46,0,0-.95-.15-1.35-.56-.4-.41-.38-.79-.38-.79Z"/>
    <path class="cls-3" d="M82.49,34.08s-.97.23-2.62-.04c-1.65-.26-1.88-.45-1.88-.45,0,0,1.39.94,2.89.98,1.5.04,1.76-.11,1.76-.11l-.15-.38Z"/>
    <path class="cls-3" d="M82.68,34.77s-.97.22-2.63-.04c-1.65-.26-1.87-.45-1.87-.45,0,0,1.39.94,2.89.98,1.5.04,1.76-.11,1.76-.11l-.15-.38Z"/>
    <path class="cls-3" d="M82.79,35.65s-.97.23-2.62-.04c-1.65-.26-1.87-.45-1.87-.45,0,0,1.39.94,2.89.98,1.5.04,1.76-.11,1.76-.11l-.15-.38Z"/>
    <path class="cls-3" d="M83.11,36.5s-.97.23-2.62-.04c-1.65-.26-1.87-.45-1.87-.45,0,0,1.39.94,2.89.98,1.5.04,1.76-.11,1.76-.11l-.15-.38Z"/>
    <path class="cls-3" d="M83.38,37.21s-.89.23-2.41-.04c-1.51-.26-1.72-.45-1.72-.45,0,0,1.27.94,2.65.98,1.38.04,1.62-.11,1.62-.11l-.14-.38Z"/>
    <path class="cls-3" d="M83.54,37.87s-.89.23-2.41-.04c-1.51-.26-1.72-.45-1.72-.45,0,0,1.27.94,2.65.98,1.38.04,1.62-.11,1.62-.11l-.14-.38Z"/>
    <path class="cls-3" d="M75.18,38.02c-.58.17-1.09.26-1.09.26,0,0-.29-.11-.47-.54-.18-.43-.43-1.68-.43-1.68,0,0-.25,1.33-.14,1.86.11.54.21,1.15.21,1.15,0,0,.29-.39,1.43-.29,1.15.11,1.4-.39,1.4-.39,0,0,.86.72.86.47s-.36-.54.04-1c.08-.09.16-.23.24-.4h-.4s-.78.62-1.43.57c-.08,0-.15,0-.23,0Z"/>
    <path class="cls-3" d="M81.91,5.95s1.04-.25,2.15-.32c1.11-.07,2.69.18,2.69.18,0,0-1.83-.04-2.73,0-.9.04-2.12.14-2.12.14Z"/>
    <path class="cls-3" d="M80.75,8.18s.96-.46,2.04-.77c1.07-.3,2.67-.39,2.67-.39,0,0-1.8.35-2.67.57-.87.22-2.04.59-2.04.59Z"/>
    <path class="cls-3" d="M82.11,4.23s1.03-.29,2.14-.39c1.11-.11,2.7.09,2.7.09,0,0-1.83.02-2.73.09-.9.07-2.11.21-2.11.21Z"/>
    <path class="cls-3" d="M82.59,9.69s.92-.55,1.96-.95c1.04-.4,2.62-.64,2.62-.64,0,0-1.76.51-2.6.82-.85.3-1.98.77-1.98.77Z"/>
    <path class="cls-3" d="M84.42,8.26s1.91-.6,2.94-.52c1.03.08,2.21.52,2.21.52,0,0-1.51-.82-2.45-.72-.93.1-2.71.72-2.71.72Z"/>
    <path class="cls-3" d="M83.86,7.35s1.91-.6,2.94-.52c1.03.08,2.21.52,2.21.52,0,0-1.51-.82-2.45-.72-.93.1-2.71.72-2.71.72Z"/>
    <path class="cls-3" d="M77.49,4.11s-.1-.14-.25-.5c-.14-.35-.08-1.18-.08-1.18,0,0-.33.5-.31.85.02.35.56,1.01.56,1.01l.08-.19Z"/>
    <path class="cls-3" d="M76.99,4.55s-.1-.14-.25-.5c-.14-.35-.08-1.18-.08-1.18,0,0-.33.5-.31.85.02.35.56,1.01.56,1.01l.08-.19Z"/>
    <path class="cls-3" d="M76.59,5.06s-.15-.09-.42-.36c-.27-.27-.53-1.05-.53-1.05,0,0-.11.59.05.9.16.32.91.72.91.72v-.2Z"/>
    <path class="cls-3" d="M69.64,30.41s-3.04-2.21-5.07-3.41c-2.03-1.2-4.33-2.49-11.05-1.01-6.72,1.47-5.55.79-11.99.52-6.44-.27-13.69-.14-15.61,1.92-1.92,2.05-1.64,2.19-1.23,4.93.41,2.74,1.64,5.07,1.64,5.07,0,0-1.51,3.29.55,4.52,2.05,1.23,3.56-.41,6.16.14,2.6.55,4.79-.68,4.79-.68l1.62-.26-1.19-.93s-1.31.86-3.71.97c-2.41.11-2.75.57-4.93.46-2.18-.11-2.41.11-2.64-1.83-.23-1.95.46-2.52.46-2.52,0,0-1.72-1.83-1.72-4.36s-.23-4.24,1.38-5.16c1.61-.92,2.87-1.72,5.05-1.72s7.45.57,8.83.46c1.38-.11,3.33-.23,3.33-.23l1.15,1.15s.8-1.03,2.18-1.03,4.47-.11,6.42-.69c1.95-.57,5.73-.69,7.8-.11,2.06.57,6.77,4.7,6.77,4.7l1.02-.87Z"/>
    <path class="cls-3" d="M39.89,42.78l-8.93-6.1s.11-3.05,2.83-4.36c2.72-1.31,7.3-1.42,9.04-.65,1.74.76,3.92,2.94,7.08,4.9,3.16,1.96,12.86,10.02,13.95,10.35,1.09.33,3.91,1.12,4.8,1.12s3.49.09,3.49.09c0,0,2.15-.54,2.24,1.43.09,1.97-.36,5.01-.36,6.26s-.36,2.06-.98,2.15c-.63.09-1.25,0-1.25,0,0,0-.54,1.16-2.6,1.16l-.81-.72s-.72.27-1.61.09c-.89-.18-1.52-.72-1.52-.72,0,0-1.07.72-2.24.09-.25-.14-.45-.24-.6-.33l.06-.34.18-.29c.17.44.68.19,1.38.54.77.38,1.15-.38,1.15-.38,0,0,.23-1.88.35-2.38.12-.5.46-.81.46-.81,0,0-.15,2.84-.15,3.23s.31.42.77.77c.46.35,1.58-.23,1.58-.23,0,0,.08-3.27.08-3.84s.69-1.08.69-1.08c0,0-.15,4.5-.08,5.27.08.77.27.5,1.38.42,1.11-.08,1.08-1.08,1.08-1.08,0,0-.04-4,0-4.77.04-.77.46-1.04.46-1.04,0,0,.08.88.08,1.69s-.15,3.61-.04,3.84c.12.23.35.23,1.15.12.81-.12.54-.69.54-.69,0,0,.37-4.97.43-5.67.06-.7-.45-1.98-1.21-2.17-.77-.19-4.66,0-5.61,0s-3-.83-4.34-1.66c-1.34-.83-4.41-3.03-6.57-4.82-2.17-1.79-8.61-6.43-9.89-7.33-1.28-.89-2.57-2.46-4.74-2.86-2.17-.4-6.5.45-7.71,1.21-1.21.76-1.66,2.87-1.66,2.87-.07.06,1.41,1.91,1.41,1.91,0,0,5.13,3.33,7.4,4.6,1.73.97,10.76,4.81,14.96,6.58,1.14.48,2.27,1.03,3.45,1.43,1.01.34,1.29.23,1.29.23,0,0,.23.62.19.96-.04.34.08.92.5,1.58.42.65,1.08.69,1.08.69h.77l.54-.38s0,.58.42.92c.42.35-.15,1.15-.15,1.15l.08-.58-.26-.26.07-.1-.48-.41s-.34-.13-.43-.13-.97.06-.97.06l-.08.1c-.56-.16-1.69-.73-1.48-2.62,0,0-1.61-.54-2.6-.9-.98-.36-18.04-8.12-18.04-8.12Z"/>
    <path class="cls-3" d="M32.33,33.66s-1.94,1.86-2.57,3.48c-.63,1.63-1.22,3.39-.9,4.12.32.72,1.99,1.18,3.21.95,1.22-.23,3.57-.59,3.57-.59,0,0-3.03.41-3.98-.27-.95-.68-1.13-.36-.95-1.49.18-1.13,2.03-2.22,2.03-2.22l-1.04-1.77.63-2.22Z"/>
    <path class="cls-3" d="M35.18,39.38s-1.08,1.04-2.03.99c-.95-.04-1.73-.26-1.73-.26,0,0-.3.95,1.73,1.04,2.03.09,4.36-.3,4.36-.3,0,0-2.38-1.47-2.33-1.47Z"/>
    <path class="cls-3" d="M33.94,38.46s-.94,1.24-1.37,1.4c-.44.17-1.22.2-1.22.2,0,0,.84-.02,1.28-.6.44-.58.88-1.34.88-1.34,0,0,.42.46.43.34Z"/>
    <path class="cls-3" d="M66.15,28.61s-4.88,1.4-6.23,2.97c-1.35,1.57-5.78,8.42-5.78,8.42l5.39,4.38s4.75,3.26,6.31,3.49c1.56.22,4.35.56,4.35.56l3.35.06s-4.57-1.51-7.03-3.12c-2.45-1.62-4.18-2.29-4.24-4.3-.06-2.01-.11-2.51,1.06-4.85,1.17-2.34,3.12-4.52,5.08-4.85,1.95-.33,0-1.23,0-1.23l-2.26-1.51Z"/>
    <path class="cls-3" d="M69.35,31.24s-1.52.47-1.93,1.99c-.41,1.52-.58,3.16.93,4.51,1.52,1.35,4.03,2.4,7.36,3.63,3.33,1.23,4.03,2.05,6.72.99,2.69-1.05,3.39-2.28,3.39-2.28l.99.41s-2.75,2.22-4.09,2.57c-1.34.35-3.68.7-5.26-.12-1.58-.82-6.95-1.64-8.41-3.22-1.46-1.58-2.57-2.46-2.57-3.63s-.41-1.46-.41-1.46c0,0,.53-.59.76-1.05.23-.47.41-1.87,1.81-2.57,1.4-.7.7.23.7.23Z"/>
    <path class="cls-3" d="M46.98,34.93s-.08-1.43-.68-2.64c-.6-1.21-1.89-2.04-4-2.71-2.11-.68-4.98-.75-4.98-.75,0,0,5.28-.08,7.47,1.36,2.19,1.43,2.64,3.02,3.09,5.28l-.53-.15-.38-.38Z"/>
    <path class="cls-3" d="M44.14,32.79s-.29-1.52-2-2.29c-1.71-.76-7.24-.52-8.57-.48-1.33.05-4.57,2.14-4.57,2.14,0,0,1.95-2.57,6.19-2.71,4.24-.14,6.81.48,7.81.95,1,.48,1.86,2.09,1.9,2.86l-.48-.19-.29-.29Z"/>
    <path class="cls-3" d="M56.36,40.34s-2.84-2.46-5.11-2.36l1.89,1.42,2.46,1.99.76-1.04Z"/>
    <path class="cls-3" d="M93.8,18.54s-.12,1.54-.18,2.55c-.06,1.01-1.24,2.37-1.24,2.37h-.35l1.3-4.97.47.06Z"/>
    <path class="cls-3" d="M81.16,12.33s-1.21,1.76-2.02,2.27c-.81.5-1.61,2.12-2.02,2.92-.4.81-1.01,3.68-1.01,3.68,0,0-.2-3.22.1-4.84.3-1.61,1.31-2.52,1.31-2.52l3.63-1.51Z"/>
    <path class="cls-3" d="M33.41,37.9s-.94,1.24-1.37,1.4c-.44.17-1.22.2-1.22.2,0,0,.84-.02,1.28-.6.44-.58.88-1.34.88-1.34,0,0,.42.46.43.34Z"/>
    <path class="cls-3" d="M34.8,39.06s-1.14,1.05-1.6,1.14c-.46.09-1.24-.02-1.24-.02,0,0,.83.13,1.37-.36.54-.49,1.11-1.17,1.11-1.17,0,0,.34.52.36.41Z"/>
    <path class="cls-3" d="M77.41,32.67s.85,1.06,2.56,1.44c1.71.38,2.36.34,2.36.34l.09-.95s-2.65.07-3.35-.16c-.7-.22-1.66-.68-1.66-.68Z"/>
    <path class="cls-3" d="M73.71,48.82s2.7.75,4.71-.06c2.01-.82,4.84-4.02,6.28-5.4,1.44-1.38,1.82-2.64,2.51-2.76l.94.63,1.26.19,1.07,1.51,1.51,1.44s-3.2,1.7-5.91,3.96c-2.7,2.26-4.38,8.94-5.21,11.27-.83,2.33-1.43,3.61-1.43,3.61l-4.12,5.74-.94-12.13-.58-.16.45-6.25-.54-1.59Z"/>
    <path class="cls-3" d="M91.92,44.31s3.82,2.6,3.23,7.69c-.59,5.09-.95,7.7-3.08,11.37-2.13,3.67-3.08,6.16-3.08,6.16l-2.72,3.08s-1.26,6.07-1.26,7.31-.77,4.96-4.49,4.18c0,0,1.86-2.48,1.55-4.34-.31-1.86-2.94-9.44-5.3-9.44s-1,0-1.38-.02l-.05-.7c.86.04,2.47.43,3.4.63.92.2,1.73,2.39,2.52,3.67.79,1.28.81,1.9,1.29,5.26.48,3.36-.93,4.42-.93,4.42,0,0,1.5-.49,1.9-.84.4-.35.88-2.34.93-3.53.04-1.19,1.02-6.89,1.47-7.46.44-.57,2.27-2.71,2.27-2.71l.95-1.77.88-1.89s1.01-1.58,2.02-2.97c1.01-1.39,2.33-8.03,2.63-10.38.29-2.35-.66-4.11-1.07-4.99-.41-.88-1.88-2.16-1.88-2.16,0,0-.58.09-2.43,1.36-1.86,1.27-5.09,4.95-5.92,7.01-.83,2.06-3.18,9.02-3.55,9.8-.37.78-2.09,3.41-2.83,4.2-.52.55-1.26,1.49-1.66,2l-.07-.85c1.19-1.31,2.8-3.28,3.54-5.03,1.24-2.94,4.21-12.88,7.34-15.53,3.13-2.64,5.81-3.52,5.81-3.52Z"/>
    <path class="cls-3" d="M67.56,67.53c3.5-.14,7.74,1.85,8.08,7.88.26,4.61.38,9.67-1.85,12.68l.4,1.22c1.51-1.98,2.36-4.97,2.58-8.54.37-6.18-.28-10.62-3.15-12.19-2.87-1.57-6.07-2.84-9.28-.06,0,0-2.99,2.57-2.7,10.62.28,8.01,3.79,13.14,8.09,12.73l-.66-.85-.54-.38.08-.03c-3.58-.35-5.62-5.12-5.9-10.29-.34-6.24.69-12.04,4.87-12.8Z"/>
    <path class="cls-3" d="M71.72,67.91s-1.24-1.45-5.65-1.52c-.78-.01-2.3-.02-4.28-.02l-.09.81h3.28s2.76,0,3.7.07c.94.07,3.03.66,3.03.66h0ZM59.38,66.38c-9.78,0-25.95.09-25.95.09,0,0-6.33,2.2-7.36,13.64,0,0-.29,9.39,5.87,11.59l9.14.08-.48-.72c-7.69-.04-8.9-.05-8.9-.05,0,0-5-3.29-4.41-11.66.58-8.37,6.77-12.16,6.77-12.16l25.3-.02.02-.81h0ZM55.3,92.25l-.24-.29-.62-.48c4.92.02,13.72-.27,14.74-.31l.58.74c-.15.06-.24.08-.24.08l-14.21.25Z"/>
    <path class="cls-3" d="M62.53,54.09s-2.1.05-2.64,3.97c-.55,3.93-1.23,19.95-1.3,21.74-.06,1.79,2.43,1.34,2.61.25l1.43-22.28s.52-1.65,1.25-2.29l.38-.6s-.18-.5-.67-.72c-.29-.13-.87.04-1.07-.08h0ZM62.14,54.55c1-.36,1.48.35,1.48.35,0,0-.66.57-1.14,1.6-.11.22-.23.79-.31,1.3-.26,1.83-.42,4.82-.42,4.82,0,0-.86,14.25-.97,15.87-.11,1.62-.19,1.77-1.05,1.82-.86.05-.75-1.51-.75-1.51,0,0,.8-12.3,1.04-15.23.24-2.93.54-5.65.81-6.74.26-1.08,1.31-2.28,1.31-2.28Z"/>
    <polygon class="cls-3" points="73.83 55.35 73.96 55.79 75.11 70.53 75.67 72.06 74.62 55.61 73.97 54.24 73.83 55.35"/>
    <path class="cls-3" d="M50.79,47.28s-1.94,2.39-1.67,4.21c.27,1.82,1.11,6.41,1.11,6.41l-1.2,8.76,10.45.04.8-8.56s.69-1.87.69-2.3,1.18-1.44,1.18-1.44c0,0-1.28-1.07-1.28-1.71v-1.02l-5.83-2.57-4.25-1.82Z"/>
    <path class="cls-3" d="M59.8,78.89s-.44.11-.39.5c.05.39.78.56.89.06.11-.5-.16-.67-.5-.56Z"/>
    <polygon class="cls-3" points="72.67 57.83 73.75 69.18 73 68.65 72.09 57.49 72.67 57.83"/>
    <path class="cls-3" d="M81.84,77.59s-4.31,4.13-6.67,7.47l.83-3.14,5.7-5.75.14,1.42Z"/>
    <path class="cls-3" d="M40.26,89.84c1.15,1.41,1.13,1.2,2.06,2.21.32.11.75.24,1.07.34-.81-.68-2.25-2.08-2.43-2.34-.23-.33-.45-.86-.18-.98.27-.12,1.23.3,2.01,1,.78.7,2.88,1.73,2.88,1.73l-1.68-1.25s-1.15-.93-1.69-1.8c-.54-.86-.71-1.24-.68-1.86.03-.61.57-.44.76-.35.2.09.77.5,1.12.87.35.37.89.81.89.81,0,0,.45.34,1.35,1.22.9.88,2.44,2.4,2.44,2.4,0,0-.73-.85-1.2-1.66-.47-.81-1.33-2.3-1.49-2.84-.16-.55-.49-1.36-.14-1.53.35-.17.91.45,1.21.89.31.44.88,1.17,1.18,1.89.3.72,1.76,1.75,2.83,2.49,1.07.74,2.12,1.19,2.12,1.19,0,0-.67-.67-.76-.88-.08-.2-.21-.92-.2-1.38,0-.46-.3-.84.19-.8.49.04.9.79,1.4,1.41.29.35.87.9,1.32,1.31l.65.33.43-.44-.21-.2s-1.05-.4-1.69-1.3c-.64-.9-2.31-2.81-3.01-1l.41,1.5s-1.25-1.16-2.28-1.9c-1.03-.74-1.5-1.49-1.82-2.1-.32-.61-1.51-1.85-2.23-1.53-.72.32.12,2.14.43,3.14,0,0-.46-.42-1.6-1.65-1.14-1.23-2.39-1.17-2.56-.67-.17.49-.49,1.31.43,2.43.27.26.48.59.48.59,0,0-.35-.4-1.31-.49-.96-.09-.52,1.21-.52,1.21h0ZM52.04,93.51c-.24.04-.58.06-1.3.14-.72.08-1.23-.42-1.18-.47.05-.05-.18.07-.65.12-.32.03-.74.44-1.37.37-.29-.03-.52-.42-.64-.44-.33-.07-1.87-.17-2.66-.36h0s-.74-.03-1.13-.06c.61.48,1.12.51,2.26.64.63.07,1.37.65,2.31.79.29.04.7-.41,1-.36.5.09,1,.39,1.49.42.59.04,1.07-.32,1.63-.31,1.03.02,2.14-.35,3.02-.75l-.76-.04c-.69.07-1.34.2-2.03.31Z"/>
    <path class="cls-3" d="M41.71,91.02s-.96-.83-1.17-.3c-.21.53.28.9.46,1.37.17.47,1,.75,1.37.96.38.21,2.27.22,2.27.22l-.94-.35s-1.26-.16-1.6-.4-.8-.55-.91-.8c-.11-.25-.45-.61-.24-.62.22-.01.81.36.81.36l.46.28-.5-.72Z"/>
    <path class="cls-3" d="M47,93.43l-.74-.83s1.49.86,1.78.95c.29.09.37.18.37.18,0,0-.4.14-.52.15-.11.01-.61,0-.61,0l-.28-.45Z"/>
    <path class="cls-3" d="M49.46,93.2l-.53-.98s1.25,1.18,1.51,1.33c.26.15.31.26.31.26,0,0-.42.04-.54.03-.11-.01-.59-.14-.59-.14l-.17-.51Z"/>
    <path class="cls-3" d="M53.09,93.73s3.78-.4,6.55-1.6l-1.65-.11s-2.77,1.28-4.11,1.34c-1.34.05-.79.38-.79.38Z"/>
    <path class="cls-3" d="M62.52,57.33s.64.39,1.25.39,1.64-.29,1.64-.29c0,0,.96.96,1.5.96s1.68-.39,1.68-.39c0,0,.18.82.96.82s2.18-1.11,2.18-1.11l1.32-.21-.68.32,1.09,11.03s-2.83-1.4-4.48-1.72c-1.65-.32-3.44-.36-3.44-.36l-3.73.18.43-8.24.28-1.39Z"/>
    <path class="cls-3" d="M81.44,82.92s-1.58,1.69-2.98,1.11c-1.4-.58-2.04-1.23-2.04-1.23l-.53,1.23s1.58.41,3.39.53c1.81.12,3.1-.64,3.1-.64l-1.11-.06.17-.93Z"/>
    <path class="cls-3" d="M78.06,70.64s1.89,2.51,2.1,3.95c.21,1.44.21,3.49.21,3.49l-.92,1.59s1.4-.14,1.78.89c.37,1.03.14,2.77-.23,3.19-.37.42,1.08-.75,1.22-1.69.14-.94.33-2.49.09-3.1-.23-.61-.61-2.67-.61-2.67l-1.26-3.19-2.37-2.46Z"/>
    <path class="cls-3" d="M79.27,79.39s1.38.73,1.88.73.85.08.85.08c0,0-.5.23-1.58,0-1.08-.23-1.42-.46-1.42-.46l.27-.35Z"/>
    <path class="cls-3" d="M78.88,79.82s1.38.73,1.88.73.85.08.85.08c0,0-.5.23-1.58,0-1.08-.23-1.42-.46-1.42-.46l.27-.35Z"/>
    <path class="cls-3" d="M78.45,80.29s1.38.73,1.88.73.85.08.85.08c0,0-.5.23-1.58,0-1.08-.23-1.42-.46-1.42-.46l.27-.35Z"/>
    <path class="cls-3" d="M78.11,80.78s1.57.83,2.14.83.96.09.96.09c0,0-.57.26-1.79,0-1.22-.26-1.62-.53-1.62-.53l.31-.39Z"/>
    <path class="cls-3" d="M77.76,81.31s1.57.83,2.14.83.96.09.96.09c0,0-.57.26-1.79,0-1.22-.26-1.62-.53-1.62-.53l.31-.39Z"/>
    <path class="cls-3" d="M77.42,81.96s1.57.83,2.14.83.96.09.96.09c0,0-.57.26-1.79,0-1.22-.26-1.62-.52-1.62-.52l.31-.39Z"/>
    <path class="cls-3" d="M76.84,82.57s1.57.83,2.14.83.96.09.96.09c0,0-.57.26-1.79,0-1.22-.26-1.62-.52-1.62-.52l.31-.39Z"/>
    <path class="cls-3" d="M75.22,69.13s2.47-.33,3.68.06c1.21.38,2.53,1.15,2.91,2.09.38.93,1.59,5.77,1.59,5.77,0,0-.06-4.78-1.59-6.65-1.54-1.87-1.37-1.32-3.35-1.76-1.98-.44-3.13-.27-3.13-.27l-.11.77Z"/>
    <path class="cls-3" d="M63.69,70.31s3.96,1.1,4.6,6.49c.65,5.39.52,8.7.52,8.7l-5.64-.26s-1.56-7.34-.84-10.13c.71-2.79,1.36-4.81,1.36-4.81Z"/>
    <path class="cls-3" d="M63.24,85.53s5.48.05,6.88.57c1.4.52,3.26,1.14,3.67,2.75.41,1.61.74,3.35,1.02,5.12.06.36.13.65.22.89.17.49,2.66,3.02,1.11,3.15-.22.09-.32-.41-.35.4-.21.55.06,1.71.2,2.78.25,2.01,1.39,5.9,1.37,6.5l-.19-.46c-.12-1.08-.72-6.66-.72-7.74,0-1.2.29-.21.66-1.41.37-1.2-.69-2.28-1.17-2.76-.48-.48-1.52-6.15-1.74-7.11-.22-.96-1.89-2.04-3.18-2.52-1.29-.48-8.17-.7-8.17-.7l.39.55Z"/>
    <path class="cls-3" d="M66.01,89.99s3.81.48,4.15,4.15c.27,2.9.08,10.16-.02,13.08l2.18,1.18c-.07-3.14-1.14-12.41-1.26-13.82-.16-1.76-.72-2.95-1.27-3.59-.56-.64-4.18-1.67-4.18-1.67l.4.67Z"/>
    <path class="cls-3" d="M66.95,89.24s3.66,1.03,4.06,2.28c.41,1.25.63,3.81.66,5.06.03,1.25.15,5.41.15,5.41,0,0,.18-4.64.03-6.71-.16-2.06-.23-4.4-1.15-4.91-.92-.51-1.97-.86-3.75-1.13Z"/>
    <path class="cls-3" d="M64.02,69.85s2.89.75,4.24,3.78c1.35,3.04.98,10.12,1.02,10.77v.73s.56-1.78.42-5.33c-.14-3.55-.19-6.73-1.54-8.04-1.35-1.31-3.36-3.13-3.36-3.13l-.79,1.22Z"/>
    <path class="cls-3" d="M65.14,68.38s2.94,1.36,4.29,4.58c1.35,3.22.98,10.75,1.03,11.44v.86s.56-1.99.42-5.76c-.14-3.76-.19-7.13-1.54-8.52-1.35-1.39-3.36-3.32-3.36-3.32l-.84.72Z"/>
    <path class="cls-3" d="M66.62,67.47s2.9,2.2,4.26,5.42c1.35,3.22.95,10.75,1,11.44l-.05,1.31s.63-2.44.49-6.21c-.14-3.76-.4-7.6-1.76-8.98-1.35-1.39-2.74-3.23-2.74-3.23l-1.2.25Z"/>
    <path class="cls-3" d="M63.6,70.16s1.76-1.46,3.75-1.46,3.31.32,4.04,1.29c.73.97,1.92,4.38,2,8.77.08,4.38-.38,6.92-.38,6.92,0,0,1.31-3.84.92-7.96-.38-4.11-1.31-8.04-2.73-8.88-1.42-.85-1.35-1.46-3.04-1.58-1.69-.12-3.96,1.69-4.23,2.27-.27.58-.33.64-.33.64Z"/>
    <path class="cls-3" d="M69.77,68.02s3.15.8,4.27,4.51c1.12,3.71.96,9.22.56,10.94-.4,1.72-.56,2.24-.56,2.24,0,0,1.52-2.63,1.28-7.22-.24-4.59-.6-8.82-3.39-10.14-2.79-1.32-3.15-1-3.15-1l1,.68Z"/>
    <path class="cls-3" d="M27.28,84.25s2.16,4.82,4.03,5.21c1.87.39,9.05.29,9.05.29l1.27,1.35s-1.02-.33-.97-.04c.04.28.12.33.12.33l-9.01.04s-2.07-.98-3.05-2.93c-.97-1.95-1.43-4.25-1.43-4.25Z"/>
    <polygon class="cls-3" points="49.68 89.87 51.49 89.91 51.53 91.31 49.96 90.51 49.68 89.87"/>
    <path class="cls-3" d="M53.45,90.35s5.09-.16,6.77-.24c1.68-.08,3.45-.32,3.45-.32,0,0,1.44,1.84,3.21,1.84s-11.42.28-11.42.28l-2-1.56Z"/>
    <path class="cls-3" d="M67.19,31.28s-1.4,2.18-1.52,3.35c-.12,1.17.54,3.39,1.71,4.59,1.17,1.21,1.71,1.83,3.89,2.53,2.18.7,2.91.9,2.91.9,0,0-4.12-.55-6.33-2.18-2.21-1.63-2.91-4.01-2.88-5.26.04-1.25.89-3.27.89-3.27l1.32-.66Z"/>
    <path class="cls-3" d="M74.91,42.95s2.94,1.07,3.87,1.21c.92.14,2.94-.03,3.72-.09.78-.06,3.26-.78,3.26-.78l.23-.72s-2.94,1.16-4.99,1.21c-2.05.06-3.55-.06-6.09-.84Z"/>
    <path class="cls-3" d="M64.38,33.27s-.27,3.9.4,5.42c.67,1.52,2.73,2.96,4.12,3.54,1.39.58,3.5,1.17,3.5,1.17l.94.31s-4.89-.81-6.9-2.29c-2.02-1.48-3.09-4.08-2.91-6.5.18-2.42.85-1.66.85-1.66Z"/>
    <path class="cls-3" d="M74.37,44.02s3.48.85,4.79.89c1.31.04,5.89-.82,5.89-.82l-.78.71s-3.48.57-6,.21c-2.52-.36-3.9-.99-3.9-.99Z"/>
    <path class="cls-3" d="M62.31,35.34c-.07.4.64,3.96,1.57,5.03.94,1.07,2.14,2.68,3.75,2.98,1.61.3,4.72,1.48,4.72,1.48,0,0-4.38-.54-5.72-1.34-1.34-.8-2.95-2.31-3.55-3.35-.6-1.04-1.04-2.45-1.04-2.45l.27-2.35Z"/>
    <path class="cls-3" d="M73.73,45.22s3.59.8,4.86.91c1.27.11,4.88-.47,4.88-.47l-1.49,1.02s-2.45.03-4.28-.33c-1.82-.36-3.97-1.13-3.97-1.13Z"/>
    <path class="cls-3" d="M61.37,39.11s2.77,3.92,4.54,4.69c1.77.77,4.59,1.96,5.02,2.06.43.1,1.43.67,1.43.67,0,0-3.2-.62-4.83-1.44-1.62-.81-2.53-1.2-3.49-2.11-.96-.91-2.48-2.58-2.48-2.58,0,0-.14-1.34-.19-1.29Z"/>
    <path class="cls-3" d="M73.45,46.81s3.13.8,4.33.83c1.2.03,3.75-.06,3.75-.06l-1.81.68s-4.02-.19-6.26-1.45Z"/>
    <path class="cls-3" d="M26.84,40.93c0-.38,1.2-1.91,1.3-3.38.11-1.47.43-2.61.98-3.21.54-.6,2.45-2.51,4.02-3,0,0-1.9.22-3.21,1.42-1.3,1.2-2.34,3.7-2.39,4.25-.05.54-.33,1.25-.33,1.25l-.54,1.58.16,1.09Z"/>
    <path class="cls-3" d="M34.07,31.15s2.15-.38,4.33-.41c2.18-.03,3.42,0,4.18.24.77.24,1.3.53,1.3.53,0,0-.94-.77-1.77-.94-.83-.18-5.39-.29-8.04.59Z"/>
    <path class="cls-3" d="M28.55,32.52s-1.05,1.31-1.28,2.3c-.22.99-.29,2.46-.26,3.23l-.48-.51s-.19-2.75,2.01-5.02Z"/>
    <path class="cls-3" d="M26.14,36.94c-.03-.3.1-3.71,2-5.59,0,0-1.07.57-1.64,1.91-.57,1.34-.67,2.78-.67,2.78l.3.9Z"/>
    <path class="cls-3" d="M25.58,35.54c-.03-.3.1-3.71,2-5.59,0,0-1.07.57-1.64,1.91-.57,1.34-.67,2.78-.67,2.78l.3.9Z"/>
    <path class="cls-3" d="M24.85,33.29c.05-.3,1.12-3.54,3.46-4.82,0,0-1.18.25-2.1,1.38-.91,1.13-1.41,2.49-1.41,2.49l.04.95Z"/>
    <path class="cls-3" d="M28.85,30.94s2.53-1.43,4.32-1.73c1.79-.3,3.75-.39,3.75-.39,0,0-3.1,0-4.59.33-1.49.33-3.48,1.79-3.48,1.79Z"/>
    <path class="cls-3" d="M27.98,29.72s2.02-1.01,4.02-1.16c2-.15,4.35-.15,4.7-.12.36.03,1.04.24,1.04.24,0,0-2.35-.45-4.58-.42-2.23.03-3.87.6-5.18,1.46Z"/>
    <path class="cls-3" d="M29.05,28.2s2.45-.72,4.03-.64c1.58.08,3.52.33,4.03.56.51.23,1.4.67,1.4.67,0,0-1.53-1.23-2.68-1.3-1.15-.08-4.67-.54-6.79.72Z"/>
    <path class="cls-3" d="M55.75,37.75s2.31-5.68,3.53-6.57c1.22-.89,4.26-2.23,4.26-2.23,0,0-4.06,1.18-5.52,2.88-1.46,1.7-2.23,4.91-2.64,5.68-.41.77-.32,1.14-.32,1.14l.24.24.45-1.14Z"/>
    <path class="cls-3" d="M54.52,39.38s.92-3.38,1.69-5.53c.77-2.15,2.3-3.33,2.3-3.33,0,0-2.1.97-2.91,3.23-.82,2.25-1.64,5.48-1.64,5.48l.56.15Z"/>
    <path class="cls-3" d="M53.51,38.86s.71-4.07,1.12-5.41c.4-1.34,1.83-2.95,1.83-2.95,0,0-1.83,1.25-2.59,4.07-.76,2.82-1.16,4.07-1.16,4.07l.8.22Z"/>
    <path class="cls-3" d="M54.77,30.62s-1.5,2-1.94,3.34c-.44,1.34-.53,4.56-.53,4.56l-.44-.31s-.5-5.09,2.91-7.59Z"/>
    <path class="cls-3" d="M53.14,30.66s-1.5,2-1.94,3.34c-.29.89-.43,2.6-.49,3.65l-.5-.49c.06-1.64.5-4.73,2.92-6.51Z"/>
    <path class="cls-3" d="M49.83,36.94s-.16-1.97.09-3.06c.25-1.09,1.31-2.87,1.31-2.87,0,0-1.34,1.53-1.72,2.69-.38,1.16-.16,2.78-.16,2.78l.31.41.16.06Z"/>
    <path class="cls-3" d="M49.08,36.34s-.28-2.16-.19-2.91c.09-.75.53-2.12.53-2.12,0,0-.87,1.69-.91,2.66-.03.97.12,2.19.12,2.19l.44.19Z"/>
    <path class="cls-3" d="M69.03,31.14s-1.28,1.88-1.38,2.86c-.1.99.1,2.07.94,2.96.84.89,1.68,1.33,1.68,1.33,0,0-1.87-1.33-1.97-2.32-.1-.99-.64-1.83-.15-2.57.49-.74,1.28-2.37,1.28-2.37l-.39.1Z"/>
    <path class="cls-3" d="M69.88,30.74s-1.28,1.88-1.38,2.86c-.1.99.1,2.07.94,2.96.84.89,1.68,1.33,1.68,1.33,0,0-1.87-1.33-1.97-2.32-.1-.99-.64-1.83-.15-2.57.49-.74,1.28-2.37,1.28-2.37l-.39.1Z"/>
    <path class="cls-3" d="M65.15,28.09s-3.21.23-3.84.56c-.63.33-2.32,1.52-2.32,1.52,0,0,1.87-1.62,2.96-1.95,1.09-.33,2.9-.38,2.9-.38l.3.25Z"/>
    <path class="cls-3" d="M64.01,27.38s-2.83.48-4.44,1.21c-1.62.73-2.93,1.85-2.93,1.85,0,0,2.12-2.05,3.79-2.56,1.67-.51,3.18-.78,3.18-.78l.4.28Z"/>
    <path class="cls-3" d="M62.85,26.63s-3.61.53-4.82,1.11c-1.21.58-2.4,1.64-2.4,1.64,0,0,2-1.62,2.88-2.1.88-.48,3.21-1.04,3.21-1.04l1.14.38Z"/>
    <path class="cls-3" d="M60.33,25.94s-3.66,1.26-4.7,1.82c-1.04.56-1.82,1.72-1.82,1.72,0,0,.76-1.59,2.93-2.5,2.17-.91,2.68-1.01,2.68-1.01l.91-.03Z"/>
    <path class="cls-3" d="M56.89,25.89s-2.6,1.09-2.98,1.57c-.38.48-1.31,1.34-1.31,1.34,0,0,.86-1.37,1.34-1.75.48-.38,1.92-1.09,1.92-1.09l1.04-.08Z"/>
    <path class="cls-3" d="M44.93,30.55s1.11,1.49,1.13,1.99c.02.5-.13,1.49-.13,1.49l1.44,1.07s-.09-.98-.52-1.92c-.12-.26-.26-.88-.5-1.21-.59-.84-1.42-1.42-1.42-1.42Z"/>
    <path class="cls-1" d="M66.47,29.27s-2.18.6-3.12,1.21c-.94.6-2.52,1.54-2.52,1.54,0,0,2.68-1.14,3.62-1.51.94-.37,2.65-.77,2.65-.77l-.64-.47Z"/>
    <path class="cls-1" d="M60.07,33.12s-2.28,3.65-3.01,4.66c-.73,1-.64,1.73-.64,1.73l.55.37s1.69-4.56,2.01-5.2c.32-.64,1.1-1.55,1.1-1.55Z"/>
    <path class="cls-1" d="M87.29,41.8s-.47.87-1.05,1.41c-.58.54-3.51,3.91-3.51,3.91,0,0,2.78-2.36,3.54-3.26.76-.91,1.41-2.03,1.41-2.03l-.4-.04Z"/>
    <path class="cls-1" d="M49.92,51.27l.83-2.23s-.16,1.66-.16,2.13-.1,1.3,0,1.87c.1.57.67,4.1.67,4.1l-.52.36s-.88-4.93-.83-6.22Z"/>
    <polygon class="cls-1" points="51.15 58.98 50.29 65.88 51.11 65.88 51.54 58.94 51.15 58.98"/>
    <path class="cls-3" d="M76.68,81.87s.52-2.42.52-4.48.05-2.99.05-2.99c0,0,.72,4.43-.15,7.11-.88,2.68-.41.36-.41.36Z"/>
    <path class="cls-3" d="M77.56,80.67s.52-2.42.52-4.48.05-2.99.05-2.99c0,0,.72,4.43-.15,7.11-.88,2.68-.41.36-.41.36Z"/>
    <path class="cls-3" d="M78.2,79.89s.52-2.42.52-4.48.05-2.99.05-2.99c0,0,.72,4.43-.15,7.11-.88,2.68-.41.36-.41.36Z"/>
    <path class="cls-3" d="M78.84,79.52s.52-2.42.52-4.48.05-2.99.05-2.99c0,0,.72,4.43-.15,7.11-.88,2.68-.41.36-.41.36Z"/>
    <path class="cls-3" d="M79.73,78.17s.31-1.46.31-2.71.03-1.8.03-1.8c0,0,.44,2.67-.09,4.29-.53,1.62-.25.22-.25.22Z"/>
    <path class="cls-3" d="M51.49,89.66s.27.41.56.34c.29-.07.39-.18.39-.18,0,0-.14.59-.88.29-.73-.3-.38-.47-.38-.47,0,0,.23.02.3.02Z"/>
    <path class="cls-3" d="M51.64,90.1s.27.41.56.34c.29-.07.39-.18.39-.18,0,0-.14.59-.88.29-.74-.3-.38-.47-.38-.47,0,0,.23.02.3.02Z"/>
    <path class="cls-3" d="M51.72,90.46s.27.41.56.34c.29-.07.39-.18.39-.18,0,0-.14.59-.88.29-.74-.3-.38-.47-.38-.47,0,0,.23.02.3.02Z"/>
    <path class="cls-3" d="M51.86,90.9s.27.41.56.34c.29-.07.39-.18.39-.18,0,0-.14.59-.88.29-.73-.31-.38-.47-.38-.47,0,0,.23.02.3.02Z"/>
    <path class="cls-3" d="M52.02,91.32s.27.41.56.34c.29-.07.39-.18.39-.18,0,0-.14.59-.88.29-.73-.3-.38-.47-.38-.47,0,0,.23.02.3.02Z"/>
    <path class="cls-3" d="M45.13,86.21s.36.34.62.2c.26-.14.34-.27.34-.27,0,0,0,.61-.79.48-.79-.13-.48-.37-.48-.37,0,0,.23-.04.3-.05Z"/>
    <path class="cls-3" d="M45.33,86.67s.36.34.62.2c.26-.14.34-.27.34-.27,0,0,0,.61-.79.48-.79-.13-.48-.37-.48-.37,0,0,.23-.04.3-.05Z"/>
    <path class="cls-3" d="M45.43,87.14s.36.34.62.2c.26-.14.34-.27.34-.27,0,0,0,.61-.79.48-.79-.13-.47-.37-.47-.37,0,0,.23-.04.3-.05Z"/>
    <path class="cls-3" d="M45.63,87.71s.36.34.62.2c.26-.14.34-.27.34-.27,0,0,0,.61-.79.48-.79-.13-.48-.37-.48-.37,0,0,.23-.04.3-.05Z"/>
    <path class="cls-3" d="M45.89,88.27s.36.34.62.2c.26-.14.34-.27.34-.27,0,0,0,.61-.79.48-.79-.13-.48-.37-.48-.37,0,0,.23-.04.3-.05Z"/>
    <path class="cls-3" d="M46.2,88.82s.36.34.62.2c.26-.14.34-.27.34-.27,0,0,0,.61-.79.48-.79-.13-.47-.37-.47-.37,0,0,.23-.04.3-.05Z"/>
    <path class="cls-3" d="M46.55,89.36s.43.34.75.2c.32-.14.42-.27.42-.27,0,0,0,.61-.96.48-.96-.13-.58-.37-.58-.37,0,0,.28-.04.37-.05Z"/>
    <path class="cls-3" d="M46.81,89.87s.43.34.75.2c.32-.14.42-.27.42-.27,0,0,0,.61-.96.48-.09-.01-.17-.03-.24-.04-.07-.11-.15-.23-.22-.34.09-.01.2-.03.25-.04Z"/>
    <path class="cls-3" d="M47.04,90.37s.58.38.89.25c.32-.14.42-.27.42-.27,0,0,0,.61-.96.48-.09-.01-.17-.02-.24-.04-.07-.11-.15-.23-.22-.34.09-.01.06-.07.11-.08Z"/>
    <path class="cls-3" d="M41.61,87.54s.57.28.9.1c.33-.18.41-.32.41-.32,0,0,.13.6-.98.6-.13,0-.23,0-.32-.01l-.11-.35s.08-.02.1-.03Z"/>
    <path class="cls-3" d="M41.87,88.18s.57.28.9.1c.33-.18.41-.32.41-.32,0,0,.13.6-.98.6-.12,0-.23,0-.32-.01l-.11-.35s.08-.02.1-.03Z"/>
    <path class="cls-3" d="M42.32,88.79s.57.28.9.1c.33-.17.41-.32.41-.32,0,0,.13.6-.98.6-.13,0-.23,0-.32-.01l-.11-.35s.08-.02.1-.03Z"/>
    <path class="cls-3" d="M42.68,89.31s.57.28.9.1c.33-.17.41-.32.41-.32,0,0,.13.6-.98.6-.13,0-.23,0-.32-.01l-.11-.35s.08-.02.1-.03Z"/>
    <path class="cls-3" d="M43.24,89.93s.57.28.9.1c.33-.18.41-.32.41-.32,0,0,.13.6-.98.6-.12,0-.23,0-.32-.01l-.11-.35s.08-.02.1-.03Z"/>
    <path class="cls-3" d="M43.93,90.52s.57.28.9.1c.33-.18.41-.32.41-.32,0,0-.24.61-.85.61-.62,0-.23-.09-.32-.1l-.24-.27s.08-.02.1-.03Z"/>
    <path class="cls-3" d="M44.7,91.04s.57.28.9.1c.33-.18.41-.32.41-.32,0,0-.36.6-.98.6-.17-.09-.18-.2-.27-.2-.06-.05-.11-.11-.17-.16.04-.01.08-.02.1-.03Z"/>
    <path class="cls-3" d="M82.02,83.97s1.1-1.13,1.33-3.05c.24-1.92,0-3.32,0-3.32,0,0,.44,2.49.18,3.82-.27,1.33-.71,2.22-.71,2.22,0,0-.83.3-.8.33Z"/>
    <path class="cls-3" d="M84.27,81.84s0-3.97-.06-6.22c-.06-2.25-1.01-4.2-1.01-4.2,0,0,1.07,1.72,1.24,3.43.18,1.72.24,4.21.24,4.21l-.41,2.78Z"/>
    <path class="cls-3" d="M82.88,70.74s-1.47-2.02-2.93-2.52c-1.47-.5-3.95-.53-3.95-.53l.5-.58s2.74.36,3.9.97c1.16.61,2.49,2.63,2.49,2.65Z"/>
    <path class="cls-3" d="M85.08,75.81s-.25-3.28-.86-4.39c-.62-1.11-.8-1.67-.8-1.67,0,0,1.3,1.3,1.42,2.1.12.8.62,2.91.62,2.91l-.37,1.05Z"/>
    <path class="cls-3" d="M85.74,74.03s-.21-2.74-.72-3.67c-.52-.93-.67-1.4-.67-1.4,0,0,1.08,1.09,1.19,1.76.1.67.52,2.43.52,2.43l-.31.88Z"/>
    <path class="cls-3" d="M86.3,72.48s-.21-2.74-.72-3.67c-.52-.93-.67-1.4-.67-1.4,0,0,1.08,1.09,1.19,1.76.1.67.52,2.43.52,2.43l-.31.88Z"/>
    <path class="cls-3" d="M87.25,71.21s-.21-2.74-.72-3.67c-.52-.93-.67-1.4-.67-1.4,0,0,1.08,1.09,1.19,1.76.1.67.52,2.43.52,2.43l-.31.88Z"/>
    <path class="cls-3" d="M87.98,70.23s-.12-2.75-.6-3.69c-.49-.95-.62-1.42-.62-1.42,0,0,1.05,1.12,1.13,1.8.08.67.44,2.45.44,2.45l-.34.87Z"/>
    <path class="cls-3" d="M88.94,69.02s-.12-2.43-.6-3.26c-.49-.84-.62-1.25-.62-1.25,0,0,1.05.99,1.13,1.59.08.6.44,2.16.44,2.16l-.34.77Z"/>
    <path class="cls-3" d="M89.58,66.91s-.06-.94-.34-1.61c-.28-.68-.64-1.04-.64-1.04,0,0,1.02.81,1.12,1.42.11.62.17,1,.17,1,0,0-.28.21-.32.23Z"/>
    <path class="cls-3" d="M90.18,66.1s-.05-.74-.27-1.27c-.22-.53-.5-.82-.5-.82,0,0,.8.64.89,1.12.08.49.13.79.13.79,0,0-.22.17-.25.18Z"/>
    <path class="cls-3" d="M90.64,65.38s-.04-.55-.2-.95c-.16-.4-.38-.61-.38-.61,0,0,.6.48.66.84.06.36.1.59.1.59,0,0-.16.13-.19.14Z"/>
    <path class="cls-3" d="M82.77,69.1s-1.38-1.53-2.65-1.87c-1.26-.33-3.19-.39-3.19-.39l.36-.36s3.79-.24,5.48,2.62Z"/>
    <path class="cls-3" d="M83.55,68.25s-1.38-1.53-2.65-1.87c-1.26-.33-3.19-.39-3.19-.39l.36-.36s3.79-.24,5.48,2.62Z"/>
    <path class="cls-3" d="M78.16,65.03s1.99-.21,2.74.09c.75.3,2.14.99,2.14.99,0,0-1.93-1.38-2.71-1.51-.78-.12-1.99-.06-1.99-.06,0,0-.24.45-.18.48Z"/>
    <path class="cls-3" d="M78.52,63.86s1.61-.17,2.22.07c.61.24,1.73.81,1.73.81,0,0-1.56-1.12-2.19-1.22-.63-.1-1.61-.05-1.61-.05,0,0-.2.37-.15.39Z"/>
    <path class="cls-3" d="M79.06,62.68s1.12-.12,1.54.05c.42.17,1.2.56,1.2.56,0,0-1.08-.78-1.52-.85-.44-.07-1.12-.03-1.12-.03,0,0-.14.25-.1.27Z"/>
    <path class="cls-3" d="M79.6,62.02s1.12-.12,1.54.05c.42.17,1.2.56,1.2.56,0,0-1.08-.78-1.52-.85-.44-.07-1.12-.03-1.12-.03,0,0-.14.25-.1.27Z"/>
    <path class="cls-3" d="M82.11,55.01c0-.31,2.33-2.9,3.31-4.03.98-1.14,3.1-2.79,3.1-2.79,0,0-3.1,3.15-3.72,3.98-.62.83-3.36,4.7-3.36,4.7l.67-1.86Z"/>
    <path class="cls-3" d="M93.96,47.24c-.05-.13-1.38-1.08-1.69-1.1-.31-.03-2.66,1.08-2.66,1.08,0,0,1.69-1.46,2.41-1.51.72-.05,1.38.26,1.38.26l.56,1.28Z"/>
    <path class="cls-3" d="M49.31,92.6s1.11.61,1.34.67c.23.05.73.42.73.42,0,0-.9.3-.96.26s-1.11-1.35-1.11-1.35Z"/>
    <path class="cls-3" d="M51.35,91.51s.87.78,1.11.9c.24.12,1.64.61,1.64.61,0,0-1.51-.97-1.63-1.03-.12-.07-.62-.42-.62-.42l-.5-.05Z"/>
    <path class="cls-3" d="M40.48,89.63s.57.28.9.1c.33-.18.41-.32.41-.32,0,0-.36.6-.98.6-.17-.09-.18-.19-.27-.2-.06-.05-.11-.11-.17-.16.04-.01.08-.02.1-.03Z"/>
    <path class="cls-3" d="M40.85,90.1s.57.28.9.1c.33-.18.41-.32.41-.32,0,0-.36.6-.98.6-.17-.09-.18-.19-.27-.2-.06-.05-.11-.11-.17-.16.04-.01.08-.02.1-.03Z"/>
    <path class="cls-3" d="M41.21,90.45s.57.28.9.1.41-.32.41-.32c0,0-.36.6-.98.6-.17-.09-.18-.2-.27-.2-.06-.05-.11-.11-.17-.16.04-.01.08-.02.1-.03Z"/>
    <path class="cls-3" d="M41.69,90.97s.57.28.9.1c.33-.18.41-.32.41-.32,0,0-.36.6-.98.6-.17-.09-.18-.19-.27-.2-.06-.05-.11-.11-.17-.16.04-.01.08-.02.1-.03Z"/>
    <path class="cls-3" d="M42.3,91.43s.57.28.9.1c.33-.18.41-.32.41-.32,0,0-.36.6-.98.6-.17-.09-.18-.19-.27-.2-.06-.05-.11-.11-.17-.16.04-.01.08-.02.1-.03Z"/>
    <path class="cls-3" d="M42.76,91.84s.57.28.9.1c.33-.18.41-.32.41-.32,0,0-.36.6-.98.6-.17-.09-.18-.2-.27-.2-.06-.05-.11-.11-.17-.16.04-.01.08-.02.1-.03Z"/>
    <path class="cls-3" d="M42.64,92.01s1,.61,1.18.64c.18.04.62.2.62.2l-.84-.52-.55-.25-.41-.07Z"/>
    <path class="cls-3" d="M40.86,91.32s.29.27.52.23c.23-.04.31-.11.31-.11,0,0-.33.3-.7.18-.09-.09-.07-.15-.12-.17-.02-.04-.05-.08-.07-.13.03,0,.05,0,.07,0Z"/>
    <path class="cls-3" d="M40.98,91.51s.29.28.52.23c.23-.04.31-.11.31-.11,0,0-.33.3-.7.18-.09-.09-.07-.15-.12-.17-.02-.04-.05-.08-.07-.13.03,0,.05,0,.07,0Z"/>
    <path class="cls-3" d="M41.11,91.88s.36.18.57.07c.21-.11.26-.2.26-.2,0,0-.23.38-.62.37-.11-.06-.11-.12-.17-.13-.04-.03-.07-.07-.11-.1.03,0,.05-.01.07-.02Z"/>
    <path class="cls-3" d="M41.38,92.09s.36.18.57.07c.21-.11.26-.2.26-.2,0,0-.23.38-.62.37-.11-.06-.11-.12-.17-.13-.03-.03-.07-.07-.1-.1.03,0,.05-.01.07-.02Z"/>
    <path class="cls-3" d="M41.65,92.31s.36.18.57.07c.21-.11.26-.2.26-.2,0,0-.23.38-.62.37-.11-.06-.11-.12-.17-.13-.03-.03-.07-.07-.1-.1.03,0,.05-.01.07-.02Z"/>
    <path class="cls-3" d="M42.01,92.47s.36.18.57.07c.21-.11.26-.2.26-.2,0,0-.23.38-.62.37-.11-.06-.11-.12-.17-.13-.03-.03-.07-.07-.1-.1.03,0,.05-.01.07-.02Z"/>
    <path class="cls-3" d="M42.33,92.56s.36.18.57.07c.21-.11.26-.2.26-.2,0,0-.23.38-.62.37-.11-.06-.11-.12-.17-.13-.03-.03-.07-.07-.1-.1.03,0,.05-.01.07-.02Z"/>
    <path class="cls-3" d="M42.68,92.77s.39.1.57-.05c.18-.15.21-.25.21-.25,0,0-.15.42-.53.5-.12-.03-.14-.1-.19-.09-.04-.03-.08-.05-.12-.08.03-.01.05-.02.06-.03Z"/>
    <path class="cls-3" d="M43.11,92.81s.39.1.57-.05c.18-.15.21-.25.21-.25,0,0-.15.42-.53.5-.12-.03-.14-.1-.19-.09-.04-.03-.08-.05-.12-.08.03-.01.05-.02.06-.03Z"/>
    <path class="cls-3" d="M45.84,93.27l-1.97-.68-.31-.26s.94.15,1.23.19c.29.05,1.32.34,1.32.34l.68.65-.95-.24Z"/>
    <path class="cls-3" d="M53.44,93.34l-1.36-1.34s2.44,1.12,2.65,1.12-.02.16-.02.16l-1.28.06Z"/>
    <path class="cls-3" d="M54.53,91.58c.02.12.42.72.38.85-.04.12-.7.7-.7.7l.38.18,2.8-.82,1.15-.56s-3.96-.34-4-.34Z"/>
    <path class="cls-3" d="M48.38,89.16s1.83,1.81,1.93,1.98.42.62.42.62l1.63.4-2.1-1.51-1.88-1.49Z"/>
    <path class="cls-3" d="M47.44,90.96s.19.15.51.12c.32-.03.57-.27.57-.27,0,0-.28.38-.49.41-.21.03-.39,0-.39,0,0,0-.19-.25-.21-.26Z"/>
    <path class="cls-3" d="M45.25,91.46s.19.15.51.12c.32-.03.57-.27.57-.27,0,0-.28.38-.49.41-.21.03-.39,0-.39,0,0,0-.19-.25-.21-.26Z"/>
    <path class="cls-3" d="M73.57,90.96s.75,2.6.79,3.36c.03.76.15,2.09.15,2.09,0,0,.09-2.39-.09-3.12-.18-.73-.97-3.24-.97-3.24l.12.91Z"/>
    <path class="cls-3" d="M32.45,90.05s-3.44-2.92-3.96-6.04c-.52-3.12.39-7.86.39-7.86,0,0-.52,5.85.32,8.25.84,2.4,3.38,5.52,4.48,6.1,1.1.58-1.23-.45-1.23-.45Z"/>
    <path class="cls-3" d="M33.94,90.05s-3.44-2.92-3.96-6.04c-.52-3.12.39-7.86.39-7.86,0,0-.52,5.85.32,8.25.84,2.4,3.38,5.52,4.48,6.1,1.1.58-1.23-.45-1.23-.45Z"/>
    <path class="cls-3" d="M35.62,90.3s-3.44-2.92-3.96-6.04c-.52-3.12.39-7.86.39-7.86,0,0-.52,5.85.32,8.25.84,2.4,3.38,5.52,4.48,6.1,1.1.58-1.23-.45-1.23-.45Z"/>
    <path class="cls-3" d="M37.54,90.67s-3.44-2.92-3.96-6.04c-.52-3.12.39-7.86.39-7.86,0,0-.52,5.85.32,8.25.84,2.4,3.38,5.52,4.48,6.11,1.1.58-1.23-.45-1.23-.45Z"/>
    <path class="cls-3" d="M39.09,90.67s-3.44-2.92-3.96-6.04c-.52-3.12.39-7.86.39-7.86,0,0-.52,5.85.32,8.25.84,2.4,3.38,5.52,4.48,6.11,1.1.58-1.23-.45-1.23-.45Z"/>
    <path class="cls-3" d="M36.76,77.58s-.3,4.21-.14,5.64c.17,1.43,1.73,5.85,3.15,6.9l.61.07s-2-2.38-2.58-4.55c-.58-2.17-1.15-2.92-1.05-8.05Z"/>
    <path class="cls-3" d="M38.18,77.54s-.3,4.21-.14,5.64c.14,1.19,1.24,4.43,2.43,6.1.05-.27.22-.38.4-.4-.6-.89-1.33-2.12-1.64-3.29-.58-2.17-1.15-2.92-1.05-8.05Z"/>
    <path class="cls-3" d="M39.6,77.69s-.31,4.21-.14,5.64c.13,1.1,1.09,4,2.18,5.74l.52.28c.08-.13,0-.3.12-.32-.6-.89-1.33-2.12-1.64-3.29-.58-2.18-1.15-2.92-1.05-8.05Z"/>
    <path class="cls-3" d="M40.77,77.62s-.31,4.21-.14,5.64c.07.61.4,1.77.86,2.98.07-.07.15-.13.2-.16.03-.02.13,0,.26.04-.05-.15-.1-.3-.14-.45-.58-2.17-1.15-2.92-1.05-8.05Z"/>
    <path class="cls-3" d="M42.19,77.86s-.31,4.21-.14,5.64c.07.63.42,1.83.9,3.06.07.03.12.06.15.07.09.04.36.29.62.56-.2-.42-.36-.85-.47-1.28-.58-2.17-1.15-2.92-1.05-8.05Z"/>
    <path class="cls-3" d="M43.82,78.01s-.3,4.21-.14,5.64c.12.99.9,3.41,1.85,5.16h.22l-.66-1.69s-.09-.39-.14-.78c-.03-.09-.06-.19-.08-.28-.58-2.17-1.15-2.92-1.05-8.05Z"/>
    <path class="cls-3" d="M45.26,78.66s-.3,4.21-.14,5.64c.03.29.12.69.26,1.17.21,0,.41.04.41.04,0,0,.09.08.24.21-.47-1.55-.85-2.78-.77-7.06Z"/>
    <path class="cls-3" d="M46.89,79.9s-.31,4.21-.14,5.64c.04.31.14.76.29,1.28.05.06.1.13.15.2.26.35.54.74.79,1.1-.02-.05-.03-.11-.05-.16-.58-2.17-1.15-2.92-1.05-8.05Z"/>
    <path class="cls-3" d="M48.14,80.36s-.3,4.21-.14,5.64c.08.67.47,2,1,3.33.25.19.6.44.76.57-.24-.49-.45-1-.58-1.49-.58-2.17-1.15-2.92-1.05-8.05Z"/>
    <path class="cls-3" d="M49.51,80.49s-.31,4.21-.14,5.64c.1.83.67,2.67,1.41,4.27.21.08.38.15.38.15,0,0,0-.24,0-.49-.25-.5-.46-1.01-.59-1.52-.58-2.18-1.15-2.92-1.05-8.05h0ZM51.91,92.06l.17.09c.03-.05.04-.11.04-.17l-.21.08Z"/>
    <path class="cls-3" d="M51.15,79.9s-.31,4.21-.14,5.64c.08.69.49,2.08,1.05,3.45.21.14.54.42.54.42l.32.32c-.3-.57-.57-1.19-.73-1.78-.58-2.17-1.15-2.92-1.05-8.05h0ZM53.52,91.46l.19.1c.04-.06.04-.13.04-.19l-.23.09Z"/>
    <path class="cls-3" d="M52.13,80.04s-.31,4.21-.14,5.64c.13,1.1,1.09,4,2.18,5.74l.52.28c.08-.13,0-.3.12-.32-.6-.89-1.33-2.12-1.64-3.29-.58-2.17-1.15-2.92-1.05-8.05Z"/>
    <path class="cls-3" d="M53.9,80.04s-.31,4.21-.14,5.64c.13,1.1,1.09,4,2.18,5.74l.52.28c.08-.13,0-.3.12-.32-.6-.89-1.33-2.12-1.64-3.29-.58-2.17-1.15-2.92-1.05-8.05Z"/>
    <path class="cls-3" d="M55.07,80.04s-.31,4.21-.14,5.64c.13,1.1,1.09,4,2.18,5.74l.52.28c.08-.13,0-.3.12-.32-.6-.89-1.33-2.12-1.64-3.29-.58-2.17-1.15-2.92-1.05-8.05Z"/>
    <path class="cls-3" d="M56.19,80.1s-.31,4.21-.14,5.64c.13,1.1,1.09,4,2.18,5.74l.52.28c.08-.13,0-.3.12-.32-.6-.89-1.33-2.12-1.64-3.29-.58-2.18-1.15-2.92-1.05-8.05Z"/>
    <path class="cls-3" d="M58.15,80.43s-.3,4.21-.14,5.64c.13,1.1,1.09,4,2.18,5.74l.52.28c.08-.13,0-.3.12-.32-.6-.89-1.33-2.12-1.64-3.29-.58-2.17-1.15-2.92-1.05-8.05Z"/>
    <path class="cls-3" d="M59.52,80.99s-.31,4.06-.14,5.43c.12.98.95,3.43,1.93,5.12.14-.03.37-.04.6-.05-.53-.8-1.08-1.79-1.34-2.74-.58-2.09-1.15-2.81-1.05-7.75Z"/>
    <path class="cls-3" d="M60.25,81.18s.37,4,.76,5.32c.3,1.02,1.72,3.59,3.07,5.06l.56.19c.06-.13-.05-.28.07-.32-.74-.74-1.65-1.79-2.14-2.84-.92-1.95-1.6-2.57-2.32-7.4Z"/>
    <path class="cls-3" d="M62.02,90.75s-.58-1.7-1.06-2.95c-.48-1.25-.83-2.05-.87-3.27-.03-1.22-.19-2.37-.19-2.37,0,0,.51,4.26,1.64,6.45,1.12,2.18,1.19,2.21,1.19,2.21l-.71-.06Z"/>
    <path class="cls-3" d="M63.61,54.54s-1.08,1-1.45,2.03c-.37,1.03-.63,4.32-.63,4.32,0,0,.14-3.44.43-4.3.29-.86,1.35-2.15,1.35-2.15l.31.1Z"/>
    <path class="cls-3" d="M61.47,61.53l-.87,16.74s.19-7.75.25-9.25c.06-1.49.61-7.49.61-7.49Z"/>
    <polygon class="cls-3" points="73.54 57.47 74.62 68.95 73.71 57.03 73.54 57.47"/>
    <path class="cls-3" d="M35.19,66.95s-3.04,2.18-3.85,3.7c-.81,1.52-.96,2.03-.96,2.03,0,0,1.27-2.28,2.73-3.4,1.47-1.11,2.78-2.18,2.78-2.18l-.71-.15Z"/>
    <path class="cls-3" d="M36.96,66.8s-3.04,2.18-3.85,3.7c-.81,1.52-.96,2.03-.96,2.03,0,0,1.27-2.28,2.73-3.4,1.47-1.12,2.78-2.18,2.78-2.18l-.71-.15Z"/>
    <path class="cls-3" d="M38.79,66.95s-3.04,2.18-3.85,3.7c-.81,1.52-.96,2.03-.96,2.03,0,0,1.27-2.28,2.73-3.4,1.47-1.11,2.78-2.18,2.78-2.18l-.71-.15Z"/>
    <path class="cls-3" d="M41.27,66.7s-3.04,2.18-3.85,3.7c-.81,1.52-.96,2.03-.96,2.03,0,0,1.27-2.28,2.73-3.4,1.47-1.11,2.78-2.18,2.78-2.18l-.71-.15Z"/>
    <path class="cls-3" d="M42.87,66.79s-2.58,1.85-3.27,3.14c-.69,1.29-.82,1.72-.82,1.72,0,0,1.07-1.94,2.32-2.88,1.25-.95,2.36-1.85,2.36-1.85l-.6-.13Z"/>
    <path class="cls-3" d="M44.26,66.79s-2.58,1.85-3.27,3.14c-.69,1.29-.82,1.72-.82,1.72,0,0,1.07-1.94,2.32-2.88,1.25-.95,2.36-1.85,2.36-1.85l-.6-.13Z"/>
    <path class="cls-3" d="M46.43,66.7s-2.58,2.09-3.27,3.55c-.69,1.46-.82,1.94-.82,1.94,0,0,1.07-2.19,2.32-3.25,1.25-1.07,2.36-2.09,2.36-2.09l-.6-.15Z"/>
    <path class="cls-3" d="M47.87,66.84s-2.58,2.09-3.27,3.55c-.69,1.46-.82,1.94-.82,1.94,0,0,1.07-2.19,2.32-3.25,1.25-1.07,2.36-2.09,2.36-2.09l-.6-.15Z"/>
    <path class="cls-3" d="M49.22,66.79s-2.58,2.09-3.27,3.55c-.69,1.46-.82,1.94-.82,1.94,0,0,1.07-2.19,2.32-3.26,1.25-1.07,2.36-2.09,2.36-2.09l-.6-.15Z"/>
    <path class="cls-3" d="M50.86,66.79s-2.58,2.09-3.27,3.55c-.69,1.46-.82,1.94-.82,1.94,0,0,1.07-2.19,2.32-3.26,1.25-1.07,2.36-2.09,2.36-2.09l-.6-.15Z"/>
    <path class="cls-3" d="M52.16,66.84s-2.58,2.09-3.27,3.55c-.69,1.46-.82,1.94-.82,1.94,0,0,1.07-2.19,2.32-3.25,1.25-1.07,2.36-2.09,2.36-2.09l-.6-.15Z"/>
    <path class="cls-3" d="M53.55,66.74s-2.58,2.09-3.27,3.55c-.69,1.46-.82,1.94-.82,1.94,0,0,1.07-2.19,2.32-3.25,1.25-1.07,2.36-2.09,2.36-2.09l-.6-.15Z"/>
    <path class="cls-3" d="M56.01,66.55s-2.58,2.09-3.27,3.55c-.69,1.46-.82,1.94-.82,1.94,0,0,1.07-2.19,2.32-3.25,1.25-1.07,2.36-2.09,2.36-2.09l-.6-.15Z"/>
    <path class="cls-3" d="M57.26,66.6s-2.58,2.09-3.27,3.55c-.69,1.46-.82,1.94-.82,1.94,0,0,1.07-2.19,2.32-3.26,1.25-1.07,2.36-2.09,2.36-2.09l-.6-.15Z"/>
    <path class="cls-3" d="M58.7,66.7s-2.58,2.09-3.27,3.55c-.69,1.46-.82,1.94-.82,1.94,0,0,1.07-2.19,2.32-3.25,1.25-1.07,2.36-2.09,2.36-2.09l-.6-.15Z"/>
    <path class="cls-3" d="M59.28,67.49c-.81.74-1.93,1.87-2.35,2.75-.69,1.46-.82,1.94-.82,1.94,0,0,1.07-2.19,2.32-3.25.3-.26.6-.52.88-.76l-.03-.68Z"/>
    <path class="cls-3" d="M65.38,67.05s-1.6.63-2.15,1.49c-.56.86-1.67,2.83-1.67,2.83,0,0,.74-2.57,1.37-3.2.63-.63,1.26-1.26,1.49-1.26s.97.15.97.15Z"/>
    <path class="cls-3" d="M55.03,79.62s-.1-2.78,0-3.68c.1-.9.63-2.51.63-2.51,0,0-.33,2.47-.33,3.31s-.3,2.91-.3,2.88Z"/>
    <path class="cls-3" d="M53.95,79.48s-.1-2.78,0-3.68c.1-.9.63-2.51.63-2.51,0,0-.33,2.47-.33,3.31s-.3,2.91-.3,2.88Z"/>
    <path class="cls-3" d="M57.81,79.16s-.1-2.78,0-3.68c.1-.9.63-2.51.63-2.51,0,0-.33,2.48-.33,3.31s-.3,2.91-.3,2.88Z"/>
    <path class="cls-3" d="M45.36,78.34s.09-2.43.25-3.21c.16-.78.8-2.14.8-2.14,0,0-.5,2.13-.56,2.86-.06.73-.5,2.51-.5,2.49Z"/>
    <path class="cls-3" d="M80.1,84.28s-.76,4.09-.3,6.51c.38,2.02,6.38,11.87,8.53,15.45l-10.97,2.16v-.72l-1.1-7.99s.39-1.65.41-2.04c.03-.39.62-.39.05-.84-.58-.45-.78-.68-1.12-1.44-.34-.76-1.75-6.66-1.75-6.66,0,0,1.58-2.64,1.73-3.58.15-.94.64-1.57.64-1.57,0,0,1.42.82,3.88.73Z"/>
    <path class="cls-3" d="M48.02,94.01l2.45,18.97,20.47-5.75-.14-12.64s-.64-3.37-1.65-3.37-9.39.5-9.39.5l-3.15.5s-3.58,1.79-5.88,1.86c-2.29.07-1.43-.43-1.43-.43l-1.29.36Z"/>
    <path class="cls-3" d="M74.31,19.15s.33.94.33,1.27.06,1.22-.22,1.44c-.28.22-.22.61-.33.94-.11.33-.33,1-.33,1,0,0-.28.33,0,1.05.28.72.33,1.71.33,1.71l-1.16-1.71-.5,2.21-.55-1.49s-.5,1.27-.55,1c-.06-.28.77-2.71.77-2.71l1.22-1.77s1-2.88,1-2.93Z"/>
    <path class="cls-3" d="M92.96,60.97s.12-2.1-.31-2.84c-.43-.74-1.11-2.34-1.11-2.34,0,0,1.16,1.59,1.52,2.6.36,1.01.13,1.94.13,1.94l-.23.65Z"/>
    <path class="cls-3" d="M93.34,60.12s.12-2.1-.31-2.84c-.43-.74-1.11-2.34-1.11-2.34,0,0,1.16,1.59,1.52,2.6.36,1.01.13,1.94.13,1.94l-.23.65Z"/>
    <path class="cls-3" d="M93.56,58.73s.12-2.1-.31-2.84c-.43-.74-1.11-2.34-1.11-2.34,0,0,1.15,1.59,1.52,2.6.36,1.01.13,1.94.13,1.94l-.23.65Z"/>
    <path class="cls-3" d="M94.14,56.76s-.04-2.1-.53-2.8c-.49-.7-1.29-2.25-1.29-2.25,0,0,1.28,1.49,1.72,2.47.44.98.28,1.92.28,1.92l-.18.66Z"/>
    <path class="cls-3" d="M92.74,61.66s-.04-2.1-.53-2.8c-.49-.7-1.29-2.25-1.29-2.25,0,0,1.28,1.49,1.72,2.47.44.98.28,1.92.28,1.92l-.18.66Z"/>
    <path class="cls-3" d="M92.16,63.03s.24-1.74-.16-2.32c-.4-.58-.99-1.86-.99-1.86,0,0,1.08,1.23,1.39,2.04.31.81.03,1.59.03,1.59l-.27.55Z"/>
    <path class="cls-3" d="M91.7,63.58s.2-1.47-.13-1.96c-.33-.49-.84-1.57-.84-1.57,0,0,.91,1.04,1.18,1.72.26.68.02,1.34.02,1.34l-.23.46Z"/>
    <path class="cls-3" d="M91.4,64.09s.16-1.17-.11-1.56c-.27-.39-.67-1.25-.67-1.25,0,0,.73.83.94,1.37.21.54.02,1.07.02,1.07l-.18.37Z"/>
    <path class="cls-3" d="M90.92,64.95s.16-1.17-.11-1.56c-.27-.39-.67-1.25-.67-1.25,0,0,.72.83.94,1.37.21.54.02,1.07.02,1.07l-.18.37Z"/>
    <path class="cls-3" d="M94.4,54.62s-.04-2.1-.53-2.8c-.49-.7-1.29-2.25-1.29-2.25,0,0,1.28,1.49,1.72,2.47.44.98.28,1.92.28,1.92l-.18.66Z"/>
    <path class="cls-3" d="M80.41,60.97s1.46-.16,2.02.07c.55.22,1.57.73,1.57.73,0,0-1.42-1.02-2-1.11-.58-.09-1.46-.04-1.46-.04,0,0-.18.33-.13.36Z"/>
    <path class="cls-3" d="M80.56,60.31s1.46-.16,2.02.07c.55.22,1.57.73,1.57.73,0,0-1.42-1.02-2-1.11-.58-.09-1.46-.04-1.46-.04,0,0-.18.33-.13.36Z"/>
    <path class="cls-3" d="M80.87,59.6s1.46-.16,2.02.07c.55.22,1.57.73,1.57.73,0,0-1.42-1.02-2-1.11-.58-.09-1.46-.04-1.46-.04,0,0-.18.33-.13.36Z"/>
    <path class="cls-3" d="M81.56,57.48s1.84-.55,2.6-.4c.76.15,2.19.56,2.19.56,0,0-2.06-.97-2.82-.94-.76.03-1.89.29-1.89.29,0,0-.15.47-.09.49Z"/>
    <path class="cls-3" d="M81.71,56.77s1.84-.55,2.6-.4c.76.15,2.19.56,2.19.56,0,0-2.06-.97-2.82-.94-.76.03-1.89.29-1.89.29,0,0-.15.47-.09.49Z"/>
    <path class="cls-3" d="M81.97,55.76s1.84-.55,2.6-.4c.76.15,2.19.56,2.19.56,0,0-2.06-.97-2.82-.94-.76.03-1.89.3-1.89.3,0,0-.15.47-.09.49Z"/>
    <path class="cls-3" d="M82.27,54.85s1.84-.55,2.6-.4c.76.15,2.19.56,2.19.56,0,0-2.06-.97-2.82-.94-.76.03-1.89.29-1.89.29,0,0-.15.47-.09.49Z"/>
    <path class="cls-3" d="M80.81,58.59s1.84-.55,2.6-.4c.76.15,2.19.56,2.19.56,0,0-2.06-.97-2.82-.94-.76.03-1.89.3-1.89.3,0,0-.15.47-.09.49Z"/>
    <path class="cls-3" d="M85.54,65.8s-1.02-1.07-1.61-1.47c-.59-.4-1.61-.85-1.61-.85,0,0,1.57.52,2.14.97.57.45,1.09,1.35,1.09,1.35Z"/>
    <path class="cls-3" d="M85.83,64.95s-1.02-1.07-1.61-1.47c-.59-.4-1.61-.85-1.61-.85,0,0,1.57.52,2.14.97.57.45,1.09,1.35,1.09,1.35Z"/>
    <path class="cls-3" d="M87.35,64.17s-.83-1.22-1.35-1.71c-.52-.49-1.45-1.1-1.45-1.1,0,0,1.46.77,1.95,1.31.49.54.86,1.51.86,1.51Z"/>
    <path class="cls-3" d="M89.64,60.68s-.83-1.22-1.35-1.71c-.52-.49-1.45-1.1-1.45-1.1,0,0,1.46.77,1.95,1.31.49.54.86,1.51.86,1.51Z"/>
    <path class="cls-3" d="M90.75,56.53s-.83-1.22-1.35-1.71c-.52-.49-1.45-1.1-1.45-1.1,0,0,1.46.77,1.95,1.31.49.54.86,1.51.86,1.51Z"/>
    <path class="cls-3" d="M91.19,55.6s-.83-1.22-1.35-1.71c-.52-.49-1.45-1.1-1.45-1.1,0,0,1.46.77,1.95,1.31.49.54.86,1.51.86,1.51Z"/>
    <path class="cls-3" d="M92.02,53.3s-.83-1.22-1.35-1.71c-.52-.49-1.45-1.1-1.45-1.1,0,0,1.46.77,1.95,1.31.49.54.86,1.51.86,1.51Z"/>
    <path class="cls-3" d="M92.29,51.49s-.83-1.22-1.35-1.71-1.45-1.1-1.45-1.1c0,0,1.46.77,1.95,1.31.49.54.86,1.51.86,1.51Z"/>
    <path class="cls-3" d="M94.72,52.17s-.43-1.41-.78-2.04c-.35-.63-1.06-1.49-1.06-1.49,0,0,1.17,1.17,1.47,1.83.31.66.37,1.7.37,1.7Z"/>
    <path class="cls-3" d="M75.7,97.67s-.24-.25-.4-.6c-.17-.35-.47-1.32-.47-1.32,0,0,.31,1.32.42,1.69.12.37.28.44.28.44l.02.41.21-.42.19-.05h.3s-.54-.16-.54-.16Z"/>
    <path class="cls-3" d="M73.03,37.31l.64-6.74s-.06,7.12.19,7.55c.24.43-.43.48-.43.48,0,0-.52-1.23-.4-1.29Z"/>
    <path class="cls-3" d="M77.89,39.17s.95.54,1.65.81c.71.28,2.79,1.23,2.79,1.23,0,0-3.09-1.02-3.52-1.24-.43-.22-.93-.79-.93-.79Z"/>
    <path class="cls-3" d="M33.3,33.58s-.11,1.47.65,2.84c.76,1.36,3.7,3.55,4.85,4.47,1.14.93,6.7,3.55,6.7,3.55l3.54,1.96s-9.91-4.15-12.86-6.33c-2.94-2.18-4.25-3.17-4.25-3.17l-.44-1.15.65-1.8,1.14-.38Z"/>
    <path class="cls-3" d="M33.75,37.2s-.47-2.66.44-3.61c.91-.95,3.58-1.17,3.58-1.17,0,0-2.48.44-3.25,1.46-.77,1.02-.58,3.28-.18,3.98l-.36-.15-.22-.51Z"/>
    <path class="cls-3" d="M34.37,37.71s-.47-2.66.44-3.61c.91-.95,3.58-1.17,3.58-1.17,0,0-2.48.44-3.25,1.46-.77,1.02-.58,3.28-.18,3.98l-.36-.15-.22-.51Z"/>
    <path class="cls-3" d="M34.95,38.25s-.47-2.66.44-3.61c.91-.95,3.58-1.17,3.58-1.17,0,0-2.48.44-3.25,1.46-.77,1.02-.58,3.28-.18,3.98l-.36-.15-.22-.51Z"/>
    <path class="cls-3" d="M35.61,38.91s-.47-2.66.44-3.61c.91-.95,3.58-1.17,3.58-1.17,0,0-2.48.44-3.25,1.46-.77,1.02-.58,3.28-.18,3.98l-.36-.15-.22-.51Z"/>
    <path class="cls-3" d="M36.41,39.7s-.61-2.63.25-3.63c.86-.99,3.51-1.35,3.51-1.35,0,0-2.45.57-3.17,1.63-.71,1.06-.41,3.31.03,3.98l-.37-.13-.25-.5Z"/>
    <path class="cls-3" d="M37.14,40.1s-.61-2.63.25-3.63c.86-.99,3.51-1.35,3.51-1.35,0,0-2.45.57-3.17,1.63-.71,1.06-.41,3.31.03,3.98l-.37-.13-.25-.5Z"/>
    <path class="cls-3" d="M38.01,40.61s-.61-2.63.25-3.63c.86-1,3.51-1.35,3.51-1.35,0,0-2.45.57-3.17,1.63-.71,1.06-.41,3.31.03,3.98l-.37-.13-.25-.5Z"/>
    <path class="cls-3" d="M38.81,41.15s-.28-2.35.46-3.1c.74-.74,2.35-1.43,2.35-1.43,0,0-1.86,1.05-2.2,2.14-.34,1.08.06,2.88.06,2.88l-.68-.5Z"/>
    <path class="cls-3" d="M39.99,42.08s-.28-2.35.46-3.1c.74-.74,2.35-1.43,2.35-1.43,0,0-1.86,1.05-2.2,2.14-.34,1.08.06,2.88.06,2.88l-.68-.5Z"/>
    <path class="cls-3" d="M41.26,42.6s-.45-1.98-.07-2.73c.38-.76,1.31-1.6,1.31-1.6,0,0-1.05,1.2-1.13,2.19-.09.99.38,2.46.38,2.46l-.49-.32Z"/>
    <path class="cls-3" d="M42.17,43.25s-.45-1.98-.07-2.73c.38-.76,1.32-1.6,1.32-1.6,0,0-1.05,1.2-1.13,2.19-.09.99.38,2.46.38,2.46l-.49-.32Z"/>
    <path class="cls-3" d="M43.18,43.96s-.45-1.98-.07-2.73c.38-.76,1.31-1.6,1.31-1.6,0,0-1.05,1.2-1.13,2.19-.09.99.38,2.46.38,2.46l-.49-.32Z"/>
    <path class="cls-3" d="M44.09,44.26s-.45-1.98-.07-2.73c.38-.76,1.32-1.6,1.32-1.6,0,0-1.05,1.2-1.13,2.19-.09.99.38,2.46.38,2.46l-.49-.32Z"/>
    <path class="cls-3" d="M44.8,44.77s-.45-1.98-.07-2.73c.38-.76,1.32-1.6,1.32-1.6,0,0-1.05,1.2-1.13,2.19-.09.99.38,2.46.38,2.46l-.49-.32Z"/>
    <path class="cls-3" d="M45.73,45.06s-.39-1.72-.06-2.38c.33-.66,1.14-1.39,1.14-1.39,0,0-.91,1.05-.99,1.9s.33,2.14.33,2.14l-.42-.27Z"/>
    <path class="cls-3" d="M46.49,45.37s-.39-1.72-.06-2.38c.33-.66,1.14-1.39,1.14-1.39,0,0-.91,1.05-.99,1.9-.08.86.33,2.14.33,2.14l-.42-.28Z"/>
    <path class="cls-3" d="M47.2,45.82s-.39-1.72-.06-2.38c.33-.66,1.14-1.39,1.14-1.39,0,0-.91,1.05-.99,1.9-.08.86.33,2.14.33,2.14l-.42-.28Z"/>
    <path class="cls-3" d="M48,46.28s-.39-1.72-.06-2.38c.33-.66,1.14-1.39,1.14-1.39,0,0-.91,1.04-.98,1.9-.08.86.33,2.14.33,2.14l-.42-.28Z"/>
    <path class="cls-3" d="M48.83,46.56s-.39-1.72-.06-2.38c.33-.66,1.14-1.39,1.14-1.39,0,0-.91,1.05-.99,1.9-.08.86.33,2.14.33,2.14l-.42-.27Z"/>
    <path class="cls-3" d="M49.68,46.94s-.36-1.56-.06-2.16c.3-.6,1.04-1.26,1.04-1.26,0,0-.83.95-.89,1.73-.07.78.3,1.94.3,1.94l-.38-.25Z"/>
    <path class="cls-3" d="M50.37,47.24s-.36-1.56-.06-2.16c.3-.6,1.04-1.26,1.04-1.26,0,0-.83.95-.89,1.73-.07.78.3,1.94.3,1.94l-.38-.25Z"/>
    <path class="cls-3" d="M51.25,47.54s-.36-1.56-.06-2.16c.3-.6,1.04-1.26,1.04-1.26,0,0-.83.95-.89,1.73-.07.78.3,1.94.3,1.94l-.38-.25Z"/>
    <path class="cls-3" d="M51.96,48.11s-.32-1.41-.05-1.95c.27-.54.94-1.14.94-1.14,0,0-.75.86-.81,1.56-.06.7.27,1.76.27,1.76l-.35-.23Z"/>
    <path class="cls-3" d="M52.59,48.25s-.32-1.41-.05-1.95c.27-.54.94-1.14.94-1.14,0,0-.75.86-.81,1.56-.06.7.27,1.76.27,1.76l-.35-.23Z"/>
    <path class="cls-3" d="M53.25,48.59s-.32-1.41-.05-1.95c.27-.54.94-1.14.94-1.14,0,0-.75.86-.81,1.56-.06.7.27,1.76.27,1.76l-.35-.23Z"/>
    <path class="cls-3" d="M53.85,48.76s-.32-1.41-.05-1.95c.27-.54.94-1.14.94-1.14,0,0-.75.86-.81,1.56-.06.7.27,1.76.27,1.76l-.35-.23Z"/>
    <path class="cls-3" d="M54.45,49.1s-.32-1.41-.05-1.95c.27-.54.94-1.14.94-1.14,0,0-.75.86-.81,1.56-.06.7.27,1.76.27,1.76l-.35-.23Z"/>
    <path class="cls-3" d="M55.09,49.49s-.32-1.41-.05-1.95c.27-.54.94-1.14.94-1.14,0,0-.75.86-.81,1.56-.06.7.27,1.76.27,1.76l-.35-.23Z"/>
    <path class="cls-3" d="M55.65,49.75s-.32-1.41-.05-1.95c.27-.54.94-1.14.94-1.14,0,0-.75.86-.81,1.56-.06.7.27,1.76.27,1.76l-.35-.23Z"/>
    <path class="cls-3" d="M56.38,50.05s-.32-1.41-.05-1.95c.27-.54.94-1.14.94-1.14,0,0-.75.86-.81,1.56-.06.7.27,1.76.27,1.76l-.35-.23Z"/>
    <path class="cls-3" d="M56.88,50.21s-.32-1.41-.05-1.95c.27-.54.94-1.14.94-1.14,0,0-.75.86-.81,1.56-.06.7.27,1.76.27,1.76l-.35-.23Z"/>
    <path class="cls-3" d="M57.44,50.55s-.32-1.41-.05-1.95c.27-.54.94-1.14.94-1.14,0,0-.75.86-.81,1.56-.06.7.27,1.76.27,1.76l-.35-.23Z"/>
    <path class="cls-3" d="M58,50.85s-.32-1.41-.05-1.95c.27-.54.94-1.14.94-1.14,0,0-.75.86-.81,1.56-.06.7.27,1.76.27,1.76l-.35-.23Z"/>
    <path class="cls-3" d="M58.45,51.15s-.32-1.41-.05-1.95c.27-.54.94-1.14.94-1.14,0,0-.75.86-.81,1.56-.06.7.27,1.76.27,1.76l-.35-.23Z"/>
    <path class="cls-3" d="M58.95,51.45s-.32-1.41-.05-1.95c.27-.54.94-1.14.94-1.14,0,0-.75.86-.81,1.56-.06.7.27,1.76.27,1.76l-.35-.23Z"/>
    <path class="cls-3" d="M59.44,51.69s-.32-1.41-.05-1.95c.27-.54.94-1.14.94-1.14,0,0-.75.86-.81,1.56-.06.7.27,1.76.27,1.76l-.35-.23Z"/>
    <path class="cls-3" d="M60.18,52.05s-.32-1.41-.05-1.95c.27-.54.94-1.14.94-1.14,0,0-.75.86-.81,1.56-.06.7.27,1.76.27,1.76l-.35-.23Z"/>
    <path class="cls-3" d="M60.74,52.25s-.32-1.41-.05-1.95c.27-.54.94-1.14.94-1.14,0,0-.75.86-.81,1.56-.06.7.27,1.76.27,1.76l-.35-.23Z"/>
    <path class="cls-3" d="M60.7,52.44s0-1.45.38-1.91c.38-.47,1.17-.91,1.17-.91,0,0-.92.67-1.13,1.34-.22.67-.12,1.77-.12,1.77l-.29-.3Z"/>
    <path class="cls-3" d="M60.85,52.94s0-1.45.38-1.91c.38-.47,1.17-.91,1.17-.91,0,0-.92.67-1.13,1.34-.22.67-.12,1.77-.12,1.77l-.29-.3Z"/>
    <path class="cls-3" d="M60.94,53.33s0-1.45.38-1.91c.38-.47,1.16-.91,1.16-.91,0,0-.92.67-1.13,1.34-.21.67-.12,1.77-.12,1.77l-.29-.3Z"/>
    <path class="cls-3" d="M61.07,53.74s0-1.45.38-1.91c.38-.47,1.17-.91,1.17-.91,0,0-.92.67-1.13,1.34-.22.67-.12,1.77-.12,1.77l-.29-.3Z"/>
    <path class="cls-3" d="M61.12,54.08s0-1.45.38-1.91c.38-.47,1.17-.91,1.17-.91,0,0-.92.67-1.13,1.34-.22.67-.12,1.77-.12,1.77l-.29-.3Z"/>
    <path class="cls-3" d="M61.24,54.42s0-1.45.38-1.91c.38-.47,1.17-.91,1.17-.91,0,0-.92.67-1.13,1.34-.22.67-.12,1.77-.12,1.77l-.29-.3Z"/>
    <path class="cls-3" d="M61.57,54.27s0-1.19.31-1.58c.32-.38.96-.75.96-.75,0,0-.76.55-.93,1.11-.18.56-.1,1.46-.1,1.46l-.24-.24Z"/>
    <path class="cls-3" d="M61.89,53.99c.03-.38.1-.91.29-1.14.32-.39.96-.75.96-.75,0,0-.76.55-.93,1.11-.08.25-.11.58-.12.86-.07-.03-.14-.05-.21-.08Z"/>
    <path class="cls-3" d="M62.26,54.13c.01-.34.07-1.12.31-1.41.32-.38.96-.75.96-.75,0,0-.76.55-.93,1.11-.11.34-.12.81-.12,1.12-.07-.02-.15-.04-.22-.07Z"/>
    <path class="cls-3" d="M62.69,54.22c.01-.33.06-1.08.27-1.36.27-.37.82-.72.82-.72,0,0-.65.53-.8,1.07-.09.33-.1.78-.1,1.08-.06-.02-.13-.04-.19-.07Z"/>
    <path class="cls-3" d="M63.21,54.32c0-.29.05-.97.22-1.22.22-.33.68-.65.68-.65,0,0-.53.48-.66.96-.08.29-.09.7-.08.97-.05-.02-.1-.04-.16-.06Z"/>
    <path class="cls-3" d="M63.6,54.48c0-.29.05-.97.22-1.22.22-.33.68-.65.68-.65,0,0-.53.48-.66.96-.08.29-.09.7-.08.97-.05-.02-.1-.04-.16-.06Z"/>
    <path class="cls-3" d="M65.65,57.08s.75.62,1.28.64c.53.02,1.13-.15,1.13-.15,0,0-1.26.02-1.56-.28-.3-.3-.79-.73-.79-.73l-.06.51Z"/>
    <path class="cls-3" d="M65.63,56.59s.75.62,1.28.64c.53.02,1.13-.15,1.13-.15,0,0-1.26.02-1.56-.28-.3-.3-.79-.73-.79-.73l-.06.51Z"/>
    <path class="cls-3" d="M65.72,56.1s.75.62,1.28.64c.53.02,1.13-.15,1.13-.15,0,0-1.26.02-1.56-.28-.3-.3-.79-.73-.79-.73l-.06.51Z"/>
    <path class="cls-3" d="M65.8,55.51s.61.5,1.04.52c.43.02.92-.12.92-.12,0,0-1.02.02-1.27-.23s-.64-.59-.64-.59l-.05.42Z"/>
    <path class="cls-3" d="M65.78,54.88s.52.43.89.45.79-.1.79-.1c0,0-.88.01-1.09-.19-.21-.21-.55-.51-.55-.51l-.04.36Z"/>
    <path class="cls-3" d="M68.62,57.96s.87.43,1.39.33c.52-.1,1.06-.41,1.06-.41,0,0-1.22.31-1.58.09-.36-.22-.94-.52-.94-.52l.06.51Z"/>
    <path class="cls-3" d="M68.64,57.55s.87.43,1.39.33c.52-.1,1.06-.41,1.06-.41,0,0-1.22.31-1.58.09-.36-.22-.94-.52-.94-.52l.06.51Z"/>
    <path class="cls-3" d="M68.64,57.04s.87.43,1.39.33c.52-.1,1.06-.41,1.06-.41,0,0-1.22.31-1.58.09-.36-.22-.94-.52-.94-.52l.06.51Z"/>
    <path class="cls-3" d="M68.57,56.31s.87.43,1.39.33,1.06-.41,1.06-.41c0,0-1.22.31-1.58.09-.36-.22-.94-.52-.94-.52l.06.51Z"/>
    <path class="cls-3" d="M68.63,55.63s.76.37,1.22.28c.46-.09.93-.36.93-.36,0,0-1.06.27-1.38.08-.31-.19-.82-.46-.82-.46l.05.45Z"/>
    <path class="cls-3" d="M68.63,55.03s.76.37,1.22.28c.46-.09.93-.36.93-.36,0,0-1.06.27-1.38.08-.31-.19-.82-.46-.82-.46l.05.45Z"/>
    <path class="cls-3" d="M68.83,54.45s.55.27.88.21c.33-.07.68-.26.68-.26,0,0-.77.2-1,.06-.23-.14-.59-.33-.59-.33l.04.33Z"/>
    <path class="cls-3" d="M71.71,56.9s.63.31,1.01.24c.38-.08.77-.3.77-.3,0,0-.89.23-1.15.07-.26-.16-.68-.38-.68-.38l.04.37Z"/>
    <path class="cls-3" d="M71.71,56.22s.63.31,1.01.24c.38-.07.77-.3.77-.3,0,0-.89.23-1.15.07-.26-.16-.68-.38-.68-.38l.04.37Z"/>
    <path class="cls-3" d="M71.76,56.56s.63.31,1.01.24c.38-.08.77-.3.77-.3,0,0-.89.23-1.15.07-.26-.16-.68-.38-.68-.38l.04.37Z"/>
    <path class="cls-3" d="M71.71,55.94s.63.31,1.01.24c.38-.08.77-.3.77-.3,0,0-.89.23-1.15.07-.26-.16-.68-.38-.68-.38l.04.37Z"/>
    <path class="cls-3" d="M71.69,55.45s.63.31,1.01.24c.38-.08.77-.3.77-.3,0,0-.89.23-1.15.07-.26-.16-.68-.38-.68-.38l.04.37Z"/>
    <path class="cls-3" d="M71.65,54.98s.63.31,1.01.24c.38-.07.77-.3.77-.3,0,0-.89.23-1.15.07-.26-.16-.68-.38-.68-.38l.04.37Z"/>
    <path class="cls-3" d="M71.67,54.46s.63.31,1.01.24c.38-.08.77-.3.77-.3,0,0-.89.23-1.15.07-.26-.16-.68-.38-.68-.38l.04.37Z"/>
    <path class="cls-3" d="M71.71,53.82s.52.26.84.2c.31-.06.64-.25.64-.25,0,0-.73.19-.95.05-.22-.13-.56-.31-.56-.31l.03.31Z"/>
    <path class="cls-3" d="M71.81,53.2s.52.26.84.2c.31-.06.64-.24.64-.24,0,0-.73.19-.95.05-.22-.13-.56-.32-.56-.32l.03.31Z"/>
    <path class="cls-3" d="M62.94,56.77s.52.43.89.45c.37.01.79-.11.79-.11,0,0-.88.01-1.09-.19-.21-.21-.55-.51-.55-.51l-.04.36Z"/>
    <path class="cls-3" d="M63.04,56.43s.52.43.89.45c.37.01.79-.11.79-.11,0,0-.88.01-1.09-.19-.21-.21-.55-.51-.55-.51l-.04.36Z"/>
    <path class="cls-3" d="M63.19,56.19s.52.43.89.45c.37.02.79-.1.79-.1,0,0-.88.01-1.09-.19-.21-.21-.55-.51-.55-.51l-.04.36Z"/>
    <path class="cls-3" d="M63.32,55.86s.52.43.89.45c.37.02.79-.1.79-.1,0,0-.88.01-1.09-.19-.21-.21-.55-.51-.55-.51l-.04.36Z"/>
    <path class="cls-3" d="M63.52,55.6s.52.43.89.45c.37.01.79-.11.79-.11,0,0-.88.01-1.09-.19-.21-.21-.55-.51-.55-.51l-.04.36Z"/>
    <path class="cls-3" d="M62.68,56.97s.52.43.89.45c.37.01.79-.11.79-.11,0,0-.88.01-1.09-.19-.21-.21-.55-.51-.55-.51l-.05.36Z"/>
    <polygon class="cls-3" points="68.58 48.57 66.74 48.81 64.18 48.38 67.66 48.28 68.58 48.57"/>
    <path class="cls-3" d="M69.19,50.6s.34.78.5,1.11c.16.32.28.66.28.66,0,0,.2-.87.2-1.05s0-.7-.24-.7-.74-.02-.74-.02Z"/>
    <path class="cls-3" d="M66.59,52.13s.28.65.41.91c.13.26.23.55.23.55,0,0,.17-.71.17-.86s0-.58-.2-.58-.61-.02-.61-.02Z"/>
    <path class="cls-3" d="M71.85,49.47s.34.78.5,1.11.28.66.28.66c0,0,.2-.87.2-1.05s0-.7-.24-.7-.74-.02-.74-.02Z"/>
    <path class="cls-3" d="M64.79,53.04s.12.44.17.62c.06.18.09.37.09.37,0,0,.18-.44.19-.53.01-.09.06-.37-.07-.39-.13-.02-.39-.07-.39-.07Z"/>
    <polygon class="cls-1" points="49.19 95.5 49.86 106.35 50.6 106.35 49.79 95.94 49.19 95.5"/>
    <path class="cls-3" d="M62.97,70.3s2.89.75,4.24,3.79c1.35,3.04.98,10.12,1.03,10.77v.73s.56-1.78.42-5.33c-.14-3.55-.19-6.73-1.54-8.04-1.35-1.31-3.36-3.13-3.36-3.13l-.79,1.21Z"/>
    <path class="cls-1" d="M79,86.25s-.29,4.26.14,5.31c.43,1.05,1.24,2.34,1.24,2.34,0,0-1.77-2.06-1.86-3.35-.1-1.29.48-4.31.48-4.31Z"/>
    <path class="cls-1" d="M80.56,94.91l6.6,10.91-1.07-.32s-5.47-10.64-5.53-10.59Z"/>
  </g>
  <path class="cls-4" d="M136.09,83.58c-1.06-1.06-3.07-.58-3.55.82-.29,1.04-.12,2.18-.5,3.21-.46,1.68-1.6,3.04-2.51,4.49-2.22,1.91-4.76,3.38-7.31,4.79-3.36,1.05-6.69,2.22-10.14,2.94-4.6.94-9.21,1.86-13.81,2.79l-16.22,3.73,12.91-3.1-47.63,9.81-2.35.54h0s-12.15,2.36-12.15,2.36l-11.96,2.67c-2.82.74-5.43,2.05-8.04,3.31-5.46,2.86-9.82,7.86-11.65,13.74-.93,2.86-1.24,5.89-1.17,8.89,0,14.45,0,28.9,0,43.35-.17,1.76,2.17,2.98,3.54,1.83,1.24-.87.74-2.51,1.06-3.76.31-2.05,1.66-3.86,3.47-4.87,3.26-1.86,7.05-2.4,10.64-3.3,7.39-1.58,14.83-2.98,22.24-4.49-.27-1.44-.45-2.9-.72-4.33-8.73,1.77-17.5,3.35-26.17,5.38-3.38.8-6.83,1.79-9.64,3.91,0-10.81.02-21.62,0-32.43l.45-6.88c.8-3.64,2.62-7.08,5.32-9.69,3.88-3.79,9.08-5.92,14.32-7.09,30.05-6.06,60.04-12.41,90.08-18.49,6.43-1.49,12.97-3.79,17.8-8.42.02,12.09,0,24.18,0,36.27l-6.6,2.91-2.11,5.2,12.97-6.1c.19-15.66.18-31.33.17-46.99-.02-1.02.19-2.26-.73-2.99Z"/>
  <g>
    <path class="cls-2" d="M51.89,136.75c-1.69,2.7-4.52,4.74-8.48,6.11,3.64.02,6.07-.11,7.28-.39,1.42-.33,2.57-.89,3.44-1.68l.79,3.38c-1.1.68-2.31,1.18-3.65,1.49-1.57.37-3.21.46-4.92.28-.58-.07-1.59-.19-3.05-.36-.92-.1-1.88-.04-2.89.17l-.75-3.22c3.05-.78,5.6-2.32,7.67-4.62,2.41-2.72,3.27-5.6,2.55-8.64-.42-1.81-1.33-3.16-2.71-4.06-1.38-.9-2.98-1.14-4.79-.71-1.79.42-3.19,1.22-4.2,2.4-1.13,1.32-1.49,2.84-1.09,4.56.33,1.4,1.03,2.87,1.85,3.81,1.38,1.59,5.01,5.17,6.42,4.84l-2.1,2.34c-1.95.39-5.68-2.66-7.17-4.67-1.2-1.62-1.95-3.53-2.41-5.53-.63-2.7-.13-5.1,1.51-7.19,1.51-1.9,3.65-3.18,6.44-3.83,2.87-.67,5.38-.36,7.54.95,2.16,1.3,3.57,3.39,4.24,6.27.66,2.83.15,5.6-1.54,8.3Z"/>
    <path class="cls-2" d="M68.11,139.61c-1.38.32-2.69-.31-3.91-1.91-.35,1.97-1.36,3.15-3.04,3.54-1.19.28-2.27.08-3.25-.58-.98-.67-1.6-1.61-1.89-2.81l-1.88-8.05,3.13-.73,1.79,7.63c.34,1.46,1.17,2.04,2.47,1.74,1.14-.27,1.8-1.09,2-2.48.04-.32.03-.59-.02-.8l-1.67-7.15,3.19-.75,1.91,8.16c.24,1.02.91,1.41,2.02,1.15.38-.09.72-.27,1.02-.54l.54,2.3c-.55.62-1.35,1.06-2.39,1.3Z"/>
    <path class="cls-2" d="M74.19,134.95c.97.11,1.78.09,2.44-.07,1.28-.3,2.29-.85,3.05-1.65l.67,2.87c-.82.62-1.86,1.07-3.11,1.37-2.02.47-3.82.3-5.4-.52-1.66-.85-2.72-2.27-3.19-4.27-.39-1.68-.13-3.28.78-4.79.91-1.51,2.21-2.47,3.89-2.86,2.32-.54,4.37-.06,6.16,1.45l-5.29,8.47ZM73.75,127.65c-1,.23-1.7.77-2.11,1.61-.41.84-.49,1.76-.26,2.79.11.47.43,1.08.97,1.83l3.49-5.9c-.61-.39-1.3-.5-2.09-.31Z"/>
    <path class="cls-2" d="M84.57,135.75c-1.15.27-2.12.32-2.93.15l-.63-2.68c.6.24,1.15.3,1.66.18,1.06-.25,1.48-.86,1.25-1.84-.09-.38-.63-1.05-1.63-1.99-1-.94-1.55-1.68-1.68-2.21-.41-1.77.11-3.23,1.56-4.4l2.31,1.68c-.54.55-.73,1.2-.55,1.95.06.26.6.89,1.61,1.91,1.01,1.02,1.61,1.92,1.8,2.71.25,1.08.12,2.05-.4,2.9-.52.85-1.31,1.4-2.37,1.65Z"/>
    <path class="cls-2" d="M95.12,133.32c-1.79.42-3.43.16-4.94-.78-1.51-.94-2.47-2.3-2.89-4.08-.42-1.79-.16-3.44.77-4.96.93-1.52,2.29-2.49,4.08-2.91,1.79-.42,3.44-.15,4.95.79,1.51.95,2.48,2.31,2.89,4.1.42,1.79.16,3.43-.78,4.94-.94,1.51-2.3,2.47-4.08,2.89ZM97.23,125.39c-.57.52-1.05.82-1.44.91-.62.14-1.21.05-1.78-.29-.57-.34-.93-.81-1.08-1.43-.08-.36-.05-.85.09-1.47-1.32.4-2.21,1.03-2.68,1.91-.47.87-.59,1.81-.35,2.81s.8,1.84,1.66,2.41c.86.56,1.81.72,2.85.48s1.85-.81,2.41-1.71c.56-.89.72-1.86.48-2.91l-.16-.7Z"/>
    <path class="cls-2" d="M104.06,131.19c-1.15.27-2.12.32-2.93.15l-.63-2.68c.6.24,1.15.3,1.66.18,1.06-.25,1.48-.86,1.25-1.84-.09-.38-.63-1.05-1.63-1.99-1-.94-1.55-1.68-1.68-2.21-.41-1.77.11-3.23,1.56-4.4l2.31,1.68c-.54.55-.73,1.2-.55,1.95.06.26.6.89,1.61,1.91,1.01,1.02,1.61,1.92,1.8,2.71.25,1.08.12,2.05-.4,2.9-.52.85-1.31,1.4-2.37,1.65Z"/>
  </g>
</svg>