<?xml version="1.0" encoding="UTF-8"?>
<svg id="Capa_1" data-name="Capa 1" xmlns="http://www.w3.org/2000/svg" viewBox="0 0 164.6 172.78">
  <defs>
    <style>
      .cls-1 {
        fill: #fff;
      }

      .cls-1, .cls-2, .cls-3, .cls-4, .cls-5, .cls-6 {
        stroke-width: 0px;
      }

      .cls-1, .cls-2, .cls-4, .cls-5, .cls-6 {
        fill-rule: evenodd;
      }

      .cls-2 {
        fill: #f8e937;
      }

      .cls-3, .cls-5 {
        fill: #272a67;
      }

      .cls-4 {
        fill: #32297f;
      }

      .cls-6 {
        fill: #c00018;
      }
    </style>
  </defs>
  <polygon class="cls-1" points="54.52 29.45 54.52 7.98 64.27 6.56 65.57 3.03 96.89 3.03 98.54 6.8 107.3 7.74 107.3 27.05 117.14 22.91 120.5 24.93 121.62 30.58 110.79 36.47 89.12 37.88 54.52 29.45"/>
  <path class="cls-2" d="M53.27,33.68c-2.38-.54-30.31,2.59-28.52,6.92,2.67,6.48,20.1,5.24,26.46,4.63,11.72-1.13,28.01-3.42,39.5-3.02,9.21.31,18.88-.37,28.47.42.09,0,25.49,2.14,18.7-1.49-11.52-6.16-22.15-6.42-35.14-7.33-8.66-.61-22.37-1.22-30.87-1.22-3.73,0-16.62,1.55-18.59,1.1Z"/>
  <path class="cls-4" d="M40.63,49.42c-2.79-.34-26.54,7.88-23.99,12.62,3.81,7.1,22.79,5.27,30,3.82,13.28-2.65,33.24-8.76,46.42-9.65,10.57-.71,21.55-2.61,32.6-2.83.1,0,29.4-.51,21.21-3.87-13.89-5.71-26.07-4.77-41.03-4.31-9.98.31-27.12-1.21-36.85-.22-4.27.43-26.05,4.7-28.35,4.42Z"/>
  <path class="cls-6" d="M38.49,68.25c-2.8-.15-25.96,9.63-23.1,14.19,4.27,6.83,23.09,3.74,30.19,1.83,13.07-3.53,32.58-10.95,45.68-12.71,10.5-1.41,21.33-4.03,32.35-4.98.1,0,34.31-5.67,25.92-8.48-14.24-4.77-26.53-1.42-41.43.03-9.94.97-31.95,2.2-41.6,3.83-4.23.72-25.68,6.42-28,6.29Z"/>
  <polygon class="cls-1" points="120.5 32.84 54.29 27.55 42.38 22.91 40.06 30.69 51.31 36.65 47.18 47.08 46.51 85.64 116.03 70.91 117.19 50.06 111.89 35.82 120.5 32.84"/>
  <path class="cls-5" d="M63.06,1.4c.99-1.16,2.59-1.36,4.02-1.4,9.33.01,18.66,0,27.99,0,1.44.05,3.08.28,4.04,1.48.8.84.92,2.03,1.18,3.1,2.41.55,5.06-.37,7.33.84,1.49.81,2,2.6,2.03,4.19-.06,2.19.32,4.53-.82,6.53.08,2.61,0,5.22.06,7.83,2.32-.76,4.48-1.93,6.81-2.68,2.41-.71,5.46.45,6.36,2.93,1.12,2.96,2.99,6.68-.29,9.13-2.51,1.81-5.6,2.44-8.34,3.79,1.61,2.84,3.74,7.18,4.71,10.3l.07,19.13c5.54-1.13,11.08-2.25,16.61-3.38,4.15-.88,8.16-2.3,12.2-3.57,3.06-1.72,6.13-3.5,8.79-5.81,1.1-1.76,2.47-3.4,3.03-5.44.47-1.25.25-2.62.61-3.89.58-1.7,3-2.29,4.27-1,1.1.88.85,2.39.88,3.62,0,19,.02,37.99-.21,56.99l-16.69,7.83,2.53-6.31,9.02-3.96c0-14.66.02-29.32,0-43.98-5.82,5.62-13.69,8.41-21.42,10.21-36.14,7.37-72.21,15.07-108.36,22.42-6.3,1.42-12.56,4-17.23,8.6-3.25,3.17-5.43,7.34-6.4,11.75l-.54,8.34c.03,13.11.01,26.22.01,39.33,3.38-2.57,7.53-3.76,11.6-4.74,10.43-2.46,20.99-4.37,31.49-6.52.32,1.74.54,3.51.87,5.26-8.92,1.82-17.86,3.52-26.75,5.44-4.33,1.09-8.88,1.75-12.8,4-2.18,1.23-3.8,3.42-4.17,5.91-.39,1.52.22,3.51-1.27,4.56-1.65,1.39-4.46-.09-4.25-2.22,0-17.53,0-35.05,0-52.58-.09-3.63.28-7.31,1.41-10.78,2.2-7.13,7.45-13.19,14.01-16.66,3.13-1.52,6.28-3.12,9.67-4.01l14.38-3.23,15.49-3.03-1.38,1.82c.08-3.53-.28-9.02-.32-12.55-.33-4.76.16-9.56-.39-14.31-.12-1.65-.06-3.31-.12-4.97-.18-.36-.35-.72-.52-1.09.21-.08.62-.22.83-.3,2.99-5.39,6.19-10.67,9.14-16.06l-.33-17.7c-.15-.51-.78-.2-.98-.69h3.68s.09,18.81.09,18.81c-2.62,4.86-5.46,9.61-8.13,14.45-.53.62-.03,1.19.28,1.76-.14.19-.42.58-.56.78l.16,30.84-2.6-1.04,3.09-.25,57.3-11.9.05-19.26c-1.44-4.13-4.71-8.72-6.42-13.01,3.98-1.91,7.97-3.81,11.95-5.72.24-1.87-.43-3.12-1.71-3.97l-11.69,4.27c-.51.23-1.61.64-1.61-.29-.12-4.56-.02-9.13-.04-13.7.11-.7-.48-1.2-.74-1.78.37,0,1.1.01,1.47.02.28-1.68.29-3.4.03-5.07-3.09.05-6.17-.02-9.26.04-.01-1.57.14-3.15-.19-4.7-10.06.04-20.12-.09-30.18.06-.03,1.54-.02,3.09-.02,4.63-2.9,0-5.8-.09-8.69.03l-.18.13c0,1.54-.02,3.09.09,4.62.25.09.74.27.98.36-.8,1.45-.49,3.13-.54,4.71.02,4-.05,8.01.04,12.02-.6-.24-1.19-.48-1.79-.73l-9.5-4.06-2.32-1c-2.06,1.15-3,4-1.43,5.47,4.1,1.88,8.3,3.54,12.42,5.38-.19,1.23-1.03,2.2-1.52,3.31-1.37,2.86-2.95,5.6-4.35,8.44-.3.45.13.95.22,1.41-.13.16-.4.48-.53.64v32.28s-3.97,1.8-3.97,1.8c.05-4.9-.1-12.01.15-16.92-.19-6.31-.19-12.64-.06-18.95-.08-2.06,3.63-8.29,4.62-9.75-2.22-1.09-4.55-1.92-6.81-2.91-2.04-.87-4.74-2.22-4.99-5-.39-2.02.67-3.88,1.37-5.7.76-2.29,3.32-3.69,5.67-3.29,3.1.55,5.72,2.59,8.81,3.17.14-2.37.05-4.74.09-7.11.09-1.56-.89-2.94-.82-4.5,0-2.35-.34-5.26,1.64-6.97,2.17-1.63,5.02-.56,7.47-1.18.15-1.11.29-2.32,1.14-3.15Z"/>
  <path class="cls-5" d="M130.93,150.55c1.25-.41,2.82-.46,3.69.7,1.24,1.39.43,3.86-1.39,4.25-21.59,4.74-43.2,9.4-64.8,14.12-1.06.29-2.35.48-3.23-.34-1.7-1.29-.97-4.43,1.22-4.67,21.5-4.71,43-9.36,64.5-14.05Z"/>
  <rect class="cls-3" x="55.7" y="13.49" width="51.6" height="1.56"/>
  <rect class="cls-3" x="47.19" y="47.26" width="68.83" height="2.05"/>
  <g>
    <path class="cls-3" d="M40.47,137.59l-21.52,5.1-1.29-5.43c4.1-1.21,5.66-3.85,4.7-7.93l-3.91-16.51c-.9-3.81-.47-7.17,1.31-10.08,1.78-2.91,4.52-4.81,8.22-5.69,3.82-.9,7.11-.58,9.86.98,2.89,1.65,4.8,4.41,5.72,8.3.39,1.64.33,3.5-.17,5.59-.5,2.09-1.32,3.71-2.46,4.87l-5.16-2.7c1.69-1.77,2.25-3.87,1.68-6.31-.45-1.9-1.44-3.32-2.97-4.24-1.53-.92-3.24-1.16-5.13-.72-1.78.42-3.12,1.48-4.03,3.19-.91,1.7-1.14,3.49-.7,5.35l3.99,16.85c.47,1.98-.26,4.35-2.19,7.1l12.29-2.91c4-.95,7.07-2.8,9.19-5.56l4.14,3.36c-1.24,2.19-2.88,3.86-4.92,5.03-1.55.89-3.77,1.68-6.66,2.36Z"/>
    <path class="cls-3" d="M74.2,130.14c-2.33.55-4.55-.55-6.66-3.31-1.16,3.53-3.31,5.67-6.46,6.42-3,.71-5.69.21-8.05-1.5-2.36-1.71-3.91-4.13-4.65-7.25-.74-3.12-.43-5.98.91-8.57,1.35-2.59,3.53-4.24,6.54-4.96,2.75-.65,5.54.12,8.38,2.3l-.84-3.54,5.45-1.29,3.38,14.28c.42,1.75,1.59,2.4,3.51,1.94.63-.15,1.21-.44,1.73-.89l.97,4.11c-.96,1.07-2.37,1.83-4.22,2.27ZM54.4,107.75l-3.55-2.3,6.45-10.71,3.62,2.3-6.52,10.7ZM65.32,117.94c-1.72-2.61-3.99-3.58-6.82-2.91-1.79.42-3.12,1.43-4,3.03-.88,1.6-1.1,3.31-.67,5.14.42,1.79,1.4,3.2,2.92,4.23,1.52,1.03,3.16,1.33,4.91.92,2.83-.67,4.43-2.54,4.81-5.6l-1.14-4.8Z"/>
    <path class="cls-3" d="M87.8,113.59c-.93.22-1.87.08-2.83-.42-.96-.5-1.55-1.2-1.76-2.12-.1-.42-.08-.99.07-1.7-4.04.96-5.58,3.47-4.61,7.55.47,1.98,1.51,3.39,3.12,4.24,1.61.85,3.4,1.03,5.36.57,2.37-.56,4.21-1.5,5.5-2.81l1.29,5.43c-1.5,1.12-3.36,1.94-5.58,2.47-3.48.83-6.6.47-9.36-1.07-2.75-1.54-4.55-4.08-5.39-7.62-.73-3.08-.35-5.96,1.13-8.62,1.48-2.66,3.71-4.35,6.67-5.05,2.22-.53,4.12-.53,5.69-.02,1.91.63,3.12,2.02,3.63,4.15.29,1.22.17,2.29-.35,3.22-.52.93-1.38,1.53-2.57,1.81Z"/>
    <path class="cls-3" d="M106.71,122.44c-4.93,1.17-8.01-.86-9.25-6.07l-2.1-8.86-5.84,1.38-1.23-5.2,5.84-1.38-2.5-10.57,5.67-1.34,2.5,10.57,5.73-1.36,1.23,5.2-5.73,1.36,1.86,7.85c.63,2.65,2.04,3.72,4.22,3.2.74-.18,1.51-.56,2.31-1.15l1,4.23c-.92,1.06-2.16,1.78-3.72,2.15Z"/>
    <path class="cls-3" d="M116.95,114.22c1.69.2,3.11.17,4.26-.1,2.22-.53,3.99-1.51,5.29-2.94l1.22,5.14c-1.42,1.1-3.23,1.91-5.41,2.43-3.52.83-6.67.52-9.45-.96-2.91-1.52-4.78-4.08-5.63-7.66-.71-3.01-.28-5.87,1.29-8.57,1.57-2.7,3.82-4.4,6.75-5.1,4.04-.96,7.63-.08,10.78,2.64l-9.1,15.13ZM116.08,101.16c-1.74.41-2.96,1.37-3.66,2.86-.7,1.49-.84,3.15-.4,4.98.2.84.77,1.93,1.72,3.27l6-10.54c-1.07-.71-2.29-.9-3.65-.57Z"/>
    <path class="cls-3" d="M140.24,114.56c-3.11.74-5.99.26-8.65-1.42-2.65-1.69-4.35-4.13-5.11-7.33-.76-3.2-.33-6.16,1.27-8.87,1.61-2.71,3.97-4.44,7.08-5.18,3.11-.74,6-.25,8.65,1.45,2.65,1.7,4.36,4.16,5.12,7.36.76,3.2.33,6.15-1.28,8.84-1.61,2.7-3.98,4.41-7.09,5.15ZM143.81,100.38c-1,.92-1.83,1.46-2.49,1.62-1.08.25-2.12.08-3.12-.53-1.01-.61-1.64-1.46-1.9-2.57-.15-.65-.11-1.52.14-2.63-2.3.71-3.85,1.84-4.66,3.4-.8,1.56-1,3.23-.57,5.02.44,1.87,1.42,3.3,2.93,4.31,1.51,1.01,3.17,1.3,4.99.87,1.82-.43,3.21-1.44,4.18-3.04.97-1.6,1.24-3.33.79-5.2l-.3-1.26Z"/>
  </g>
  <g>
    <path class="cls-3" d="M61.02,161.98l-14.96,3.54-.89-3.77c2.85-.84,3.94-2.68,3.26-5.51l-2.72-11.48c-.63-2.65-.32-4.98.91-7.01,1.23-2.03,3.14-3.34,5.72-3.95,2.65-.63,4.94-.4,6.85.68,2.01,1.15,3.34,3.07,3.98,5.77.27,1.14.23,2.43-.12,3.89-.35,1.45-.92,2.58-1.71,3.38l-3.59-1.88c1.18-1.23,1.57-2.69,1.16-4.39-.31-1.32-1-2.31-2.07-2.95-1.06-.64-2.25-.81-3.57-.5-1.24.29-2.17,1.03-2.8,2.22-.63,1.18-.79,2.43-.49,3.72l2.77,11.71c.33,1.38-.18,3.02-1.52,4.93l8.54-2.02c2.78-.66,4.91-1.95,6.39-3.86l2.88,2.34c-.86,1.52-2,2.68-3.42,3.49-1.08.62-2.62,1.17-4.63,1.64Z"/>
    <path class="cls-3" d="M84.47,156.81c-1.62.38-3.17-.41-4.64-2.38-.79,2.51-2.29,4.02-4.48,4.54-2.11.5-4.01.13-5.69-1.13-1.59-1.19-2.65-2.9-3.17-5.12-.52-2.2-.32-4.21.6-6.03.92-1.83,2.44-2.99,4.56-3.49,1.91-.45,3.86.11,5.84,1.68l-.61-2.58,3.79-.9,2.41,10.16c.3,1.28,1.12,1.75,2.46,1.44.44-.1.83-.32,1.19-.66l.68,2.86c-.66.77-1.64,1.31-2.92,1.61ZM78.25,148.13c-1.2-1.84-2.78-2.53-4.75-2.06-1.24.29-2.17,1.01-2.77,2.15-.61,1.14-.76,2.34-.46,3.61.3,1.27.98,2.28,2.03,3.02,1.05.74,2.2.97,3.44.67,1.97-.47,3.07-1.79,3.32-3.97l-.81-3.41Z"/>
    <path class="cls-3" d="M94.41,154.45c-3.43.81-5.57-.59-6.43-4.22l-1.46-6.15-4.06.96-.86-3.61,4.06-.96-1.74-7.35,3.94-.93,1.74,7.35,3.98-.94.86,3.61-3.98.94,1.29,5.45c.44,1.84,1.41,2.59,2.94,2.23.52-.12,1.05-.39,1.61-.8l.7,2.94c-.64.74-1.5,1.24-2.58,1.49Z"/>
    <path class="cls-3" d="M95.38,134.01c-.77.18-1.52.07-2.24-.33-.72-.4-1.18-1-1.36-1.8-.19-.82-.07-1.57.39-2.25.45-.68,1.08-1.11,1.88-1.3.77-.18,1.51-.07,2.23.35.71.42,1.16,1.02,1.35,1.82.19.79.06,1.53-.37,2.21-.44.68-1.06,1.11-1.86,1.3ZM102.12,152.62c-1.24.29-2.36.08-3.35-.63-1-.71-1.65-1.71-1.95-2.98l-2.5-10.56,4.02-.95,2.36,9.97c.29,1.22,1.11,1.67,2.48,1.34.52-.12.95-.34,1.32-.65l.68,2.86c-.72.76-1.74,1.29-3.05,1.6Z"/>
    <path class="cls-3" d="M118.33,148.78c-1.19.28-2.29.03-3.32-.76-.96-.72-1.59-1.71-1.88-2.95l-1.24-5.24c-.43-1.8-1.42-2.52-2.97-2.15-1.38.33-2.16,1.35-2.35,3.07-.07.49-.09.83-.05,1.02l2.12,8.94-3.79.9-3.57-15.09,3.79-.9.55,2.34c.87-2.08,2.12-3.31,3.75-3.7,1.47-.35,2.8-.12,3.98.7,1.18.82,1.94,1.98,2.3,3.49l1.21,5.1c.3,1.28,1.12,1.75,2.46,1.44.46-.11.87-.33,1.23-.67l.68,2.86c-.66.77-1.62,1.31-2.88,1.61Z"/>
    <path class="cls-3" d="M127.47,146.66c-2.16.51-4.17.18-6.01-.99-1.84-1.17-3.03-2.87-3.55-5.09-.53-2.22-.23-4.28.89-6.17,1.12-1.89,2.76-3.09,4.92-3.6,2.16-.51,4.17-.18,6.01,1.01,1.84,1.18,3.03,2.89,3.56,5.11.53,2.22.23,4.27-.89,6.15-1.12,1.87-2.76,3.07-4.93,3.58ZM129.96,136.8c-.69.64-1.27,1.01-1.73,1.12-.75.18-1.47.05-2.17-.37-.7-.42-1.14-1.02-1.32-1.78-.11-.45-.07-1.06.1-1.83-1.6.49-2.68,1.28-3.24,2.36-.56,1.08-.69,2.25-.4,3.49.31,1.3.99,2.3,2.04,3,1.05.7,2.21.9,3.47.6,1.26-.3,2.23-1,2.91-2.11.68-1.11.86-2.32.55-3.61l-.21-.87Z"/>
  </g>
  <polygon class="cls-5" points="39.48 82.75 95.92 71.13 103 75 42.66 87.43 39.48 82.75"/>
</svg>