<?xml version="1.0" encoding="UTF-8"?>
<svg id="Capa_1" data-name="Capa 1" xmlns="http://www.w3.org/2000/svg" viewBox="0 0 288.91 151.34">
  <defs>
    <style>
      .cls-1 {
        fill: #000;
      }

      .cls-1, .cls-2, .cls-3, .cls-4, .cls-5 {
        stroke-width: 0px;
      }

      .cls-2 {
        fill: #bb4730;
      }

      .cls-3 {
        fill: #f0f0ec;
      }

      .cls-4 {
        fill: #f0df5d;
      }

      .cls-5 {
        fill: #54312f;
      }
    </style>
  </defs>
  <path class="cls-3" d="M135.68,151.34h-.84v-.24c-23.19-1.12-34.13-6.08-57.8-16.8-3.03-1.37-6.28-2.85-9.82-4.43-2.57-1.15-5.3-1.84-8.11-2.06-5.34-.41-12.9-.91-18.65-.91-16.2,0-30.12,1.37-30.25,1.39l-10.2,1.02V22.16l10.19,1.02c.14.01,14.14,1.39,30.26,1.39,5.71,0,13.3-.49,18.66-.91,2.81-.22,5.54-.91,8.1-2.06,3.54-1.58,6.79-3.06,9.83-4.43C100.71,6.45,111.66,1.49,134.84.37V0l9.84.12,9.37-.13v.37c23.2,1.12,34.15,6.08,57.82,16.8,3.03,1.37,6.28,2.85,9.82,4.43,2.57,1.15,5.3,1.84,8.11,2.06,5.36.41,12.94.91,18.65.91,16.2,0,30.12-1.37,30.25-1.39l10.2-1.02v107.15l-10.19-1.02c-.14-.01-14.14-1.39-30.26-1.39-5.75,0-13.32.49-18.65.91-2.82.22-5.55.91-8.11,2.06-3.41,1.53-6.57,2.95-9.51,4.29l-.3.14c-23.67,10.72-34.62,15.68-57.81,16.8v.24h-18.4ZM136.52,149.65h15.87v-.17l.81-.03c23.42-1.03,34.25-5.94,58-16.69l.3-.14c2.94-1.33,6.1-2.76,9.51-4.29,2.74-1.23,5.66-1.97,8.67-2.2,5.37-.42,12.98-.91,18.78-.91,16.22,0,30.3,1.38,30.43,1.4l8.33.83V24.02l-8.34.83c-.13.01-14.06,1.4-30.43,1.4-5.77,0-13.4-.5-18.78-.91-3.01-.23-5.93-.97-8.67-2.2-3.54-1.58-6.8-3.06-9.83-4.43-23.74-10.75-34.58-15.66-58-16.68l-.8-.04v-.28l-7.69.11-8.16-.1v.27l-.81.04c-23.41,1.03-34.24,5.93-57.97,16.68-3.04,1.38-6.3,2.85-9.84,4.44-2.74,1.23-5.65,1.97-8.66,2.2-5.39.42-13.03.91-18.79.91-16.22,0-30.3-1.38-30.43-1.4l-8.33-.83v103.42l8.34-.83c.13-.01,14.06-1.4,30.43-1.4,5.8,0,13.42.5,18.78.91,3.01.23,5.93.97,8.67,2.2,3.54,1.58,6.79,3.05,9.82,4.43,23.74,10.75,34.58,15.66,57.99,16.69l.81.03v.17Z"/>
  <path class="cls-3" d="M248.46,33.83c-6.1,0-14.03-.52-19.37-.93-3.86-.3-7.64-1.26-11.18-2.84-33.62-15.04-41.99-20.46-73.11-20.65h0c-.12,0-.23,0-.35,0-.12,0-.23,0-.35,0h0c-31.12.2-39.48,5.62-73.11,20.66-3.54,1.58-7.32,2.54-11.18,2.84-5.34.41-13.27.93-19.37.93-16.85,0-31.18-1.43-31.18-1.43v86.67s14.33-1.43,31.18-1.43c6.1,0,14.03.52,19.37.93,3.86.3,7.64,1.26,11.18,2.84,33.62,15.04,41.99,20.46,73.11,20.65h0c.12,0,.23,0,.35,0,.12,0,.23,0,.35,0h0c31.12-.2,39.48-5.62,73.11-20.66,3.54-1.58,7.32-2.54,11.18-2.84,5.34-.41,13.27-.93,19.37-.93,16.85,0,31.18,1.43,31.18,1.43V32.4s-14.33,1.43-31.18,1.43Z"/>
  <g>
    <path class="cls-4" d="M141.72,50.41c-.19,1.48-.39,2.96-.57,4.44-.18,1.46-.35,2.92-.68,4.39-.38-3.05-.76-6.11-1.17-9.42-.33.34-.59.49-.64.7-.23.83-.51,1.67-.55,2.51-.07,1.37-.38,2.59-1.18,3.72-.56.8-.96,1.72-1.52,2.6.2-.86.33-1.75.63-2.58.45-1.26.58-2.49.32-3.82-.15-.77.05-1.61.11-2.42.02-.22.09-.43.14-.64-.07-.03-.14-.06-.21-.09-1.49,2.63-2.97,5.25-4.46,7.88-.04-.02-.08-.04-.12-.06.69-2.5,1.39-4.99,2.08-7.49.11-.39.23-.78.33-1.18.03-.13,0-.38-.05-.4-.14-.04-.39-.05-.47.04-.49.55-1.09,1.06-1.37,1.71-.73,1.74-1.85,3.07-3.49,4.01-.52.3-.93.78-1.52,1.1.29-.45.53-.94.89-1.33,1.15-1.24,1.99-2.59,2.34-4.29.18-.86.77-1.63,1.13-2.56-2.31,1.81-4.63,3.61-6.94,5.42-.04-.03-.07-.07-.11-.1.12-.17.22-.36.35-.52,1.59-2.03,3.18-4.05,4.76-6.09.17-.22.24-.52.35-.78-.31.02-.67-.06-.91.07-.66.37-1.34.77-1.88,1.28-1.07,1.02-2.28,1.65-3.76,1.87-.79.12-1.55.44-2.41.59.43-.3.83-.66,1.3-.88,1.59-.72,2.92-1.68,3.93-3.16.47-.7,1.3-1.16,1.97-1.86-2.9.8-5.81,1.6-8.71,2.4-.02-.04-.03-.08-.05-.12,1.01-.57,2.02-1.15,3.04-1.72,1.53-.87,3.07-1.72,4.59-2.6.19-.11.31-.34.46-.52-.22-.09-.45-.27-.66-.25-.78.1-1.58.16-2.31.42-1.38.5-2.72.71-4.18.35-.88-.22-1.81-.2-2.76-.43,1.13-.15,2.27-.28,3.39-.46.55-.09,1.13-.16,1.61-.41,1.3-.7,2.53-1.53,4.1-1.54,0-.09-.01-.18-.02-.27-2.93-.37-5.87-.73-8.8-1.1,0-.05,0-.1,0-.15,3.05-.38,6.1-.76,9.41-1.17-.33-.32-.47-.58-.67-.64-.8-.23-1.61-.52-2.43-.55-1.45-.05-2.74-.41-3.93-1.26-.75-.54-1.63-.9-2.47-1.44.86.2,1.74.33,2.57.62,1.26.45,2.49.57,3.82.32.77-.15,1.61.06,2.42.12.21.02.42.09.63.13.03-.07.06-.14.09-.2-2.62-1.48-5.24-2.97-7.86-4.45.02-.04.03-.08.05-.13,1.78.49,3.55.98,5.33,1.48,1.08.3,2.16.61,3.24.89.17.04.36-.02.55-.04-.05-.18-.04-.44-.16-.54-.61-.49-1.19-1.08-1.89-1.39-1.52-.68-2.73-1.64-3.57-3.09-.35-.61-.89-1.11-1.28-1.77.42.27.9.48,1.25.82,1.28,1.22,2.72,2.09,4.49,2.44.62.12,1.17.58,1.75.89.19.1.36.23.53.34.05-.05.1-.1.14-.15-1.81-2.31-3.61-4.62-5.42-6.92.03-.04.06-.08.1-.11.17.11.36.21.52.34,2.05,1.6,4.09,3.21,6.15,4.81.2.16.48.21.72.31,0-.28.08-.62-.04-.84-.35-.64-.71-1.32-1.21-1.84-1.08-1.13-1.78-2.38-1.99-3.95-.1-.76-.44-1.5-.58-2.33.3.43.67.83.88,1.3.72,1.59,1.69,2.92,3.17,3.92.7.48,1.16,1.31,1.86,1.97-.8-2.9-1.6-5.8-2.4-8.71.04-.02.08-.04.12-.06,1.54,2.72,3.08,5.44,4.62,8.16.08-.01.16-.02.24-.03.08-.24.24-.49.22-.71-.1-.78-.16-1.58-.42-2.31-.51-1.4-.72-2.78-.35-4.26.21-.85.19-1.76.43-2.68.15,1.13.28,2.27.46,3.4.08.52.15,1.08.38,1.54.7,1.32,1.6,2.55,1.54,4.18l.29-.03c.37-2.94.73-5.87,1.1-8.81h.15c.38,3.05.76,6.1,1.14,9.15l.2.08c.16-.18.42-.33.47-.54.23-.83.51-1.67.55-2.51.07-1.37.38-2.59,1.18-3.72.56-.8.95-1.72,1.52-2.59-.22.89-.36,1.8-.66,2.65-.44,1.24-.55,2.44-.29,3.74.15.75-.04,1.56-.09,2.35-.02.24-.09.48-.14.71.06.03.13.06.19.09,1.48-2.62,2.97-5.24,4.45-7.85.04.02.08.03.12.05-.44,1.58-.87,3.15-1.31,4.73-.35,1.25-.7,2.5-1.03,3.76-.05.2,0,.42,0,.63.22-.08.53-.09.65-.24.47-.56.99-1.13,1.28-1.78.67-1.52,1.63-2.73,3.08-3.58.67-.39,1.21-1,1.89-1.49-.3.48-.53,1.03-.91,1.43-1.24,1.3-2.09,2.77-2.48,4.56-.17.8-.75,1.52-1.06,2.38,2.35-1.84,4.7-3.67,7.05-5.51.03.02.06.05.09.07-.12.17-.22.35-.35.51-1.65,2.11-3.3,4.22-4.94,6.34-.14.18-.19.44-.28.66.26,0,.57.11.76,0,.7-.4,1.44-.79,2.03-1.33,1.08-1.01,2.28-1.65,3.76-1.88.84-.13,1.65-.48,2.54-.67-.5.34-.97.75-1.51,1-1.51.7-2.79,1.6-3.75,3.02-.5.74-1.36,1.24-2.05,1.97,2.89-.8,5.78-1.6,8.67-2.4.02.03.04.06.05.1-.16.11-.32.22-.49.32-2.35,1.33-4.71,2.65-7.05,3.99-.2.11-.34.33-.5.5.24.1.49.32.71.29.75-.08,1.53-.16,2.23-.41,1.4-.5,2.77-.75,4.25-.36.85.22,1.76.19,2.69.36-.6.12-1.19.32-1.79.36-1.6.09-3.09.35-4.48,1.28-.79.52-1.82.68-2.97,1.08,3.13.39,6.07.76,9.01,1.12,0,.05,0,.1,0,.15-3.06.38-6.12.76-9.17,1.14-.03.07-.05.14-.08.21.18.16.34.42.55.47.83.22,1.67.5,2.51.54,1.37.06,2.58.39,3.72,1.19.8.56,1.72.95,2.59,1.52-.89-.22-1.8-.37-2.66-.67-1.24-.43-2.44-.55-3.75-.29-.75.15-1.56-.04-2.34-.1-.24-.02-.47-.1-.71-.15-.03.07-.06.13-.09.2,2.62,1.48,5.24,2.97,7.86,4.45-.02.04-.03.08-.05.12-1.58-.44-3.15-.87-4.73-1.31-1.25-.35-2.5-.7-3.76-1.03-.2-.05-.42,0-.63,0,.07.22.08.53.24.65.61.49,1.21,1.04,1.92,1.35,1.46.64,2.59,1.57,3.4,2.95.38.64.93,1.17,1.33,1.88-.47-.32-.98-.59-1.39-.98-1.2-1.12-2.51-1.92-4.16-2.26-.88-.18-1.67-.78-2.6-1.13,1.8,2.31,3.6,4.62,5.41,6.93-.03.04-.06.07-.09.11-.15-.09-.31-.17-.45-.28-2.09-1.63-4.18-3.27-6.28-4.89-.19-.15-.48-.17-.72-.25.01.24-.06.53.05.71.39.68.75,1.41,1.28,1.97,1.05,1.12,1.73,2.35,1.95,3.89.11.79.44,1.54.56,2.39-.33-.52-.73-1.02-.98-1.57-.66-1.41-1.51-2.61-2.84-3.51-.77-.53-1.3-1.39-2.1-2.29.84,3.06,1.64,5.95,2.44,8.85-.03.02-.06.03-.09.05-.11-.17-.23-.34-.33-.52-1.33-2.35-2.65-4.71-3.99-7.05-.11-.2-.33-.33-.51-.49-.1.24-.3.49-.28.72.08.73.14,1.48.38,2.16.52,1.42.78,2.81.39,4.33-.22.85-.19,1.76-.35,2.69-.13-.59-.33-1.17-.37-1.76-.1-1.62-.32-3.16-1.3-4.55-.42-.59-.5-1.42-.73-2.14-.07-.21-.11-.42-.17-.63-.06,0-.12,0-.18,0ZM132.04,34.35c2.15,1.55,5.29,1.08,5.84-.09-1.62-1.88-3.84-1.74-5.84.09ZM143.14,34.38c1.59,1.33,4.3,1.27,5.85-.08-2.02-1.83-4.33-1.89-5.85.08ZM144.68,44c-.27-.06-.53-.12-.79-.19-1.04-.25-2.07-.83-3.17-.22-.07.04-.2-.01-.29-.05-1.48-.63-2.71.42-4.12.47,2.84,2.17,5.61,2.27,8.38-.02ZM138.91,38.25c.08.05.15.09.23.14.22-.45.56-.89.62-1.36.11-.79.07-1.61.05-2.42-.05-1.86-1.01-3-2.76-3.64-2.19-.79-5.02-.25-6.35,1.42.25-.09.47-.21.69-.36,2.39-1.62,5-1.55,7.31.19.14.1.3.24.34.39.54,1.89,1.11,3.79-.12,5.65ZM150.36,32.42c-1.32-1.76-4.22-2.28-6.45-1.4-1.6.63-2.61,1.64-2.7,3.38-.05.95.01,1.92.14,2.87.05.38.42.72.65,1.08.06-.03.13-.07.19-.1-1.33-1.83-.83-3.72-.2-5.61.05-.15.21-.29.34-.39,2.29-1.78,4.96-1.86,7.36-.23.21.14.44.27.66.41ZM138.6,34.07c-2.74-2.38-6.12-2.25-7.29.26.2-.14.32-.2.41-.29,2.07-1.89,3.65-2.01,5.93-.46.29.2.63.33.95.49ZM149.68,34.28c-1.39-2.37-4.68-2.89-7.39-.14,1.44-.53,2.34-1.76,3.82-1.64,1.44.12,2.59.74,3.57,1.78ZM138.36,34.69c-2.02,1.36-4.08,1.27-6.19.24,1.4,1.5,4.94,1.37,6.19-.24ZM142.71,34.69c1.3,1.61,4.83,1.74,6.19.23-2.1,1.04-4.17,1.13-6.19-.23ZM142.63,40.19c-.4.12-.83.17-1.19.37-.62.35-1.15.39-1.77-.02-.33-.22-.8-.22-1.2-.33,1.38,1.02,2.8,1.11,4.16-.03ZM138.1,39c-.47.28-.8.67-.56,1.26.23.58.66.91,1.4.74-1.34-.62-1.43-.87-.84-2ZM142.01,41c.87.16,1.31-.16,1.53-.76.21-.57-.06-.98-.64-1.31.59,1.34.51,1.57-.89,2.07Z"/>
    <path class="cls-1" d="M132.04,34.35c1.99-1.83,4.21-1.96,5.84-.09-.55,1.17-3.69,1.63-5.84.09ZM132.35,34.3c.72.28,1.23.47,1.72.66v-1.6c-.53.29-1.01.55-1.72.94ZM136.33,34.95c.41-.18.8-.35,1.36-.59-.54-.39-.93-.67-1.36-.98v1.57Z"/>
    <path class="cls-1" d="M143.14,34.38c1.52-1.96,3.83-1.91,5.85-.08-1.56,1.35-4.26,1.41-5.85.08ZM147,34.97c.52-.2,1.01-.4,1.74-.68-.72-.38-1.21-.64-1.74-.92v1.6ZM144.75,34.93v-1.56c-.43.32-.82.61-1.36,1.01.58.24.97.39,1.36.55Z"/>
    <path class="cls-1" d="M144.68,44c-2.77,2.29-5.54,2.18-8.38.02,1.41-.06,2.64-1.1,4.12-.47.09.04.22.09.29.05,1.11-.61,2.13-.03,3.17.22.26.06.52.12.79.19ZM143.14,44.43c-1.76.46-3.52.39-5.42-.1,1.51,1.42,3.94,1.45,5.42.1ZM143.41,44.01c-.9-.33-1.71-.59-2.57-.13-.11.06-.3.04-.42-.02-.89-.45-1.73-.13-2.69.18,1.94.52,3.77.53,5.68-.03Z"/>
    <path class="cls-1" d="M138.91,38.25c1.23-1.86.66-3.76.12-5.65-.04-.15-.21-.28-.34-.39-2.31-1.74-4.92-1.81-7.31-.19-.21.14-.44.27-.69.36,1.33-1.67,4.16-2.21,6.35-1.42,1.76.64,2.71,1.78,2.76,3.64.02.81.06,1.63-.05,2.42-.07.47-.41.91-.62,1.36-.08-.05-.15-.09-.23-.14Z"/>
    <path class="cls-1" d="M150.36,32.42c-.22-.14-.45-.26-.66-.41-2.4-1.63-5.07-1.55-7.36.23-.14.11-.29.24-.34.39-.64,1.89-1.13,3.78.2,5.61-.06.03-.13.07-.19.1-.23-.36-.6-.7-.65-1.08-.13-.95-.19-1.91-.14-2.87.09-1.74,1.1-2.76,2.7-3.38,2.23-.88,5.13-.35,6.45,1.4Z"/>
    <path class="cls-1" d="M138.6,34.07c-.32-.16-.65-.3-.95-.49-2.29-1.55-3.86-1.43-5.93.46-.1.09-.22.16-.41.29,1.17-2.5,4.56-2.63,7.29-.26Z"/>
    <path class="cls-1" d="M149.68,34.28c-.98-1.03-2.13-1.66-3.57-1.78-1.49-.12-2.39,1.11-3.82,1.64,2.71-2.75,6-2.23,7.39.14Z"/>
    <path class="cls-1" d="M138.36,34.69c-1.25,1.6-4.79,1.74-6.19.24,2.1,1.04,4.17,1.13,6.19-.24Z"/>
    <path class="cls-1" d="M142.71,34.69c2.02,1.36,4.09,1.28,6.19.23-1.36,1.5-4.89,1.38-6.19-.23Z"/>
    <path class="cls-1" d="M142.63,40.19c-1.37,1.13-2.79,1.04-4.16.03.41.1.87.11,1.2.33.62.41,1.15.37,1.77.02.35-.2.79-.25,1.19-.37Z"/>
    <path class="cls-1" d="M138.1,39c-.58,1.13-.49,1.38.84,2-.74.17-1.17-.16-1.4-.74-.24-.58.09-.98.56-1.26Z"/>
    <path class="cls-1" d="M142.01,41c1.39-.5,1.48-.73.89-2.07.58.33.85.74.64,1.31-.22.6-.66.92-1.53.76Z"/>
    <path class="cls-4" d="M132.35,34.3c.71-.39,1.19-.65,1.72-.94v1.6c-.49-.19-1-.38-1.72-.66Z"/>
    <path class="cls-4" d="M136.33,34.95v-1.57c.42.31.82.59,1.36.98-.56.24-.95.41-1.36.59Z"/>
    <path class="cls-4" d="M147,34.97v-1.6c.53.28,1.02.54,1.74.92-.72.28-1.22.47-1.74.68Z"/>
    <path class="cls-4" d="M144.75,34.93c-.39-.16-.77-.31-1.36-.55.53-.4.93-.69,1.36-1.01v1.56Z"/>
    <path class="cls-4" d="M143.14,44.43c-1.49,1.35-3.91,1.32-5.42-.1,1.9.5,3.66.56,5.42.1Z"/>
    <path class="cls-4" d="M143.41,44.01c-1.91.56-3.73.55-5.68.03.96-.31,1.79-.63,2.69-.18.12.06.31.07.42.02.86-.46,1.67-.2,2.57.13Z"/>
  </g>
  <g>
    <path class="cls-5" d="M23.85,68.88h9.1l5.78,14.91,5.9-14.91h9.01l5.24,26.59h-9.64l-2.08-14.74-6.15,14.74h-5.28l-5.69-14.74-2.33,14.74h-9.22l5.36-26.59Z"/>
    <path class="cls-5" d="M60.07,82.21c0-2.02.45-3.88,1.35-5.57.9-1.69,2.12-3.15,3.68-4.37,1.55-1.22,3.36-2.17,5.44-2.84s4.28-1.01,6.61-1.01,4.53.34,6.61,1.01,3.89,1.62,5.44,2.84c1.55,1.22,2.78,2.68,3.68,4.37.9,1.69,1.35,3.56,1.35,5.61s-.45,3.94-1.35,5.62c-.9,1.68-2.12,3.12-3.68,4.32-1.55,1.2-3.36,2.12-5.44,2.77-2.08.65-4.29.97-6.65.97s-4.52-.32-6.58-.97c-2.06-.65-3.87-1.56-5.42-2.75-1.55-1.19-2.78-2.63-3.68-4.32-.9-1.69-1.35-3.58-1.35-5.68ZM69.79,82.21c0,.94.19,1.81.56,2.59.37.79.89,1.46,1.56,2.03.66.56,1.44,1,2.33,1.3.89.31,1.84.46,2.87.46,1.08,0,2.07-.16,2.97-.48.9-.32,1.68-.76,2.33-1.32.65-.56,1.16-1.24,1.52-2.03.36-.79.54-1.64.54-2.56s-.18-1.73-.54-2.52c-.36-.79-.86-1.47-1.5-2.06s-1.41-1.05-2.31-1.38-1.89-.49-2.97-.49-2.07.16-2.97.49c-.9.33-1.68.79-2.33,1.38-.65.59-1.16,1.27-1.52,2.06-.36.79-.54,1.63-.54,2.52Z"/>
    <path class="cls-5" d="M106.27,68.88l12.96,15.83-.5-15.83h9.27v26.59h-8.6l-12.8-15.44.29,15.44h-9.31v-26.59h8.68Z"/>
    <path class="cls-5" d="M130.28,68.88h22.73v7.3h-6.52v19.29h-9.68v-19.29h-6.52v-7.3Z"/>
    <path class="cls-5" d="M175.36,68.88v6.38h-10.72v3.42h10.01v6.1h-10.01v4.3h10.97v6.38h-20.36v-26.59h20.11Z"/>
    <path class="cls-5" d="M178.31,82.38c0-1.93.42-3.74,1.27-5.43.85-1.69,2-3.17,3.47-4.44,1.47-1.27,3.2-2.27,5.19-3,1.99-.73,4.15-1.09,6.48-1.09,2.58,0,5.17.45,7.77,1.34l.25,8.75c-2.33-1.83-4.71-2.75-7.15-2.75-.94,0-1.86.15-2.76.44-.9.29-1.7.72-2.41,1.29s-1.28,1.25-1.72,2.04c-.44.8-.66,1.69-.66,2.68,0,.89.2,1.73.6,2.5.4.78.95,1.45,1.66,2.03.71.58,1.52,1.03,2.45,1.36.93.33,1.92.49,2.97.49,1.41,0,2.67-.22,3.76-.67,1.09-.45,2.18-1.09,3.26-1.94l-.25,8.64c-.53.21-1.14.4-1.83.56s-1.41.3-2.16.4c-.75.11-1.5.19-2.24.25-.75.06-1.41.09-1.99.09-2.24,0-4.34-.35-6.27-1.06-1.94-.71-3.63-1.66-5.07-2.87-1.44-1.21-2.57-2.64-3.39-4.28-.82-1.64-1.22-3.42-1.22-5.32Z"/>
    <path class="cls-5" d="M204.71,95.46v-26.59h9.39v26.59h-9.39Z"/>
    <path class="cls-5" d="M216.34,68.88h22.73v7.3h-6.52v19.29h-9.68v-19.29h-6.52v-7.3Z"/>
    <path class="cls-5" d="M239.57,82.21c0-2.02.45-3.88,1.35-5.57.9-1.69,2.12-3.15,3.68-4.37,1.55-1.22,3.36-2.17,5.44-2.84s4.28-1.01,6.61-1.01,4.53.34,6.61,1.01,3.89,1.62,5.44,2.84c1.55,1.22,2.78,2.68,3.68,4.37.9,1.69,1.35,3.56,1.35,5.61s-.45,3.94-1.35,5.62c-.9,1.68-2.12,3.12-3.68,4.32-1.55,1.2-3.36,2.12-5.44,2.77-2.08.65-4.29.97-6.65.97s-4.52-.32-6.58-.97c-2.06-.65-3.87-1.56-5.42-2.75-1.55-1.19-2.78-2.63-3.68-4.32-.9-1.69-1.35-3.58-1.35-5.68ZM249.29,82.21c0,.94.19,1.81.56,2.59.37.79.89,1.46,1.56,2.03.66.56,1.44,1,2.33,1.3.89.31,1.84.46,2.87.46,1.08,0,2.07-.16,2.97-.48.9-.32,1.68-.76,2.33-1.32.65-.56,1.16-1.24,1.52-2.03.36-.79.54-1.64.54-2.56s-.18-1.73-.54-2.52c-.36-.79-.86-1.47-1.5-2.06s-1.41-1.05-2.31-1.38-1.89-.49-2.97-.49-2.07.16-2.97.49c-.9.33-1.68.79-2.33,1.38-.65.59-1.16,1.27-1.52,2.06-.36.79-.54,1.63-.54,2.52Z"/>
  </g>
  <g>
    <path class="cls-2" d="M22.16,67.19h9.1l5.78,14.91,5.9-14.91h9.01l5.24,26.59h-9.64l-2.08-14.74-6.15,14.74h-5.28l-5.69-14.74-2.33,14.74h-9.22l5.36-26.59Z"/>
    <path class="cls-2" d="M58.39,80.52c0-2.02.45-3.88,1.35-5.57.9-1.69,2.12-3.15,3.68-4.37,1.55-1.22,3.36-2.17,5.44-2.84s4.28-1.01,6.61-1.01,4.53.34,6.61,1.01,3.89,1.62,5.44,2.84c1.55,1.22,2.78,2.68,3.68,4.37.9,1.69,1.35,3.56,1.35,5.61s-.45,3.94-1.35,5.62c-.9,1.68-2.12,3.12-3.68,4.32-1.55,1.2-3.36,2.12-5.44,2.77-2.08.65-4.29.97-6.65.97s-4.52-.32-6.58-.97c-2.06-.65-3.87-1.56-5.42-2.75-1.55-1.19-2.78-2.63-3.68-4.32-.9-1.69-1.35-3.58-1.35-5.68ZM68.11,80.52c0,.94.19,1.81.56,2.59.37.79.89,1.46,1.56,2.03.66.56,1.44,1,2.33,1.3.89.31,1.84.46,2.87.46,1.08,0,2.07-.16,2.97-.48.9-.32,1.68-.76,2.33-1.32.65-.56,1.16-1.24,1.52-2.03.36-.79.54-1.64.54-2.56s-.18-1.73-.54-2.52c-.36-.79-.86-1.47-1.5-2.06s-1.41-1.05-2.31-1.38c-.9-.33-1.89-.49-2.97-.49s-2.07.16-2.97.49c-.9.33-1.68.79-2.33,1.38-.65.59-1.16,1.27-1.52,2.06-.36.79-.54,1.63-.54,2.52Z"/>
    <path class="cls-2" d="M104.59,67.19l12.96,15.83-.5-15.83h9.27v26.59h-8.6l-12.8-15.44.29,15.44h-9.31v-26.59h8.68Z"/>
    <path class="cls-2" d="M128.6,67.19h22.73v7.3h-6.52v19.29h-9.68v-19.29h-6.52v-7.3Z"/>
    <path class="cls-2" d="M173.67,67.19v6.38h-10.72v3.42h10.01v6.1h-10.01v4.3h10.97v6.38h-20.36v-26.59h20.11Z"/>
    <path class="cls-2" d="M176.62,80.7c0-1.93.42-3.74,1.27-5.43.85-1.69,2-3.17,3.47-4.44,1.47-1.27,3.2-2.27,5.19-3,1.99-.73,4.15-1.09,6.48-1.09,2.58,0,5.17.45,7.77,1.34l.25,8.75c-2.33-1.83-4.71-2.75-7.15-2.75-.94,0-1.86.15-2.76.44-.9.29-1.7.72-2.41,1.29s-1.28,1.25-1.72,2.04c-.44.8-.66,1.69-.66,2.68,0,.89.2,1.73.6,2.5.4.78.95,1.45,1.66,2.03.71.58,1.52,1.03,2.45,1.36.93.33,1.92.49,2.97.49,1.41,0,2.67-.22,3.76-.67,1.09-.45,2.18-1.09,3.26-1.94l-.25,8.64c-.53.21-1.14.4-1.83.56-.69.16-1.41.3-2.16.4-.75.11-1.5.19-2.24.25-.75.06-1.41.09-1.99.09-2.24,0-4.34-.35-6.27-1.06-1.94-.71-3.63-1.66-5.07-2.87-1.44-1.21-2.57-2.64-3.39-4.28-.82-1.64-1.22-3.42-1.22-5.32Z"/>
    <path class="cls-2" d="M203.02,93.78v-26.59h9.39v26.59h-9.39Z"/>
    <path class="cls-2" d="M214.66,67.19h22.73v7.3h-6.52v19.29h-9.68v-19.29h-6.52v-7.3Z"/>
    <path class="cls-2" d="M237.88,80.52c0-2.02.45-3.88,1.35-5.57.9-1.69,2.12-3.15,3.68-4.37,1.55-1.22,3.36-2.17,5.44-2.84,2.08-.67,4.28-1.01,6.61-1.01s4.53.34,6.61,1.01,3.89,1.62,5.44,2.84c1.55,1.22,2.78,2.68,3.68,4.37.9,1.69,1.35,3.56,1.35,5.61s-.45,3.94-1.35,5.62-2.12,3.12-3.68,4.32c-1.55,1.2-3.36,2.12-5.44,2.77-2.08.65-4.29.97-6.65.97s-4.52-.32-6.58-.97c-2.06-.65-3.87-1.56-5.42-2.75-1.55-1.19-2.78-2.63-3.68-4.32-.9-1.69-1.35-3.58-1.35-5.68ZM247.6,80.52c0,.94.19,1.81.56,2.59.37.79.89,1.46,1.56,2.03.66.56,1.44,1,2.33,1.3.89.31,1.84.46,2.87.46,1.08,0,2.07-.16,2.97-.48.9-.32,1.68-.76,2.33-1.32.65-.56,1.16-1.24,1.52-2.03.36-.79.54-1.64.54-2.56s-.18-1.73-.54-2.52c-.36-.79-.86-1.47-1.5-2.06s-1.41-1.05-2.31-1.38-1.89-.49-2.97-.49-2.07.16-2.97.49c-.9.33-1.68.79-2.33,1.38-.65.59-1.16,1.27-1.52,2.06-.36.79-.54,1.63-.54,2.52Z"/>
  </g>
  <g>
    <path class="cls-1" d="M79.87,111.17l.05.03,1.37,12.65-1.67-.87-.32-3.37-6.18-3.23-2.99,1.64-1.64-.85,11.37-5.99ZM79.19,118.38l-.24-2.5c-.04-.43-.08-.86-.12-1.28-.04-.42-.08-.85-.12-1.28-.38.22-.76.43-1.15.63s-.77.41-1.14.62l-2.2,1.21,4.96,2.59Z"/>
    <path class="cls-1" d="M83.24,124.62l3.96-9.23,2.08.89c.77.33,1.46.69,2.07,1.07.6.38,1.09.78,1.46,1.19.37.42.62.84.74,1.27.12.43.09.87-.1,1.31-.29.67-.83,1.09-1.64,1.27-.81.18-1.8.12-2.97-.16l2.8,5.99-1.93-.83-2.59-5.81-.61-.26-1.7,3.97-1.58-.68ZM86.9,120.46l.72.31c1.08.46,2,.68,2.75.66.76-.02,1.26-.33,1.52-.93.24-.55.11-1.1-.39-1.64-.5-.54-1.3-1.04-2.39-1.51l-.74-.32-1.47,3.43Z"/>
    <path class="cls-1" d="M95.47,118.93l8.72,3.15-.35.98-3.55-1.28-3.06,8.47-1.6-.58,3.06-8.47-3.57-1.29.35-.98Z"/>
    <path class="cls-1" d="M102.94,132.16l2.97-9.59,1.64.51-2.97,9.59-1.64-.51Z"/>
    <path class="cls-1" d="M107.74,131.46l1.65-.03c.18.6.53,1.12,1.04,1.56s1.19.76,2,.96c.42.1.81.16,1.17.15.36,0,.68-.05.96-.14.28-.1.51-.23.69-.41.18-.18.3-.39.36-.63.06-.25.07-.49.02-.72-.05-.23-.18-.46-.38-.7s-.49-.49-.86-.76c-.37-.27-.83-.56-1.39-.88-.57-.34-1.07-.65-1.51-.94-.43-.29-.79-.58-1.06-.87-.27-.29-.45-.58-.55-.88-.1-.3-.1-.62-.02-.95s.27-.63.55-.87c.28-.25.63-.43,1.05-.56.42-.13.89-.19,1.42-.19.53,0,1.09.07,1.68.22.97.24,1.75.59,2.37,1.06.61.46,1.06.99,1.33,1.58l-1.52.17c-.26-.46-.57-.83-.94-1.13s-.87-.52-1.5-.68c-.71-.18-1.33-.19-1.84-.03-.52.16-.83.44-.93.85-.05.2-.04.39.04.57.08.18.22.38.43.58.21.2.5.42.87.66.37.24.82.52,1.35.83.65.37,1.19.72,1.62,1.05s.77.65,1.02.97c.25.32.4.65.47.98.07.33.05.68-.04,1.06-.1.4-.31.75-.62,1.03-.31.28-.7.49-1.16.62-.46.14-.98.2-1.55.2-.57,0-1.17-.09-1.8-.25-.63-.16-1.2-.36-1.7-.6-.5-.24-.94-.52-1.31-.82-.37-.3-.68-.63-.92-.98-.24-.35-.41-.72-.52-1.09Z"/>
    <path class="cls-1" d="M126.73,126.91h.06s5.42,11.52,5.42,11.52l-1.87-.28-1.4-3.08-6.89-1.04-2.29,2.52-1.83-.27,8.8-9.37ZM128.44,133.94l-1.04-2.28c-.18-.4-.35-.79-.53-1.17-.17-.39-.35-.78-.53-1.17-.29.33-.58.66-.88.97-.3.31-.59.63-.88.96l-1.69,1.86,5.54.84Z"/>
    <path class="cls-1" d="M146.32,128.71l1.72.02-.12,10.52h-.06l-11.32-8.46-.09,7.86-1.72-.02.12-10.57h.06s11.32,8.48,11.32,8.48l.09-7.82Z"/>
    <path class="cls-1" d="M163.34,127.23l.12,1.03-5.44.63.34,2.96,5.25-.61.12,1.03-5.25.61.58,4.95-1.71.2-1.16-9.97,7.15-.83Z"/>
    <path class="cls-1" d="M166.14,132.04c-.15-.7-.08-1.41.21-2.12.29-.71.75-1.37,1.37-1.98s1.39-1.16,2.29-1.63c.9-.47,1.89-.83,2.97-1.06,1.07-.23,2.11-.32,3.12-.26s1.93.24,2.75.53c.82.3,1.51.71,2.06,1.24.55.53.91,1.15,1.07,1.87.15.71.09,1.42-.21,2.13-.29.71-.75,1.37-1.37,1.98s-1.39,1.16-2.3,1.63c-.91.47-1.9.83-2.99,1.06-1.05.23-2.08.32-3.08.26s-1.91-.23-2.74-.53c-.82-.3-1.51-.71-2.08-1.24-.56-.53-.92-1.16-1.08-1.89ZM167.84,131.68c.13.59.41,1.1.86,1.52.45.42.99.76,1.64.99.65.24,1.36.38,2.15.42.79.04,1.59-.02,2.4-.2.86-.19,1.66-.47,2.37-.84.72-.38,1.32-.8,1.81-1.29.49-.49.84-1.01,1.07-1.58.22-.57.27-1.14.15-1.71-.13-.58-.41-1.08-.85-1.51-.44-.43-.98-.76-1.62-1-.64-.24-1.36-.38-2.16-.42s-1.63.03-2.48.22c-.84.18-1.61.46-2.32.83-.71.37-1.31.8-1.8,1.29-.49.49-.84,1.02-1.07,1.58s-.27,1.14-.15,1.71Z"/>
    <path class="cls-1" d="M184.3,127.94c-.25-.67-.28-1.38-.08-2.12.19-.74.55-1.46,1.09-2.15.53-.69,1.22-1.33,2.04-1.93.83-.59,1.76-1.08,2.8-1.46,1.03-.38,2.04-.6,3.05-.69,1.01-.08,1.94-.03,2.79.15.85.18,1.59.5,2.21.95.62.45,1.06,1.02,1.31,1.71.25.68.28,1.4.09,2.14-.19.74-.55,1.46-1.09,2.15-.53.69-1.22,1.33-2.05,1.93-.83.59-1.77,1.08-2.81,1.46-1.01.37-2.02.6-3.02.68-1,.08-1.93.03-2.78-.15-.86-.18-1.6-.5-2.23-.95-.63-.45-1.07-1.03-1.33-1.72ZM185.94,127.35c.21.57.56,1.03,1.06,1.39.5.36,1.09.61,1.76.76.67.15,1.4.19,2.19.12.79-.07,1.57-.24,2.35-.53.83-.3,1.58-.69,2.24-1.16s1.2-.98,1.61-1.53c.42-.55.7-1.12.84-1.71.14-.59.12-1.16-.09-1.71-.2-.56-.55-1.02-1.05-1.38-.5-.36-1.07-.62-1.74-.77-.67-.15-1.4-.19-2.2-.12-.8.07-1.61.26-2.43.56-.8.29-1.53.67-2.19,1.14-.66.47-1.19.97-1.61,1.52s-.7,1.12-.84,1.71c-.14.59-.12,1.16.09,1.71Z"/>
    <path class="cls-1" d="M204.65,125.42l-4.78-8.83,2.37-1.28c1.19-.65,2.32-1.13,3.39-1.46,1.07-.32,2.04-.48,2.92-.47.88,0,1.65.19,2.32.53.67.35,1.19.87,1.57,1.57.39.71.54,1.44.47,2.19-.07.75-.35,1.5-.84,2.25-.49.75-1.17,1.49-2.05,2.21-.87.73-1.92,1.42-3.13,2.08l-2.23,1.2ZM206.49,123.24c.97-.53,1.81-1.08,2.5-1.65.69-.57,1.24-1.16,1.62-1.75.39-.59.61-1.19.67-1.79.06-.6-.06-1.18-.37-1.75-.61-1.12-1.61-1.7-3-1.72s-3.09.51-5.09,1.59l-.95.51,3.79,7,.82-.44Z"/>
  </g>
</svg>