<?xml version="1.0" encoding="UTF-8"?>
<svg id="Capa_1" data-name="Capa 1" xmlns="http://www.w3.org/2000/svg" viewBox="0 0 43.27 25.98">
  <defs>
    <style>
      .cls-1 {
        fill: #db733a;
      }

      .cls-1, .cls-2 {
        stroke-width: 0px;
      }

      .cls-2 {
        fill: #fff;
      }
    </style>
  </defs>
  <path class="cls-2" d="M11.57,12.06h-2.45v-7.84h2.45v7.84Z"/>
  <path class="cls-2" d="M16.13,6.38l1.14-2.16h2.54l-2.07,3.82,2.17,4.02h-2.55l-1.23-2.32-1.21,2.32h-2.57l2.18-4.02-2.06-3.82h2.57l1.1,2.16Z"/>
  <path class="cls-2" d="M23.67,12.21c-1.2,0-2.18-.36-2.92-1.08-.74-.72-1.12-1.65-1.12-2.8v-.2c0-.8.15-1.51.45-2.12.3-.61.73-1.09,1.3-1.42.57-.34,1.25-.5,2.03-.5,1.1,0,1.97.34,2.61,1.03.64.68.96,1.64.96,2.86v.95h-4.86c.09.44.28.79.57,1.04.29.25.68.38,1.15.38.77,0,1.38-.27,1.81-.81l1.12,1.32c-.3.42-.74.76-1.29,1-.56.25-1.16.37-1.8.37ZM23.39,5.96c-.72,0-1.14.47-1.28,1.42h2.47v-.19c0-.39-.09-.69-.3-.91-.21-.21-.51-.32-.89-.32Z"/>
  <path class="cls-2" d="M29.9,12.06h-2.45V1.58h2.45v10.48Z"/>
  <rect class="cls-2" x="9.11" y="1.05" width="2.43" height="2.43"/>
  <g>
    <path class="cls-2" d="M7.91,1.65c-.33-.53-.79-.94-1.39-1.22-.6-.29-1.29-.43-2.07-.43H.39v11.07s.29-.64,1.04-1.18c.67-.48,1.41-.66,1.41-.66v-.75c0-.83-.11-1.42-.36-2.22-.09-.3-.16-.61-.21-.94-.18-1.26.06-1.93.21-2.35.29-.8.55-1.12.55-1.12,0,0,.17.3.35.47.17.16.32.22.47.23,0-.07-.02-.18-.02-.32,0-.54.25-.89.25-.89,0,0,.16.39.36.74.21.36.43.52.43.52h0c.06.02.12.05.19.09.74.35,1.42.28,2.04,0,.14-.06-.02.55-.35.9-.19.2-.51.49-.76.67-.25.18-1.15.74-1.55,1.44-.18.31-.26.65-.28,1h.25c1.24,0,2.22-.3,2.93-.89.71-.59,1.07-1.39,1.07-2.38,0-.67-.16-1.27-.49-1.8Z"/>
    <path class="cls-1" d="M4.11,2.56c.34-.05.48-.05.75.07h0s-.21-.16-.43-.52c-.2-.35-.36-.74-.36-.74,0,0-.25.35-.25.89,0,.14,0,.24.02.32.09,0,.18,0,.27,0Z"/>
  </g>
  <g>
    <path class="cls-1" d="M8.15,10.05c-.84-.11-1.89-.17-2.95-.17C.51,9.88,0,12.41,0,13.5v10.4c0,.22.18.4.4.4h3.82c.22,0,.4-.18.4-.4v-6.23h3.48c.22,0,.4-.18.4-.4v-2.8c0-.22-.18-.4-.4-.4h-3.43c.15-.62.63-.91,1.49-.91.37,0,.68.02,1.45.08l.46.03c.11,0,.22-.03.3-.11s.13-.18.13-.29v-2.42c0-.2-.15-.37-.35-.4Z"/>
    <path class="cls-1" d="M19.33,13.54h-9.95c-.22,0-.4.18-.4.4v9.95c0,.22.18.4.4.4h9.95c.22,0,.4-.18.4-.4v-9.95c0-.22-.18-.4-.4-.4ZM13.45,21.73v-5.63h1.81v5.63h-1.81Z"/>
    <path class="cls-1" d="M43.09,20.37c-.15-.1-.34-.08-.47.02-.04.03-1.07.84-2.93.33-.52-.14-.95-.51-1.44-.94-.73-.63-1.56-1.35-2.91-1.5-1.11-.12-2.15-.06-2.91.03l6.49-6.61c.11-.12.15-.29.08-.44-.06-.15-.21-.25-.37-.25h-4.94c-.11,0-.22.05-.3.13l-4.68,5.2-2.39-2.68c-.08-.09-.19-.13-.3-.13h-4.96c-.16,0-.31.1-.37.25s-.03.32.09.44l4.77,4.69-4.77,4.71c-.12.11-.15.29-.09.44.06.15.21.25.37.25h4.96c.11,0,.22-.05.3-.13l2.39-2.68.03.03c.24.43,1.94,3.36,4.42,4.11.76.23,1.62.35,2.51.35,2.32,0,4.84-.81,6.19-2.56,1.09-1.42,1.41-2.56,1.42-2.6.05-.17-.02-.34-.17-.44Z"/>
  </g>
  <path class="cls-2" d="M39.76,21.25c-.91-.2-1.41-.73-1.41-.73l-.93.51,2,.56-1.89.31,1.44.38-1.81.47,2.55.17-1.91.58,1.19.38-1.72.46,1.85.25s1.63-.65,2.34-1.54c.99-1.23,1.22-2.06,1.22-2.06,0,0-.93.69-2.92.26Z"/>
</svg>