<?xml version="1.0" encoding="UTF-8"?>
<svg id="Capa_1" data-name="Capa 1" xmlns="http://www.w3.org/2000/svg" xmlns:xlink="http://www.w3.org/1999/xlink" viewBox="0 0 121.29 129">
  <defs>
    <style>
      .cls-1, .cls-2, .cls-3, .cls-4, .cls-5 {
        stroke-width: 0px;
      }

      .cls-1, .cls-2, .cls-6, .cls-7, .cls-8 {
        fill-rule: evenodd;
      }

      .cls-1, .cls-8 {
        fill: #fff;
      }

      .cls-2, .cls-5 {
        fill: #272967;
      }

      .cls-3 {
        fill: none;
      }

      .cls-4 {
        fill: #f3f3f1;
      }

      .cls-6, .cls-7 {
        fill: #4570b3;
        stroke-width: .04px;
      }

      .cls-6, .cls-7, .cls-8 {
        stroke-miterlimit: 10;
      }

      .cls-6, .cls-8 {
        stroke: #4570b3;
      }

      .cls-9 {
        clip-path: url(#clippath);
      }

      .cls-7 {
        stroke: #599ddf;
      }

      .cls-8 {
        stroke-width: .56px;
      }
    </style>
    <clipPath id="clippath">
      <rect class="cls-3" x="-1594.36" y="-37" width="1368" height="342"/>
    </clipPath>
  </defs>
  <g>
    <g>
      <path class="cls-2" d="M87.1,50.74c4.08-.83,8.16-1.66,12.24-2.49,3.06-.65,6.01-1.69,8.99-2.63,2.26-1.27,4.51-2.58,6.48-4.28.81-1.3,1.82-2.51,2.23-4.01.34-.92.19-1.93.45-2.87.43-1.25,2.21-1.69,3.15-.74.81.65.63,1.76.65,2.67,0,14,.01,28-.15,42-.96.51-1.95.95-2.91,1.45-.72.34-1.19,1.04-1.93,1.36-.96.45-2.09.76-3.12.35-.96-.35-1.65-1.14-2.31-1.88-.51,1.41-1.42,2.75-2.8,3.43-1.96.94-4.45.82-6.21-.52-2.14-1.52-3.11-4.26-3-6.81-1.01,1.23-2.81,1.25-4.01.29-.79.94-1.38,2.21-1.04,3.45.49,2.14.97,4.27,1.49,6.4-1.16.34-2.35.56-3.53.84-.99-4.35-2-8.69-2.98-13.04,1.18-.27,2.34-.57,3.54-.77.19.93.4,1.86.6,2.79.64-1.52,1.33-3.37,3.04-3.95,1.4-.5,2.96.45,3.36,1.84.75-1.99,2.59-3.47,4.69-3.77,1.74-.36,3.42.47,4.82,1.43-.15-.71-.32-1.42-.49-2.13,1.14-.27,2.27-.57,3.42-.76.65,2.86,1.31,5.71,1.96,8.57.09.51.4.93.69,1.35,1-.54,1.95-1.16,2.94-1.72,0-10.8.01-21.61,0-32.41-4.29,4.14-10.08,6.2-15.78,7.53-26.63,5.43-53.21,11.11-79.84,16.52-4.65,1.04-9.26,2.95-12.69,6.34-2.4,2.34-4,5.41-4.71,8.66.71-.77,1.41-1.58,2.32-2.12,1.72-1.12,3.78-1.45,5.73-1.91,4.44-.98,8.84-2.11,13.29-2.99.25,1.08.48,2.15.77,3.22-1.55.5-3.03,1.46-3.74,2.98-.77,1.7-1.08,3.66-.69,5.5.65,2.93,1.36,5.86,2,8.8.57,2.58-.68,5.66-3.3,6.55-1.53.45-3.23.64-4.78.2-.22-1.08-.47-2.16-.72-3.24,1.4.26,2.93.2,4.17-.57.74-.46,1.11-1.38.91-2.23-.61-2.79-1.28-5.56-1.9-8.34-.39-1.61-.39-3.36.24-4.9.79-1.67,2.41-2.68,3.86-3.71-4.05.94-8.11,1.86-12.17,2.8-1.21.29-2.54.93-2.98,2.19-.36,1.26-.03,2.84,1.13,3.58,1.03.66,2.31.53,3.46.39-.15,1.2-.24,2.41-.33,3.62-1.84.23-3.85.18-5.45-.86-1.04-.65-1.71-1.72-2.21-2.81.03,9.66,0,19.32,0,28.98,2.49-1.89,5.55-2.77,8.55-3.49,7.69-1.81,15.47-3.22,23.2-4.81.24,1.28.4,2.59.64,3.87-6.57,1.34-13.16,2.59-19.71,4.01-3.19.81-6.54,1.29-9.44,2.95-1.61.9-2.8,2.52-3.07,4.35-.28,1.12.16,2.58-.94,3.36-1.21,1.03-3.29-.06-3.13-1.64,0-12.92,0-25.83,0-38.74-.06-2.68.21-5.39,1.04-7.94,1.62-5.25,5.49-9.72,10.33-12.28,2.31-1.12,4.63-2.3,7.12-2.96l10.6-2.38,11.42-2.23,46.59-9.69M104.98,72.48h0c-1.96.61-3.08,2.95-2.54,4.89.43,2.05,2.58,3.72,4.7,3.19,1.93-.28,3.45-2.37,2.85-4.29-.29-1-.29-2.19-1.14-2.92-.97-1.04-2.55-1.37-3.88-.87Z"/>
      <path class="cls-2" d="M37.81,73.39c1.21-.26,2.42-.55,3.63-.81,1.55,6.8,3.09,13.6,4.68,20.39.38,1.38,2.09,1.1,3.09.62-1.86-2.2-2.56-5.44-1.49-8.14.74-2.03,2.67-3.46,4.79-3.75,1.71-.29,3.36.51,4.71,1.49-.17-.73-.35-1.46-.47-2.19,1.12-.23,2.24-.5,3.36-.77.7,2.92,1.33,5.86,2.02,8.78.13.61.56,1.24,1.24,1.28.72.11,1.38-.22,2-.54.13.84.54,1.67.44,2.52-.86.85-2.07,1.32-3.27,1.36-1.42-.01-2.46-1.09-3.32-2.08-.6,1.91-2.16,3.57-4.19,3.9-1.94.49-3.95-.2-5.46-1.45.15.61.3,1.22.45,1.83-1.06.98-2.52,1.55-3.97,1.49-1.18-.06-2.15-.86-2.89-1.71.14.58.29,1.17.41,1.76-1.08.91-2.49,1.59-3.93,1.33-1.17-.23-2.04-1.13-2.77-2.02-.54,1.56-1.61,3.02-3.2,3.62-1.59.59-3.48.61-5-.19-3.72-1.95-4.99-7.35-2.63-10.79,1.44-2.1,4.39-3.09,6.78-2.14.74.27,1.38.74,2.05,1.16-.17-.72-.34-1.44-.52-2.16,1.13-.28,2.26-.56,3.41-.79.66,2.89,1.32,5.77,1.98,8.66.11.5.35,1.04.86,1.26.74.29,1.55,0,2.23-.31-1.81-7.17-3.32-14.42-5.03-21.62h0ZM53.14,84.45h0c-2.76,1.04-3.25,5.12-1.08,6.99,1.72,1.84,5.21,1.26,6.15-1.11.71-1.32-.07-2.74-.3-4.08-.72-1.8-3.02-2.59-4.77-1.81h0ZM30.91,89.55h0c-1.9.65-2.93,2.89-2.46,4.8.39,2.14,2.69,3.86,4.87,3.22,1.85-.33,3.29-2.39,2.71-4.22-.29-.98-.26-2.15-1.08-2.88-.98-1.13-2.66-1.44-4.03-.91Z"/>
      <path class="cls-2" d="M77.17,79.87c.62-2.32,2.44-4.39,4.83-4.95,2.32-.65,5.03-.16,6.77,1.55-1.83,3.06-3.79,6.05-5.68,9.07,2.13.29,4.37-.32,5.94-1.81.21,1.03.45,2.06.7,3.09-2.15,1.4-4.85,2.04-7.38,1.51-1.91-.43-3.7-1.65-4.55-3.44-.81-1.53-.95-3.34-.62-5.02h0ZM80.34,79.53h0c-.77,1.61-.28,3.5.82,4.83,1.25-2.15,2.56-4.25,3.8-6.4-1.64-.82-3.87-.15-4.61,1.57Z"/>
      <path class="cls-2" d="M70.71,77.71c1.42-1.07,3.74-.54,4.43,1.13.39,1.09.57,2.25.84,3.38.35,1.78,1.08,3.58.61,5.41-.56,1.98-2.35,3.39-4.3,3.88-2.11.6-4.71.49-6.3-1.2-1.27-1.24-1.44-3.09-1.86-4.73-.42-2.01-.97-3.98-1.33-6,1.14-.24,2.28-.51,3.42-.77.62,2.56,1.16,5.13,1.78,7.69.27,1.11,1.13,2.13,2.3,2.33,1.23.15,2.66-.39,3.18-1.59.67-1.36-.04-2.84-.29-4.21-1.23.17-2.68-.17-3.31-1.34-.8-1.29-.47-3.13.82-3.97Z"/>
      <path class="cls-2" d="M83.31,96.64c.98-.23,1.98-.38,2.96-.57.33,1.79.65,3.58.98,5.37.98-.19,1.97-.36,2.96-.56.16.88.34,1.76.46,2.65-.99.15-1.97.34-2.95.53.26,1.32.46,2.66.72,3.98.13.66.41,1.42,1.11,1.65.76.25,1.5-.18,2.22-.36.11.69.22,1.37.33,2.06-1.15.95-2.76,1.25-4.19.87-1.13-.33-1.88-1.38-2.15-2.49-.44-1.71-.61-3.49-1.02-5.21-.83.17-1.66.32-2.49.48.06.87-.19,1.89-1.08,2.26-1.37.79-3.33-.46-2.9-2.07-.93.29-2,.67-2.37,1.66-.53,1.52-.04,3.57,1.5,4.31,1.8.9,3.94.16,5.5-.91.13.92.3,1.83.47,2.74-2.16,1.21-4.94,1.71-7.22.56-2.95-1.38-3.98-5.51-2.32-8.24,1.4-2.61,5.21-3.6,7.67-1.92-.07-.22-.2-.67-.27-.89,1.01-.23,2.05-.39,3.07-.6-.35-1.77-.63-3.55-.99-5.31Z"/>
      <path class="cls-2" d="M55.69,97.12c1.01-.16,2.01-.37,3.02-.54,1.06,5.74,2.05,11.5,3.15,17.24.34,1.17,1.8.82,2.66.53-.8-1.05-1.44-2.25-1.55-3.59-.39-3,2.02-6.09,5.08-6.29,1.81-.27,3.61.43,4.97,1.62-1.68,2.48-3.42,4.92-5.12,7.39,1.76.37,3.63-.12,5-1.28.13.86.29,1.72.46,2.58-2.62,1.62-6.39,1.77-8.74-.42.12.66.25,1.32.35,1.99-.96.62-2.08,1.11-3.26,1.02-1.45-.15-2.66-1.4-2.87-2.83-1.05-5.81-2.11-11.61-3.15-17.42h0ZM65.77,108.49h0c-.63,1.29-.25,2.79.53,3.93,1.15-1.71,2.27-3.44,3.42-5.15-1.35-.82-3.35-.27-3.95,1.23Z"/>
      <path class="cls-2" d="M99.1,99.08c.95-.16,1.89-.34,2.84-.52.52,2.63.88,5.29,1.5,7.9.48,1.01,1.73.57,2.57.38.11.66.21,1.32.3,1.98-.96.69-2.18,1.22-3.38.91-.92-.28-1.55-1.06-2.16-1.76-.43.94-.99,1.88-1.89,2.44-1.58.97-3.72.96-5.28-.07-2.96-1.95-3.64-6.64-1.26-9.3,1.29-1.37,3.43-1.99,5.2-1.27.69.26,1.28.72,1.88,1.15-.12-.62-.23-1.23-.33-1.85h0ZM96.09,101.75h0c-2.61.75-3.04,4.65-.89,6.17,1.78,1.59,5.04.26,5.08-2.16-.22-1.18-.16-2.6-1.2-3.41-.77-.77-1.97-.87-2.98-.6Z"/>
      <path class="cls-2" d="M35.42,102.04c2.29-2.47,6.36-3.27,9.34-1.62,1.96,1.04,3.02,3.58,2.26,5.68-.29.85-.98,1.46-1.65,2.02-.77-.49-1.55-.98-2.32-1.46.87-.73,1.31-2,.63-3.01-1.17-1.81-4-1.57-5.39-.14-1.12.96-1.39,2.85-.28,3.92,1.95,2.04,4.86,2.65,7.06,4.32,1.91,1.48,2.64,4.32,1.55,6.5-1.27,2.41-4.46,3.32-6.96,2.57-.45-1.03-.44-2.24-.73-3.34,1.01.47,2.15.91,3.27.57,1.02-.23,1.88-1.2,1.76-2.28-.15-1.44-1.44-2.38-2.59-3.05-1.79-1.04-3.87-1.6-5.46-2.94-2.19-1.9-2.47-5.61-.49-7.75Z"/>
      <path class="cls-2" d="M48.51,109.59c1.99-2.84,6.5-2.96,8.89-.56-1.73,2.45-3.43,4.92-5.14,7.38,1.77.31,3.59-.16,5.01-1.25.16.86.32,1.71.45,2.58-2.32,1.29-5.37,1.7-7.72.27-2.84-1.64-3.54-5.89-1.5-8.42h0ZM50.53,110.77h0c-1.06,1.31-.84,3.27.18,4.53,1.13-1.71,2.25-3.43,3.4-5.13-1.14-.69-2.74-.45-3.58.6Z"/>
      <path class="cls-2" d="M102.42,114.16c.93-.28,2.08-.29,2.71.58.89,1.05.26,2.85-1.09,3.1-15.98,3.13-31.98,6.21-47.97,9.32-.79.2-1.74.32-2.37-.31-1.23-.98-.64-3.28.98-3.42,15.91-3.11,31.83-6.18,47.75-9.28Z"/>
    </g>
    <g>
      <path class="cls-6" d="M39.61,24.82c-1.76-.4-22.33,1.91-21.02,5.1,1.97,4.78,14.81,3.86,19.5,3.41,8.64-.83,20.64-2.52,29.1-2.23,6.79.23,13.91-.27,20.98.31.06,0,18.78,1.58,13.78-1.1-8.49-4.54-16.32-4.73-25.89-5.4-6.38-.45-16.48-.9-22.75-.9-2.75,0-12.25,1.14-13.7.81Z"/>
      <path class="cls-8" d="M30.3,36.42c-2.05-.25-19.55,5.81-17.68,9.3,2.81,5.23,16.79,3.88,22.1,2.82,9.78-1.96,24.49-6.46,34.2-7.11,7.79-.52,15.88-1.92,24.03-2.08.07,0,21.66-.37,15.63-2.85-10.24-4.2-19.21-3.51-30.24-3.17-7.35.23-19.99-.89-27.16-.16-3.14.32-19.19,3.47-20.89,3.26Z"/>
      <path class="cls-7" d="M28.72,50.29c-2.07-.11-19.13,7.09-17.02,10.45,3.15,5.03,17.01,2.76,22.24,1.35,9.63-2.6,24.01-8.07,33.66-9.36,7.73-1.04,15.71-2.97,23.83-3.67.07,0,25.28-4.18,19.1-6.25-10.49-3.52-19.55-1.05-30.53.02-7.32.71-23.55,1.62-30.65,2.82-3.12.53-18.92,4.73-20.63,4.64Z"/>
      <polygon class="cls-1" points="89.49 24.08 88.27 16.83 79.42 19.59 79.42 10.52 79.42 6.12 72.69 5.96 72.2 2.47 48.75 1.74 47.7 5.39 41.4 6.12 40.36 20.3 31.58 16.88 29.87 22.61 38.17 27.01 35.12 34.69 34.63 63.11 85.86 52.25 86.71 36.89 82.81 26.4 89.49 24.08"/>
      <path class="cls-2" d="M84.5,52.54l.05-17.12c-1.06-3.04-3.47-6.43-4.73-9.58,2.94-1.41,5.87-2.81,8.81-4.22.17-1.38-.31-2.3-1.26-2.92l-8.61,3.15c-.38.17-1.19.47-1.19-.21-.09-3.36-.01-6.73-.03-10.1.08-.52-.36-.89-.54-1.32.27,0,.81,0,1.08.01.2-1.23.21-2.51.03-3.74-2.27.04-4.55-.01-6.82.03,0-1.16.1-2.32-.14-3.46-7.41.03-14.83-.06-22.24.05-.02,1.14-.02,2.27-.01,3.41-2.13,0-4.27-.06-6.4.02l-.13.1c0,1.13-.01,2.28.07,3.41.18.07.54.2.72.27-.59,1.07-.36,2.3-.4,3.47.02,2.95-.03,5.9.03,8.86-.44-.18-.88-.35-1.32-.54l-7-2.99-1.71-.74c-1.52.85-2.21,2.95-1.05,4.03,3.02,1.39,6.12,2.61,9.15,3.96-.14.9-.76,1.62-1.12,2.44-1.01,2.1-2.17,4.13-3.2,6.22-.22.33-.2.65-.2,1.01-.02.1,0,.06-.03.5v26.22s-2.91.9-2.91.9c.04-3.61-.09-10.87.09-14.48-.14-4.65-.14-9.31-.05-13.97-.06-1.51,2.67-6.11,3.4-7.18-1.64-.8-3.36-1.42-5.02-2.14-1.5-.64-3.49-1.63-3.68-3.68-.29-1.49.5-2.86,1.01-4.2.56-1.69,2.45-2.72,4.18-2.42,2.29.4,4.22,1.91,6.49,2.34.11-1.74.04-3.49.06-5.24.07-1.15-.66-2.17-.6-3.32,0-1.73-.25-3.88,1.21-5.14,1.6-1.2,3.7-.41,5.5-.87.11-.82.22-1.71.84-2.32.73-.85,1.91-1,2.96-1.03,6.87,0,13.75,0,20.63,0,1.06.04,2.27.2,2.98,1.09.59.62.68,1.5.87,2.28,1.78.41,3.73-.27,5.4.62,1.1.6,1.47,1.92,1.49,3.09-.04,1.61.24,3.34-.6,4.81.06,1.92,0,3.85.04,5.77,1.71-.56,3.3-1.42,5.02-1.98,1.78-.52,4.03.33,4.68,2.16.83,2.18,2.51,5.43-.21,6.73-1.48.71-4.1,1.26-6.15,2.79-.51.38,2.44,3.26,2.78,9.52.35,6.43.32,13.68.43,15.16M39.91,62c.06-2.6-.28-8.56-.3-11.16-.25-3.51.11-7.04-.29-10.54-.09-1.22-.05-2.44-.09-3.66-.03-.35,0-.45.06-.74.08-.13.08-.15.17-.28,2.2-3.97,4.56-7.86,6.74-11.84l-.24-13.04c-.11-.38-.57-.15-.72-.51h2.72s.07,13.86.07,13.86c-1.93,3.58-4.02,7.08-5.99,10.64-.19.45-.14.76-.17,1.19-.05.21,0,.45-.03.68l.27,24.93"/>
      <rect class="cls-5" x="41.14" y="9.65" width="37.63" height="1.98"/>
      <rect class="cls-5" x="34.67" y="35.15" width="51" height="2.48"/>
      <polygon class="cls-2" points="87.18 53.24 33.35 65.11 33.39 62.35 87.1 50.74 87.18 53.24"/>
    </g>
  </g>
  <g class="cls-9">
    <path class="cls-4" d="M73.24,308.46c-.19-2.08,1.93-4.49,3.27-6.56,3.36-5.16,6.85-10.24,10.37-15.29,6.65-9.56,13.43-19.04,20.01-28.65,1.81-2.65,3.53-5.51,4.57-8.52,2.6-7.57,4.73-15.3,7.16-22.93.73-2.28,2.23-4.36,2.69-6.66,2.64-13.25,4.15-26.8,7.87-39.72,3.05-10.6,5.43-19.49-6.49-26.02-2.59-1.42-5.08-4.81-5.74-7.71-4.09-18.05-7.82-36.18-11.17-54.38-.51-2.78.85-6.57,2.6-8.99,4.88-6.74,7.21-12.03-2.74-16.63-2.69-1.25-5.24-6.39-5.09-9.62.94-20.45-10.13-36.89-17-54.78-2.88-7.5-6.9-9.7-14.79-9.72-34.05-.1-68.14-.23-102.14-1.83-25.37-1.2-50.66-4.52-75.95-7.22-10.2-1.09-20.26-3.4-30.46-4.54-14.54-1.62-29.29-4.62-43.66-3.43-14.25,1.18-28.11,6.95-42.2,10.45-6.81,1.69-13.75,2.86-20.65,4.15-10.2,1.91-20.45,3.56-30.62,5.61-12.07,2.44-24.03,7.01-36.13,7.38-20.68.63-41.46-3.29-62.14.83-17.24,3.43-34.49,6.79-51.66,10.51-6.06,1.31-11.87,4.98-17.86,5.13-14.29.37-28.62-.54-42.92-1.25-11.59-.57-23.16-1.7-34.75-2.37-10.61-.62-21.28-.44-31.83-1.54-17.3-1.8-34.46-5.15-51.79-6.4-25.91-1.88-51.92-2.54-77.89-3.59-1.9-.08-4.31.26-5.69,1.38-10.68,8.61-22.07,4.91-33.38,2.22-9.04-2.15-18.01-4.61-27.03-6.85-6.35-1.58-12.72-3.04-19.09-4.56-13.21,3.78-27.29,5.82-42.62,2.68-9.24-1.89-19.05-1.45-28.59-1.35-13.77.15-27.59,1.94-41.29,1.18-3.06-.17-6.13-.38-9.2-.62-2.52-2.16-5.82-2.94-10.46-2.95-4.82-.01-9.63-.03-14.45-.05-4.12-.71-8.22-1.54-12.26-2.53-7.44-1.82-12.38-.66-15.93,2.33-19.85-.22-39.69-.64-59.5-1.58-25.37-1.2-50.66-4.52-75.95-7.22-10.2-1.09-20.26-3.4-30.46-4.54-14.54-1.62-29.29-4.62-43.66-3.43-14.25,1.18-28.11,6.95-42.2,10.45-6.81,1.69-13.75,2.86-20.65,4.15-10.2,1.91-20.45,3.56-30.62,5.61-12.07,2.44-24.03,7.01-36.13,7.38-20.68.63-41.46-3.29-62.14.83-17.24,3.43-34.49,6.79-51.66,10.51-6.06,1.31-11.87,4.98-17.86,5.13-14.29.37-28.62-.54-42.92-1.25-11.59-.57-23.16-1.7-34.75-2.37-10.61-.62-21.28-.44-31.83-1.54-17.3-1.8-34.46-5.15-51.79-6.4-25.91-1.88-51.92-2.54-77.89-3.59-1.9-.08-4.31.26-5.69,1.38-10.68,8.61-22.07,4.91-33.38,2.22-9.04-2.15-18.01-4.61-27.03-6.85-6.35-1.58-12.72-3.04-19.09-4.56-13.21,3.78-27.29,5.82-42.62,2.68-9.24-1.89-19.05-1.45-28.59-1.35-13.77.15-27.59,1.94-41.29,1.18-15.55-.86-31.3-2.47-46.37-6.15-14.63-3.58-19.62,4.34-23.3,15.14-3.13,9.18-2.91,20.58-8.47,27.6-7.58,9.58-8.13,20.68-12.65,30.51-7.83,17.03,1.92,27.95,8.49,40.79,2.2,4.3,2.62,9.55,3.68,14.4,1.18,5.41.27,13.56,3.55,15.86,17.66,12.39,26.27,29.94,31.32,49.77.89,3.5-3.22,8.58-1.93,11.64,6.92,16.5,12.29,32.81,14.77,51.05,2.2,16.15-.44,31.8-7.7,42.38-6.21,9.06-9.57,18.12-10.95,10.16H73.43c.14,12.46.21,7.94-.19,3.46Z"/>
  </g>
</svg>