<?xml version="1.0" encoding="UTF-8"?>
<svg id="Capa_1" data-name="Capa 1" xmlns="http://www.w3.org/2000/svg" viewBox="0 0 88 95.41">
  <defs>
    <style>
      .cls-1, .cls-2, .cls-3, .cls-4, .cls-5 {
        fill-rule: evenodd;
      }

      .cls-1, .cls-2, .cls-6 {
        stroke-width: 0px;
      }

      .cls-1, .cls-5 {
        fill: #fff;
      }

      .cls-2, .cls-6 {
        fill: #272967;
      }

      .cls-3, .cls-4 {
        fill: #4570b1;
        stroke-width: .18px;
      }

      .cls-3, .cls-4, .cls-5 {
        stroke-miterlimit: 10;
      }

      .cls-3, .cls-5 {
        stroke: #4570b1;
      }

      .cls-4 {
        stroke: #589bdd;
      }

      .cls-5 {
        stroke-width: 2.47px;
      }
    </style>
  </defs>
  <g>
    <path class="cls-1" d="M63.19,38.63c2.96-.6,5.92-1.2,8.88-1.81,2.22-.47,4.36-1.23,6.52-1.91,1.64-.92,3.28-1.87,4.7-3.11.59-.94,1.32-1.82,1.62-2.91.25-.67.14-1.4.32-2.08.31-.91,1.6-1.22,2.28-.53.59.47.45,1.28.47,1.94,0,10.16.01,20.31-.11,30.47-.7.37-1.41.69-2.11,1.06-.52.25-.87.76-1.4.99-.7.33-1.52.55-2.26.25-.7-.25-1.2-.82-1.68-1.37-.37,1.03-1.03,2-2.03,2.49-1.42.68-3.23.59-4.5-.38-1.55-1.11-2.26-3.09-2.18-4.94-.73.89-2.04.91-2.91.21-.58.68-1,1.6-.75,2.5.35,1.55.7,3.1,1.08,4.65-.84.25-1.71.41-2.56.61-.72-3.16-1.45-6.31-2.16-9.46.85-.19,1.7-.41,2.57-.56.14.68.29,1.35.43,2.02.46-1.1.96-2.45,2.21-2.87,1.02-.36,2.15.32,2.44,1.34.54-1.44,1.88-2.52,3.4-2.74,1.26-.26,2.48.34,3.5,1.04-.11-.52-.23-1.03-.36-1.54.82-.2,1.65-.41,2.48-.55.47,2.07.95,4.14,1.42,6.22.07.37.29.68.5.98.73-.39,1.42-.84,2.13-1.25,0-7.84,0-15.68,0-23.51-3.11,3-7.32,4.5-11.45,5.46-19.32,3.94-38.6,8.06-57.93,11.99-3.37.76-6.72,2.14-9.21,4.6-1.74,1.69-2.91,3.92-3.42,6.28.52-.56,1.02-1.14,1.68-1.53,1.25-.81,2.74-1.05,4.16-1.38,3.22-.71,6.41-1.53,9.65-2.17.18.78.35,1.56.56,2.34-1.13.36-2.2,1.06-2.72,2.16-.56,1.23-.78,2.65-.5,3.99.48,2.13.99,4.25,1.45,6.38.41,1.87-.5,4.1-2.39,4.75-1.11.33-2.34.46-3.47.14-.16-.79-.34-1.57-.53-2.35,1.01.19,2.13.15,3.02-.41.54-.33.8-1,.66-1.62-.44-2.02-.93-4.03-1.38-6.05-.28-1.17-.28-2.43.18-3.55.57-1.22,1.75-1.94,2.8-2.69-2.94.68-5.89,1.35-8.83,2.03-.88.21-1.85.67-2.16,1.59-.26.91-.02,2.06.82,2.6.74.48,1.68.38,2.51.28-.11.87-.18,1.75-.24,2.62-1.34.17-2.79.13-3.96-.62-.75-.48-1.24-1.25-1.6-2.04.02,7.01,0,14.02,0,21.03,1.81-1.37,4.03-2.01,6.2-2.53,5.58-1.31,11.22-2.34,16.83-3.49.17.93.29,1.88.46,2.81-4.77.97-9.55,1.88-14.3,2.91-2.31.58-4.75.94-6.85,2.14-1.16.66-2.03,1.83-2.23,3.16-.21.81.12,1.87-.68,2.44-.88.74-2.38-.05-2.27-1.19,0-9.37,0-18.74,0-28.11-.05-1.94.15-3.91.75-5.76,1.17-3.81,3.98-7.05,7.49-8.91,1.68-.81,3.36-1.67,5.17-2.15l7.69-1.73,8.28-1.62,33.8-7.03M76.17,54.4h0c-1.43.44-2.24,2.14-1.84,3.55.31,1.49,1.87,2.7,3.41,2.31,1.4-.2,2.5-1.72,2.07-3.11-.21-.73-.21-1.59-.83-2.12-.71-.76-1.85-1-2.81-.63Z"/>
    <path class="cls-1" d="M27.43,55.07c.88-.19,1.75-.4,2.64-.58,1.13,4.93,2.24,9.87,3.4,14.79.28,1,1.52.79,2.24.45-1.35-1.59-1.86-3.94-1.08-5.91.54-1.47,1.94-2.51,3.48-2.72,1.24-.21,2.43.37,3.41,1.08-.13-.53-.25-1.06-.34-1.59.81-.17,1.63-.36,2.44-.56.51,2.12.97,4.25,1.47,6.37.09.44.41.9.9.93.52.08,1-.16,1.45-.39.1.61.39,1.21.32,1.83-.62.61-1.5.95-2.37.99-1.03,0-1.79-.79-2.41-1.51-.43,1.39-1.56,2.59-3.04,2.83-1.41.36-2.87-.14-3.96-1.05.11.44.22.89.33,1.33-.77.71-1.83,1.13-2.88,1.08-.86-.04-1.56-.62-2.1-1.24.11.42.21.85.3,1.27-.78.66-1.81,1.15-2.85.97-.85-.17-1.48-.82-2.01-1.47-.39,1.13-1.16,2.19-2.32,2.62-1.16.43-2.52.44-3.63-.14-2.7-1.41-3.62-5.34-1.91-7.83,1.05-1.53,3.18-2.24,4.92-1.55.54.2,1,.54,1.48.85-.13-.52-.25-1.05-.37-1.57.82-.2,1.64-.41,2.47-.57.48,2.09.96,4.19,1.44,6.29.08.36.26.76.62.91.54.21,1.12,0,1.62-.23-1.31-5.2-2.41-10.46-3.65-15.68h0ZM38.55,63.09h0c-2,.75-2.36,3.72-.78,5.07,1.25,1.34,3.78.92,4.46-.8.51-.96-.05-1.99-.22-2.96-.53-1.31-2.19-1.88-3.46-1.31h0ZM22.42,66.79h0c-1.38.47-2.13,2.1-1.79,3.48.28,1.55,1.96,2.8,3.53,2.33,1.34-.24,2.39-1.73,1.96-3.06-.21-.71-.19-1.56-.78-2.09-.71-.82-1.93-1.05-2.92-.66Z"/>
    <path class="cls-1" d="M55.99,59.76c.45-1.69,1.77-3.19,3.5-3.59,1.68-.48,3.65-.12,4.91,1.13-1.33,2.22-2.75,4.39-4.12,6.58,1.54.21,3.17-.23,4.31-1.31.15.75.33,1.5.51,2.24-1.56,1.02-3.52,1.48-5.36,1.09-1.38-.31-2.68-1.2-3.3-2.5-.59-1.11-.69-2.42-.45-3.64h0ZM58.28,59.52h0c-.56,1.17-.2,2.54.59,3.51.91-1.56,1.86-3.08,2.76-4.64-1.19-.6-2.81-.11-3.35,1.14Z"/>
    <path class="cls-1" d="M51.3,58.2c1.03-.78,2.71-.39,3.21.82.28.79.41,1.63.61,2.45.25,1.29.78,2.6.44,3.92-.41,1.43-1.71,2.46-3.12,2.82-1.53.44-3.41.36-4.57-.87-.92-.9-1.05-2.24-1.35-3.43-.3-1.46-.7-2.89-.96-4.35.83-.18,1.66-.37,2.48-.56.45,1.86.85,3.72,1.29,5.58.2.81.82,1.54,1.67,1.69.89.11,1.93-.29,2.31-1.15.49-.99-.03-2.06-.21-3.06-.89.13-1.94-.12-2.4-.97-.58-.93-.34-2.27.59-2.88Z"/>
    <path class="cls-1" d="M60.44,71.93c.71-.17,1.43-.28,2.15-.41.24,1.3.48,2.6.71,3.9.71-.14,1.43-.26,2.15-.4.12.64.25,1.28.34,1.92-.72.11-1.43.25-2.14.38.19.96.33,1.93.52,2.89.09.48.3,1.03.8,1.2.55.18,1.09-.13,1.61-.26.08.5.16.99.24,1.49-.84.69-2,.9-3.04.63-.82-.24-1.36-1-1.56-1.81-.32-1.24-.44-2.53-.74-3.78-.6.13-1.2.23-1.81.35.04.63-.14,1.37-.78,1.64-.99.57-2.42-.33-2.1-1.5-.67.21-1.45.48-1.72,1.2-.38,1.11-.03,2.59,1.09,3.13,1.31.65,2.86.12,3.99-.66.1.67.22,1.33.34,1.99-1.56.88-3.58,1.24-5.24.41-2.14-1-2.89-4-1.68-5.98,1.02-1.89,3.78-2.61,5.56-1.39-.05-.16-.15-.49-.19-.65.74-.17,1.48-.29,2.23-.44-.25-1.28-.46-2.57-.72-3.85Z"/>
    <path class="cls-1" d="M40.41,72.28c.73-.12,1.46-.26,2.19-.39.77,4.17,1.49,8.35,2.28,12.51.25.85,1.3.6,1.93.39-.58-.76-1.04-1.63-1.12-2.6-.28-2.18,1.47-4.42,3.69-4.56,1.32-.2,2.62.31,3.6,1.17-1.22,1.8-2.48,3.57-3.71,5.36,1.27.26,2.63-.08,3.63-.93.09.63.21,1.25.34,1.87-1.9,1.18-4.64,1.28-6.34-.31.09.48.18.96.25,1.44-.7.45-1.51.81-2.36.74-1.06-.11-1.93-1.02-2.08-2.05-.76-4.21-1.53-8.42-2.28-12.64h0ZM47.72,80.53h0c-.46.94-.18,2.02.39,2.85.84-1.24,1.65-2.49,2.48-3.74-.98-.6-2.43-.2-2.87.89Z"/>
    <path class="cls-1" d="M71.9,73.7c.69-.11,1.37-.25,2.06-.38.38,1.91.64,3.84,1.09,5.73.35.74,1.25.41,1.86.28.08.48.15.96.22,1.44-.7.5-1.58.89-2.45.66-.67-.2-1.13-.77-1.56-1.28-.31.68-.72,1.36-1.37,1.77-1.15.71-2.7.7-3.83-.05-2.15-1.41-2.64-4.82-.92-6.74.93-.99,2.49-1.44,3.77-.92.5.19.93.52,1.37.83-.09-.45-.17-.9-.24-1.34h0ZM69.71,75.64h0c-1.9.54-2.2,3.37-.65,4.47,1.29,1.16,3.66.19,3.68-1.57-.16-.85-.12-1.89-.87-2.47-.56-.56-1.43-.63-2.16-.43Z"/>
    <path class="cls-1" d="M25.69,75.85c1.66-1.79,4.61-2.37,6.78-1.18,1.43.75,2.19,2.6,1.64,4.12-.21.62-.71,1.06-1.19,1.47-.56-.36-1.12-.71-1.69-1.06.63-.53.95-1.45.45-2.18-.85-1.31-2.9-1.14-3.91-.11-.81.7-1.01,2.07-.2,2.85,1.41,1.48,3.53,1.92,5.13,3.14,1.39,1.07,1.92,3.13,1.12,4.71-.92,1.75-3.23,2.41-5.05,1.86-.33-.74-.32-1.63-.53-2.42.73.34,1.56.66,2.38.41.74-.17,1.37-.87,1.28-1.65-.11-1.05-1.04-1.72-1.88-2.21-1.3-.75-2.81-1.16-3.96-2.13-1.59-1.38-1.79-4.07-.35-5.62Z"/>
    <path class="cls-1" d="M35.2,81.33c1.45-2.06,4.72-2.15,6.45-.41-1.25,1.78-2.49,3.57-3.73,5.36,1.28.22,2.61-.11,3.64-.91.11.62.23,1.24.33,1.87-1.68.93-3.9,1.23-5.6.19-2.06-1.19-2.57-4.28-1.09-6.11h0ZM36.66,82.19h0c-.77.95-.61,2.37.13,3.28.82-1.24,1.63-2.49,2.46-3.72-.83-.5-1.99-.33-2.6.44Z"/>
    <path class="cls-1" d="M74.3,84.64c.67-.2,1.51-.21,1.97.42.64.76.19,2.07-.79,2.25-11.6,2.27-23.2,4.5-34.8,6.76-.57.14-1.26.23-1.72-.22-.89-.71-.46-2.38.71-2.48,11.55-2.26,23.1-4.48,34.64-6.73Z"/>
  </g>
  <g>
    <path class="cls-3" d="M28.74,18.01c-1.27-.29-16.2,1.38-15.25,3.7,1.43,3.46,10.74,2.8,14.15,2.47,6.27-.6,14.97-1.83,21.11-1.62,4.92.17,10.09-.2,15.22.22.05,0,13.63,1.15,10-.8-6.16-3.29-11.84-3.43-18.78-3.92-4.63-.33-11.96-.65-16.51-.65-1.99,0-8.89.83-9.94.59Z"/>
    <path class="cls-5" d="M21.98,26.42c-1.49-.18-14.19,4.21-12.83,6.75,2.04,3.8,12.18,2.82,16.04,2.04,7.1-1.42,17.77-4.68,24.82-5.16,5.65-.38,11.52-1.39,17.43-1.51.05,0,15.72-.27,11.34-2.07-7.43-3.05-13.94-2.55-21.94-2.3-5.33.16-14.5-.64-19.7-.12-2.28.23-13.92,2.51-15.16,2.36Z"/>
    <path class="cls-4" d="M20.83,36.49c-1.5-.08-13.88,5.15-12.35,7.58,2.28,3.65,12.34,2,16.14.98,6.99-1.89,17.42-5.85,24.42-6.79,5.61-.75,11.4-2.16,17.29-2.66.05,0,18.34-3.03,13.86-4.53-7.61-2.55-14.18-.76-22.15.02-5.31.52-17.08,1.18-22.24,2.05-2.26.38-13.73,3.43-14.97,3.36Z"/>
    <polygon class="cls-1" points="64.93 17.47 64.04 12.21 57.62 14.21 57.62 7.63 57.62 4.44 52.74 4.32 52.38 1.79 35.37 1.26 34.6 3.91 30.03 4.44 29.28 14.73 22.91 12.25 21.67 16.41 27.69 19.59 25.48 25.17 25.12 45.79 62.29 37.91 62.91 26.76 60.08 19.15 64.93 17.47"/>
    <path class="cls-2" d="M61.31,38.12l.04-12.42c-.77-2.21-2.52-4.66-3.43-6.95,2.13-1.02,4.26-2.04,6.39-3.06.13-1-.23-1.67-.92-2.12l-6.25,2.28c-.27.12-.86.34-.86-.16-.06-2.44,0-4.88-.02-7.32.06-.37-.26-.64-.39-.95.2,0,.59,0,.79,0,.15-.9.16-1.82.02-2.71-1.65.03-3.3-.01-4.95.02,0-.84.07-1.69-.1-2.51-5.38.02-10.76-.05-16.14.03-.02.82-.01,1.65,0,2.47-1.55,0-3.1-.05-4.64.02l-.1.07c0,.82-.01,1.65.05,2.47.13.05.39.15.53.19-.43.78-.26,1.67-.29,2.52.01,2.14-.02,4.28.02,6.43-.32-.13-.64-.26-.96-.39l-5.08-2.17-1.24-.53c-1.1.62-1.61,2.14-.76,2.92,2.19,1.01,4.44,1.89,6.64,2.87-.1.66-.55,1.18-.81,1.77-.73,1.53-1.58,2.99-2.32,4.51-.16.24-.15.47-.14.73-.01.07,0,.04-.02.36v19.02s-2.11.65-2.11.65c.03-2.62-.06-7.88.07-10.5-.1-3.37-.1-6.76-.03-10.13-.04-1.1,1.94-4.43,2.47-5.21-1.19-.58-2.43-1.03-3.64-1.55-1.09-.46-2.53-1.19-2.67-2.67-.21-1.08.36-2.07.73-3.05.41-1.22,1.78-1.98,3.03-1.76,1.66.29,3.06,1.38,4.71,1.7.08-1.27.03-2.53.05-3.8.05-.84-.48-1.57-.44-2.41,0-1.26-.18-2.81.88-3.73,1.16-.87,2.68-.3,3.99-.63.08-.59.16-1.24.61-1.68.53-.62,1.39-.73,2.15-.75,4.99,0,9.98,0,14.96,0,.77.03,1.65.15,2.16.79.43.45.49,1.09.63,1.66,1.29.3,2.71-.2,3.92.45.8.43,1.07,1.39,1.08,2.24-.03,1.17.17,2.42-.44,3.49.04,1.39,0,2.79.03,4.19,1.24-.41,2.4-1.03,3.64-1.44,1.29-.38,2.92.24,3.4,1.56.6,1.58,1.82,3.94-.15,4.88-1.07.51-2.97.92-4.46,2.02-.37.28,1.77,2.36,2.01,6.91.25,4.66.23,9.93.32,11M28.96,44.98c.04-1.89-.2-6.21-.22-8.1-.18-2.55.08-5.11-.21-7.65-.06-.88-.03-1.77-.06-2.65-.02-.25,0-.33.04-.54.06-.09.06-.11.12-.2,1.6-2.88,3.31-5.7,4.89-8.59l-.17-9.46c-.08-.27-.42-.11-.53-.37h1.97s.05,10.06.05,10.06c-1.4,2.6-2.92,5.14-4.35,7.72-.14.33-.1.55-.12.86-.03.15,0,.33-.03.49l.19,18.09"/>
    <rect class="cls-6" x="29.85" y="7" width="27.3" height="1.43"/>
    <rect class="cls-6" x="25.15" y="25.5" width="37" height="1.8"/>
    <polygon class="cls-2" points="63.25 38.63 24.2 46.67 24.22 45.23 63.19 36.81 63.25 38.63"/>
  </g>
</svg>