<?xml version="1.0" encoding="UTF-8"?>
<svg id="Capa_1" data-name="Capa 1" xmlns="http://www.w3.org/2000/svg" xmlns:xlink="http://www.w3.org/1999/xlink" viewBox="0 0 77.27 86.57">
  <defs>
    <style>
      .cls-1 {
        fill: none;
      }

      .cls-1, .cls-2 {
        stroke-width: 0px;
      }

      .cls-2 {
        fill: #fff;
      }
    </style>
    <clipPath id="clippath">
      <path class="cls-1" d="M828.58-933.93H-538.42l1,768c.21-1.44,1.54-5.96,2.15-7.3,5.85-14.73,17.71-23.19,37.08-29.26,34.89-11.14,75.37-14.42,113.82-19.84,40.11-4.83,80.33-9.37,120.57-13.85,20.83-2.32,41.66-4.63,62.49-6.95,18.25-2.03,36.5-4.08,54.74-6.15,0,0,0,0,0,0l9.88-1.05,509.3-58.93,155.03-17.44,127.84-16.01c125.11-15.52,149.11-40.52,174.11-62.36l-1-528.86Z"/>
    </clipPath>
  </defs>
  <path class="cls-2" d="M44.14,65.32c-.02-.07-.04-.14-.07-.22-.03-.08-.05-.17-.07-.25-.62-2.18-.81-4.35-.43-6.49,0-.04.02-.08.02-.12.04-.19.08-.38.12-.57.02-.1.05-.2.08-.3.02-.09.05-.17.07-.26.05-.17.1-.34.16-.5.03-.08.05-.15.08-.23.06-.17.12-.34.19-.51.03-.08.06-.15.1-.23.05-.11.1-.22.15-.33.07-.16.15-.32.23-.48.04-.07.07-.14.11-.21.14-.26.29-.53.45-.79.32-.52.92-.93,1.47-1.24,1.65-.91,3.33-1.76,5.02-2.6,1.07-.54,2.13-1.15,3.26-1.51,4.13-1.34,7.93-3.24,11.19-6.02,2.92-2.42,5.24-5.33,7-8.7,2.86-5.25,4.05-11.09,3.99-17.36,0-.05,0-.1,0-.16,0-.26,0-.51-.02-.75,0-.13,0-.26-.01-.38-.05-1.26-.6-2.28-1.5-2.97,0,0-.01,0-.02-.01-.11-.08-.23-.16-.35-.23,0,0-.02-.01-.03-.02-.72-.43-1.61-.67-2.61-.68-.09,0-.18,0-.27,0-.07,0-.14,0-.22,0-.22,0-.44,0-.66,0-2.22-.02-4.44,0-6.66,0-.44,0-.89,0-1.33,0-.44,0-.88-.04-1.37-.06v-1.06c0-.11.01-.21.02-.31.1-.03.2-.06.29-.09.96-.16,1.6-.55,2-1.09.21-.25.36-.55.45-.92.21-.71.23-1.55.16-2.44,0-.05,0-.1,0-.15,0-.51,0-1.02,0-1.53,0-.07,0-.14,0-.21,0-.14,0-.27,0-.41-.02-.5-.12-.94-.29-1.33,0,0,0,0,0-.01-.02-.04-.04-.09-.06-.13-.22-.47-.55-.81-1.01-1.03-.42-.23-.94-.36-1.53-.37-.07,0-.13,0-.2,0-.13,0-.26,0-.39,0-.25,0-.51,0-.76,0-2.48-.02-4.95,0-7.43,0-.05,0-.11,0-.16,0-2.03,0-4.06,0-6.09,0-.24-.06-.58,0-.86,0-2.57,0-5.13,0-7.7,0-2.57,0-5.13,0-7.7,0-.28,0-.62-.06-.86,0-2.03,0-4.06,0-6.09,0-.05,0-.11,0-.16,0-2.48,0-4.95-.02-7.43,0-.25,0-.51,0-.76,0-.14,0-.27,0-.39,0-.07,0-.13,0-.2,0-.59,0-1.11.14-1.53.37-.46.23-.79.57-1.01,1.03-.02.04-.04.09-.06.13,0,0,0,0,0,.01-.17.38-.27.83-.29,1.33,0,.14,0,.27,0,.41,0,.07,0,.14,0,.21,0,.51,0,1.02,0,1.53,0,.05,0,.1,0,.15-.07.9-.05,1.74.16,2.44.09.37.24.66.45.92.41.54,1.04.93,2,1.09.1.03.19.06.29.09,0,.1.01.2.02.31v1.06c-.49.02-.93.06-1.37.06-.44,0-.89,0-1.33,0-2.22,0-4.44-.02-6.66,0-.22,0-.44,0-.66,0-.07,0-.14,0-.22,0-.09,0-.18,0-.27,0-1,.01-1.89.26-2.61.68,0,0-.02.01-.03.02-.12.07-.24.15-.35.23,0,0-.01,0-.02.01-.9.68-1.46,1.7-1.5,2.97,0,.13,0,.26-.01.38-.02.24-.02.49-.02.75,0,.05,0,.1,0,.16-.06,6.27,1.14,12.11,3.99,17.36,1.76,3.38,4.09,6.29,7,8.7,3.26,2.78,7.06,4.67,11.19,6.02,1.13.37,2.19.98,3.26,1.51,1.68.84,3.37,1.69,5.02,2.6.55.31,1.15.72,1.47,1.24.16.26.31.53.45.79.04.07.07.14.1.2.08.16.16.32.23.48.05.11.1.22.15.33.03.08.07.15.1.23.07.17.13.34.19.51.03.08.05.15.08.23.06.17.11.33.16.5.03.09.05.17.07.26.03.1.05.2.08.3.05.19.09.38.12.57,0,.04.02.08.02.12.38,2.14.19,4.31-.43,6.49-.02.08-.05.17-.07.25-.02.07-.04.14-.07.22-.02.07-.04.14-.06.21-.12.38-.26.75-.4,1.13-.46,1.04-.96,1.05-2.88,1.09-.02,0-.03,0-.04,0-.01,0-.03,0-.04,0-.17,0-.33.02-.49.03-.04,0-.07,0-.11,0-1.07.1-1.99.39-2.75.86-.01,0-.03.02-.05.03-.1.06-.19.13-.29.21-.05.04-.1.07-.15.11-.05.04-.09.08-.14.12-.37.32-.69.69-.95,1.11-.56.9-.87,2.04-.9,3.38-.02.65,0,1.3,0,2.08-.27.12-.35.18-.44.18-1.31.02-2.61,0-3.92.05-.19,0-.36.02-.53.05-.02,0-.04,0-.06,0-.04,0-.09.02-.13.02-.86.17-1.41.6-1.68,1.34,0,.02-.02.04-.02.06-.02.05-.03.1-.04.15,0,.04-.02.07-.03.11-.01.06-.02.11-.03.17,0,.03-.01.06-.02.1-.03.21-.05.43-.06.67-.04,1.8-.04,3.61,0,5.41.05,1.71.92,2.57,2.64,2.57h.01s.03,0,.04,0c6.21,0,12.42,0,18.63,0,.13,0,.27,0,.4,0s.27,0,.4,0c6.21,0,12.42,0,18.63,0,.02,0,.03,0,.04,0h.01c1.72,0,2.59-.86,2.64-2.57.05-1.8.04-3.6,0-5.41,0-.24-.02-.46-.06-.67,0-.03-.01-.06-.02-.1-.01-.06-.02-.12-.03-.17,0-.04-.02-.07-.03-.11-.01-.05-.03-.1-.04-.15,0-.02-.02-.04-.02-.06-.27-.74-.82-1.17-1.68-1.33-.04,0-.08-.02-.13-.02-.02,0-.04,0-.06,0-.17-.02-.34-.04-.53-.05-1.31-.04-2.61-.03-3.92-.05-.08,0-.16-.06-.44-.18,0-.78.01-1.43,0-2.08-.03-1.34-.34-2.47-.9-3.37-.26-.43-.58-.8-.95-1.12-.05-.04-.09-.08-.14-.12-.05-.04-.1-.07-.15-.11-.09-.07-.19-.14-.29-.2-.01,0-.03-.02-.05-.03-.76-.47-1.68-.76-2.75-.86-.04,0-.07,0-.11,0-.16-.01-.32-.03-.49-.03-.01,0-.03,0-.04,0-.02,0-.03,0-.04,0-1.92-.04-2.43-.05-2.88-1.09-.15-.38-.28-.76-.4-1.13-.02-.07-.04-.14-.06-.21ZM48.1,70.33c.09,0,.17,0,.26.01.05,0,.11.01.16.02.02,0,.04,0,.06,0,.4.08.76.23,1.08.46.03.02.06.04.09.07.02.02.04.03.06.05.44.37.76.89.91,1.49.02.08.03.16.04.24.12,1.01.02,2.04.02,3.14h-24.31c0-1.1-.09-2.13.02-3.14,0-.08.02-.16.04-.24.15-.6.47-1.12.91-1.49.02-.02.04-.03.06-.05.03-.02.06-.05.09-.07.31-.22.68-.38,1.08-.46.02,0,.04,0,.06,0,.05,0,.11-.02.16-.02.08,0,.17-.01.26-.01,2.96-.02,5.91-.03,8.87-.03.2,0,.39,0,.59,0s.39,0,.59,0c2.96,0,5.91.01,8.87.03ZM57.73,83.95H19.54v-5.43h38.19v5.43ZM34.14,51.04c-1.77-.43-3.42-1.05-4.95-1.82-2.79-1.44-5.28-3.47-7.2-5.94-1.97-2.59-3.32-5.65-3.92-9.05-.22-1.47-.34-2.97-.35-4.45-.04-6.13-.02-12.25-.02-18.38,0-.09,0-.18,0-.28,0-.47.05-.93.07-1.39h41.71c.03.45.07.92.07,1.39v.28c0,6.13.03,12.25-.02,18.38-.01,1.49-.13,2.98-.35,4.45-.61,3.4-1.95,6.46-3.92,9.05-1.93,2.47-4.41,4.5-7.2,5.94-1.53.77-3.18,1.38-4.95,1.82-.3.07-.59.14-.89.19-1.11.21-2.24.32-3.37.34-.08,0-.15,0-.23,0-.08,0-.15,0-.23,0-1.13-.02-2.26-.13-3.37-.34-.3-.06-.59-.12-.89-.19ZM13.33,41.03c-.22-.18-.44-.35-.66-.53-.22-.19-.44-.37-.65-.56-.06-.05-.12-.1-.17-.16-2.83-2.58-5.04-5.72-6.64-9.41-.05-.12-.11-.25-.16-.38-.04-.1-.08-.2-.12-.3-.68-1.73-1.23-3.55-1.63-5.49-.54-2.58-.69-5.26-.81-7.9,0-.21,0-.4,0-.58.13-1.54.77-1.93,2.6-1.93.16,0,.33,0,.49,0,2.05,0,4.1,0,6.15,0,.78,0,1.55,0,2.31,0,.33,0,.65,0,.97,0v3.31c-.1,0-.19,0-.28,0-1.74,0-3.42-.01-5.09,0-.11,0-.22,0-.33,0-.03,0-.05,0-.07,0-.09,0-.17,0-.26,0-.62,0-1.15.11-1.57.29-.05.02-.09.04-.13.06,0,0-.02,0-.03.01-.36.18-.64.42-.83.74-.36.56-.48,1.31-.34,2.26.14.98.24,1.97.46,2.93.05.25.11.51.2.74.9,3.93,2.48,7.49,4.93,10.54.03.03.06.07.08.1.09.12.19.23.29.35.08.1.17.2.25.3.04.05.08.09.12.14,1.12,1.26,2.37,2.41,3.77,3.43.32.23.67.49.86.82.21.36.41.73.61,1.1.44.81.88,1.63,1.33,2.47.23.42.46.85.69,1.29-.43-.15-.8-.25-1.14-.41-1.81-.9-3.47-1.92-4.96-3.06-.08-.06-.16-.13-.24-.19ZM14.6,6.92c0-.99.03-1.92,0-2.84,0-.26.02-.53.03-.79.02-.27.42-.6.71-.73.04-.02.08-.03.12-.04.1,0,.2-.01.32-.01.14,0,.27,0,.41,0,.08,0,.15,0,.23,0,.34,0,.68,0,1.01,0,2.11,0,4.22,0,6.33,0,.08,0,.16,0,.24,0,2.06,0,4.11,0,6.17,0,.3.1.71,0,1.06,0,2.47,0,4.93,0,7.4,0,2.47,0,4.93,0,7.4,0,.35,0,.76.1,1.06,0,2.06,0,4.11,0,6.17,0,.08,0,.16,0,.24,0,2.11-.01,4.22,0,6.33,0,.34,0,.68,0,1.01,0,.07,0,.15,0,.23,0,.14,0,.27,0,.41,0,.11,0,.22,0,.32.01.04,0,.08.02.12.04.3.12.7.46.71.73.02.26.03.53.03.79-.03.91,0,1.84,0,2.84,0,.01,0,.02,0,.04H14.6s0-.02,0-.04ZM65.55,13.79c2.05,0,4.1,0,6.15,0,.16,0,.33,0,.49,0,1.83,0,2.48.39,2.6,1.93,0,.18,0,.37,0,.58-.12,2.64-.27,5.32-.81,7.9-.4,1.93-.95,3.76-1.63,5.49-.04.1-.08.2-.12.3-.05.13-.1.25-.16.38-1.6,3.69-3.81,6.83-6.64,9.41-.06.05-.12.1-.17.16-.21.19-.43.38-.65.56-.22.18-.44.36-.66.53-.08.06-.16.13-.24.19-1.49,1.14-3.15,2.17-4.96,3.06-.34.17-.71.26-1.14.41.24-.44.47-.87.69-1.29.45-.85.89-1.66,1.33-2.47.2-.37.41-.73.61-1.1.19-.33.54-.59.86-.82,1.4-1.02,2.65-2.17,3.77-3.43.04-.05.08-.1.13-.14.09-.1.17-.2.25-.3.1-.12.19-.23.29-.35.03-.03.06-.07.08-.1,2.46-3.06,4.03-6.61,4.93-10.54.09-.24.15-.49.2-.74.21-.97.31-1.95.46-2.93.14-.94.02-1.7-.34-2.26-.19-.32-.47-.56-.83-.74,0,0-.02,0-.03-.01-.04-.02-.09-.04-.13-.06-.43-.19-.95-.29-1.57-.29-.09,0-.17,0-.26,0-.03,0-.05,0-.07,0-.11,0-.22,0-.33,0-1.67-.01-3.35,0-5.09,0-.1,0-.19,0-.28,0v-3.31c.33,0,.65,0,.97,0,.77,0,1.54,0,2.31,0ZM62.07,34.82v-15.03h6.64c-.01.13-.03.25-.05.38-.15.95-.29,1.84-.45,2.72,0,.05-.02.11-.03.16-.46,2.19-1.16,4.26-2.13,6.19-.04.06-.07.12-.11.18-.85,1.34-1.73,2.66-2.69,4.08-.38.45-.77.89-1.19,1.31ZM11.32,29.42c-.04-.06-.08-.12-.11-.18-.97-1.94-1.66-4-2.13-6.19,0-.05-.02-.11-.03-.16-.16-.88-.29-1.77-.45-2.72-.02-.13-.03-.25-.05-.38h6.64v15.03c-.42-.43-.81-.87-1.19-1.31-.96-1.43-1.84-2.74-2.69-4.08ZM42.25,67.64h-7.23c1.44-3.59,1.85-7.15.97-10.7-.24-1-.57-1.99-1-2.98h7.3c-.43.99-.76,1.99-1,2.98-.88,3.55-.47,7.11.97,10.7Z"/>
  <path class="cls-2" d="M30.77,36.43c.12-.69.25-1.67.47-2.63.2-.87.05-1.55-.68-2.14-.7-.56-1.32-1.22-1.94-1.88-.88-.93-1.14-2.04-.67-3.24.45-1.14,1.33-1.77,2.55-1.92.04,0,.09-.01.13,0,2.63.09,4.34-1.04,5.12-3.64.39-1.29,1.42-2.06,2.86-2.07,1.44,0,2.5.74,2.88,2.03.79,2.69,2.57,3.71,5.24,3.71,1.28,0,2.2.79,2.63,1.98.42,1.15.16,2.22-.67,3.13-.27.3-.53.64-.86.85-1.96,1.25-2.11,2.96-1.48,5.02.22.72.19,1.64-.05,2.37-.55,1.7-2.56,2.61-4.05,1.6-2.5-1.7-4.65-1.67-7.2-.03-2.02,1.3-4.34-.41-4.29-3.13ZM30.31,27.25c-.1.2-.19.41-.29.61.61.51,1.2,1.05,1.84,1.52,1.94,1.45,2.5,3.27,1.74,5.58-.23.71-.18,1.52-.28,2.46,1.95-.77,3.63-1.97,5.31-1.96,1.72,0,3.43,1.19,5.39,1.96-.14-1.05-.16-1.9-.39-2.69-.61-2.09-.19-3.79,1.58-5.15.72-.55,1.31-1.27,2.21-2.17-1.07-.24-1.71-.51-2.35-.49-2.86.08-4.5-1.38-5.37-3.98-.19-.58-.62-1.08-1.11-1.9-.61,1.18-1.13,1.98-1.44,2.85-.73,2-2.15,2.86-4.21,2.95-.87.04-1.74.26-2.61.41Z"/>
</svg>