<?xml version="1.0" encoding="UTF-8"?>
<svg id="Capa_1" data-name="Capa 1" xmlns="http://www.w3.org/2000/svg" viewBox="0 0 51.19 51.46">
  <defs>
    <style type="text/css">
      .st0 {
        fill: #000000;
      }
    </style>
  </defs>
  <path class="st0"
    d="M33.58,50.18c4.72-1.51,8.67-4.23,11.77-8.11,1.35-1.65,2.5-3.48,3.42-5.45,1.7-3.56,2.49-7.26,2.42-11.1-.02-2.29-.35-4.55-.96-6.73-.13-.49-.27-.98-.42-1.48h-.04c-2.31-6.65-7.3-12.31-14.19-15.25C32.7.83,29.79.19,26.96.04c-.06,0-.11,0-.17-.01-.25-.01-.49-.02-.73-.02-.15,0-.3,0-.46,0-.15,0-.31,0-.46,0-.24,0-.49,0-.73.02-.06,0-.11,0-.17.01-2.83.15-5.74.79-8.62,2.02C8.73,5,3.73,10.66,1.43,17.31h-.04c-.15.5-.29.99-.42,1.48C.35,20.96.02,23.22,0,25.51c-.07,3.84.72,7.54,2.42,11.1.92,1.97,2.07,3.8,3.42,5.45,3.1,3.88,7.05,6.6,11.77,8.11,2.2.73,4.53,1.16,6.93,1.25.05,0,.09,0,.14,0,.3.01.61.02.91.02.31,0,.61,0,.91-.02.05,0,.09,0,.14,0,2.4-.09,4.72-.53,6.93-1.25ZM8.4,9.8c.13-.09.25-.21.35-.31,2.02-2.03,4.19-3.64,6.51-4.83,2.16-1.06,4.52-1.8,7.01-2.15,1.13-.16,2.25-.24,3.33-.25,1.09.01,2.2.09,3.33.25,2.49.35,4.85,1.09,7.01,2.15,2.32,1.18,4.49,2.8,6.51,4.83.1.1.22.22.35.31,1.92,2.1,3.45,4.56,4.5,7.28-.03,0-.06,0-.09,0,.08.08.14.18.2.29.29.77.53,1.56.74,2.37.5,1.96.74,3.91.77,5.82,0,.11,0,.22,0,.34,0,.16,0,.32,0,.47-.05,1.67-.27,3.34-.67,5.03-.09.39-.19.78-.3,1.16,0,.03-.02.07-.03.1-.09.3-.18.59-.28.88-.11.32-.23.63-.35.95,0,0,0,.02-.01.03-.54,1.36-1.21,2.66-2,3.89-.03.04-.05.08-.08.12-.16.25-.32.49-.49.73-.07.1-.14.2-.22.3-.13.18-.26.35-.39.52-.13.17-.26.34-.4.5-.08.1-.17.2-.25.3-.2.23-.4.46-.61.69-.03.03-.06.07-.09.1-1.53,1.64-3.29,3.06-5.21,4.21-.05.03-.11.07-.16.1-.23.13-.46.26-.69.39-.13.07-.27.15-.4.22-.16.08-.32.16-.48.24-.21.1-.43.21-.64.31-.1.05-.2.09-.3.13-.27.12-.55.23-.82.34-.07.03-.14.05-.21.08-.29.11-.58.22-.87.32-.1.04-.21.07-.32.1-.23.07-.46.15-.69.21-.22.06-.44.12-.66.18-.1.03-.21.05-.31.08-.32.08-.64.15-.97.22-.01,0-.02,0-.03,0-.74.15-1.48.25-2.23.33-.03,0-.06,0-.09,0-.32.03-.65.05-.98.07-.12,0-.24,0-.36.01-.23,0-.46.01-.69.01-.23,0-.46,0-.69-.01-.12,0-.24,0-.36-.01-.33-.02-.65-.04-.98-.07-.03,0-.06,0-.09,0-.75-.07-1.49-.18-2.23-.33-.01,0-.02,0-.03,0-.33-.06-.65-.14-.97-.22-.1-.03-.21-.05-.31-.08-.22-.06-.44-.12-.66-.18-.23-.07-.47-.14-.69-.21-.11-.03-.21-.07-.32-.1-.29-.1-.58-.21-.87-.32-.07-.03-.14-.05-.21-.08-.28-.11-.55-.23-.82-.34-.1-.04-.2-.09-.3-.13-.22-.1-.43-.2-.64-.31-.16-.08-.32-.16-.48-.24-.14-.07-.27-.14-.4-.22-.23-.13-.46-.25-.69-.39-.05-.03-.11-.07-.16-.1-1.92-1.15-3.68-2.56-5.21-4.21-.03-.03-.06-.07-.09-.1-.21-.22-.41-.45-.61-.69-.08-.1-.17-.2-.25-.3-.14-.17-.27-.33-.4-.5-.13-.17-.26-.34-.39-.52-.07-.1-.15-.2-.22-.3-.17-.24-.33-.48-.49-.73-.03-.04-.05-.08-.08-.12-.78-1.23-1.45-2.53-2-3.89,0,0,0-.02-.01-.03-.12-.31-.24-.63-.35-.95-.1-.29-.19-.58-.28-.88-.01-.03-.02-.07-.03-.1-.11-.38-.21-.77-.3-1.16-.4-1.69-.62-3.37-.67-5.03,0-.16,0-.32,0-.47,0-.11,0-.22,0-.34.02-1.91.27-3.86.76-5.82.21-.81.45-1.6.74-2.37.06-.12.13-.21.2-.3-.03,0-.06,0-.09,0,1.05-2.72,2.58-5.18,4.5-7.27Z" />
  <path class="st0"
    d="M38,19.04c-.54-.53-1.18-.52-1.8-.13-.23.14-.41.37-.61.56-2.86,2.88-17.25,17.35-17.52,17.62-.24.25-.5.49-.69.78-.43.64-.32,1.27.21,1.79.54.53,1.18.52,1.8.13.23-.14.41-.37.61-.56,2.86-2.88,17.25-17.35,17.52-17.62.24-.25.5-.49.69-.78.43-.64.32-1.27-.21-1.79Z" />
  <path class="st0"
    d="M34.73,11.61c-.54-.53-1.18-.52-1.8-.13-.23.14-20.16,19.86-20.28,20.04-.27.28-.55.55-.82.83-.24.25-.5.49-.69.78-.43.64-.32,1.27.21,1.79.54.53,1.18.52,1.8.13.23-.14.41-.37.61-.56,2.86-2.88,20.22-20.02,20.49-20.3.24-.25.5-.49.69-.78.43-.64.32-1.27-.21-1.79Z" />
  <path class="st0"
    d="M41.87,27.06c-.54-.53-1.18-.52-1.8-.13-.23.14-11.24,10.95-11.36,11.12-.27.28-.55.55-.82.83-.24.25-.5.49-.69.78-.43.64-.32,1.27.21,1.79.54.53,1.18.52,1.8.13.23-.14.41-.37.61-.56,2.86-2.88,11.3-11.11,11.58-11.38.24-.25.5-.49.69-.78.43-.64.32-1.27-.21-1.79Z" />
  <path class="st0"
    d="M25.22,9.52c-.54-.53-1.18-.52-1.8-.13-.23.14-13.92,13.62-14.04,13.79-.27.28-.55.55-.82.83-.24.25-.5.49-.69.78-.43.64-.32,1.27.21,1.79.54.53,1.18.52,1.8.13.23-.14.41-.37.61-.56,2.86-2.88,13.98-13.78,14.25-14.06.24-.25.5-.49.69-.78.43-.64.32-1.27-.21-1.79Z" />
</svg>