<?xml version="1.0" encoding="UTF-8"?>
<svg id="Capa_1" data-name="Capa 1" xmlns="http://www.w3.org/2000/svg" xmlns:xlink="http://www.w3.org/1999/xlink" viewBox="0 0 69.77 80.02">
  <defs>
    <style>
      .cls-1 {
        fill: #0b1244;
      }

      .cls-1, .cls-2, .cls-3 {
        stroke-width: 0px;
      }

      .cls-2 {
        fill: none;
      }

      .cls-4 {
        clip-path: url(#clippath);
      }

      .cls-3 {
        fill: #fff;
      }
    </style>
    <clipPath id="clippath">
      <path class="cls-2" d="M1217.21-940.03H-149.79l1,768c.21-1.44,1.54-5.96,2.15-7.3,5.85-14.73,17.71-23.19,37.08-29.26,34.89-11.14,75.37-14.42,113.82-19.84,40.11-4.83,80.33-9.37,120.57-13.85,20.83-2.32,41.66-4.63,62.49-6.95,18.25-2.03,36.5-4.08,54.74-6.15,0,0,0,0,0,0l9.88-1.05,509.3-58.93,155.03-17.44,127.84-16.01c125.11-15.52,149.11-40.52,174.11-62.36l-1-528.86Z"/>
    </clipPath>
  </defs>
  <g>
    <path class="cls-3" d="M69.75,57.64c0-1.49,0-2.66,0-3.27,0-.03,0-.06,0-.09,0-10.14,0-20.29,0-30.43,0-2.39-1.04-3.41-3.43-3.42-1.72-.01-3.44,0-5.28,0,0-.65,0-1.13,0-1.61,0-5.57.03-11.13-.04-16.7,0-.69-.41-1.69-.94-1.98-.53-.29-1.51-.01-2.18.27-1.06.45-1.97,1.23-3.03,1.67-6.66,2.75-13.34,5.44-20.02,8.14-.1.04-.24-.03-.42-.05,0-2.6.05-5.18-.03-7.76-.02-.63-.32-1.58-.77-1.78-.54-.24-1.46-.02-2.04.31-1.58.91-3.08,1.96-4.58,2.99C18.79,9.52,10.62,15.14,2.44,20.77.93,21.81,0,23.17,0,25.1c.01,16.74,0,33.48.02,50.22,0,2.85,1.86,4.67,4.73,4.67,20.57.02,41.14.02,61.71,0,2.18,0,3.26-1.12,3.28-3.33.02-2.3.01-12.56,0-18.49.03-.16,0-.37,0-.55ZM31.65,4.02c0,2.44.02,4.57-.03,6.7,0,.29-.35.73-.63.82-6.53,2.2-13.07,4.36-19.6,6.52-.03.01-.08-.03-.34-.15,6.85-4.62,13.6-9.17,20.6-13.89ZM11.9,77.27c-2.53,0-4.93.03-7.33-.02-1.14-.02-1.79-.69-1.83-1.87-.01-.31,0-.62,0-.94,0-16.17,0-32.33,0-48.5,0-2.34.47-2.81,2.8-2.82,2.09,0,4.18,0,6.37,0v54.14ZM58.24,3.49v16.85H14.11c14.82-5.23,29.87-9.8,44.13-16.85ZM67,74.72c0,.82,0,1.64,0,2.48H14.84V23.21h52.16v1.77c0,9.73,0,19.45,0,29.18,0,.08,0,.16,0,.25,0,.45,0,1.41,0,2.68,0,.32-.04.68,0,.99,0,5.47,0,14.88,0,16.64Z"/>
    <path class="cls-3" d="M53.95,32.36c-9.26,0-18.52-.01-27.78,0-2.04,0-2.8.8-2.8,2.85,0,4.63,0,9.26,0,13.89,0,2.14.76,2.91,2.87,2.91,4.59,0,9.17,0,13.76,0,4.63,0,9.26,0,13.89,0,2.12,0,2.87-.76,2.87-2.92,0-4.63,0-9.26,0-13.89,0-2.05-.77-2.85-2.81-2.85ZM53.98,49.23h-27.78v-14.01h27.78v14.01Z"/>
    <path class="cls-3" d="M31.38,40.59c5.65-.01,11.3-.01,16.95,0,1.01,0,1.85-.23,1.81-1.42-.04-1.1-.86-1.31-1.8-1.3-2.8.01-5.61,0-8.41,0-2.85,0-5.7.01-8.54,0-1.02,0-1.85.27-1.81,1.43.03,1.09.87,1.29,1.81,1.29Z"/>
    <path class="cls-3" d="M48.27,43.51c-2.8.01-5.61,0-8.41,0-2.8,0-5.61,0-8.41,0-.98,0-1.88.18-1.89,1.36,0,1.19.9,1.37,1.88,1.37,5.61,0,11.21,0,16.82,0,.98,0,1.88-.17,1.88-1.36,0-1.18-.88-1.38-1.87-1.38Z"/>
  </g>
  <g class="cls-4">
    <path class="cls-1" d="M-153.71,62.32c23.35-6.17,47.18-10.52,71.21-12.97,23.92-2.44,48.03-3.02,72.03-1.74,13.65.73,27.27,2.07,40.81,4.01,1.35.19,1.93-1.87.57-2.06-24-3.44-48.25-5.04-72.49-4.71-24.24.33-48.45,2.55-72.35,6.64-13.57,2.32-27.04,5.25-40.35,8.77-1.33.35-.77,2.41.57,2.06h0Z"/>
  </g>
</svg>