<?xml version="1.0" encoding="UTF-8"?>
<svg id="Capa_1" data-name="Capa 1" xmlns="http://www.w3.org/2000/svg" viewBox="0 0 57.05 63.79">
  <defs>
    <style>
      .cls-1 {
        fill: #000;
        stroke-width: 0px;
      }
    </style>
  </defs>
  <g>
    <path class="cls-1" d="M32.52,47.88c-.02-.05-.03-.1-.05-.16-.02-.06-.03-.12-.05-.18-.45-1.58-.59-3.15-.31-4.71,0-.03.01-.06.02-.09.03-.14.06-.28.09-.42.02-.07.04-.15.05-.22.02-.06.03-.13.05-.19.04-.12.07-.24.11-.36.02-.06.04-.11.06-.17.04-.12.09-.25.14-.37.02-.06.05-.11.07-.17.03-.08.07-.16.11-.24.05-.12.11-.23.17-.35.03-.05.05-.1.08-.15.1-.19.21-.38.33-.57.23-.38.66-.68,1.07-.9,1.2-.66,2.42-1.27,3.64-1.89.78-.39,1.54-.83,2.36-1.1,3-.97,5.75-2.35,8.12-4.36,2.12-1.75,3.8-3.86,5.08-6.31,2.07-3.81,2.94-8.04,2.9-12.59,0-.04,0-.08,0-.11,0-.19,0-.37-.02-.54,0-.09,0-.19,0-.28-.03-.92-.44-1.66-1.09-2.15,0,0,0,0-.01-.01-.08-.06-.16-.12-.25-.17,0,0-.01,0-.02-.01-.52-.31-1.17-.48-1.9-.49-.07,0-.13,0-.2,0-.05,0-.1,0-.16,0-.16,0-.32,0-.48,0-1.61-.01-3.22,0-4.83,0-.32,0-.65,0-.97,0-.32,0-.64-.03-1-.04v-.77c0-.08.01-.15.01-.22.07-.02.14-.04.21-.07.7-.12,1.16-.4,1.45-.79.15-.18.26-.4.33-.66.15-.51.17-1.12.12-1.77,0-.04,0-.07,0-.11,0-.37,0-.74,0-1.11,0-.05,0-.1,0-.15,0-.1,0-.2,0-.3-.01-.36-.08-.69-.21-.96,0,0,0,0,0,0-.01-.03-.03-.06-.05-.09-.16-.34-.4-.58-.73-.75-.31-.17-.68-.26-1.11-.27-.05,0-.1,0-.15,0-.09,0-.19,0-.29,0-.18,0-.37,0-.55,0-1.8-.01-3.59,0-5.39,0-.04,0-.08,0-.12,0-1.47,0-2.94,0-4.41,0-.18-.04-.42,0-.63,0-1.86,0-3.72,0-5.58,0-1.86,0-3.72,0-5.58,0-.2,0-.45-.04-.63,0-1.47,0-2.94,0-4.41,0-.04,0-.08,0-.12,0-1.8,0-3.59-.01-5.39,0-.18,0-.37,0-.55,0-.1,0-.19,0-.29,0-.05,0-.1,0-.15,0-.43,0-.8.1-1.11.27-.33.17-.57.41-.73.75-.02.03-.03.06-.04.09,0,0,0,0,0,0-.13.28-.2.6-.21.96,0,.1,0,.2,0,.3,0,.05,0,.1,0,.15,0,.37,0,.74,0,1.11,0,.04,0,.07,0,.11-.05.65-.03,1.26.12,1.77.07.27.17.48.33.66.29.39.76.67,1.45.79.07.02.14.04.21.07,0,.07,0,.15.01.22v.77c-.36.02-.68.04-1,.04-.32,0-.65,0-.97,0-1.61,0-3.22-.01-4.83,0-.16,0-.32,0-.48,0-.05,0-.1,0-.16,0-.07,0-.13,0-.2,0-.73.01-1.37.19-1.9.49,0,0-.01,0-.02.01-.09.05-.17.11-.25.17,0,0,0,0-.01.01-.65.49-1.06,1.23-1.09,2.15,0,.09,0,.19,0,.28-.01.17-.02.35-.02.54,0,.04,0,.08,0,.11-.05,4.55.82,8.79,2.9,12.59,1.28,2.45,2.96,4.56,5.08,6.31,2.36,2.01,5.12,3.39,8.12,4.36.82.27,1.58.71,2.36,1.1,1.22.61,2.44,1.23,3.64,1.89.4.22.83.52,1.07.9.12.19.23.38.33.57.03.05.05.1.08.15.06.12.12.23.17.35.04.08.07.16.11.24.02.06.05.11.07.17.05.12.1.25.14.37.02.06.04.11.06.17.04.12.08.24.11.36.02.06.03.13.05.19.02.07.04.15.05.22.03.14.06.28.09.42,0,.03.01.06.02.09.28,1.55.14,3.13-.31,4.71-.02.06-.03.12-.05.18-.02.05-.03.1-.05.16-.02.05-.03.1-.05.15-.09.27-.19.55-.29.82-.33.75-.7.76-2.09.79-.01,0-.02,0-.03,0-.01,0-.02,0-.03,0-.12,0-.24.01-.35.02-.03,0-.05,0-.08,0-.78.07-1.45.28-2,.62-.01,0-.02.01-.03.02-.07.05-.14.1-.21.15-.04.03-.08.05-.11.08-.04.03-.07.06-.1.09-.27.23-.5.5-.69.8-.4.66-.63,1.48-.65,2.45-.01.47,0,.94,0,1.51-.2.08-.26.13-.32.13-.95.01-1.9,0-2.84.04-.14,0-.26.02-.39.03-.01,0-.03,0-.04,0-.03,0-.06.01-.09.02-.63.12-1.02.43-1.22.97,0,.01-.01.03-.02.04-.01.04-.02.07-.03.11,0,.03-.02.05-.02.08,0,.04-.02.08-.02.12,0,.02,0,.05-.01.07-.02.15-.04.31-.04.49-.03,1.31-.03,2.61,0,3.92.03,1.24.67,1.86,1.91,1.86h0s.02,0,.03,0c4.5,0,9.01,0,13.51,0,.1,0,.19,0,.29,0s.19,0,.29,0c4.5,0,9.01,0,13.51,0,.01,0,.02,0,.03,0h0c1.24,0,1.88-.63,1.91-1.86.03-1.31.03-2.61,0-3.92,0-.18-.02-.34-.04-.49,0-.02,0-.05-.01-.07,0-.04-.02-.08-.03-.12,0-.03-.01-.05-.02-.08-.01-.04-.02-.08-.03-.11,0-.01-.01-.03-.02-.04-.2-.54-.59-.85-1.22-.97-.03,0-.06-.01-.09-.02-.01,0-.03,0-.04,0-.12-.02-.25-.03-.39-.03-.95-.03-1.89-.02-2.84-.04-.06,0-.12-.05-.32-.13,0-.57,0-1.04,0-1.51-.02-.97-.25-1.79-.65-2.45-.19-.31-.42-.58-.69-.81-.03-.03-.06-.06-.1-.09-.04-.03-.08-.05-.11-.08-.07-.05-.14-.1-.21-.15-.01,0-.02-.01-.03-.02-.55-.34-1.22-.55-2-.62-.03,0-.05,0-.08,0-.12,0-.23-.02-.35-.02-.01,0-.02,0-.03,0-.01,0-.02,0-.03,0-1.39-.03-1.76-.03-2.09-.79-.11-.27-.2-.55-.29-.82-.02-.05-.03-.1-.05-.15ZM35.39,51.51c.06,0,.13,0,.19.01.04,0,.08,0,.12.02.02,0,.03,0,.05,0,.29.05.55.17.78.33.02.02.04.03.07.05.02.01.03.02.05.04.32.27.55.65.66,1.08.01.06.02.12.03.17.09.73.02,1.48.02,2.28h-17.63c0-.8-.07-1.55.02-2.28,0-.06.02-.12.03-.17.11-.44.34-.81.66-1.08.02-.01.03-.02.05-.04.02-.02.04-.03.07-.05.23-.16.49-.28.78-.33.02,0,.03,0,.05,0,.04,0,.08-.01.12-.02.06,0,.12,0,.19-.01,2.14-.01,4.29-.02,6.43-.02.14,0,.29,0,.43,0s.29,0,.43,0c2.14,0,4.29,0,6.43.02ZM42.37,61.39H14.67v-3.94h27.7v3.94ZM25.27,37.52c-1.28-.31-2.48-.76-3.59-1.32-2.02-1.04-3.83-2.52-5.22-4.31-1.43-1.88-2.41-4.1-2.85-6.56-.16-1.07-.25-2.15-.25-3.23-.03-4.44-.01-8.89-.01-13.33,0-.07,0-.13,0-.2,0-.34.04-.68.05-1h30.25c.02.33.05.67.05,1v.2c0,4.44.02,8.89-.01,13.33,0,1.08-.09,2.16-.25,3.23-.44,2.46-1.42,4.69-2.85,6.56-1.4,1.79-3.2,3.27-5.22,4.31-1.11.56-2.31,1-3.59,1.32-.21.05-.43.1-.65.14-.81.15-1.62.24-2.45.25-.06,0-.11,0-.17,0-.06,0-.11,0-.17,0-.82-.01-1.64-.1-2.45-.25-.22-.04-.43-.09-.65-.14ZM10.17,30.26c-.16-.13-.32-.26-.48-.39-.16-.13-.32-.27-.47-.41-.04-.04-.08-.08-.13-.11-2.05-1.87-3.66-4.15-4.81-6.83-.04-.09-.08-.18-.11-.27-.03-.07-.06-.15-.09-.22-.5-1.25-.89-2.58-1.18-3.98-.39-1.87-.5-3.81-.59-5.73,0-.15,0-.29,0-.42.09-1.12.56-1.4,1.89-1.4.12,0,.24,0,.36,0,1.49,0,2.97,0,4.46,0,.56,0,1.12,0,1.68,0,.24,0,.47,0,.71,0v2.4c-.07,0-.14,0-.21,0-1.26,0-2.48,0-3.69,0-.08,0-.16,0-.24,0-.02,0-.04,0-.05,0-.06,0-.13,0-.19,0-.45,0-.83.08-1.14.21-.03.01-.07.03-.1.04,0,0-.01,0-.02.01-.26.13-.46.3-.61.54-.26.4-.35.95-.25,1.64.1.71.18,1.43.33,2.13.04.18.08.37.15.54.66,2.85,1.8,5.43,3.58,7.65.02.03.04.05.06.08.07.08.14.17.21.25.06.07.12.14.18.22.03.03.06.07.09.1.81.92,1.72,1.75,2.74,2.49.23.17.49.36.62.6.15.26.3.53.44.8.32.59.64,1.18.97,1.79.16.31.33.62.5.94-.31-.11-.58-.18-.83-.3-1.32-.65-2.51-1.39-3.6-2.22-.06-.05-.12-.09-.18-.14ZM11.09,5.52c0-.72.02-1.39,0-2.06,0-.19.01-.38.02-.58.01-.19.3-.44.52-.53.03-.01.06-.02.09-.03.07,0,.15,0,.23,0,.1,0,.2,0,.29,0,.06,0,.11,0,.16,0,.25,0,.49,0,.74,0,1.53,0,3.06,0,4.59,0,.06,0,.12,0,.18,0,1.49,0,2.98,0,4.47,0,.22.07.52,0,.77,0,1.79,0,3.58,0,5.37,0,1.79,0,3.58,0,5.37,0,.26,0,.55.07.77,0,1.49,0,2.98,0,4.47,0,.06,0,.12,0,.18,0,1.53,0,3.06,0,4.59,0,.25,0,.49,0,.74,0,.05,0,.11,0,.16,0,.1,0,.2,0,.29,0,.08,0,.16,0,.23,0,.03,0,.06.02.09.03.22.09.51.33.52.53.01.19.02.38.02.58-.02.66,0,1.34,0,2.06,0,0,0,.02,0,.03H11.09s0-.02,0-.03ZM48.04,10.5c1.49,0,2.97,0,4.46,0,.12,0,.24,0,.36,0,1.33,0,1.8.28,1.89,1.4,0,.13,0,.27,0,.42-.09,1.92-.2,3.86-.59,5.73-.29,1.4-.69,2.73-1.18,3.98-.03.07-.06.15-.09.22-.04.09-.08.18-.11.27-1.16,2.68-2.76,4.95-4.81,6.83-.04.04-.08.08-.13.11-.16.14-.31.27-.47.41-.16.13-.32.26-.48.39-.06.05-.12.09-.18.14-1.08.83-2.28,1.57-3.6,2.22-.24.12-.51.19-.83.3.17-.32.34-.63.5-.94.33-.61.65-1.21.97-1.79.15-.27.29-.53.44-.8.14-.24.39-.43.62-.6,1.01-.74,1.93-1.57,2.74-2.49.03-.03.06-.07.09-.1.06-.07.12-.14.18-.21.07-.08.14-.17.21-.25.02-.02.04-.05.06-.08,1.78-2.22,2.92-4.8,3.58-7.65.06-.17.11-.36.15-.54.15-.7.23-1.42.33-2.13.1-.68.02-1.23-.25-1.64-.14-.23-.34-.41-.61-.54,0,0-.01,0-.02-.01-.03-.01-.06-.03-.1-.04-.31-.13-.69-.21-1.14-.21-.06,0-.13,0-.19,0-.02,0-.03,0-.05,0-.08,0-.16,0-.24,0-1.21,0-2.43,0-3.69,0-.07,0-.14,0-.21,0v-2.4c.24,0,.47,0,.71,0,.56,0,1.12,0,1.68,0ZM45.52,25.76v-10.9h4.82c-.01.09-.02.18-.04.27-.11.69-.21,1.33-.32,1.97,0,.04-.01.08-.02.12-.34,1.59-.84,3.09-1.54,4.49-.03.04-.05.09-.08.13-.61.97-1.26,1.93-1.95,2.96-.27.32-.56.64-.86.95ZM8.71,21.84s-.05-.09-.08-.13c-.7-1.4-1.21-2.9-1.54-4.49,0-.04-.01-.08-.02-.12-.11-.64-.21-1.28-.32-1.97-.01-.09-.02-.18-.04-.27h4.82v10.9c-.31-.31-.59-.63-.86-.95-.69-1.03-1.34-1.99-1.95-2.96ZM31.15,49.56h-5.25c1.04-2.6,1.34-5.18.7-7.76-.17-.72-.41-1.44-.73-2.16h5.3c-.31.72-.55,1.44-.73,2.16-.64,2.58-.34,5.16.7,7.76Z"/>
    <path class="cls-1" d="M28.81,63.79h-.58c-4.5,0-9.01,0-13.51,0-1.56,0-2.41-.84-2.45-2.35-.03-1.19-.03-2.48,0-3.94,0-.2.02-.38.05-.55l.11-.47c.28-.75.81-1.18,1.62-1.34l.11-.02c.18-.03.33-.04.49-.05.61-.02,1.21-.02,1.82-.03h.86v-.07c0-.39,0-.74,0-1.09.03-1.05.27-1.96.73-2.7.21-.34.48-.65.78-.92l.21-.17c.13-.1.2-.15.27-.19.66-.4,1.4-.64,2.25-.72.21-.02.34-.03.47-.03,1.5-.03,1.52-.07,1.71-.49.09-.24.19-.51.27-.77l.12-.41c.47-1.67.57-3.14.32-4.55-.04-.21-.07-.34-.1-.47l-.1-.38c-.03-.12-.07-.23-.11-.35l-.05-.16c-.04-.12-.09-.24-.13-.35l-.17-.39c-.05-.11-.11-.22-.16-.33l-.07-.14c-.1-.18-.2-.36-.31-.54-.15-.24-.44-.48-.88-.72-1.2-.66-2.43-1.28-3.62-1.88l-.52-.27c-.6-.31-1.17-.61-1.77-.8-3.32-1.08-6.04-2.54-8.29-4.46-2.14-1.77-3.89-3.95-5.2-6.46C.95,21.53-.05,17.21,0,12.39l.5-.11H0c0-.2,0-.39.02-.58v-.26c.04-1.03.5-1.93,1.3-2.53.11-.08.21-.15.31-.21.63-.37,1.37-.57,2.17-.58h.84c1.36-.02,2.72-.02,4.09-.01h1.23s.48,0,.48,0c.17,0,.33,0,.5-.02v-.12c-.7-.16-1.23-.48-1.58-.95-.18-.22-.32-.5-.41-.84-.15-.5-.19-1.12-.13-1.93v-1.65c.02-.42.11-.81.26-1.15l.06-.13c.2-.42.52-.75.96-.97.37-.2.82-.32,1.33-.32h.14c.09,0,.19,0,.3,0h.55c1.1,0,2.21,0,3.31,0h6.56c.17-.03.35-.01.5,0,.06,0,.12,0,.18,0h11.17c.05,0,.11,0,.17,0,.16,0,.33-.02.5,0h6.56c1.1,0,2.21,0,3.31,0h.55c.11,0,.21,0,.31,0h.13c.51,0,.96.12,1.35.33.41.2.74.54.94.97l.06.13c.15.32.23.71.25,1.13v.26s-.5.11-.5.11l.5.09v1.11c.06.88.02,1.5-.13,2.02-.08.32-.22.61-.42.84-.34.46-.87.77-1.56.92v.12c.17,0,.33.02.5.02h.97s.74,0,.74,0c1.36,0,2.73,0,4.09,0h.83c.8.02,1.54.21,2.15.57.12.08.22.14.31.21.81.62,1.27,1.51,1.31,2.55v.28c.02.17.03.36.02.57l-.5.11h.5c.05,4.82-.95,9.14-2.96,12.83-1.31,2.51-3.06,4.68-5.2,6.46-2.25,1.92-4.96,3.37-8.28,4.45-.6.19-1.17.49-1.77.8l-.52.27c-1.19.6-2.42,1.21-3.62,1.88-.44.24-.74.49-.88.72-.11.18-.21.36-.31.54l-.07.14c-.06.11-.11.22-.16.33l-.17.39c-.05.12-.09.23-.13.35l-.06.16c-.04.11-.07.23-.11.34l-.1.39c-.03.13-.06.26-.08.39-.27,1.49-.17,2.96.29,4.56l.14.47c.09.27.18.53.28.8.18.4.19.44,1.63.47h.1c.1,0,.22.01.35.03.93.08,1.68.32,2.3.7.11.07.18.12.25.17l.24.19c.34.3.6.61.82.95.45.74.7,1.65.72,2.7,0,.35,0,.7,0,1.09v.06h.86c.61.01,1.21.02,1.82.04.16,0,.3.02.44.04l.13.02c.83.16,1.37.59,1.62,1.29l.06.17-.46.23.49-.12.05.24c.03.16.04.35.05.55.03,1.46.03,2.75,0,3.94-.04,1.51-.9,2.35-2.41,2.35-4.55,0-9.05,0-13.55,0ZM14.16,55.61l.06.5c-.46.09-.71.28-.85.65l-.07.25c-.04.21-.05.35-.05.5-.03,1.45-.03,2.72,0,3.9.03.96.45,1.38,1.41,1.38,4.55,0,9.05,0,13.55,0h.58c4.5,0,9.01,0,13.51,0,1.01,0,1.43-.41,1.45-1.38.03-1.17.03-2.45,0-3.9,0-.15-.01-.29-.04-.42l-.03-.16.46-.22-.5.08c-.15-.4-.4-.6-.86-.68l-.02-.51-.09.49c-.11-.02-.22-.03-.34-.03-.6-.02-1.19-.02-1.79-.03h-1.04c-.15-.01-.25-.06-.35-.11l-.46-.2v-.77c0-.38,0-.72,0-1.06-.02-.87-.21-1.61-.58-2.2-.16-.26-.36-.49-.59-.69l.23-.47-.31.39.2-.47-.3.4c-.08-.06-.13-.1-.18-.13-.52-.32-1.12-.5-1.81-.57-.18-.01-.29-.02-.4-.02-1.49-.03-2.14-.04-2.6-1.09-.12-.31-.22-.59-.31-.87l-.13-.44c-.52-1.82-.62-3.43-.34-5,.04-.24.08-.38.11-.53l.11-.44c.04-.12.08-.25.12-.38l.06-.18c.05-.13.1-.26.15-.39l.19-.43c.06-.12.11-.24.18-.37l.08-.16c.11-.2.22-.4.34-.6.24-.39.65-.74,1.25-1.07,1.22-.67,2.46-1.29,3.66-1.9l.51-.26c.61-.32,1.24-.64,1.92-.86,3.2-1.04,5.8-2.44,7.95-4.27,2.04-1.7,3.71-3.77,4.96-6.16,1.93-3.55,2.89-7.7,2.84-12.36v-.13c0-.18,0-.34-.01-.5v-.29c-.04-.74-.34-1.35-.9-1.77-.08-.06-.15-.11-.22-.15-.47-.28-1.04-.42-1.66-.43h-.2s-.15-.51-.15-.51v.5h-.48c-1.36-.01-2.72,0-4.08,0h-1.23s-.49,0-.49,0c-.22,0-.45-.01-.68-.03l-.81-.04.03-1.76.61-.26c.53-.09.9-.29,1.14-.6.12-.14.19-.29.24-.49.12-.41.16-.94.1-1.61v-.46s-.01-1.22-.01-1.22c0-.29-.07-.55-.17-.78l.41-.31-.45.21c-.11-.24-.27-.4-.5-.52-.26-.14-.56-.21-.89-.22h-.15c-.1,0-.18,0-.28,0h-.55c-1.1,0-2.21,0-3.31,0h-6.67s-.06-.01-.06-.01c-.04-.01-.18,0-.27,0-.08,0-.16.01-.24.01h-11.17c-.08,0-.16,0-.24-.01-.08,0-.22-.02-.27,0h-.12s-6.61.01-6.61.01c-1.1,0-2.2,0-3.3,0h-.55c-.09,0-.18,0-.26,0h-.17c-.33,0-.63.08-.87.21-.25.12-.41.29-.52.53l-.05.1c-.1.21-.15.48-.16.77v1.54s-.51.11-.51.11l.5.04c-.05.68-.02,1.2.1,1.59.06.21.13.36.23.49.25.33.62.53,1.15.62l.6.18.04.57v1.28s-.81.04-.81.04c-.24.01-.46.03-.68.03h-.97s-.75,0-.75,0c-1.36,0-2.72,0-4.08,0h-.84c-.62.02-1.19.16-1.64.43-.09.05-.16.1-.23.15-.57.43-.88,1.04-.9,1.78v.28c-.02.18-.03.34-.02.52v.13c-.04,4.65.91,8.81,2.84,12.35,1.25,2.4,2.92,4.48,4.96,6.17,2.16,1.84,4.76,3.23,7.95,4.27.68.22,1.31.55,1.92.86l.51.26c1.2.6,2.44,1.22,3.66,1.9.6.33,1.01.68,1.25,1.07.12.2.24.4.34.6l.06.12c.08.16.14.28.2.4l.19.43c.05.13.1.26.15.39l.06.17c.04.13.08.26.12.39l.11.43c.03.15.07.29.09.44.29,1.63.18,3.29-.31,5.02l-.15.5c-.09.28-.19.56-.3.85-.47,1.07-1.12,1.08-2.54,1.11-.17,0-.28.01-.39.02-.77.07-1.37.25-1.85.56-.08.05-.13.08-.18.12l-.21.17c-.23.2-.43.43-.59.69-.36.59-.56,1.33-.58,2.2,0,.34,0,.68,0,1.06v.77s-.46.2-.46.2c-.1.04-.21.1-.35.1h-1.04c-.6.01-1.19.02-1.79.04-.12,0-.23.01-.33.03l-.18-.48ZM42.87,61.89H14.17v-4.94h28.7v4.94ZM15.17,60.89h26.7v-2.94H15.17v2.94ZM37.84,56h-18.63v-.5c0-.24,0-.48-.01-.72-.01-.53-.03-1.08.03-1.61,0-.07.02-.15.04-.22.14-.55.42-1.02.83-1.36l.15-.11c.29-.21.62-.34.97-.41l.2-.03c.09,0,.17-.01.25-.01,2.14-.01,4.29-.02,6.43-.02h.86c2.15,0,4.29,0,6.44.02.08,0,.16,0,.23.01l.14.02c.43.08.76.22,1.05.43l.08.06c.47.39.75.86.89,1.39.02.09.03.16.04.24.06.54.05,1.08.03,1.61,0,.24-.01.48-.01.72v.5ZM20.2,55h16.64c0-.08,0-.17,0-.25.01-.52.03-1-.03-1.47,0-.04-.01-.08-.02-.13-.08-.32-.25-.6-.5-.81-.25-.18-.45-.27-.67-.31l-.07-.51-.05.5s-.09,0-.14,0h0c-2.14-.01-4.29-.02-6.43-.02h-.86c-2.14,0-4.29,0-6.43.02-.05,0-.1,0-.14,0h-.09c-.24.06-.44.14-.62.27-.32.27-.49.55-.58.88,0,.03-.01.07-.02.11-.05.47-.04.95-.03,1.47,0,.08,0,.17,0,.25ZM31.89,50.06h-6.73l.27-.69c1.05-2.63,1.28-5.06.68-7.46-.17-.71-.41-1.41-.7-2.08l-.31-.7h6.82l-.31.7c-.29.67-.53,1.37-.7,2.08-.59,2.39-.37,4.83.68,7.46l.28.69ZM26.62,49.06h3.8c-.89-2.55-1.05-5.03-.47-7.38.12-.52.28-1.04.47-1.54h-3.81c.19.51.35,1.03.47,1.54.58,2.35.43,4.83-.47,7.38ZM28.58,38.4l-.11-.5v.5s-.12,0-.12,0c-.83-.01-1.68-.1-2.53-.25-.23-.04-.45-.09-.67-.15-1.29-.32-2.53-.77-3.69-1.36-2.1-1.08-3.97-2.62-5.39-4.45-1.5-1.97-2.49-4.26-2.94-6.78-.17-1.11-.25-2.22-.26-3.32-.02-3.21-.02-6.43-.02-9.65v-3.89c0-.24.02-.48.04-.72l.05-.78h31.2l.05.78c.02.24.03.48.03.72v3.89c0,3.22,0,6.43-.01,9.65,0,1.09-.09,2.2-.26,3.3-.45,2.54-1.44,4.82-2.94,6.79-1.43,1.83-3.29,3.37-5.39,4.45-1.16.59-2.41,1.04-3.7,1.36-.22.05-.45.1-.67.15-.85.16-1.7.24-2.54.25h-.12ZM28.47,37.4h.21c.78,0,1.57-.09,2.36-.24.2-.04.41-.08.62-.13,1.22-.3,2.39-.73,3.48-1.28,1.97-1.01,3.72-2.46,5.06-4.17,1.4-1.84,2.32-3.97,2.75-6.34.16-1.04.24-2.1.25-3.15.02-3.21.02-6.43.02-9.64v-3.89c0-.17-.01-.34-.02-.5H13.86c-.01.17-.02.34-.02.51v3.89c0,3.21,0,6.43.01,9.64,0,1.04.09,2.11.25,3.16.42,2.36,1.35,4.49,2.75,6.34,1.33,1.71,3.08,3.15,5.06,4.17,1.09.55,2.26.98,3.48,1.28h0c.21.05.41.09.62.13.79.15,1.58.23,2.36.24h.1ZM41.23,33.82l1.12-2.08c.33-.61.65-1.21.97-1.8.15-.27.3-.54.45-.8.19-.33.5-.56.75-.74.99-.73,1.89-1.54,2.67-2.43l.47-.55c1.73-2.15,2.86-4.58,3.54-7.52.07-.21.11-.37.14-.53.11-.49.17-1,.24-1.5l.08-.59c.08-.56.02-.99-.17-1.29-.1-.16-.23-.27-.41-.36l-.1-.04c-.25-.11-.57-.17-.95-.17l-.18-.5v.5h-.29c-.88,0-1.76,0-2.65,0h-1.75s0-3.4,0-3.4h7.7c1.38,0,2.26.32,2.39,1.86,0,.16,0,.32,0,.49-.1,2.08-.21,3.95-.6,5.81-.3,1.42-.7,2.79-1.21,4.06l-.21.5c-1.19,2.74-2.85,5.09-4.94,7l-.13.12c-.15.14-.32.28-.48.41-.16.14-.33.27-.49.4l-.18.14c-1.11.85-2.35,1.61-3.68,2.27-.18.09-.38.16-.6.23l-1.5.53ZM49.8,12.41h.15c.61,0,1.06.09,1.43.26l.11.05c.38.19.65.43.84.74.32.5.43,1.16.31,1.97l-.08.58c-.07.53-.14,1.06-.26,1.58-.04.2-.09.41-.16.6-.69,3.03-1.89,5.6-3.66,7.79l-.56.67c-.83.94-1.78,1.8-2.81,2.56-.19.14-.4.3-.48.44-.15.26-.29.52-.44.79-.27.49-.53.98-.8,1.49,1.08-.57,2.09-1.21,3.02-1.92l.17-.13c.16-.12.32-.25.47-.38.16-.13.31-.26.46-.4l.12-.11c1.99-1.81,3.57-4.05,4.69-6.66l.2-.48c.48-1.21.87-2.52,1.16-3.89.37-1.78.48-3.61.58-5.65,0-.14,0-.26,0-.38-.06-.69-.14-.92-1.39-.92h-6.7v1.4h.74c.9,0,1.78,0,2.66,0h.23ZM15.82,33.82l-1.5-.53c-.22-.07-.42-.14-.6-.23-1.33-.66-2.57-1.42-3.68-2.27l-.18-.14c-.17-.13-.33-.26-.49-.4-.16-.14-.33-.28-.49-.42l-.13-.12c-2.09-1.91-3.75-4.26-4.94-7l-.21-.5c-.5-1.27-.91-2.64-1.21-4.06-.39-1.86-.5-3.73-.6-5.81,0-.17,0-.32,0-.47.13-1.56,1.01-1.88,2.39-1.88h7.7v3.4h-1.75c-.9,0-1.77,0-2.65,0h-.39c-.47,0-.79.06-1.04.17l-.1.04c-.18.09-.31.2-.39.34-.2.31-.26.75-.18,1.31l.08.59c.07.5.13,1.01.24,1.5.04.16.07.33.13.48.69,2.99,1.83,5.43,3.5,7.5l.44.53-.29.43.37-.33c.79.89,1.68,1.7,2.66,2.42.26.19.58.42.76.75.15.27.3.53.45.8l2.08,3.88ZM4.19,11c-1.25,0-1.33.23-1.39.94,0,.1,0,.22,0,.36.1,2.03.2,3.86.58,5.65.29,1.37.68,2.68,1.16,3.9l.2.48c1.13,2.6,2.71,4.84,4.69,6.65l.12.11c.16.14.31.27.47.4.15.13.31.25.47.38l.17.13c.92.71,1.93,1.35,3.02,1.92l-.8-1.49c-.14-.26-.29-.53-.44-.79-.08-.14-.29-.29-.47-.43-1.05-.77-1.99-1.63-2.83-2.57l-.56-.67c-1.76-2.19-2.96-4.76-3.67-7.85-.05-.13-.1-.34-.15-.54-.11-.52-.19-1.05-.26-1.58l-.08-.58c-.12-.81,0-1.47.32-1.98.18-.29.45-.54.8-.71l.14-.06c.37-.16.82-.25,1.33-.25h.49c.87,0,1.75,0,2.65,0h.74s0-1.4,0-1.4h-6.7ZM45.02,26.98v-12.62h5.88l-.17,1.3c-.08.53-.17,1.03-.26,1.54l-.02.12c-.36,1.68-.89,3.24-1.59,4.63l-.11.17c-.61.96-1.24,1.9-1.92,2.92l-.07.09c-.28.33-.57.66-.89.98l-.86.87ZM46.02,15.36v9.1c.67-1.01,1.29-1.93,1.89-2.88l.07-.11c.65-1.3,1.16-2.77,1.49-4.35l.02-.1c.09-.5.17-1,.25-1.52l.02-.14h-3.74ZM12.02,26.98l-.86-.87c-.31-.32-.61-.65-.89-.98l-.07-.09c-.68-1.02-1.32-1.96-1.92-2.92h0s0,0,0,0l-.07-.11c-.73-1.46-1.27-3.01-1.62-4.67l-.02-.13c-.09-.5-.17-1-.25-1.52l-.18-1.31h5.88v12.62ZM7.28,15.36l.02.15c.08.52.16,1.02.25,1.51l.02.12c.33,1.57.84,3.04,1.5,4.35l.06.09c.6.94,1.22,1.87,1.89,2.87v-9.09h-3.74ZM45.96,6.05H10.59v-1.24c.01-.45.02-.89,0-1.33,0-.23.01-.43.02-.62.03-.46.51-.83.83-.96l.17-.05c.16-.02.25-.02.35-.02h1.19c.75.01,1.49.01,2.24,0,.78,0,1.57,0,2.36,0h.16s4.64.02,4.64.02c.05.02.21,0,.32,0,.1,0,.2-.02.3-.02h10.74c.1,0,.2,0,.3.02.11,0,.27.02.32,0l.15-.02h4.65c.78,0,1.57,0,2.35,0,.74,0,1.49,0,2.23,0h1.19c.1,0,.2,0,.28,0l.24.06c.31.13.79.49.82.96.01.2.02.4.02.59-.02.46,0,.9,0,1.36v1.21s-.49.03-.49.03ZM11.59,5.05h33.86v-.23c0-.47-.01-.92,0-1.37,0-.16-.01-.34-.02-.53,0,.04-.12-.06-.21-.1,0,0-.04,0-.09,0h-.33s-.1,0-.17,0h-.74c-.74,0-1.49,0-2.24,0-.78,0-1.57,0-2.35,0h-.19s-4.39,0-4.39,0c-.21.05-.43.03-.62.01-.07,0-.15-.01-.22-.01h-10.73c-.07,0-.14,0-.21.01-.19.02-.41.04-.62-.01h-4.58c-.79,0-1.57,0-2.35,0-.75,0-1.49,0-2.24,0h-.73c-.07,0-.13,0-.2,0h-.27c-.07,0-.12,0-.18,0-.03.03-.14.13-.17.17,0,.1,0,.29,0,.47.02.42.01.87,0,1.34v.23Z"/>
  </g>
  <g>
    <path class="cls-1" d="M22.82,26.92c.09-.5.18-1.21.34-1.91.14-.63.04-1.12-.5-1.55-.51-.41-.96-.89-1.4-1.36-.64-.68-.83-1.48-.49-2.35.32-.83.97-1.28,1.85-1.39.03,0,.07,0,.1,0,1.91.07,3.14-.75,3.72-2.64.28-.94,1.03-1.49,2.08-1.5,1.04,0,1.82.53,2.09,1.47.57,1.95,1.87,2.69,3.8,2.69.93,0,1.59.57,1.91,1.44.3.83.11,1.61-.49,2.27-.2.22-.38.46-.63.62-1.42.91-1.53,2.15-1.07,3.64.16.53.14,1.19-.03,1.72-.4,1.23-1.86,1.9-2.94,1.16-1.81-1.23-3.37-1.21-5.22-.02-1.46.94-3.15-.29-3.11-2.27ZM22.48,20.27c-.07.15-.14.3-.21.44.44.37.87.76,1.33,1.1,1.41,1.05,1.81,2.38,1.26,4.05-.17.52-.13,1.1-.2,1.79,1.41-.56,2.63-1.43,3.85-1.42,1.24,0,2.49.87,3.91,1.42-.11-.76-.12-1.38-.28-1.95-.44-1.51-.14-2.75,1.14-3.73.52-.4.95-.92,1.6-1.57-.78-.17-1.24-.37-1.7-.36-2.07.06-3.26-1-3.9-2.88-.14-.42-.45-.78-.81-1.38-.44.86-.82,1.44-1.05,2.07-.53,1.45-1.56,2.08-3.06,2.14-.63.03-1.26.19-1.89.29Z"/>
    <path class="cls-1" d="M32.14,30.02c-.45,0-.89-.13-1.28-.39-1.62-1.1-2.97-1.11-4.67-.02-.77.5-1.66.54-2.43.1-.92-.51-1.47-1.59-1.45-2.8v-.08s.08-.46.08-.46c.07-.44.15-.96.27-1.48.11-.5.03-.77-.32-1.05-.51-.41-.96-.88-1.39-1.34-.84-.89-1.05-1.91-.65-2.94.38-.98,1.16-1.57,2.25-1.71h.17c1.73.05,2.73-.65,3.22-2.29.35-1.15,1.3-1.85,2.55-1.85h.02c1.26,0,2.21.68,2.55,1.83.48,1.63,1.47,2.33,3.32,2.33,1.09,0,1.98.66,2.38,1.77.36.98.15,1.97-.59,2.78l-.12.13c-.17.19-.36.41-.61.57-1.07.69-1.32,1.58-.86,3.07.19.6.17,1.38-.03,2.02-.25.79-.87,1.42-1.65,1.68-.26.09-.52.13-.78.13ZM28.55,27.8c.95,0,1.89.33,2.88,1.01.34.23.75.28,1.17.14.48-.17.86-.55,1.02-1.04.15-.45.16-1.01.03-1.42-.38-1.22-.65-2.98,1.28-4.21.13-.08.26-.23.39-.38l.13-.15c.45-.5.6-1.05.43-1.63l-.64.64c-.22.21-.41.41-.58.6-.37.39-.69.72-1.07,1.01-1.07.83-1.37,1.81-.97,3.2.12.43.17.87.22,1.33.02.22.05.45.08.69l.12.84-.79-.31c-.46-.18-.9-.39-1.32-.59-.86-.41-1.66-.79-2.41-.8h0c-.72,0-1.51.38-2.34.79-.42.21-.86.42-1.32.6l-.77.3.08-.82c.02-.22.03-.42.04-.62.02-.44.05-.86.18-1.27.48-1.47.14-2.58-1.08-3.49-.33-.24-.64-.51-.95-.77l-.71-.59.49-1.03.26-.04c.19-.03.38-.07.58-.11.44-.09.9-.17,1.38-.2,1.37-.06,2.17-.62,2.61-1.81.17-.46.39-.87.66-1.35.13-.23.27-.49.41-.77l.41-.8.46.78c.12.2.23.37.33.53.22.33.4.61.52.95.61,1.81,1.66,2.62,3.41,2.54.37,0,.73.08,1.14.2.2.05.43.12.69.17l.88.19s-.02-.08-.04-.12c-.15-.41-.54-1.11-1.44-1.11-2.28,0-3.67-1-4.28-3.05-.21-.72-.78-1.11-1.59-1.11h-.02c-.81,0-1.38.41-1.6,1.15-.63,2.06-2.03,3.04-4.21,2.99-.74.09-1.22.45-1.46,1.08-.26.68-.14,1.27.38,1.83.47.5.9.95,1.35,1.32.64.52.86,1.19.67,2.05-.11.49-.19.99-.26,1.42l-.07.43c0,.83.35,1.55.94,1.87.44.25.94.22,1.4-.07,1.01-.65,1.96-.97,2.89-.97ZM23.01,20.68h0c.29.25.59.5.9.73,1.57,1.17,2.06,2.72,1.44,4.61-.08.24-.1.52-.12.84.17-.08.34-.16.51-.25.94-.46,1.83-.89,2.78-.89h.01c.97,0,1.87.44,2.83.89.16.08.32.15.48.23-.04-.38-.08-.71-.17-1.01-.51-1.76-.07-3.2,1.32-4.27.31-.24.61-.55.95-.9-.3-.08-.53-.12-.73-.13-2.14.03-3.64-1.02-4.38-3.22-.06-.17-.16-.35-.29-.55,0,.01-.01.02-.02.04-.25.46-.46.83-.6,1.21-.58,1.59-1.72,2.39-3.5,2.47-.4.02-.8.09-1.23.18-.05,0-.11.02-.16.03Z"/>
  </g>
</svg>