<?xml version="1.0" encoding="UTF-8"?>
<svg id="Capa_1" data-name="Capa 1" xmlns="http://www.w3.org/2000/svg" viewBox="0 0 50.9 50.93">
  <defs>
    <style type="text/css">
      .st0 {
        fill: #000000;
      }
    </style>
  </defs>
  <path class="st0"
    d="M.66,42.21l3.89-1.54c-.78-1.71-1.29-3.45-1.35-5.32-.12-3.79,1.15-7.03,3.81-9.7,6.12-6.15,12.25-12.29,18.41-18.4,3.74-3.72,9.52-4.71,14.31-2.54.2.09.4.18.7.33l1.74-4.37c.28-.7,1.18-.88,1.71-.35,2.25,2.25,4.48,4.49,6.73,6.74.53.53.35,1.43-.35,1.71l-4.23,1.68c.37,1.28.82,2.49,1.06,3.74.81,4.34-.35,8.18-3.41,11.3-6.05,6.17-12.18,12.26-18.32,18.34-3.83,3.8-9.58,4.91-14.55,2.8-.17-.07-.35-.15-.56-.24l-1.54,3.89c-.28.7-1.18.89-1.71.35L.3,43.92c-.53-.53-.34-1.43.35-1.71ZM10.98,24.78c-.87.88-1.63,1.64-2.37,2.42-2.44,2.6-3.41,5.71-2.84,9.2,1.25,7.66,10.21,11.46,16.53,6.99,1.64-1.16,3.03-2.72,4.47-4.15,5.14-5.11,10.26-10.23,15.37-15.36,2.62-2.63,3.73-5.81,3.1-9.49-.99-5.84-6.44-9.66-12.29-8.74-3.56.56-5.86,2.92-8.24,5.52,3.34,3.3,6.66,6.59,9.9,9.8-4.6,4.61-9.17,9.17-13.77,13.78-3.22-3.25-6.49-6.56-9.86-9.96ZM20.88,31.56c3.54-3.54,7.06-7.05,10.55-10.53-2.73-2.74-5.51-5.52-8.19-8.22-3.51,3.5-7.05,7.03-10.57,10.54,2.72,2.72,5.48,5.48,8.21,8.21ZM44.71,4.23c-.53-.53-1.43-.34-1.71.35-.18.44-.35.88-.5,1.32-.06.17.04.48.17.62.54.59,1.1,1.15,1.69,1.69.15.14.45.26.62.2.45-.16.9-.34,1.35-.51.7-.28.88-1.18.35-1.71l-1.96-1.96ZM4.25,44.77l1.89,1.89c.54.53,1.44.34,1.71-.36.09-.24.19-.49.27-.74.07-.19,0-.48-.13-.63-.64-.69-1.31-1.35-1.99-1.99-.13-.13-.41-.24-.55-.19-.29.1-.57.21-.85.31-.7.27-.89,1.18-.36,1.71Z" />
</svg>