<?xml version="1.0" encoding="UTF-8"?>
<svg id="Capa_1" data-name="Capa 1" xmlns="http://www.w3.org/2000/svg" viewBox="0 0 51.13 51.19">
  <defs>
    <style type="text/css">
      .st0 {
        fill: #000000;
      }
    </style>
  </defs>
  <path class="st0"
    d="M12.55,33.07c-3.5-6.5-1.95-13.47,2.2-17.83,3.92-4.12,11.05-6.53,18.31-2.7.26-.87.51-1.72.76-2.57.84-2.94,1.68-5.87,2.5-8.82.18-.65.53-.96,1.2-1.08,3.36-.58,6.74,1.6,7.75,5.09.13.47.34.65.76.76,3.17.89,5.54,3.7,5.04,7.92-.08.63-.51.86-1.07,1.02-3.6,1.02-7.2,2.05-10.8,3.08-.18.05-.35.12-.5.17,3.12,6.65,2.54,12.8-2.63,18.17-3.84,4-10.87,6.1-17.95,2.36-.33,1.15-.66,2.29-.99,3.42-.74,2.61-1.47,5.21-2.22,7.82-.29,1.02-.53,1.18-1.73,1.28-3.29.26-6.36-1.88-7.23-5.08-.14-.51-.39-.72-.87-.85-3.39-.96-5.48-4.21-5.01-7.73.09-.67.46-1,1.1-1.18,3.63-1.02,7.25-2.06,10.88-3.09.15-.04.3-.1.5-.16ZM25.6,12.64c-7.15,0-13.01,5.79-13.03,12.89-.03,7.17,5.78,13.02,12.96,13.04,7.2.03,13.06-5.78,13.07-12.93,0-7.18-5.81-13-13-13ZM14.31,35.58c-.31-.58-.57-.75-1.15-.58-3.51,1.04-7.04,2.03-10.57,3-.56.15-.64.42-.59.91.26,2.42,1.99,4.24,4.39,4.6,1.04.16,1.22.34,1.35,1.41.27,2.25,2.24,4.08,4.51,4.24.53.04.79-.06.96-.64.98-3.53,1.99-7.05,3.02-10.56.17-.58-.08-.82-.59-1.01-.83.84-1.66,1.67-2.48,2.5-.15.15-.29.31-.45.45-.46.41-.97.47-1.43.05-.5-.47-.43-1.01.03-1.47,1-.99,2.03-1.95,3.01-2.9ZM35.57,14.29c.91-.93,1.81-1.87,2.72-2.8.6-.6,1.23-.66,1.67-.19.42.46.35,1.01-.25,1.6-.95.93-1.91,1.85-2.84,2.75.31.61.62.73,1.21.55,3.49-1.03,6.99-2.02,10.5-2.98.52-.14.59-.4.57-.85-.08-2.26-1.84-4.2-4.23-4.64q-1.27-.24-1.49-1.53c-.37-2.25-2.29-3.99-4.53-4.15-.57-.04-.8.14-.95.67-.97,3.48-1.97,6.95-2.97,10.42-.14.5-.11.89.58,1.16Z" />
  <path class="st0"
    d="M25.46,14.78c-.47-.03-.78-.34-.82-.89-.03-.52.42-.95.95-.93.57.02.86.36.91.9.04.52-.4.94-1.03.93Z" />
</svg>