<?xml version="1.0" encoding="UTF-8"?>
<svg id="Capa_1" data-name="Capa 1" xmlns="http://www.w3.org/2000/svg" viewBox="0 0 49.73 40.77">
  <defs>
    <style>
      .cls-1 {
        fill: #000;
        stroke-width: 0px;
      }
    </style>
  </defs>
  <path class="cls-1" d="M26.54,7.83c3.33-3.97,7.87-5.71,12.93-6.2,2.6-.26,5.25-.06,7.88-.03.3,0,.81.21.86.41.07.29-.11.73-.33.98-2.15,2.48-3.06,5.43-3.52,8.6-.35,2.46-.64,4.97-1.35,7.33-1.56,5.22-7.28,8.2-12.51,6.7-.72-.21-1.38-.61-2.22-1-.4,1.55-.87,3.13-1.22,4.73-.63,2.9-.85,5.85-.83,8.82,0,.34-.18.84-.44.99-.49.3-.86-.14-.9-.93-.12-2.14-.27-4.28-.41-6.41-.01-.16-.06-.31-.09-.46-.9.19-1.76.42-2.63.54-5.37.77-12.3-2.11-14.04-9.63-.63-2.71-.95-5.5-1.34-8.26-.53-3.75-1.68-7.22-4.17-10.16-1.06-1.25-1-1.53.58-1.69,6.63-.67,13.13-.25,19.21,2.81,1.56.79,2.98,1.86,4.54,2.85ZM3.35,3.28c1.59,2.06,2.83,4.09,3.33,6.41.63,2.93,1.05,5.92,1.51,8.88.37,2.4.84,4.77,2.12,6.87,1.96,3.22,4.97,4.85,8.63,5.29,1.75.21,3.52.15,5.16-.75-.01-.13-.01-.24-.03-.34-1.11-5.16-3.36-9.78-6.78-13.8-1.07-1.26-2.31-2.37-3.45-3.57-.2-.21-.31-.54-.34-.83-.01-.12.32-.4.44-.38.29.06.6.21.83.42,3.32,2.93,5.95,6.38,7.9,10.35,1.34,2.72,2.23,5.6,2.83,8.5.53-1.93,1.02-3.9,1.61-5.84.18-.58.12-.91-.3-1.35-3.08-3.31-3.97-7.13-2.5-11.43.33-.96.86-1.85,1.34-2.86C19.16,3.47,11.51,2.78,3.35,3.28ZM28.8,23.47c.78.37,1.44.82,2.18,1.03,4.15,1.16,8.96-1.11,10.57-5.1.59-1.46.87-3.07,1.18-4.63.5-2.49.74-5.05,1.4-7.5.42-1.58,1.39-3.02,2.12-4.53-1.94,0-4-.11-6.04.03-3.06.21-6,.97-8.68,2.51-3.32,1.91-5.7,4.61-6.48,8.44-.69,3.37.44,6.22,2.79,8.77.17-.37.29-.64.41-.91,2.14-4.81,5.24-8.92,9.16-12.42.33-.3.71-.63,1.12-.18.4.45.05.78-.28,1.1-.97.95-1.98,1.86-2.89,2.86-2.79,3.05-4.95,6.5-6.55,10.53Z"/>
  <path class="cls-1" d="M25.5,40.77c-.3,0-.6-.07-.88-.22-.73-.38-1.16-1.17-1.22-2.22-.1-1.71-.21-3.42-.32-5.13-.37.08-.73.15-1.1.2-6.19.88-13.81-2.59-15.71-10.77-.53-2.3-.85-4.66-1.16-6.94l-.2-1.45c-.56-3.99-1.78-6.98-3.83-9.4-.56-.66-1.4-1.65-.94-2.8C.59.89,1.88.76,2.65.68c8.04-.81,14.41.13,20.03,2.96,1.15.58,2.21,1.29,3.23,1.98.12.08.25.17.38.25,3.21-3.31,7.49-5.19,13.03-5.74,2-.2,4.01-.14,5.95-.08.7.02,1.4.04,2.1.05.75.01,2.03.44,2.3,1.56.2.85-.18,1.77-.65,2.32-1.69,1.95-2.67,4.37-3.17,7.83l-.14,1c-.3,2.16-.61,4.39-1.26,6.55-1.8,6.01-8.25,9.47-14.36,7.71-.29-.08-.56-.19-.82-.3-.26.96-.52,1.93-.73,2.91-.56,2.55-.82,5.33-.79,8.49,0,.76-.36,1.79-1.16,2.28-.35.21-.72.32-1.09.32ZM6.15,4.66c.86,1.38,1.61,2.95,1.99,4.73.54,2.51.93,5.07,1.31,7.54l.22,1.43c.33,2.15.76,4.4,1.92,6.32,1.63,2.67,4.09,4.17,7.53,4.58,1.32.15,2.37.11,3.28-.17-1.12-4.59-3.22-8.71-6.25-12.26-.62-.72-1.3-1.4-2.02-2.11-.47-.46-.93-.93-1.38-1.4-.54-.57-.7-1.29-.74-1.67-.04-.33,0-.94.63-1.51.49-.45,1.06-.62,1.61-.51.54.11,1.08.38,1.51.76,2.61,2.3,4.84,4.95,6.66,7.91-.52-2.22-.36-4.56.49-7.02.24-.69.56-1.33.87-1.95-5.44-4.05-11.58-4.81-17.63-4.63ZM24.99,23.33c.18.44.35.89.51,1.35.06-.19.11-.37.17-.56-.24-.26-.47-.53-.68-.79ZM30.72,22.77c.24.12.46.22.67.28,3.44.97,7.46-.97,8.77-4.22.48-1.18.74-2.5,1.01-3.89l.09-.47c.19-.93.34-1.87.48-2.81.25-1.57.51-3.19.94-4.78.26-.96.67-1.83,1.1-2.67-1.15-.01-2.33-.02-3.47.06-3.01.2-5.71.98-8.03,2.31-3.23,1.86-5.12,4.29-5.76,7.44-.41,2-.09,3.82,1,5.59,2.14-4.32,5.13-8.21,8.89-11.58.33-.29.93-.8,1.8-.78.38.02.93.16,1.43.72.41.45,1.19,1.67-.34,3.15l-.8.77c-.72.69-1.41,1.35-2.05,2.05-2.4,2.62-4.29,5.52-5.75,8.83ZM13.64,12.54s0,0,0,0t0,0Z"/>
</svg>