<?xml version="1.0" encoding="UTF-8"?>
<svg id="Capa_1" data-name="Capa 1" xmlns="http://www.w3.org/2000/svg" viewBox="0 0 64.05 50.36">
  <defs>
    <style type="text/css">
      .st0 {
        fill: #000000;
      }
    </style>
  </defs>
  <path class="st0"
    d="M63.93,17.5c-.16-.33-.49-.58-1.01-.76l-4.92-1.67c-3.28-1.12-6.56-2.23-9.84-3.36-.55-.19-.96-.2-1.29-.02-.34.18-.57.53-.73,1.11-.19.7-.6,1.24-1.13,1.51-.49.25-1.06.28-1.63.07-.56-.2-.98-.6-1.2-1.11-.23-.54-.21-1.17.06-1.78.25-.55.29-.98.14-1.33-.16-.36-.51-.61-1.13-.82-.6-.2-1.2-.41-1.8-.62-.9-.31-1.8-.62-2.7-.91-.57-.18-.79-.43-.87-1-.18-1.21-.44-2.43-.69-3.61-.12-.58-.24-1.15-.35-1.73-.09-.47-.24-1-.66-1.28-.33-.22-.77-.26-1.39-.13-3.76.77-7.59,1.5-11.29,2.21-1.91.37-3.82.73-5.73,1.1-2.13.42-4.26.84-6.39,1.26-2.63.52-5.26,1.05-7.89,1.55-.49.09-1.02.24-1.29.65-.19.29-.23.67-.12,1.16.15.7.28,1.42.4,2.12.1.55.19,1.1.3,1.65.16.78.55,1.23,1.27,1.46.99.31,1.61.87,1.75,1.57.15.73-.23,1.52-1.08,2.25-.41.35-.77.79-.62,1.56.7,3.49,1.39,6.98,2.09,10.46.68,3.43,1.36,6.87,2.05,10.3.31,1.57.73,1.84,2.32,1.52,1.34-.27,2.68-.53,4.02-.8,1.65-.33,3.29-.66,4.94-.98.2-.04.39-.09.59-.14.94-.25,1.76-.45,2.41.58.11.18.34.23.54.28.06.01.12.03.18.05l3.63,1.24c3.4,1.16,6.93,2.35,10.37,3.57.89.31,1.49.14,1.94-.56.34-.52.94-1.08,1.92-.74.78.27,1.19.91,1.13,1.75-.06.86.29,1.35,1.18,1.65,2.85.96,5.9,2.01,9.87,3.41.32.11.6.17.85.17.22,0,.42-.04.6-.13.39-.19.68-.59.89-1.24.79-2.41,1.64-4.85,2.45-7.21.35-1.01.7-2.03,1.05-3.04.33-.97.31-1.73-.85-2.29-1.54-.75-2.22-2.36-1.68-4.01.46-1.42,1.87-2.23,3.68-2.1.74.19,1.64.24,2.04-.96,1.14-3.41,2.36-7.04,3.61-10.64.17-.5.18-.9.02-1.23ZM52.31,31.69c-.83,2.4-.21,4.51,1.85,6.28.39.33.48.51.31.99-1.09,3.04-1.96,5.59-2.74,8.01-.1.32-.21.49-.34.56-.13.06-.34.04-.71-.1-1.88-.68-3.81-1.33-5.67-1.95l-1.59-.53c-.5-.17-.77-.36-.94-.98-.36-1.36-1.27-2.39-2.49-2.83-.44-.16-.89-.24-1.34-.24-.89,0-1.79.29-2.59.86-.07.05-.14.1-.2.16-.24.2-.38.3-.64.21-3.19-1.1-6.38-2.19-9.57-3.28l-2.46-.84,3.76-.73c4.22-.82,8.43-1.65,12.65-2.45.58-.11.97-.32,1.19-.64.21-.31.26-.72.16-1.25-.33-1.7-.66-3.4-.99-5.1-.4-2.07-.8-4.14-1.21-6.21-.17-.85-.69-1.23-1.63-1.21-.06,0-.12,0-.17,0-1.81,0-3.11-.98-3.42-2.58-.32-1.68.56-3.08,2.36-3.75.86-.32,1.19-.87,1.04-1.74-.08-.47-.17-.94-.26-1.44l-.09-.48c.67.05,1.28.29,1.92.54.33.13.68.26,1.03.37.14.04.16.06.1.32-.02.08-.03.16-.04.23-.15,2.14,1,4.05,2.87,4.74,2.09.77,4.09.14,5.36-1.7.36-.52.58-.59,1.15-.39,4.24,1.49,8.05,2.79,11.64,3.97.32.1.5.22.56.35.07.14.04.35-.1.74-.91,2.52-1.74,5.04-2.51,7.39-.19.59-.38.81-1.08.86-2.58.2-4.37,1.53-5.18,3.85ZM5.05,18.22c.95-1.14,1.35-2.47,1.12-3.76-.23-1.3-1.09-2.43-2.4-3.18-.56-.32-1.33-2.2-1.12-2.72.08-.19.26-.24.54-.29l5.61-1.08c6-1.16,12-2.31,18-3.47,2.04-.39,3.6-.71,5.06-1.04.15-.03.27-.05.36-.05.11,0,.19.02.25.06.11.07.18.23.23.5.54,2.95,1.14,5.92,1.65,8.45.06.31-.03.38-.36.59-2.33,1.42-3.3,3.51-2.8,6.04.5,2.55,2.19,4.12,4.87,4.54.4.06.48.18.56.57.44,2.26.89,4.51,1.34,6.77l.41,2.06c.03.17.03.3-.02.36-.07.09-.29.09-.46.1-.11,0-.22,0-.31.02-2.87.59-5.8,1.16-8.63,1.71l-2.15.42c-1.51.3-3.03.59-4.54.88-4.18.81-8.49,1.65-12.73,2.52-.49.1-.78.1-.94-.01-.16-.11-.27-.36-.36-.85-1.03-5.53-2.19-11.44-3.54-18.06-.1-.49.03-.71.35-1.09Z" />
  <g>
    <path class="st0"
      d="M24.72,11.14h-.01c-.56,0-1.09.22-1.48.62-.39.4-.61.94-.6,1.51,0,.56.24,1.12.65,1.51.39.38.9.59,1.43.59.02,0,.03,0,.05,0,1.15-.03,2.07-1,2.06-2.17-.02-1.14-.95-2.06-2.09-2.06ZM24.35,12.9c.1-.1.23-.15.37-.16h0c.14,0,.27.05.37.15.1.09.15.22.15.35,0,.26-.23.49-.5.5-.15-.01-.29-.05-.39-.14-.09-.09-.15-.21-.15-.34,0-.13.05-.26.14-.36Z" />
    <path class="st0"
      d="M30.27,7.61c-.02-1.14-.95-2.06-2.09-2.06h-.01c-.56,0-1.09.22-1.48.62-.39.4-.61.94-.6,1.51,0,.56.24,1.12.65,1.51.39.38.9.59,1.43.59.02,0,.03,0,.05,0,1.15-.03,2.07-1,2.06-2.17ZM27.8,7.32c.1-.1.23-.16.37-.16.13,0,.28.05.38.15.1.09.15.22.15.35,0,.26-.23.49-.5.5-.14.02-.29-.05-.39-.14-.09-.09-.15-.21-.15-.34,0-.13.05-.26.14-.36Z" />
    <path class="st0"
      d="M55.56,20.44h-.01c-.56,0-1.09.22-1.48.62-.39.4-.61.94-.6,1.51,0,.56.24,1.12.65,1.51.39.38.9.59,1.43.59.02,0,.03,0,.05,0,1.15-.03,2.07-1,2.06-2.17-.02-1.14-.95-2.06-2.09-2.06ZM55.19,22.21c.1-.1.23-.15.37-.16h0c.14,0,.27.05.37.15.09.09.15.22.15.35,0,.26-.23.49-.5.5-.15,0-.29-.05-.39-.14-.09-.09-.15-.21-.15-.34,0-.13.05-.26.14-.36Z" />
    <path class="st0"
      d="M29.62,12.24h-.07s-.07.01-.07.01c-.45.12-.69.44-.65.86.05.43.37.73.8.73h.03c.22,0,.42-.1.56-.25.14-.16.21-.38.19-.61-.04-.4-.35-.7-.79-.74Z" />
    <path class="st0"
      d="M10.18,20.29c-.41-.01-.82.14-1.07.4-.17.17-.36.48-.35.99.01.46.22,1.26,1.45,1.4h.05s.05,0,.05,0c.81-.1,1.33-.65,1.31-1.4-.02-.81-.61-1.39-1.44-1.39Z" />
    <path class="st0"
      d="M46.27,36.76c-.42.01-.77.16-1.01.43-.24.27-.36.63-.33,1.04.03.4.24,1.33,1.62,1.33h.06c.62-.08,1.2-.56,1.12-1.47-.07-.84-.65-1.37-1.46-1.33Z" />
  </g>
</svg>