<?xml version="1.0" encoding="UTF-8"?>
<svg id="Capa_1" data-name="Capa 1" xmlns="http://www.w3.org/2000/svg" viewBox="0 0 77.61 27.65">
  <defs>
    <style>
      .cls-1 {
        fill: #000;
        stroke-width: 0px;
      }
    </style>
  </defs>
  <path class="cls-1" d="M67.88,12.31c1.75-2.22,3.5-4.43,5.24-6.65.28-.35.48-.77.74-1.14.76-1.1,1.88-1.39,2.86-.75.92.6,1.19,1.78.47,2.83-1.27,1.86-2.53,3.76-4,5.47-7.55,8.75-17.1,14.01-28.57,15.24C26.47,29.26,11.86,22.84,1.19,7.85c-.36-.5-.72-1.01-.97-1.57-.43-.98-.25-1.86.66-2.5.86-.6,1.96-.43,2.63.45.65.85,1.16,1.8,1.81,2.65,9.44,12.46,22.07,17.8,37.54,16.72,2.29-.16,4.32-2.87,4.35-5.68.03-2.67-.05-5.35.01-8.02.12-5.34,4.22-9.52,9.61-9.88,5.04-.34,9.69,3.41,10.48,8.52.18,1.16.13,2.36.18,3.53.13.08.25.16.38.23ZM59.55,18.31c1.86-1.06,3.76-1.78,3.86-4.13.07-1.64.18-3.3.02-4.92-.2-1.94-1.27-3.45-2.98-4.44-4.11-2.4-9.13.49-9.31,5.29-.16,3.99.64,8.03-.84,12.09.76-.22,1.38-.39,1.99-.59,3.03-.99,3.3-1.35,3.32-4.54.02-2.51,0-5.01.01-7.52,0-1.45.76-2.36,1.93-2.39,1.22-.03,1.99.89,2,2.43.01,2.83,0,5.67,0,8.72Z"/>
</svg>