<?xml version="1.0" encoding="UTF-8"?>
<svg id="Capa_1" data-name="Capa 1" xmlns="http://www.w3.org/2000/svg" xmlns:xlink="http://www.w3.org/1999/xlink" viewBox="0 0 107.27 38.22">
  <defs>
    <style>
      .cls-1 {
        fill: none;
      }

      .cls-1, .cls-2 {
        stroke-width: 0px;
      }

      .cls-2 {
        fill: #fff;
      }
    </style>
    <clipPath id="clippath">
      <path class="cls-1" d="M444.98-962.07H-922.02l1,768c.21-1.44,1.54-5.96,2.15-7.3,5.85-14.73,17.71-23.19,37.08-29.26,34.89-11.14,75.37-14.42,113.82-19.84,40.11-4.83,80.33-9.37,120.57-13.85,20.83-2.32,41.66-4.63,62.49-6.95,18.25-2.03,36.5-4.08,54.74-6.15,0,0,0,0,0,0l9.88-1.05L-11-337.39l155.03-17.44,127.84-16.01c125.11-15.52,149.11-40.52,174.11-62.36l-1-528.86Z"/>
    </clipPath>
  </defs>
  <path class="cls-2" d="M93.83,17.02c2.42-3.06,4.84-6.12,7.24-9.2.38-.49.66-1.06,1.02-1.57,1.06-1.53,2.6-1.93,3.96-1.03,1.26.83,1.64,2.47.66,3.91-1.76,2.58-3.5,5.2-5.53,7.56-10.43,12.1-23.63,19.37-39.49,21.07-25.11,2.69-45.3-6.17-60.05-26.9-.49-.69-1-1.4-1.34-2.17-.59-1.35-.34-2.58.91-3.45,1.19-.83,2.71-.6,3.64.62.89,1.17,1.61,2.48,2.5,3.66,13.05,17.22,30.5,24.61,51.89,23.12,3.16-.22,5.97-3.96,6.02-7.85.04-3.69-.07-7.39.02-11.08.17-7.38,5.83-13.16,13.28-13.66,6.96-.46,13.39,4.72,14.49,11.78.25,1.6.18,3.26.25,4.88.18.11.35.22.53.32ZM82.31,25.31c2.57-1.46,5.2-2.45,5.34-5.7.1-2.27.25-4.56.02-6.8-.27-2.68-1.76-4.76-4.11-6.14-5.68-3.32-12.62.68-12.87,7.32-.21,5.51.88,11.11-1.16,16.71,1.05-.31,1.91-.54,2.75-.82,4.19-1.37,4.56-1.87,4.59-6.27.02-3.47,0-6.93.02-10.4.01-2,1.05-3.27,2.66-3.3,1.69-.04,2.75,1.23,2.76,3.35.01,3.92,0,7.83,0,12.05Z"/>
</svg>