<?xml version="1.0" encoding="UTF-8"?>
<svg id="Capa_1" data-name="Capa 1" xmlns="http://www.w3.org/2000/svg" viewBox="0 0 63.41 54.22">
  <defs>
    <style type="text/css">
      .st0 {
        fill: #000000;
      }
    </style>
  </defs>
  <path class="st0"
    d="M62.94,8l.45-1.88s0-.04,0-.07c0-.04.01-.09.01-.13,0-.03,0-.06,0-.09,0-.03,0-.06,0-.09,0,0,0-.02,0-.02,0-.03-.02-.06-.03-.09-.01-.04-.03-.07-.05-.11-.02-.03-.04-.05-.05-.08-.02-.03-.05-.06-.07-.09,0,0-.01-.02-.02-.02-.02-.02-.04-.03-.06-.04-.03-.02-.06-.05-.09-.07-.03-.02-.06-.03-.09-.04-.02,0-.04-.02-.07-.03l-.84-.28v-1.61c0-.79,0-1.77-9.29-2.54-5.52-.46-12.87-.71-20.67-.71s-15.15.25-20.67.71C2.6,1.45,2.1,2.36,2.08,3.12c-.05.11-.08.23-.08.35l.02,1.04-.87.62s-.04.04-.06.06c-.03.02-.05.03-.08.05-.21.18-.31.46-.27.73l.22,1.58-.77.92c-.15.18-.22.41-.18.64s.16.44.35.57c.08.05.87.56,3.14,1.16v1.48c0,1.14.9,1.87,1.68,2.25l3.78,28.95c.03,2.63,2.26,5.08,6.61,7.29,4.37,2.22,9.36,3.39,14.43,3.39h2.24c4.54,0,8.92-.72,13.03-2.15,5.98-2.07,9.03-4.74,9.07-7.93l4.61-29.55c.84-.4,1.7-1.19,1.7-2.27v-1.36c1.63-.45,2.63-1,2.74-1.66.03-.16,0-.33-.07-.49l-.4-.83ZM52.7,44.08c0,3.03-4.33,5.17-7.96,6.43-3.93,1.37-8.14,2.06-12.49,2.06h-2.24c-4.82,0-9.55-1.11-13.68-3.22-2.6-1.32-5.71-3.42-5.71-5.88,0-.04,0-.07,0-.11l-3.69-28.26c5.9,1.43,12.65,1.44,24.23,1.44h.83c11.32,0,20.84-.73,25.24-1.51l-4.51,28.9s0,.08,0,.13ZM59.01,12.33c0,.28-.38.6-.74.77-.11.05-.21.09-.31.11h0c-1.05.24-2.65.48-4.68.71-3.21.35-7.49.66-12.47.83-2.76.09-5.72.15-8.82.15h-.42c-5.48,0-9.87,0-13.58-.15-3.33-.13-6.11-.37-8.65-.83-1.07-.19-2.09-.42-3.09-.7-.1-.03-.21-.07-.33-.13-.38-.18-.76-.49-.76-.77v-1.09c4.15.88,11.59,1.81,24.55,1.81.71,0,1.43,0,2.17,0,8.28-.06,20.6-.39,27.12-1.69v.97ZM4.66,3.26c.92-.22,2.38-.44,4.31-.65,4.85-.52,12.75-.95,23.06-.95,9.3,0,16.63.35,21.55.8,2.7.25,4.68.53,5.83.8,0,0-.02,0-.03,0-1.23.29-3.39.59-6.38.85-4.9.43-12.03.75-20.96.75-7.95,0-14.47-.26-19.26-.61-3.19-.24-5.61-.52-7.18-.8-.35-.06-.67-.13-.93-.19ZM3.68,4.68c1.28.39,3.57.77,7.69,1.12,5.53.46,12.87.71,20.67.71s15.15-.25,20.67-.71c4.07-.34,6.35-.72,7.64-1.1v.76c0,.05.01.1.02.16-3.88.84-13.48,2.5-28.75,2.38-14.75-.11-24.41-1.77-28.13-2.54.12-.15.19-.34.19-.54v-.23ZM60.27,9.41c-.46.13-1.06.26-1.81.4-.1.02-.2.04-.3.06-1.47.26-3.52.53-6.34.77-4.44.38-10.8.68-19.94.75-8.7.07-15.03-.27-19.6-.75-2.4-.25-4.31-.54-5.82-.83-.38-.07-.73-.14-1.06-.21-.63-.13-1.16-.27-1.63-.39-.7-.19-1.23-.36-1.62-.5l.31-.37s0-.01,0-.02c.14-.18.21-.4.17-.63l-.1-.75c.11.02.24.05.37.08,1.37.29,3.64.72,6.76,1.15,2.08.29,4.53.57,7.35.82,4.12.36,8.99.62,14.6.67,6.89.05,12.58-.25,17.16-.67,1.96-.18,3.72-.38,5.26-.59,2.5-.34,4.47-.69,5.9-.98.59-.12,1.09-.23,1.5-.33,0,0,.02,0,.03,0l-.2.82c-.04.16-.02.33.04.49,0,.02,0,.04.02.06l.24.51c-.21.1-.55.24-1.06.39-.07.02-.15.04-.23.07Z" />
</svg>