<?xml version="1.0" encoding="UTF-8"?>
<svg id="Capa_1" data-name="Capa 1" xmlns="http://www.w3.org/2000/svg" viewBox="0 0 44.02 59.66">
  <defs>
    <style>
      .cls-1 {
        fill: #000;
        stroke-width: 0px;
      }
    </style>
  </defs>
  <path class="cls-1" d="M43.19,12.28c-.02-2.11-1.61-3.46-3.75-3.47-1.75,0-3.51,0-5.26,0-.29,0-.58,0-.89,0v-1.55c1.39-.64,1.84-1.12,1.91-2.18.05-.72.05-1.45,0-2.17-.09-1.23-.95-2.03-2.2-2.08-.42-.02-.85,0-1.27,0-6.77,0-13.54,0-20.31,0-.98,0-1.78.25-2.28,1.16-1,1.83-.21,4.41,1.63,5.29v1.54c-2.09,0-4.08,0-6.07,0-2.36,0-3.85,1.47-3.86,3.84-.02,3.84-.03,7.67,0,11.51.02,2.44.79,4.64,2.48,6.44.48.52.62,1.02.62,1.69-.02,7.55-.02,15.11,0,22.66,0,2.45,1.45,3.88,3.9,3.88,9.46,0,18.92,0,28.38,0,2.46,0,3.9-1.42,3.92-3.86.01-1.32,0-2.64,0-3.96.03-.18,0-.38,0-.58,0-.38,0-.76,0-1.14,0-.05,0-.1,0-.15,0-.44.05-.9,0-1.33,0-4.7,0-12.58-.01-15.54,0-.67.15-1.18.63-1.69,1.31-1.4,2.24-3.08,2.3-5,.14-4.44.19-8.88.15-13.31ZM10.56,4.39c.07-2.06-.22-1.89,1.92-1.89,6.56,0,13.11,0,19.67,0q1.32,0,1.32,1.29c0,1.82.18,1.71-1.71,1.71-.43,0-.86,0-1.29,0-.09,0-.18,0-.27,0-.64,0-1.49,0-2.48,0-.13,0-.27,0-.4,0-.05,0-.1,0-.15,0-4.85,0-12.47-.01-15.46.02-.85,0-1.18-.23-1.15-1.13ZM27.2,7.18s.08,0,.12,0c.16,0,.32,0,.48,0,.99,0,1.82,0,2.4,0,.08,0,.16,0,.23,0,.34,0,.68,0,1.03,0v4.7H12.59v-4.7h1.03c2.42,0,9.21,0,13.58,0ZM12.91,13.7c6.07-.03,12.13-.03,18.2-.01.26,0,.63.1.75.29.89,1.35,1.73,2.73,2.61,4.15H9.42c.17-.24.29-.42.41-.59.74-1.1,1.45-2.21,2.22-3.28.19-.26.56-.55.85-.55ZM3.93,28.25c-.15.03-.29.06-.44.09-.3-1.2-.83-2.4-.86-3.61-.11-4.1-.06-8.21-.05-12.31,0-1.05.61-1.81,1.61-1.84,2.17-.07,4.33-.02,6.54-.02.14,1.29.25,2.55-.57,3.59-1.08,1.36-2.14,2.79-3.44,3.91-1.86,1.59-2.86,3.43-2.8,5.88.04,1.44,0,2.88,0,4.31ZM38.4,50.38c0,.21-.03.44,0,.64,0,1.22,0,2.44,0,3.66,0,1.89-.6,2.49-2.5,2.49-9.25,0-18.5,0-27.74,0-1.9,0-2.5-.6-2.5-2.49,0-7.01,0-14.02,0-21.03v-1.11c2.07,1.14,4.15,1.4,6.26,1.28.56,1.93,1.09,2.33,3.04,2.33,4.71,0,9.43,0,14.14,0,1.96,0,2.51-.41,3.05-2.35,2.13.18,4.21-.16,6.26-1.24v1.17c0,2.47,0,9.5,0,13.86-.04.18,0,.41,0,.61,0,.42,0,.8,0,1.14,0,.34,0,.69,0,1.03ZM15.17,31.5c.13.01.27,0,.4,0,.4.02.8.06,1.17,0,3.18,0,10.04,0,12.4,0,1.15,0,1.19.04,1.19,1.16q.01,1.78-1.74,1.78c-4.53,0-9.06,0-13.59,0-1.26,0-1.28-.02-1.28-1.25,0-1.62,0-1.69,1.45-1.69ZM38.38,29.85c0,.36-.31.83-.62,1.04-1.7,1.15-3.63,1.35-5.62,1.19-.59-1.95-1.04-2.27-3.13-2.27-2.43,0-9.74,0-12.68,0-.84-.05-1.68-.05-2.51.06-1.17.15-1.69,1.05-1.84,2.2-2.01.18-3.91-.05-5.67-1.13-.46-.28-.68-.58-.68-1.14.03-2.08,0-4.17.03-6.25.01-.62.1-1.28.31-1.86.53-1.5,1.08-1.84,2.66-1.84,9.03,0,18.07.02,27.1-.03,1.03,0,1.64.38,2,1.19.33.75.61,1.59.64,2.41.09,2.14.06,4.29,0,6.43ZM41.48,24.29c0,1.44-.37,2.78-1.35,3.96,0-1.5-.01-3,0-4.5.03-2.3-.91-4.08-2.67-5.57-1.16-.98-2.18-2.16-3.15-3.34-.98-1.19-1.29-2.63-.97-4.25.22-.02.48-.06.74-.06,1.78,0,3.56-.02,5.34,0,1.39.02,2.05.7,2.05,2.08,0,3.89,0,7.78,0,11.68Z"/>
  <path class="cls-1" d="M22.02,59.66c-4.73,0-9.46,0-14.19,0-2.9,0-4.71-1.8-4.71-4.7-.01-7.55-.01-15.11,0-22.66,0-.52-.1-.81-.4-1.13C.96,29.29.05,26.94.02,24.18c-.04-3.74-.02-7.43,0-11.52.01-2.82,1.85-4.65,4.67-4.66,1.37,0,2.75,0,4.15,0h1.11v-.25c-.84-.55-1.49-1.42-1.83-2.46-.41-1.26-.3-2.61.29-3.7.85-1.56,2.41-1.59,2.97-1.59h.03c5.16,0,10.32,0,15.47,0h5.21c.31,0,.62,0,.93,0,1.67.07,2.86,1.21,2.98,2.84.05.72.05,1.49,0,2.29-.09,1.37-.74,2.04-1.91,2.64v.22h1.66c1.23,0,2.46,0,3.69,0,2.67.01,4.54,1.77,4.56,4.28h0c.04,4.45,0,8.94-.15,13.35-.06,1.95-.91,3.81-2.52,5.53-.31.33-.42.62-.41,1.13.02,2.96.02,10.84.01,15.54.03.26.02.6,0,.92,0,.14,0,.28-.01.41v1.36c.02.17.03.36,0,.56,0,1.3,0,2.61,0,3.91-.02,2.88-1.84,4.67-4.73,4.67-4.73,0-9.46,0-14.19,0ZM3.23,29.22c.21.29.43.56.68.83.59.63.85,1.31.84,2.25-.02,7.55-.02,15.11,0,22.66,0,2.01,1.07,3.07,3.08,3.07,9.46,0,18.92,0,28.38,0,2.01,0,3.09-1.06,3.1-3.05.01-1.32,0-2.63,0-3.95v-.07s.01-.07.01-.07c0-.04,0-.18,0-.27v-.13s0-1.33,0-1.33c0-.16,0-.31.01-.47,0-.26.02-.52,0-.78,0-4.78,0-12.66-.02-15.62,0-.92.26-1.61.85-2.25,1.33-1.43,2.03-2.93,2.08-4.47,0-.1,0-.21,0-.31-.16,1.35-.65,2.5-1.49,3.51l-1.44,1.73v-3.65c0-1.04,0-2.08,0-3.12.02-1.98-.73-3.55-2.38-4.94-1.22-1.03-2.28-2.26-3.17-3.35.25.4.51.81.76,1.22l1.42,2.28H7.86l1.91-2.8c.3-.45.59-.89.89-1.34l-.3.38c-.95,1.21-1.93,2.46-3.13,3.48-.42.36-.79.73-1.1,1.11.57-.54,1.33-.75,2.49-.75h6.17c6.86,0,13.95.01,20.92-.03,1.3,0,2.26.55,2.75,1.67.44,1.01.67,1.89.71,2.7.09,2.29.05,4.56,0,6.49h0c-.02.69-.52,1.39-.97,1.7-1.65,1.12-3.6,1.53-6.14,1.33l-.55-.04-.16-.53c-.48-1.6-.62-1.69-2.35-1.69h-2.4c-3.22,0-8.03,0-10.28,0-.95-.05-1.72-.04-2.4.05-.29.04-.96.12-1.14,1.5l-.09.65-.65.06c-2.47.22-4.42-.18-6.16-1.25-.5-.31-1.08-.8-1.06-1.85.02-1.01.01-2.02.01-3.03,0-1.07,0-2.15.02-3.22.01-.78.13-1.5.35-2.12.08-.23.17-.44.26-.63-.52.95-.76,1.97-.73,3.12.03,1,.02,2,.01,3.01v2s-1.52.31-1.52.31ZM32.74,31.3c1.89.08,3.35-.27,4.56-1.09.11-.07.25-.3.26-.39.05-1.89.09-4.13,0-6.37-.02-.59-.22-1.31-.57-2.11-.19-.43-.45-.66-1.24-.7-6.98.04-14.07.04-20.93.03h-6.17c-1.26,0-1.49.16-1.9,1.29-.16.45-.25,1-.26,1.6-.02,1.06-.02,2.13-.02,3.19,0,1.02,0,2.04-.01,3.06,0,.2,0,.26.29.43,1.29.79,2.75,1.13,4.56,1.05.46-1.72,1.68-2.14,2.41-2.24.78-.1,1.65-.12,2.66-.06,2.21,0,7.01,0,10.24,0h2.4c2.24,0,3.07.47,3.73,2.31ZM6.99,9.63c-.77,0-1.53,0-2.3,0-1.93,0-3.04,1.11-3.04,3.03-.02,4.08-.03,7.77,0,11.5.02,1.52.34,2.88.97,4.08-.07-.27-.16-.53-.24-.8-.27-.86-.54-1.75-.57-2.7-.09-3.31-.08-6.66-.06-9.91v-2.43c.01-1.52,1-2.61,2.41-2.65,1.55-.05,3.13-.04,4.65-.03.64,0,1.27,0,1.92,0h.73l.08.73c.12,1.1.26,2.44-.39,3.65.08-.11.16-.23.24-.34.24-.33.82-.88,1.51-.89,6.59-.04,13.19-.02,18.21-.01.46,0,1.11.17,1.43.65.11.17.22.33.33.5-.48-1.08-.58-2.29-.32-3.61l.12-.6.81-.07c.19-.02.4-.04.61-.04h1.18c1.39,0,2.78-.02,4.17,0,1.83.03,2.85,1.06,2.85,2.89,0,3.51,0,7.02,0,10.53.08-3.6.11-7.24.08-10.85h0c-.01-1.61-1.17-2.65-2.94-2.66-1.23,0-2.45,0-3.68,0h-3.29s0-2.89,0-2.89l.48-.22c1.32-.6,1.4-.91,1.43-1.49.05-.72.05-1.42,0-2.06-.06-.8-.58-1.29-1.43-1.32-.28-.01-.56,0-.85,0h-5.22c-5.16,0-10.32,0-15.48,0h0c-.96,0-1.32.29-1.56.74-.38.7-.44,1.58-.17,2.42.04.14.1.27.16.4-.08-.29-.09-.59-.08-.83h0c0-.24.01-.44.01-.62.03-1.81.52-2.06,2.26-2.06h.46s19.67,0,19.67,0c.8,0,1.33,0,1.74.41.4.4.4.92.4,1.7v.42c0,.78.01,1.29-.39,1.7-.41.42-.96.41-1.85.41h-.29s-1.28,0-1.28,0c-.11,0-.19,0-.27,0h-2.48s-.42,0-.42,0h-.12s-3.21,0-3.21,0c-4.52,0-9.85,0-12.24.02-.4,0-.93-.04-1.34-.34.22.23.46.41.74.54l.46.22v2.87h-2.74c-.62,0-1.24,0-1.85,0ZM6.91,11.36c-.9,0-1.79,0-2.69.04-.71.02-.81.65-.82,1.02v2.43c-.02,2.21-.03,4.46,0,6.72.43-1.54,1.36-2.9,2.8-4.13,1.07-.92,2.01-2.11,2.91-3.25l.43-.54c.48-.6.54-1.32.47-2.27-.4,0-.79,0-1.18,0-.64,0-1.27,0-1.9,0ZM34.06,11.34c-.11,1.14.19,2.12.89,2.97.87,1.05,1.89,2.26,3.04,3.23,1.37,1.16,2.26,2.47,2.68,3.97,0-2.97,0-5.93,0-8.9,0-.94-.31-1.25-1.25-1.27-1.38-.02-2.76-.01-4.14,0h-1.19s-.02,0-.03,0ZM10.96,17.31h22.04c-.58-.94-1.16-1.87-1.76-2.78-.04-.01-.1-.02-.14-.02-5-.01-11.58-.02-18.15.01-.06.03-.18.12-.24.21-.55.76-1.06,1.54-1.58,2.32l-.17.26ZM12.92,14.52h0,0ZM12.98,14.51h0ZM11.39,4.68c.06.01.15.03.32.02,2.39-.02,7.73-.02,12.25-.02h3.21s.1,0,.16,0h2.87c.1,0,.21,0,.31,0h1.25s.29,0,.29,0c.22,0,.44,0,.6,0,0-.13,0-.3,0-.45v-.44c0-.16,0-.33,0-.47-.14,0-.33,0-.5,0H12.01c-.22,0-.44,0-.61,0,0,.13,0,.29-.01.45,0,.19,0,.41-.01.65h0c0,.13,0,.21,0,.26ZM22.03,57.98c-4.62,0-9.25,0-13.87,0-2.36,0-3.32-.96-3.32-3.3v-15.02s0-8.5,0-8.5l1.21.67c1.69.93,3.54,1.31,5.82,1.18l.65-.04.18.62c.46,1.58.67,1.74,2.26,1.74h14.14c1.59,0,1.83-.18,2.26-1.75l.18-.65.67.06c2.12.18,4.02-.2,5.81-1.15l1.2-.64-.02,16.55c0,.07,0,.14,0,.22v1.88s0,.74,0,.74c0,.1-.01.23,0,.28v.14s.01,3.66.01,3.66c0,2.35-.96,3.3-3.32,3.3-4.62,0-9.25,0-13.87,0ZM6.47,33.84v20.84c0,1.44.24,1.67,1.69,1.67,9.25,0,18.5,0,27.74,0,1.45,0,1.69-.23,1.69-1.67v-3.6c-.02-.2-.01-.39,0-.56v-1.17s0-1.27,0-1.27c0-.16-.02-.34,0-.54v-13.69c-1.53.61-3.13.88-4.86.82-.62,1.77-1.53,2.31-3.64,2.31h-14.14c-2.09,0-2.99-.54-3.63-2.31-1.8.05-3.39-.23-4.85-.83ZM25.19,35.25h-10.2c-1.7,0-2.09-.39-2.1-2.06,0-.95,0-1.53.37-1.97.44-.53,1.12-.54,1.9-.54h.06c.1.01.21,0,.32,0h.33c.27.03.52.04.72,0h.15c1.96,0,5.33,0,8.17-.01h4.22c1.59,0,2,.41,2.01,1.97,0,1.08.01,1.68-.45,2.14-.46.46-1.08.46-2.11.46h-3.4ZM14.54,33.62c.14,0,.32,0,.46,0h10.2s3.4,0,3.4,0c.35,0,.71,0,.91-.02.02-.21.02-.58.02-.94,0-.09,0-.22,0-.34-.13,0-.28,0-.37,0h-4.22c-2.81,0-6.13,0-8.11,0-.36.06-.71.04-1.03.02h-.24c-.1,0-.25,0-.4-.02-.16,0-.42,0-.59.02-.02.2-.02.54-.02.86,0,.13,0,.29,0,.43ZM32.29,12.69H11.78v-6.33h20.51v6.33ZM13.41,11.06h17.25v-3.07h-.22s-.14,0-.23,0h-2.4s-.47,0-.47,0h-.13s-10.8,0-10.8,0h-2.99v3.07Z"/>
</svg>