<?xml version="1.0" encoding="UTF-8"?>
<svg id="Capa_1" data-name="Capa 1" xmlns="http://www.w3.org/2000/svg" xmlns:xlink="http://www.w3.org/1999/xlink" viewBox="0 0 1220.92 285.24">
  <defs>
    <style>
      .cls-1 {
        fill: #039de1;
      }

      .cls-1, .cls-2 {
        stroke-width: 0px;
      }

      .cls-2 {
        fill: none;
      }

      .cls-3 {
        clip-path: url(#clippath);
      }
    </style>
    <clipPath id="clippath">
      <rect class="cls-2" x=".95" y="-.94" width="1220.46" height="287.13"/>
    </clipPath>
  </defs>
  <g class="cls-3">
    <path class="cls-1" d="M1353.17,40.25c1.47-4.26,2.9-8.53,4.49-12.74.76-2.03,2.63-4.13,2.85-28.45H-150.35c-.1,23.05-.21,23.64-.36,24.25-.8,3.32-1.08,7.22-.14,10.43,4.4,14.93,9.68,29.66.94,44.88-1.72,2.99-2.73,6.39-3.58,8.43.37,6.19.6,11.05.97,15.89.3,3.97-.56,8.84,1.41,11.73,8.34,12.23,14.79,24.44,8.16,39.61-.35.81-.13,1.87-.21,2.81-1.27,15.17-2.07,30.4-3.95,45.5-2.01,16.09-5.5,31.99-7.5,48.07-1.49,12.04,4.25,17.11,16.08,16.16,2.81-.23,5.7.46,8.54.84,7.13.96,14.27,2.96,21.36,2.77,11.23-.29,22.55-3.68,33.59-2.77,19.1,1.56,37.93,6.46,57.03,8.03,22.16,1.83,44.5,1.48,66.76,2.26,20.43.71,40.86,1.74,61.29,2.47,11.09.4,22.21.82,33.3.65,20.33-.31,40.65-1.36,60.98-1.43,7.61-.03,15.2,2.16,22.84,2.71,10.37.75,21.67,3.6,30.95.57,10.26-3.35,19.34-2.29,29.23-1.63,11.32.76,22.9,1.35,34.05-.25,10.75-1.54,20.98-6.49,32.32-3.66,1.87.47,4.21-1.02,6.35-1.52,5.21-1.2,10.42-3.19,15.67-3.34,10.81-.31,21.7,1.16,32.47.5,23.01-1.4,46.03-3.17,68.93-5.79,16.75-1.91,33.27-7.14,49.98-7.58,10.85-.29,21.83,2.52,33.18,1.25,5.72-.64,11.83,3.99,17.94,4.65,8.66.94,17.55,1.1,26.2.2,1.29-.13,2.66-.43,3.81-1.01,1.3.18,2.61.42,3.9.59,7.13.96,14.27,2.96,21.36,2.77,11.23-.29,22.55-3.68,33.59-2.77,19.1,1.56,37.93,6.46,57.03,8.03,22.16,1.83,44.5,1.48,66.76,2.26,20.43.71,40.86,1.74,61.29,2.47,11.09.4,22.21.82,33.3.65,20.33-.31,40.65-1.36,60.98-1.43,7.61-.03,15.2,2.16,22.84,2.71,10.37.75,21.67,3.6,30.95.57,10.26-3.35,19.34-2.29,29.23-1.63,11.32.76,22.9,1.35,34.05-.25,10.75-1.54,20.98-6.49,32.32-3.66,1.87.47,4.21-1.02,6.35-1.52,5.21-1.2,10.42-3.19,15.67-3.34,10.81-.31,21.7,1.16,32.47.5,23.01-1.4,46.03-3.17,68.93-5.79,16.75-1.91,33.27-7.14,49.98-7.58,10.85-.29,21.83,2.52,33.18,1.25,5.72-.64,11.83,3.99,17.94,4.65,8.66.94,17.55,1.1,26.2.2,3.99-.42,8.75-2.34,5.17-9.75-3.13-6.48-11.7-12.41-5.78-21.72.52-.82-1.38-2.89-1.32-4.35.41-9.83.94-19.66,1.76-29.45.09-1.09,2.21-2.2,3.58-2.95,6.53-3.54,8.87-8.09,5.99-15.68-1.63-4.29-.42-9.57-1.41-14.21-.85-4-1.91-9.53-4.76-11.26-9.51-5.76-8.36-15.08-9.29-23.55-.75-6.85-1.06-14.07.29-20.75,1.94-9.57-3.9-20.11,4.78-29.07,3.52-3.63,6.78-11,5.44-15.14-2.79-8.65-4.54-16.06,1.75-23.58.34-.41.17-1.21.37-1.78Z"/>
  </g>
</svg>