<?xml version="1.0" encoding="UTF-8"?>
<svg id="Capa_1" data-name="Capa 1" xmlns="http://www.w3.org/2000/svg" xmlns:xlink="http://www.w3.org/1999/xlink" viewBox="0 0 1366 919">
  <defs>
    <style>
      .cls-1 {
        fill: #f0f0f0;
      }

      .cls-1, .cls-2 {
        stroke-width: 0px;
      }

      .cls-2 {
        fill: none;
      }

      .cls-3 {
        clip-path: url(#clippath);
      }
    </style>
    <clipPath id="clippath">
      <rect class="cls-2" width="1366" height="919"/>
    </clipPath>
  </defs>
  <g class="cls-3">
    <rect class="cls-1" y="112" width="1367" height="702"/>
    <path class="cls-1" d="M1621.52,210.13c-2.59-1.42-5.08-4.81-5.74-7.71-4.09-18.05-7.82-36.18-11.17-54.38-.51-2.78.85-6.57,2.6-8.99,4.88-6.74,7.21-12.03-2.74-16.63-2.69-1.25-5.24-6.39-5.09-9.62.94-20.45-10.13-36.89-17-54.78-2.88-7.5-6.9-9.7-14.79-9.72-34.05-.1-68.14-.23-102.14-1.83-25.37-1.2-50.66-4.52-75.95-7.22-10.2-1.09-20.27-3.4-30.46-4.54-14.54-1.62-29.29-4.62-43.66-3.43-14.25,1.18-28.11,6.95-42.2,10.45-6.81,1.69-13.75,2.86-20.65,4.16-10.2,1.91-20.45,3.56-30.62,5.61-12.07,2.43-24.03,7.01-36.13,7.38-20.68.63-41.46-3.29-62.14.83-17.24,3.43-34.49,6.79-51.66,10.51-6.06,1.31-11.87,4.98-17.86,5.13-14.29.37-28.62-.54-42.92-1.25-11.59-.57-23.16-1.7-34.75-2.37-10.61-.62-21.28-.44-31.83-1.54-17.3-1.8-34.46-5.15-51.79-6.4-25.91-1.88-51.92-2.54-77.89-3.59-1.9-.08-4.31.26-5.69,1.38-10.68,8.62-22.07,4.91-33.38,2.22-9.04-2.15-18.01-4.61-27.03-6.85-6.35-1.58-12.72-3.04-19.09-4.56-13.21,3.78-27.29,5.82-42.62,2.68-9.24-1.89-19.05-1.45-28.59-1.35-13.77.15-27.59,1.94-41.29,1.18-3.06-.17-6.13-.38-9.2-.62-2.52-2.16-5.82-2.94-10.46-2.95-4.82-.01-9.63-.03-14.45-.05-4.12-.72-8.22-1.54-12.26-2.53-7.44-1.82-12.38-.66-15.93,2.33-19.85-.22-39.69-.64-59.5-1.58-25.37-1.2-50.66-4.52-75.95-7.22-10.2-1.09-20.27-3.4-30.46-4.54-14.54-1.62-29.29-4.62-43.66-3.43-14.25,1.18-28.11,6.95-42.2,10.45-6.81,1.69-13.75,2.86-20.65,4.16-10.2,1.91-20.45,3.56-30.62,5.61-12.07,2.43-24.03,7.01-36.13,7.38-20.68.63-41.46-3.29-62.14.83-17.24,3.43-34.49,6.79-51.66,10.51-6.06,1.31-11.87,4.98-17.86,5.13-14.29.37-28.62-.54-42.92-1.25-11.59-.57-23.16-1.7-34.75-2.37-10.61-.62-21.28-.44-31.83-1.54-17.3-1.8-34.46-5.15-51.79-6.4-25.91-1.88-51.92-2.54-77.89-3.59-1.9-.08-4.31.26-5.69,1.38-10.68,8.62-22.07,4.91-33.38,2.22-9.04-2.15-18.01-4.61-27.03-6.85-6.35-1.58-12.72-3.04-19.09-4.56-13.21,3.78-27.29,5.82-42.62,2.68-9.24-1.89-19.05-1.45-28.59-1.35-13.77.15-27.59,1.94-41.29,1.18-15.55-.86-31.3-2.47-46.37-6.15-14.63-3.58-19.62,4.34-23.3,15.14-3.13,9.18-2.91,20.58-8.47,27.6-7.58,9.58-8.13,20.68-12.65,30.51-7.83,17.03,1.92,27.95,8.49,40.79,2.2,4.3,2.62,9.55,3.68,14.4,1.18,5.41.27,13.56,3.55,15.86,8.79,6.16,15.33,13.61,20.31,21.98h2036.95c-1.23-2.9-3.66-5.54-7.92-7.87Z"/>
    <path class="cls-1" d="M-240.77,825.82c-1.95,15.74,5.55,22.36,21.02,21.12,3.67-.29,7.45.6,11.16,1.1,9.32,1.26,18.65,3.86,27.92,3.62,14.67-.38,29.48-4.81,43.91-3.62,24.96,2.05,49.57,8.44,74.53,10.5,28.97,2.39,58.16,1.94,87.25,2.95,26.71.93,53.4,2.27,80.11,3.23,14.5.52,29.02,1.07,43.52.85,26.57-.4,53.14-1.77,79.71-1.87,9.94-.04,19.86,2.82,29.85,3.54,13.56.98,28.33,4.71,40.46.75,13.41-4.38,25.28-2.99,38.21-2.13,14.79.99,29.94,1.77,44.5-.32,14.06-2.02,27.42-8.48,42.25-4.78,2.45.61,5.5-1.34,8.3-1.98,6.82-1.57,13.62-4.17,20.48-4.36,14.13-.4,28.36,1.51,42.44.65,30.08-1.83,60.16-4.15,90.09-7.56,21.89-2.5,43.48-9.33,65.32-9.91,14.19-.38,28.54,3.29,43.37,1.64,7.48-.83,15.46,5.22,23.44,6.08,11.32,1.23,22.94,1.44,34.25.27,1.69-.18,3.48-.56,4.98-1.33,1.7.24,3.41.55,5.1.78,9.32,1.26,18.65,3.86,27.92,3.62,14.67-.38,29.48-4.81,43.91-3.62,24.96,2.05,49.57,8.44,74.53,10.5,28.97,2.39,58.16,1.94,87.25,2.95,26.71.93,53.4,2.27,80.11,3.23,14.5.52,29.02,1.07,43.52.85,26.57-.4,53.14-1.77,79.71-1.87,9.94-.04,19.86,2.82,29.85,3.54,13.56.98,28.33,4.71,40.46.75,13.41-4.38,25.28-2.99,38.21-2.13,14.79.99,29.94,1.77,44.5-.32,14.06-2.02,27.42-8.48,42.25-4.78,2.45.61,5.5-1.34,8.3-1.98,6.82-1.57,13.62-4.17,20.48-4.36,14.13-.4,28.36,1.51,42.44.65,30.08-1.83,60.16-4.15,90.09-7.56,21.89-2.5,43.48-9.33,65.32-9.91,14.19-.38,28.54,3.29,43.37,1.64,7.48-.83,15.46,5.22,23.44,6.08,11.32,1.23,22.94,1.44,34.25.27,5.22-.54,11.44-3.06,6.76-12.75-4.1-8.47-15.29-16.22-7.55-28.38.55-.86-.93-2.76-1.5-4.46H-236.33c-1.64,9.59-3.25,19.18-4.45,28.82Z"/>
  </g>
</svg>