<?xml version="1.0" encoding="UTF-8"?>
<svg id="Capa_1" data-name="Capa 1" xmlns="http://www.w3.org/2000/svg" viewBox="0 0 1367 238.82">
  <defs>
    <style>
      .cls-1 {
        fill: #ededed;
        stroke-width: 0px;
      }
    </style>
  </defs>
  <path class="cls-1" d="M0,237.57l.36,1.25c.21-1.44,1.54-5.96,2.15-7.3,5.85-14.73,17.71-23.19,37.08-29.26,34.89-11.14,75.37-14.42,113.82-19.84,40.11-4.83,80.33-9.37,120.57-13.85,20.83-2.32,41.66-4.63,62.49-6.95,18.25-2.03,36.5-4.08,54.74-6.15,0,0,0,0,0,0l9.88-1.05,509.3-58.93,155.03-17.44,127.84-16.01c124.51-15.44,148.88-40.28,173.75-62.05v237.57H0Z"/>
</svg>