<?xml version="1.0" encoding="UTF-8"?>
<svg id="Capa_1" data-name="Capa 1" xmlns="http://www.w3.org/2000/svg" viewBox="0 0 93.9 93.97">
  <defs>
    <style>
      .cls-1 {
        fill: #fff;
        stroke-width: 0px;
      }
    </style>
  </defs>
  <path class="cls-1" d="M25.97,6.06c3.01.18,5.61.26,8.19.51,1.4.14,2.53-.18,3.68-.99,2.44-1.72,4.99-3.28,7.45-4.98,1.18-.81,2.19-.79,3.36,0,2.67,1.83,5.36,3.62,8.1,5.34.65.41,1.54.64,2.3.61,3.23-.1,6.46-.28,9.69-.51,1.42-.1,2.28.44,2.89,1.71,1.4,2.91,2.86,5.79,4.39,8.64.34.63.96,1.23,1.59,1.57,2.85,1.52,5.74,2.98,8.64,4.38,1.34.65,1.8,1.6,1.69,3.07-.25,3.17-.43,6.36-.53,9.54-.02.77.22,1.65.63,2.3,1.68,2.7,3.44,5.36,5.22,7.99.83,1.22.81,2.3-.02,3.51-1.79,2.63-3.55,5.29-5.25,7.98-.39.61-.64,1.44-.62,2.16.1,3.28.28,6.56.5,9.84.09,1.34-.33,2.24-1.56,2.84-2.99,1.47-5.96,2.97-8.9,4.53-.56.3-1.1.82-1.4,1.38-1.49,2.81-2.95,5.64-4.31,8.51-.67,1.42-1.55,2.1-3.19,1.95-2.98-.26-5.97-.32-8.95-.55-1.23-.1-2.25.12-3.29.85-2.48,1.75-5.08,3.33-7.57,5.06-1.28.89-2.34.85-3.61-.03-2.61-1.82-5.27-3.57-7.97-5.26-.65-.4-1.54-.63-2.31-.6-3.13.1-6.27.25-9.39.53-1.7.15-2.63-.55-3.32-2.01-1.35-2.83-2.76-5.62-4.23-8.39-.31-.59-.9-1.15-1.5-1.47-2.85-1.52-5.73-2.99-8.64-4.39-1.44-.7-1.95-1.7-1.82-3.29.27-3.22.42-6.46.54-9.69.02-.62-.22-1.34-.56-1.88-1.75-2.77-3.55-5.52-5.38-8.24-.76-1.13-.74-2.12.02-3.24,1.84-2.72,3.64-5.46,5.4-8.23.34-.53.57-1.26.55-1.88-.13-3.33-.32-6.66-.55-9.98-.09-1.35.4-2.24,1.6-2.84,2.76-1.37,5.49-2.82,8.27-4.14,1.12-.53,1.88-1.25,2.41-2.38,1.12-2.39,2.48-4.68,3.52-7.1.92-2.15,2.18-3.33,4.2-2.73ZM31.53,10.56c0-.07,0-.14,0-.2-1.57-.09-3.14-.11-4.69-.3-.96-.12-1.41.22-1.8,1.03-1.26,2.6-2.51,5.21-3.93,7.72-.52.92-1.37,1.79-2.28,2.31-2.55,1.44-5.2,2.72-7.85,4-.73.35-1.01.75-.95,1.57.21,2.83.29,5.68.54,8.51.12,1.34-.11,2.48-.88,3.59-1.62,2.33-3.1,4.76-4.74,7.08-.62.88-.57,1.49.03,2.33,1.6,2.29,3.06,4.67,4.66,6.96.81,1.16,1.06,2.33.94,3.73-.25,2.83-.32,5.68-.53,8.51-.06.84.29,1.2.99,1.54,2.65,1.27,5.3,2.55,7.86,3.97.88.49,1.71,1.32,2.2,2.19,1.43,2.56,2.71,5.21,3.98,7.86.4.84.9,1.06,1.83.99,2.83-.23,5.68-.28,8.51-.48,1.34-.1,2.46.2,3.57.98,2.32,1.63,4.75,3.12,7.09,4.73.67.46,1.13.49,1.81.01,2.46-1.69,4.94-3.36,7.49-4.92.78-.48,1.81-.77,2.72-.76,2.99.04,5.98.21,8.96.46,1.01.08,1.48-.2,1.91-1.09,1.27-2.65,2.57-5.28,4-7.84.47-.84,1.26-1.63,2.09-2.1,2.57-1.42,5.21-2.71,7.86-3.98.79-.38,1.06-.84,1-1.69-.2-2.84-.32-5.68-.53-8.51-.09-1.27.09-2.37.85-3.46,1.66-2.36,3.17-4.84,4.82-7.2.58-.83.53-1.4-.03-2.2-1.6-2.29-3.04-4.69-4.66-6.96-.86-1.21-1.09-2.44-.98-3.87.22-2.69.31-5.38.51-8.07.08-1.01-.2-1.58-1.17-2.03-2.49-1.15-4.89-2.48-7.37-3.66-1.21-.57-2.06-1.37-2.65-2.59-1.22-2.56-2.57-5.06-3.8-7.62-.4-.82-.83-1.12-1.79-1.04-3.08.24-6.17.4-9.25.46-.82.02-1.74-.27-2.45-.71-2.54-1.57-5.03-3.23-7.49-4.92-.71-.48-1.2-.52-1.93-.02-2.46,1.7-4.95,3.35-7.48,4.94-.63.4-1.42.67-2.16.72-1.61.11-3.23.03-4.85.03Z"/>
  <path class="cls-1" d="M46.93,17.7c16.05-.09,29.25,13.03,29.34,29.19.1,16.14-13.01,29.33-29.26,29.43-16.02.1-29.29-13.1-29.35-29.2-.06-16.18,13.02-29.33,29.27-29.42ZM47.05,72.32c14.02-.04,25.39-11.41,25.35-25.35-.05-14.05-11.46-25.35-25.55-25.29-13.98.06-25.35,11.49-25.27,25.42.08,13.98,11.48,25.26,25.48,25.22Z"/>
  <path class="cls-1" d="M43.62,51.32c4.02-3.79,8.18-7.72,12.35-11.66.39-.37.77-.75,1.18-1.11,1.08-.96,2.35-1.02,3.13-.17.78.85.69,1.99-.36,2.98-4.97,4.72-9.96,9.42-14.96,14.11-1.15,1.07-2.24,1.05-3.35-.06-2.55-2.57-5.08-5.17-7.59-7.79-.96-1-1.02-2.22-.24-3.01.86-.86,1.96-.73,3.09.34,2.2,2.08,4.41,4.16,6.75,6.36Z"/>
</svg>