<?xml version="1.0" encoding="UTF-8"?>
<svg id="Capa_1" data-name="Capa 1" xmlns="http://www.w3.org/2000/svg" viewBox="0 0 1366 777.07">
  <defs>
    <style>
      .cls-1 {
        fill: #ededed;
        stroke-width: 0px;
      }
    </style>
  </defs>
  <path class="cls-1" d="M0,0v774.19c1.22.14,2.44.26,3.66.35,13.56.98,28.33,4.71,40.46.75,13.41-4.38,25.28-2.99,38.21-2.13,14.79.99,29.94,1.77,44.5-.32,14.06-2.02,27.42-8.48,42.25-4.78,2.45.61,5.5-1.34,8.3-1.98,6.82-1.57,13.62-4.17,20.48-4.36,14.13-.4,28.36,1.51,42.44.65,30.08-1.83,60.16-4.15,90.09-7.56,21.89-2.5,43.48-9.33,65.32-9.91,14.19-.38,28.54,3.29,43.37,1.64,7.48-.83,15.46,5.22,23.44,6.08,11.32,1.23,22.94,1.44,34.25.27,1.69-.18,3.48-.56,4.98-1.33,1.7.24,3.41.55,5.1.78,9.32,1.26,18.65,3.86,27.92,3.62,14.67-.38,29.48-4.81,43.91-3.62,24.96,2.05,49.57,8.44,74.53,10.5,28.97,2.39,58.16,1.94,87.25,2.95,26.71.93,53.4,2.27,80.11,3.23,14.5.52,29.02,1.07,43.52.85,26.57-.4,53.14-1.77,79.71-1.87,9.94-.04,19.86,2.82,29.85,3.54,13.56.98,28.33,4.71,40.46.75,13.41-4.38,25.28-2.99,38.21-2.13,14.79.99,29.94,1.77,44.5-.32,14.06-2.02,27.42-8.48,42.25-4.78,2.45.61,5.5-1.34,8.3-1.98,6.82-1.57,13.62-4.17,20.48-4.36,14.13-.4,28.36,1.51,42.44.65,30.08-1.83,60.16-4.15,90.09-7.56,21.89-2.5,43.48-9.33,65.32-9.91.1,0,.19,0,.29,0V0H0Z"/>
</svg>