<?xml version="1.0" encoding="UTF-8"?>
<svg xmlns="http://www.w3.org/2000/svg" version="1.1" xmlns:xlink="http://www.w3.org/1999/xlink" viewBox="0 0 688 327">
  <defs>
    <style>
      .cls-1 {
        isolation: isolate;
      }

      .cls-2 {
        fill: none;
      }

      .cls-2, .cls-3 {
        stroke-width: 0px;
      }

      .cls-3 {
        fill: #2e2017;
      }

      .cls-4 {
        clip-path: url(#clippath);
      }

      .cls-5 {
        mix-blend-mode: multiply;
        opacity: .7;
      }
    </style>
    <clipPath id="clippath">
      <rect class="cls-2" width="688.4" height="327"/>
    </clipPath>
  </defs>
  <g class="cls-1">
    <g id="Capa_1" data-name="Capa 1">
      <g class="cls-4">
        <g class="cls-5">
          <g>
            <path class="cls-3" d="M457,243.4c-2.5,3.5-3.5,7.6-4.2,11.9-6.1-2.9.3-8.1-3.1-11.9-3.7-4.2,4.5-6.8,2.1-11.5-2.4.2-5.8,2.4-9.1-1,1.5-2.2,6-2.8,3.7-7,6.7,2.7,8.1,1.5,9.1-6.5-12.1-4.1-24.4,0-37.3-1.4-.1,16.2-3.2,32-2.9,48.1,0,5.1-.2,5.2-4.8,4.8-1.6,1.4,1.5,3.4-.9,5.1-1.4-3-1.7-6-1.6-9.2.5-14.2.9-28.5,1.2-42.7,0-1.9-.2-4.2-2.6-5.4,0,3.3-.4,6.5,0,9.6,1,7.3.7,14.2-1.5,21.4-1.4,4.5-.6,9.8-.8,14.7,0,2,1.2,4.9-2.9,4.2h.1c.4-4.4.9-8.8,1.2-13.3.7-12.7,1.4-25.3,2.1-38.4-13-1.8-25.5,1-37.4-2.6-7,18.8-.7,37.5-4.8,55.6-.4-6.2-8.1-9-6.5-16.5,1.3-6.3,0-13-.5-19.5-.5-7.9,1.7-16-2.2-24-1.2.8-1,2.1-1,3.3,0,1.1-.1,2.3,0,3.4.3,10.9-2.2,21.5-2,32.4,0,2.8,3.7,5.7,0,8.7-.8.7.6,3.2-2.1,3.3-2.4,0-1.7-2.3-3-3.1-.3-.7-.7-1.4-1.1-2.2-1,1.2-.9,2.2-.4,3.2,0,2,1.8,2.9,2.8,4.3-6,.7-7.6-1.3-9.7-11.1-1.6,7.4-3.9,14.7-1.2,22.4.9,2.6,2,5-.9,7.2-3.3,2.4.3,5.2.2,8.2-4.2-.8-7.2-4.6-11.5-2.8.4,3,3.8,2.8,6.5,5.1-6.4-.3-11.9,2.8-17.9-.6,8.5-1.9,10.9-8.6,12.3-15.5,3.1-14.7,1.1-28.5-9.4-40.1-.8-.9-1-2.4-1.5-3.6-.5-1.2-.4-2.7-2.4-3.5-.3,3.4-1.8,6.7.6,9.6,6.6,7.9,2.7,15.6-1.8,21.6-5.4,7-7.8,15.6-13.5,22.2-1.2,1.4,2,3.4-.9,5.2-3.1-4-8.6,7.6-11.4-1.8-4,2.4-7.3,8.1-12.2,1.2-.9,2.1-1.6,4.1-2.8,6.9-4-5.2-10.1,1.2-13.7-3.7-.8-1.1-1.3-2.9-.1-4.5,2.7-.7.6,2.8,2.8,2.8,3.9-7.7,13-6.4,19.8-9.7.9,5.7,6.4.1,9.6,4,.5-8,6.6-11.1,9.6-16.2,4.6-7.7,7.3-14.2,2.2-23.8-3.5-6.8-6.7-14.1-10.3-21.4-5.4,2.2-10.7,4.4-16,6.4-1.9.7-2.8,1.7-3.1,3.8-1,6.7-3.2,13.3-2.5,20.1.4,4-.8,6.1-5.3,7.2,2.3-9.9-1.3-20.5,7.1-29.8-8.6.4-15.6,2.6-22.4.2-5.5,7.7,2,18.3-7.5,25.8v-24.5c-1-.9-1.3-1.3-1.7-1.5-11.2-4.9-13.2-4-13.7,8.3-.6,14.1-3,28.1-4,42.2-.1,1.5.1,3,.2,4.3,3,.7,3.5-2.5,5.5-1.7,7.8,6.1,19,1,26.4,8.6-2.9,2.2-7.4,1.9-11.2,2.8-6.3,1.5-12.7,3.3-19,4.2-5.7.8-10.7,3.2-16.1,4.1-3.4.6-5.7-1-6.9-5.5-3.6,1-8.4-2.2-14-1.7.3-.7.3-1.7.8-2.2,12.7-12.1,10.7-27.8,11.3-43.3.3-8.3,1.2-16.5,0-24.7-1.7-11-10.3-17.1-20.7-14.9-2,.4-3.8,1-3.6,3.2.7,10.1-4,20,0,30.5-1.9.7-3.5,1.4-6.2,2.4-2.1-12,6.6-22.9,1.1-34.4-4.1,2.8-8.8-1.3-13.8-1.5-3.7-.2-5.5,1.1-5.4,4.9.2,9.7-1.7,19.4-.2,29.1.5,3.2-.9,5.4-3.4,9.3-2.7-15.4.5-29.2-2.1-43.2-3.8.4-7.5.6-11.2,1.1-4.8.7-7.5,3.1-7.2,8.6.4,9.5,0,19,0,28.9-3-.1-4.9-1-4.8-5,.3-9.7-3.1-19.2-1.8-28.7-11.6-4.2-19.5,2.8-17.9,12.7.8,4.9.9,9.9,1.2,14.9.2,2.6.2,5.2-2.2,7.8-1.4-10.9-2.8-20.9-3.9-31.1-.4-4.2-1.8-6.1-6.2-5.9-4.9.3-9.8,0-15.2,0-.2,7.6-.3,14.5.7,21.7-1.9-.7-4.4-.5-3.5-3.7,2.2-6,1-11.9-.3-17.7-1.8,6.1-.5,11.9.4,17.8-4-2.7-2.9-6.9-3.3-10.7-.2-2.4,0-4.9,0-8.6-5.4,2.4-10.4,1.1-16.1-.7v30.6c-2.9-5.9-6.5-11.2-3.9-18.3,1.3-3.6,1.9-8.6-2.5-11.2.3-3.3,4-2.6,4.3-6.2,2.4,3.2,4.9,4.2,7.9,4.2,9.5,0,19.7,2.3,28.2-.4,10.4-3.4,20.8.2,30.5-3,4.1-1.3,7.8-5.2,11.9-7.5,3.4-1.9,6.2-2,8.8,1.1-3.3-.3-5.4.5-4,4.6,2.5,0,5.6,1.3,5.8-3.1,1.9-1,3.9-2.1,6.1-3.2,1.1,3.3,2.9,5.2,6.1,2.1,2,1.4-1.2,3,.3,4,9.8,1.9,18.3-3.1,27.5-4.2.1,5.1.3,5.2,5.7,3.2-1.8-13-5.9-24.6-17.3-32.9-3.7-2.7-6.3-7.1-9.1-10.9-6-8-11.2-8.3-19.8-2.8-4.8,3.1-11.5,3-16.3,6.5-3,2.2-5.2,1.8-8.6,1-5.4-1.2-4.2-5.4-5.1-8.4-.9-2.9-1.7-6.8,3.1-8.4.3,1.2.6,2.5,1.1,4.3,1.5-2.6,3.5-2.9,6.1-2-1.4-1.5,3.5-7.4-3.5-4.3l-1.1-1.2c-.5-5.6,5.3-4.9,7.6-7.7,3.1-3.7,6.2-7.5,9.3-11.4-1.6-2.7-4.2-5.1-3.7-9.3,3.1-.4,8.6,3.1,8.1-5.6,10.1,8.3,22.4,6.9,32.6,11.9,3.1,1.5,5.7,4.1,8.9,5.4,2.1.9,4.2,3.7,7,1.1h-.2c3.6-.7,5.9,2.1,8.3,3.8,7.4,5.4,14.6,11.2,21.8,16.9,3.1,2.4,6.3,3.7,10.4,3.8,9.6.1,17.2,6.1,25.8,10.1q-14.5,2.6-15.8,8.8h0c-.9-.3-1.5,0-1.3,1.1.2.9.8.4,1.3.3h0c.2,1.8-1.1,3.6,0,5.5h.1c-.3,0-.7,0-1,0,.3.4.6.9,1,1.3v-.2c-6.5,4.5-1.8,8.7,0,13.2,4.1-1.9,2.4-3.8.3-5.7,2.9-2.8,5.7-5.4,9.2-8.7-1,3.7,1.3,3.7,3,4.2,0,0-.2,0-.2,0-.5,1-1,2-1.6,3.1,9.3-1.2,9.7,8,15,12.7,4.5-2.5,6.2-8.4,12.6-10.1,3.4,7.4,9.3,14,15,21.5-4.6-5.2,1.6-9.4.5-14.2.2-.2.4-.5.6-.7.9.5,1.7,1.1,3.6,2.3-1.2-2.5-.5-5-3.6-5h.1c1.6-2.8-2.4-4.1-1.9-7.1,2.7,1.5,3.3,4.6,5.1,6.5,1.5,2.6,3,5.1,4.9,8.4,1.6-6.9,1.4-7.4-3.8-9.4.3-7.1-3.3-12.6-6.7-18.6,7.4-6.1,17.8-7,27.7-9.6,1.9-.5,3.4,1,4.9,1.9,5.7,3.2,11.4,6.6,18,7.3,4.8.5,4.5,6.2,8.3,7.7-.3.4-.7.7-1,1.1-.8,0-1.7-.1-2.5-.2-.2-.3-.4-.6-.6-.9,0,.3-.2.5-.3.8.3,0,.7,0,1,0,.3,3.4,3.6,4.9,5,9.6v-6.5c.2-.2.4-.3.6-.5,5.9,5.9,7,13.4,6.8,21.6,4.1-.7,3.1-4.7,5.8-6.2,1.8.9,0,3.3,1.7,4.8,2.1-.5,5.1-2.2,6.4,1.9.5,1.8,2.1,2,3.8,2.1,9.7.5,19.6,2,29.1,0,4.9-1,10.2-.2,14.7-2.9,7.2,7.3,16.4,1.2,24.3,3.7,2.9.9,6.3.6,9.4.9,5.8.5,9.9,1.7,14.1-6.2,3.8-7.3,7.5-14.9,11.3-22.3,1.4-2.8,3.7-4.7,6.3-6.3,4.4-2.8,9.5-4.1,14.3-6.1,6.3-2.6,12.2-.2,16.6,2.4,7.9,4.7,13.6,2.9,19.6-2.4.3.3.7.6,1,.9-.9,1-1.7,2-2.7,3.1.5.5.8.9,1.2,1,7.9,1.1,13.6,4.1,17,12.5,4.6,11.1,13.2,20.3,16.9,33.3,2.6-3.5,2.3-6.3,3.1-8.5,4.6-12.8,16.2-16.6,27.1-21.1,5.2-2.2,10.9-3.1,16.2-4.8,3-1,5.2-.4,7.3,2.1-10.7,3.3-24,.8-30.9,13.8,2,.5,3.2.8,5.7,1.5-8.1,3.8-5.7,10.3-6.2,16-6.8-1.4-11.3,6-8.5,14.6,6.4-2,8,2.1,9,7.3,1.3,6.4,3,12.3-5.1,16.2-2,1-1.8,6.4-3.2,9.7-1-5.1,1.7-10.2-.5-16.5-3.2,9.2-2.2,18.1-7.4,26.7,6.7-4.3,13.3-3.7,20-8,.5-.7-3.9.3-2.9-1.6,1.5-2.9,7.6,0,7-5.5.8-.2,1.5-.4,2.6-.6-1.4-1.2-2.3-.9-3.3,0-2.8.5-4.8-.3-6-3.8,7.6-2.5,16.3-3.4,20.6-11.6.4-.4,1.2-1,1.1-1.1-.5-.9-1.3-.6-2.1-.3-2,.4-4,.8-6.1,1.2h0c3.5-3.6,9-2.5,13.1-5-2.6-1.9-5.4-.3-7.8-.5-3-1.9-.3-4.7-1.4-6.8,0,0,0,0,0,0,3.9,2,5.8-.8,7-3.5,2.8-6.3,9.2-8.5,13.8-12.7,2.9-2.7,7.4-2.6,9.9-5.9,0,0,.6.3.6.3-.2,1.3-.3,2.6-.5,3.8,2.3.6,2.3-3.1,5.1-1.6-1.9,7.6-6.7,14.2-9.3,21.7-.4,1-.8,1.9-1.2,2.9-.9,1.4-1.7,2.8-.4,5.1.8-1.7,1.3-2.9,1.9-4,.4-.8.8-1.6,1.2-2.4,2.6-1.3,1.8.5,1.4,1.7-3,9.6-2.6,10.2,7,8.7,1.6-.3,3.6.2,5-1.4.2.3.5.7.8.9-1.7,2.1-3.4,4.1-6.4,7.7,5.2-3.6,5.3,3.3,9,1.6.3.3.6.6,1,.9,2,2.6,3.2,2.8,5.6,1,1.9-1.5,3.8-3,5.7-4.5.2.3.5.5.7.8,1.9,3.9,1.3,7.4-1.7,10.8,5.4-3.5,10.8-6.7,13.2-12.9l.5-.4c5.3,2.8,9.4,1.5,13.3-3,1.7-1.9,4.9-2.5,7.3-3.6,3.1,1.9,1.2,5.5,2.7,7.7,2.1,1.3,3-2.1,4.9-.9-3.6,4.2,1.3,6.3,2.1,11.1,2.3-5.6,2.5-9-2.3-10.9-2.5-3.3-4.6-6.3-1.7-11,1.1-1.7,1.1-5.9-1.2-8.8,2.2-.6,3.8-1.1,5.7-1.6-1.9,6.7-.5,8.1,8.5,8.4-3,2.8-3,7.3-6.4,10-1.7,1.3,5.3,9.2,8.9,10h-.2c-.4,2.9.9,3.1,2.9,1.6,2.7-2,4.2-5,5.9-7.8,2.4-3.7,7.1-4,9.7-.3,4.5-10.6,8.8-21,15.5-30.1v-.2c.9,1.7,2.4,2.1,4,1.1.7-.5,1.7-1.6,0-2.4,0,0,0,0,0,0,2.7,2,5.5-.9,8.2,0,.1,1.4-1,2.3-1.8,2.4-9.1,1.9-5.6,7.4-3.7,12.5.6,1.7,1.5,3.4,2.6,5.8,3.3-6.6,3.4-13,5.3-18.8.8-2.3-1.6-1.3-2.5-1.8.6-2.7,3.2-5.3.3-8.1-1.8-.7-2.7,1.3-4.3,1.3-.2-.2-.4-.5-.6-.7,2.2-2.9,5.9-3,8.8-4.7h0c1.1,2.9,3.8,4.3,6.1,6.1.5,0,1.1.1,1.6.2-.2-.4-.5-.8-.7-1.2.3-3.4,2.3-2.7,3.1-.8,3.1,6.8,8.7,8.1,15.3,8.4,10.4.5,20.9,1.5,31.3,2.7-11.8-2.2-23.7-.5-35.6-1,0,2.4,2.9,3.6,2.3,6-3-1.2-5.2-1.4-8.2,1.3-2.6,2.3-4.4,6.2-8.5,6.6.6-3.2,1.7-5.5,5-7.3,5.1-2.8,4.6-7.3-.3-10.8-3-2.2-5.5-.6-8.3-.4-.4,6.5-5.8,11.6-5.4,17.9,1.5,1.5,2.6-1.5,3.6.3.2,3.1-2,5.9-.9,9.1,2.8-.8,2.5-4.2,5-4.7,1.4,4.8-2.5,10.5,2.9,15.4,0-3.3.3-5.8,0-8.2-.7-4.1,3.8-5.5,5.1-5.9,3.9-1.1,1.6,3.2,2.7,4.9.5.8-.3,2.2,1.5,3-.4-4.9,5-7.9,4.3-12.9-3.2-.3-3.3,4.8-7.3,3.1.9-5.4,5.8-7.7,8.6-11.5,13.7-2.7,26.8,1.8,41.5,1.6-3.4,4.5-20.2,5.2-34.9,3-.9,3.2,5.1,6.9-.6,9.9-.3-.4-.6-.8-1-1.3,1.4-2.4-.8-3.1-2.7-5.2,1.4,4.5-3.8,5.8-2.5,9.6h0c-5.2,2.9-4.9,8-5.1,13,4.7-.2,7-3,8.5-7.1,0,7.7-2.5,15-1.8,22.7,1.6-1.3,2.2-4,5-2.6,1.4,2.4-.5,5.1.3,8.9,1.7-5.4,1.8-10.3,4.6-15,1.8,4.4-3.5,9.9,2.7,12.4,6-6.3,5-12.9,1.7-19.7.4-.4.8-.8,1.3-1.1,4.3,5.7,6.1,12.5,7.3,19.8,2.2-2,3-5.6,6.5-5.1,2.7,1.3.1,3.3.8,4.9,1.2,0,2.4-.1,4-.2-.2.9-.1,1.6-.4,2.1-4.6,8.1-4.2,10.4,3.3,16,2.1,1.6,6.1,19,4,21-2.4,2.2-1.3,4-1.1,5.9.5,5.5,1.8,10.9,1.9,16.6.1,7.7-3.8,11.3-9.8,13.5-5.6,2-9.9-1.9-14.2-4.8-.9-.6-1-2.9-1-4.4.3-9.1-1.7-11.7-10.2-16.4-5.9-3.3-8.1-9.5-7.7-16,.4-7-1.2-13.6-2.2-20.4-1.4,2.1-2.9,4-2.7,6.5h.1c-4-4.4-5.2-10.3-7.4-15.3-1.9-4.2-4.2-6.4-7.9-8.1-2.9-1.3-5.8-2.5-8.6-4-5.1-2.7-9.7-4.1-12.9,2.6-.9,1.9-3.2,2.3-5.2,2.9-5.9,1.7-8.1,6.6-7.8,11.9.7,11,1.2,21.9.5,33-.5,7.3-.9,14.8,2.7,21.9,1,1.9.2,4.8.2,7.2-2.4.3-4.6.5-7.3.8,2.4,8,7.9,1.7,11.8,3.1,1.1,2.8,2.3,5.9,3.6,9.2-5.1,2.5-9.7,2.8-14.7,1.1,2.2-4.1,5.9-1.6,9.1-2.8-.5-7-4.9-4.9-9.3-3.6-1-6.3-12.9-7.6-7.2-17.7,1,2.7-.6,5.4,2,7.5,5.1-1.3,8.5-3.3,7-10-1.2-5.2-1-10.7-1.5-16q-3.7-.3-7.4,12.6c-.7-6.2-1.7-12.4-2.1-18.6-.1-2.5-.9-3.8-2.6-5.4-5.3-4.9-2-12.9-6.7-17.9-13.9,12.2-21.3,48.4-12.6,63.2-1.1,1-2.3,1.9-3.4,2.9-2.7-3.7-2.6-3.6-5.6-.7-3.2,3.1-5-1.5-8.4-1.2,6.7-6.1-3.9-13.9,4-19.7-.9,6.4-1,12.4,6.1,15,2.2-5.5,1.8-6.4-4.1-8.1,6.9-4.6,4.3-10.9,3.5-16.9-2.3.1-4.5.2-7.2.3,3.3-17.7,10.9-34.1,13.4-52.3-16,.3-32.5,6.5-48.3-3.3-1.5,11.8.8,23.7-2.2,36.2-1.2-3.9-.4-8.4-5.6-8.2-1.3,1.1,1.6,3-1.2,4.2-2.2-2.6.5-6.4-1.7-9.1-3.9,1.4-.6,5-2.9,7.5-1.8-4.4-.2-8.4-.8-12.5,2.5,0,1.4,3.1,4.9,2.4-3.7-7.5,6.6-16.1-3-23.5-3-2.3-7-2.5-9.7-2.2-2.4.3-5.9,3.8-5.9,7.7,0,1.7.7,3.3-.5,5-10.7,14.5-8.1,30.5-4.8,46.5.3,1.5.9,3-.4,5-3.1-4.6-4.2-9.7-5.5-14.6-1.3-4.7-1.5-9.7-2.2-14.6-6.5,2.6-7.9,6.2-5.3,11.8,3.8,8.4,9.2,16.3,9.8,26,.2,3.5,2.7,4,5.6,3.5h-.2c-2.7,3.5-5.5,7-2.6,12,2.8-.7,5.6-1.5,8.4-2.2.7-2.5-2.8-4.7-.4-7,8.7,7.3,9.9,9.7,8.4,18.3-1.6-3.9-1.4-7.5-4.2-10.4-2.8,1-5.8,2.1-9.2,3.3,3.1,2,6.3-.1,8.9,2.1,0,2.4-2.5.9-3.2,2,.3,1.6,2,.4,2.7,1.3.3.5.1.7-.6.7-8.4.4-12.3-2.4-16.7-10.8-.6-1.2-2.7-5.2-6.5-1.5-4.3,4.2-10.6,3-16.1,3.1-1,1.9.2,3.2.7,4.6-.3.3-.7.6-1,.9-4.5-5.1-10.1-7.1-16.8-6.3-.3-.3-.6-.7-.9-1,.4-.5.8-1.1,1.1-1.6,2.1-1.6,6.3-1.5,5-6.5-2.8,1.4-5.9,1.6-6.6,5-4.9-.2-3.7-4.6-5.1-7.3-6.2-11.8.8-23.2,1.1-34.7,0-1.1.2-2.2.3-3.3-13.6.6-20-4.9-22.2-18.6-3.4,13.5-8.3,26.8-6.9,41.1.3,2.9,1.1,5.8-.1,8.7-1.7,3.9,2.8,3.3,3.8,5.2,8.1-4.7,10.1,4.3,15.8,6.4-4.3,4.9-7.9,9.5-8.9,15.5h0c-1-1.7-4.6,2-4.8-2.1,0-.2-3-1.7-5.1.4-2.6,2.6-5.5,2.6-6.5-2.2-6.7,1.7-3.6,9.6-8.3,12.6-2.6,0,0-2.1-1.1-3-1.7-1-2.8,1.2-4.5,1.4-4.1.4-9.5-4.1-7.7-6.8,4.3-6.1-1.1-9.1-3.6-14.5-.6,3.1-1,5.1-1.4,6.8-5.9,3.1-7.5-3.9-11.5-4.5-1.6.6,1.3,3-2.1,2.7-1.8-2.1,0-6.4-3.9-8.6-1.7,2.9-.3,5.9-.9,9-4.4,2.8-6.7,1.2-7.4-4-.3-2.4-1.7-4-4-5-3-1.3-2.2,2.7-4.4,3.2-1.7-2.9-1.5-6.7-4.6-8.8,2.4-1.9,3.9-.9,5.2,1,.6.5.9,1.6,1.9.9,1-.7,0-1.4-.2-2.1,1-1.6-4.2-5,1.5-5.5.2,0,.4-1.2.4-1.9-.3-6-4.2-11.5-1.8-18,.4-1-3.6-3.7-2.7-6.8,7.3-3.5,0-7.6.9-11.3-3.7,3.7.4,7.7-.7,11.5-4.5-1.7-1.7-5.9-2.9-8.7-.9-2.2-1.1-4.8-1.6-7.3-16.8-1.9-33.5-3.9-50.2-5.8,10.6,5.3,22.7,4.7,33.1,8.4-1.3,1.7-2.1,2.8-2.9,3.8h0c-2.6,0-2.2-3-4-3.7-1.4-.6-3.9-2.1-3.3,1.7-.3.3-.6.5-.9.8-2.1-2-3.4-5.6-7.4-4.3-2.6.9-2,3.1-1.7,5.2,1-3.9-1.2-5.2-4.3-6.3-1.8,2.7,1.5,5.4-.7,7.4-1.6-2.6-5.4-3.9-6.2-8-2.5,1.9-.4,4-1.5,6.4-2.3-9.8-12-4.5-17.4-9.2,3.8-1.4,7.2,1,10.4-.9-.8-1-1.5-2-2.8-3.9,19.7,2.4,38.5,4.7,57.3,6.9-4.3-6.4-4.7-14.7-11.4-21.7,1.8-4.4,4.3-11.5,6-18.8.2-1.1,1.5-2.4-.6-3.5-.4.9-.7,1.7-1,2.5ZM145,137.9c-1.5-1-1.3.4-1.6,1.2-1.4.4-2,1.2-1.7,2.7,2,0,1.9-1.3,2.1-2.3.4-.5.7-1.1,1.1-1.6.2-.3.4-.6.6-1-.2,0-.4,0-.6,0,0,.3.1.7.2,1ZM689.5,257c1.2-.1,2.4-.3,3.6-.4,2.2-1.1,3.3,3,5.9,1.2.3-2.6-2.1-3.5-3-5.4-1.5,1.3-4.4,1.4-2.9,4.3-1.4-1.8-2.4.2-3.5.4,0,.2,0,.4,0,.6-.3.6-.2.7.3.3,0,0-.2-.7-.4-1ZM514.4,234c2.1,0,1.5-1.4,1.4-2.6.4,0,.7,0,1.1,0,0-.3-.1-.6-.2-.9-.3.3-.5.6-.8.9-.5.9-1,1.8-1.4,2.6v.3s0-.4,0-.4ZM534.4,212.1c-.4,1-2.1,1.5-1.4,3,2.1.7,2.2-.8,2.4-2.1,1-.9,1.6-1.9.6-3.2-1.3.2-1.3,1.4-1.7,2.3ZM482.9,198.7c.9-1.3,1.8-2.7,2.7-4,.6-1,1.1-2,2.2-3.8.8,2.8,1.1,3.9,1.3,4.8,8.9-4.4,13.1-13.2,21.6-20.4-6.3,1.6-9-.2-9.9-4.7.7-1.4,3.7-.3,4.3-2.8-12.7-3-30.3,8-31.7,22.1,1.4.4,2.6.3,3.3-1.2-1.8,3.5-3.8,7.1-5.4,10.8-.9,2.3-3.3,5.4.1,7.2,3.7,1.9,4.4-2.1,5.3-4.2,3.2-7.3,6.6-14.5,11.8-19.6,2,4.2-2.7,6.6-4.7,10.1-1.4,1.1-1.8,2.8-2.2,4.5-.5.9-1,1.8-1.4,2.7-1.1,1.7-2.8,3.1-1.8,5.7,2-1.2,2.5-3,3.2-4.6.4-.8.9-1.5,1.3-2.3ZM217.5,198.3c.6.8,1.2,1.6,1.8,2.4.5,1.6,1.3,3.1,2.8,4,.4.4.7.8,1.1,1.2.8-.8.3-1.4-.2-2.1-.8-1.4-1.7-2.8-2.5-4.3-.6-.8-1.2-1.5-1.8-2.3-.9-1.3-1.9-2.7-2.8-4-.8-7.5-1.4-15,3.8-21.5h0c8.8-1.4,6-10.2,11.2-15.9-11.1-.2-19.5-4.4-28.2-10.1,0,10.2-3.6,17.9-4.6,25.9,3.1,1.2,4.2-.6,5.2-2.6-2.6,6.1-7,11.5-5.8,20.4,4.7-7.7,9.6-13.6,12.9-20.6,1-2.1,1.4-4.3,1-6.5,1.6.2,3,.6,3.4,1.6-1.3,4.3-4.4,7.2-3.8,11.5h0c1.4,4.4-1.9,7.2-3.9,10.1-1.9,2.8-2.2,5-.4,7.6,2.9-1.3,5.8-2,8,1.3.9,1.3,1.9,2.6,2.8,4ZM267.2,201.7c2,0,2.8,3,5.3,2.2.6-2.8-1.1-4.6-2.8-6.3-1.8.5-2.5,1.8-3,3.4-.1.5-.5,1.5-.4,1.5.8.4.8-.4,1-.8ZM820.3,294.3c-.2-.9.4-2.3-1.1-2.5-1-.1-1.5.9-1.3,1.7.4,1.5,1.8,0,2.6.7-.4,2.3,2.5,3.7,1.1,7.9,0,0-3.5-2.2-3,1.2,3.7,1.6,5.3-1.5,7.9-3.2-2.1-2.3-2-6.2-6.1-5.8ZM537.7,235.9c4.8-3.8,3.1-9.7,4.8-14.4-2.9,4.4-5.5,8.8-4.7,14.3h-.3s.2.1.2.1ZM138,124.3c0-.3,0-.7-.1-1-.3.2-.5.3-.8.5.4.1.7.3,1.1.4-2.1,2.8-1.8,5.4.5,7.7,2.6.8.7-4.3,4.7-2.9,3.3,1.2,3,3.2,3.2,5.5,5.8-1.6.9-5.3,2.2-7.8.6-1.1-1.6-3.1-2.2-2.6-3,2.9-5.8-1-8.6.1ZM718.5,267c-.2-.3,0-1.5-.9-.5.3.1.7.2,1,.3,2.8,12,6,24,11.8,35.2,2.6-6.1,1-12.1.5-18.9-6.3,4.4-6.1.9-6.8-3.8-.6-4.4,2.6-11.3-5.7-12.4ZM306.5,173.1c5.3,4.7,2.8,12.2,7.2,19.6.2-8.6,3.2-14.1,9.8-18.8-6.6-2.3-10.4-5.4-11.8-11.1-4.9,2.9-10.1,4.2-13.9,8.8,2.8,1.7,4.4,1.5,6.3,0,1.5-1.2,2.3,0,2.5,1.7-3.8,0-3.6,2.4-2.3,4.7,1.7,2.8,2.9,5.6,2.1,8.9,0,.3-.3.6-.7,1.2-.6-1.6-1-2.7-1.6-4.3-2,1.1-3.7,2.1-5.2,3,1,3.7,1.9,7.2,2.8,10.7-.3-3.8,3.9-3.4,5-5.8,2.3,2.6-1.3,7.3,3.6,9,.9-9.7-1.7-18.6-3.8-27.5ZM505.9,322.2c1.7-.4,2.9,2.6,5.1.6,1.8-1.7.7-3.3.6-5-.2-3.5-1.7-7,0-10.6,2.6-5.4-.7-16.1-5.9-19.7-5,7-3.9,16.2-8.5,24,.4,1.3,2.9-.8,3.6,1.3-.7,6-4.6,11.5-4.2,18.7,3.9-3.1,2.8-8.4,7-10.2v3.3c1.1-1.2,1.6-1.7,2.1-2.3ZM490.7,318.1c2.1-4.7,4.1-10,1.9-14.4-1.3-2.7-1.9-4.7-1.1-7.1,3.8-11.4,1.4-23,1.9-34.5,0-1.1,0-2.2-2.1-2.9-4.8,13.3-7.3,26.8-6,41,.3,3.4,2.9.1,3.5,1.8-.8,8.2-7.7,17,2.3,24.1,2.3-3.2-1.1-4.7-2.2-6.8.6-.4,1.1-.7,1.7-1.1ZM612.5,341.7c0,1-.7,2.2,1,2.6.2-1.1,1.6-2.7-1.2-2.4,2.6-2.2.6-5.2-.7-5.7-5.3-2.1-4.7-6.7-5-10.6-.6-8.8-4-16.4-9.4-23.2-2.1-2.6-1.2-6.1.5-7.5,9.7-7.5-1.1-16,2.5-23.6-15.6,9.6-29,52.1-18.6,71.1,1.1-1,2.1-1.9,3-2.8,2,1.7.3,4.7,2.7,5.8,1.4-1.4-.6-5.1,2.5-4.8,3.3.3,6.6,1.6,9.2,4.1,1.3-1.3,2.2-4.3,4.8-2,3.3,3,5.9,1.4,8.5-1ZM506.1,216.5c-1.8-2-3.3-4-5.7-2.4-1.2.8-1.5,2.7-.5,3.6,4.5,3.9,6.5,9.7,10.3,15,8.5-12,5-23.5,2.7-35.4-8.6,4.6-3.6,12.6-6.7,19.1ZM526.5,300.2c-5.9,11.5-6.3,23.2-3.1,36.1,7.3-12,6.9-23.8,3.1-36.1ZM208.2,257.2c-2.2,5.2-3.9,9.8-3.6,14.4.5,6.9-1.9,11.8-8,15,1.9,1.6,2.4,4.3,5,4.5,9.8-8.9,10.5-21.5,6.5-34ZM578.1,272.1c-1.9,5.8-2.6,11-5.2,15.5-1.1,2-1.1,3.4,1,5,2.3,1.9,5.7.1,5.8-.2,2-6.5,7.7-12,6.5-20.1-2.9.9-5.2,2-8.1-.1ZM335.7,234.7c3.4-11.3,1.6-21.6-.4-31.9-1.7,10.3-5.9,20.6.4,31.9ZM466.2,281.9c2.4-11.3,3.9-22.3,3.5-34.2-5.2,4.9-7.1,26.4-3.5,34.2ZM824.5,325.5c-4.4-4-4.2-9.6-5.4-14.6-1.4,6.1,0,11.6,2.9,17.5,2.4-2.4,5.4-1.5,8-2.2.7-5.3-1-9.6-3.3-14.2-6.8,3.6,0,8.6-2.2,13.5ZM560.7,271.9c2.4-3.5,1.4-7,1.7-10.3.2-1.9-1.4-1.8-2.6-2.4-1.6-.7-1.6.2-2.1,1.3-2.5,5.2-3.1-.3-4.6-.9-3.9,7.8-2.6,10,7.7,12.3ZM525.8,296.9c5.1-22.5,5.1-22.7-2.7-20.7-.7,6.6.6,12.9,2.7,20.7ZM332,283.4c-2-11.5.6-21.8-.7-32.5-1.2,9.8-.5,19.8-4.7,29-.4.8,1.1,2.3,5.4,3.5ZM535.9,208.8c6.4,4.7,6.9-9.1,14.1-1.7-1.8-6-4-9.3-7.1-12.7-2.5,5.1-4.6,9.5-7,14.4ZM133.4,141.3c-1.6-2.7-1.3-6-4-8.2-2.1,2-4.2,3.9-6.4,6,1.9,2,3.4,3.7,5.1,5.5,1.9-1.1,3.6-2.2,5.4-3.3ZM553,245.5c0-3,2.5-5.2,2.8-7.3.4-2.5,5-4.6,1.3-7.6-8.1,7.2-8.3,7.9-4.1,14.9ZM553.7,288.6c4-2.6,6.9-6.2,11.8-7.6-3.1.7-4.2-2.4-7.6-2.8,3,5.5-6.3,4.7-4.2,10.3ZM562.6,236.9c-3.7,8.6-3.7,10.3,0,14.4,1.9-4.6,2.3-8.9,0-14.4ZM799.2,298.3c-1.4,4-3.8,7.9-.6,12.9q4-4.7.6-12.9ZM121.6,234.9v-24.8c-3.5,8.1-1.7,16.2,0,24.8ZM520.9,212.1c-.2-8.2-1.2-16.5-.3-24.7-3.1,8.3-1,16.5.3,24.7ZM776.3,255.1c1.7,4.5-6.8,7.7-1.1,14.5.1-6,3.5-9.7,1.1-14.5ZM809.9,305.9c-2.3,3.5-4.1,6.2-7.1,10.8,3.3-1.9,3.7.3,6.7.9-2.9-4.7,3.7-6.6.5-11.8ZM569.7,294.3c2.8,3.8-2.6,8.3,1.2,12.9,1.4-5.2,4.2-9.4-1.2-12.9ZM566.6,334.5c3.3-6.4,3.6-11.8.7-17.9-1.8,6.3-3,12-.7,17.9ZM515.4,293.4c3.6-6,3-10.2-1-14.5-1,4.9.4,8.8,1,14.5ZM189.3,140c-6-3-6.1-3.1-10.6-.5,3.6,1.4,6.8,5,10.6.5ZM166.4,153.4c-1-4.8-3.8-6.2-8.2-4.5,1.3,4.5,6.1,1.9,8.2,4.5ZM512.7,269.4q2.2-9.1-1.3-11.7c-2,4.1.1,7.5,1.3,11.7ZM360.3,247.7c.2,4-3.5,8.3.8,12,.7-4.1,2.9-8.2-.8-12ZM483,305.3c-1.8,4.7-3.8,9.3,0,14.9v-14.9ZM518,311.5c-2.5,4.9-1.7,10-1.2,15.2-.2-5.1.9-10.1,1.2-15.2ZM573.1,203.6c-3.1,4-4.9,6.8-4.3,11,4.2-2.3,5.6-5.3,4.3-11ZM409.9,243.7c3-4.4,2.4-7.7,2.7-11-.6,0-1.2-.1-1.8-.2-.3,3.3-.6,6.6-1,11.2ZM325.3,182.5q-4.3.7-5.7,4.1c3.4.7,4.7-1.4,5.7-4.1ZM162.8,124.4c1.7,3.9,4.2,6.4,9.9,4-4.2-1.7-7.1-2.9-9.9-4ZM163.1,124.7c-1.1-4.4-4.5-3.4-7.9-4.5.5,6.7,5.5,2.9,7.9,4.5ZM518.3,228.2c.2-2.3,4-3.2,2.7-6.4-3,1.3-3.2,3.7-2.7,6.4ZM168.3,159c1.8-1.7,2.8-3.2-.3-5,.1,1.8.2,3.3.3,5ZM576.8,199.9c-2.4,1.6-4.3,2.6-3.7,5.4,2.5-.8,3.4-2.3,3.7-5.4ZM496.7,331.6c-1.1.2-2.2.5-2.4,1.8-.1,1.1-.1,2.2,1.9,2.7.7-1.4,1.5-2.7.4-4.5ZM560,287c-1.6,1-.4,1.9.1,2.9.6-1,1.1-2-.1-2.9ZM533.6,353.3c1.6,1.4,2.7,1.2,4.1-.3-1.5-.7-2.7-1.4-4.1.3ZM745.4,244.1c1.3-1.8.7-2.9-.4-4-1.1,1.3-.7,2.4.4,4ZM514.2,277c0-.2,0-.4,0-.6-.2-.6-.4-.5-.5.1,0,.2,0,.4.1.6.1,0,.2,0,.4-.1ZM585.5,271.9c.2.2.3.3.5.5.2-.3.4-.6.4-.9,0-.1-.3-.3-.4-.4-.2.3-.3.6-.5.9Z"/>
            <path class="cls-3" d="M341.8,160.8c0-1.9,4.1-2.7,1.5-5.3,0,0,0,0,0,0,2.3,2.4,2.5-1.5,4.1-1.3v-.2c.8.9-1.1,3.6,2,3.1,3.5-.5,4.7-4.4,8.3-5,4.3-.7,3.4-4.4,3.3-7.4,0-1.3-.2-2.7,2.4-3.2.3,5.3.8,10.2-2.7,15,7.9-2.9,11.1-11.3,8.3-17-2-4-2.7.7-3.8-.2-.3-.3-.7-.6-1-.8,1-3.8-3.6-4.7-4.3-8.3-.7-3.4-.2-5.7.7-8.5-1.2-1.9-4.1-.2-5.1-2.7.9-2.8,4.6-.1,5.9-2.9,1-2.2,2.9-3.9,5.6-7.4-6.1,2.6-8.4-.1-8.6-3.9-.5-6.6,6-3.1,8.7-5.4-.7-4.2-7,0-7.4-4.9,1-2.8,3.6.5,5.4-1.5-2.8-5.9,5.1-10,3.2-16.5,1.8,4.5,5,7.2,9.3,8.8h0c-1.3,2.3-2.5,4.7-3.9,7.3,5.9,1.8,1.5,5,1,8.1-11.4-4.3-6.8,5.4-9.6,9.7,6.8.7,4.8-6.8,9.1-7.5,1.6,1.1,1.4,3,1.3,4.8-.3.4-1,1.1-.9,1.2.6.9,1.3.4,2,0,1.8-6.7,3.7-13.3,5.5-19.8,2.9-1.7,2.8,2.3,4.9,2.3,2.9-6.6,2.1-13.8,4.9-20.4.2,2.6.4,5.2.6,7.8,0,.8,0,1.9.4,2.3,3.6,3.8,3.7,3.7,1.1,7.3-.4-.8-.7-1.7-1.1-2.4,0,0-.3,0-.5-.1-1.9.7-1.5,9.7,1,10.8,3.3,1.4,3.3,2.8,2.1,5.6-1.5,3.6.3,5.5,3.8,6.2.4.4.7.7,1.1,1.1-.5,1.4-2.6,1.8-2.3,4.3,3.5-2.8,5.4,4,9,1.1h-.1c-1.5,4.4-6.1,4.4-9.5,7.3,1.4-5-3.1-4.7-4.3-7.1-2,1.4-3.6,2.8-4.6,4.9,7.5,1.7,8.7,3.3,3.4,8.8-6.4,6.6-2,11.7.7,16.7,1.1,2.1,0,3,1,4.6-3.2-.2-2.4-3.6-4.5-4-4,.5-2.7,3.3-2.5,5.6h.1c-2.3-2.5-3.6-1.4-4.9,1.1-1.3,2.6-2.1,1.3-2.5-.6.2-.5.8-1.2.7-1.5-.5-.9-1.3-.6-2-.3-3.4,1.9-7.7,2.7-8.5,8.3,4.5,0,7.2,4.1,7.8,6.3,1.7,5.1-7.3,4.3-6.5,10.2-9-6.3-2-12.5-1.3-18.9-7.5,5.1-16,7.4-23.3,14.4-.2-6,2.8-7.6,6.3-9-3.5-5.1-6.6.9-9.8,0-.3-.3-.6-.6-1-.9ZM384.1,133.7c0-.5,0-.9,0-1.4-1.5-3.8,4.6-5.4,2.6-9.6-4.7,3-6.9,8.3-10.8,11.9-.4.3-4.5,4.7,1.4,4.4,1.4,3.5-2.9,2.9-3.5,4.9,0,.6,0,1.2-.1,1.7l1.4-.6c3.4-1.1,6.1-2.9,6.8-6.7,2.2-.9,3.1-2.3,2.2-4.7ZM387.8,111.7c.9-5.1,1.5-8.8,2.1-12.5-.6,0-1.2-.2-1.8-.3-.3,3.7-3.6,7.1-.3,12.7Z"/>
            <path class="cls-3" d="M450.3,151.9c3.7,3.7,7.2-4,10.6.4-8.7,1.6-1.1,13.4-9.9,15.9-.8-4.7,5.1-7.5,3.4-12.4-3.4-.6-5.7,3.3-9.2,2.5,0,0,.1.1.1.1-1.6-3.5-4.9-.4-7.6-2.1,1.6-3.6-1.6-7.1.5-11.1-4.9-.6-8.1-2.7-9.3-7-2.1-.8-1.9,2.4-3.7,1.8-1.1-1.7.9-2.9.7-4.8-6.1-.3-4.7-5.9-5.9-9.6-3.1-.1-4,3.5-7.7,2.4,1.5-4.1-.1-9,3-13.6-2.9-3.3-5.6,0-8.3.3,0,0,.1.1.1.1,1.1-3.2,5.4-4.7,5.1-8.6-2-2.2-4.3.4-6.3-.5-1-4.8.3-9.2,1.4-14.6-4,2.4-2.4,7.1-5.7,8.7h0c.2-6.6,3-13,1.8-19.7.4-.3.7-.6,1.1-.8.4,0,.9.2,1.3.2,0-4.2,4.3-5.7,5.7-9.1,1.8,2-1.6,3.8.3,5.6-4.7,1.1-1.6,3.2-1.3,5.3,2.5-1.1,1.5-3,2.1-4.3,2.8.8,2.5,4.2,1.7,4.7-5.9,3.6.4,7.6-.6,11.5-.6,2.1,2.6,1.3,5.1,1-1.3,2-1.8,3.9-1.4,6,9.2-2.9-.7-11,5.1-14.5,1.7,3.2.8,7.1,1.1,10.8,2.3-.5,1.6-4,4.8-3.7,1.5,2.1-.7,5.2,1.6,7.6,2.4-2,3.1-3.8,1.4-7-2.6-4.9-.9-10.2.2-15.2.5-2.2,2.3-2.5,4.7-1.7,2.1,13.3-5,25.5-5.2,39.2-1.7,0-3.5.9-5.2,2-.8-2.3,1.8-3.1,2.2-4.9.5-.7.9-1.4,0-2.1,0,0-.7.7-1.1,1.1-1.7,1.6-3.3,3.3-3.9,5.6-.9.8-2,1.6-.4,3,.5-.8,1-1.5,1.4-2.2.6-.4.9-1.6,1.9-.7.3,3-1.9,4.9-3,7.2-1.9,4,.5,6.1,3.3,8.3,3.2,2.6,5.2,1.3,6.8-1.8.6-.3,1.2-.6,1.8-.9.8-.5,1.6-1.1,2.5-1.6,2.9-2,6.5-3.3,7.2-8.6-4,2.3-7,4.1-8.9,7.3-.6.6-1.2,1.2-1.7,1.8-.5.4-1,.8-1.5,1.3-1.4-2.3-2.8-4.5-3.8-6.2,7.8-2.5,16.6-2.2,24.6-7.7-3.1-3.1-5.4-3.7-7.7-1.5-1.4,1.3-2.5,3-4.4,1.2-1.8-1.8.1-3.4,1-4.7.7-1.2,1-5,4.1-1.6-.8-2.6,4-6.1-1.7-8.4-.6-.2-.1-4.9,1-6.9,2.5-4.6,2.5-9.4,2.3-14.6,4.6,4.9,3.7,10.3,2.7,15.5-1.2,5.8,7.4,7.7,4.4,14.3,5.4-4.1,3.6-9,2.7-14.6,4.3,2.9,1.3,6.9,3.3,9.3,7.5-4.2,3.7-12.7,6.9-18.5,2.8,12-3.6,26.9-12.4,29.4,1,3.8-1.1,7.6.5,11.5,3.1.4,4.4-3.6,7.5-3.3,2.6,6.4-3.6,9.2-5.7,13.6,1.7,1.3,3.4.7,5.1.6.2.3.4.5.6.8-4.5,3.4-8.8,7-12,11.8-.8-.6-1.6-.4-2,.3-.1.2.6.9.9,1.3ZM422.4,113.6c1.3-1.7,3.9-2.7,3.1-6-3.1.7-3.3,3.3-4.5,4.9-1.7,1.2-2.8,2.7-1.2,5.4,1-1.6,1.8-2.9,2.6-4.3ZM447.5,142.8c-1.7.3-2.7,2.7-5.5,2.1,1.6-1.9,2.8-3.3,4.1-4.8.3-1.7,5.8-1.6,1.9-4.9,1.6-2.5,3.2-5,4.9-7.8-2.6.4-2.5-3.1-5.2-2.9-4.5,4.2-8.6,9.3-15.4,11.5,2.7,2.4,4.1,2.1,5.5,1,.3.4.6.7.9,1.1-.2,1.1-1.8,1.5-1.1,3.2,3.6-.4,4.8-6,9.2-4.8-.5.9-1,1.8-1.5,2.7-3.7,3.2-5.7,12.4-3.2,15.8,1.4,1.9,3.3,1.3,4.9-.9-5.8-4.3-.6-7.2,1.2-10.6.4-.4,1.1-1,1.1-1.1-.8-1-1.3-.1-1.8.4ZM447.2,97.6c-.5,1.9-2,3.4-.2,5.3,1.7-1.7,1.3-3.3.2-5.3ZM421.9,122c-.1,0-.3-.2-.4-.2,0,.3,0,.6,0,.9.1,0,.3,0,.4-.2,0,0,0-.3,0-.4Z"/>
            <path class="cls-3" d="M711,163c.6-.3,1.2-.7,1.8-1,.5.3,1,.6,1.5.9-1.1,1.4-2.3,2.7-3.4,4.1-.4.4-.8.8-1.2,1.3-.3.6-1.6,1.1-.8,1.9.9.9,1.3-.2,1.8-.8.6-.3,1.1-.6,1.7-.9,5.7-2.7,8.5-9,14.3-11.6l.4.6c-.9,3.7-6.5,4.4-5.9,9l.2-.2c-3.9-1-3.1,4.2-6.7,4.8-4.1.7-7.3,5.3-12.5,4.2-1-1.9,1.6-2.8,1.8-4.4.7-.8,1.4-1.6,2.1-2.3.4-.5.8-.9,1.2-1.4.4-.7,1.5-1.3.5-2.1-1.1-.8-1.3.5-1.7,1.1-.4.5-.8,1-1.2,1.5-.7.7-1.3,1.3-2,2-.9.5-2.5,1.2-2-.7.7-3.2.9-6.6,4.5-9.7-5.7,0-7.4,3.5-9.4,6.5-.3.7-1.5,1.4-.1,2,.2.1.9-.7,1.3-1.1,0,5.1-2.8,8.9-9.9,12.4,1.4-2.1,2.3-3.4,3.2-4.8-3.2-1.8-5.8-2-8.6.7-1.9,1.8-4,4.3-7.4,1.3-1-.9-4.3-1.7-6.1.7-1.3-8.4-2.5-16.2-1.2-24.2,2.9,0,2,2.4,3.2,3.8,1.4-3.1,2.7-6,4.1-9.2,2,3-1.2,5.3-.4,8,6.1-4.5,10.6-14.1,7.2-16.8-4.7-3.7-3.2-8.1-3.2-12.2,0-5.2,2.2-10,5.3-15.3,1.3,2.3,2.2,3.9,3.4,5.8,1.3-1.5,2.3-2.6,3.6-4,3.5,6.7-2.5,7.9-5.7,10.9,4.4.9,6,3,2.9,6.7,4,2.2,4.2-1.7,6.7-3.3-1.1,7.1-1.6,13.8.8,20.3,1.7-.9,3.5-2.8,3.1-4.1-3.9-11.7,8.8-19,7.4-30,3.4,3.5,2.6,7.9,3,11.8,9.2,1,3.4,7.5,4.4,11.7h4.7c-2.5,5.6-12.5,1.6-12.1,10.1,3.7,1.4,5.4-2.6,8.4-3.2.3.3.6.6.9.8,1.1,2.6,3.7.1,5.3,1.6-3.4,5.1-6,10.8-10.4,15.3-.4.7-1.5,1.3-.5,2.2,1,.9,1.5-.4,2.1-.8ZM692,149.1c-.3.7-.7,1.3-1,2-.4.5-.7,1.1-1.1,1.6-.6.7-1.2,1.5-1.8,2.2-.4.6-.7,1.1-1.1,1.7-.7.4-1.5.9-.5,1.8,0,0,.8-.7,1.2-1.1.4-.5.7-1.1,1.1-1.6.7-.7,1.4-1.4,2-2.2.3-.5.7-1,1-1.6.4-.5.8-1.1,1.1-1.6.7-.5,1.5-1.1.6-2-.2-.1-1,.5-1.6.7ZM684.7,161c-.3,0-.6-.2-.9-.2,0,.3,0,.6,0,.8.2-.2.5-.5.7-.7.4-.4.7-.8,1.1-1.1l-1-.2c0,.5,0,1,0,1.5ZM696.6,157.4c-4.3,2.9-6.4,5.7-7.9,10.8,4.9-2.7,7.4-5.2,7.9-10.8ZM693.2,171.1c-.3-.2-.5-.3-.8-.5-.3.2-.7.3-1,.5-.7.7-.8,1.6.4,1.7.4,0,.9-1.1,1.4-1.7ZM688.8,168.2c.2.3.3.6.5.9.1-.2.4-.3.4-.4,0-.3-.3-.6-.4-.9-.2.1-.3.3-.5.5Z"/>
            <path class="cls-3" d="M528.6,119.2c-.6,2-3.2,2.7-3.3,5.1,1.1,1.1,1.9-.2,2.8-.2.3.3.6.6.9.9-2.3,3.2,1.8,1.1,2,2.8-3.4,4.6-9.5,7.5-11.2,14.1,2.7-2.3,5.5-4.6,8.7-7.3.3,3.4-2.9,3.9-3.1,6.1,0,0,0,0,0,0-2.1,2.1-6.8,2.2-4.7,7.6.4,1.2-4.8,4.5-8,7.4-.4-4.6,1.4-7.4,2.9-10.2.2-.6.7-1.5.5-1.7-.8-1-1.5-.2-2.1.4-1.5.7-3.1,1.4-4.6,2.2,5.8-6.1,8.6-14.2,13.8-18.6-.8-11.5,2.2-22.2-1.4-32.7.3,5.5-1,11.3-3.7,15.3-3.7,5.4-3.7,10.3-3.2,16.2-.9.6-2.4.7-4.1.4-.5-2.8,3-5.1,1.1-8.1,0,0-.2.2-.2.2.3,0,.9,0,.9,0,.3-.7,0-1.1-.8-1.3-.4-.3-.7-.6-1.1-.8,3.3-4.3,3-10.7,2-14.1-2-6.4,4.1-9.2,1.9-15.4,3.9,2.7,2.1,5.4,4.7,8.3,1-8.4,3.3-15.5,8.3-21.1-5.5-8.4-5.1-12.9,1.2-17.8,3.1.2,2.7,4.8,6.1,4.9,2.8-2.4,2-6.8,5.1-9.8,2.8,4.8-5.8,10.8,1.9,14.8,1.7-2.8,4.7-4.3,1.6-8.9-2.3-3.4-.6-8.7-1.3-13.2-.5-3.3,4-3.4,7.4-2.7-1.1,2.6-3.8.7-4.8,2.8,2,9,5.8,18.2-1.8,26.9-2.1-.5-.9-3.6-3-4.6-.4.2-1.2.4-1.5.8-2.8,5.4-8.7,8.5-10.6,14.6-.3-.8.2-2.6-1.5-1.7-1.3.7,0,1.7.5,2.5.8,4.3,4.2,6.6,7.3,9,1.8-1.1,2.6-2.5,2.8-4.6-1.4-1.6-3.4-1.3-5.2-1.3h.1c.4-1.2.8-2.5,1.2-3.8,4.3-.6,5.5,3.3,8.1,5.2.4.3.8.7,1.2,1-1.8,6.4-.8,14-8,19.6,2.2-5.9,6-10.2,5.3-16.7-3.7,3-7.1,4.9-10.4.4-.8-1.2-2.4-1.3-3.7-.3-1.1.8-.7,2-.5,3.1.7,3.4,2.9-.3,4.5,1.3-7.5,6.9-4.1,15-2,22.9l.4.5ZM527.9,70.8c2.2,0,4.2-.7,5.6-2.7-1.1-2.1-2.3-3.3-4.7-1.8-1.8,1.2-2.7,2.4-.8,4.4Z"/>
            <path class="cls-3" d="M537.3,138.7c.8-1.7,3.1-2.4,3.2-4.7-1.9-.9-2.5,1.3-3.9,1.4-.4-.3-.7-.7-1.1-1,6.4-5.1,12.8-10.3,19.1-15.4-1.5-2.2-2.8-1.3-4-1-.2-.2-.5-.5-.7-.7,2.1-3.8,9.3-2.2,9.1-8.6-2.8-1.9-3,3.3-5.6,1.9-.3-4.1,1.7-6,9.5-8.8,1.8,1.3,0,3.5,1.2,4.9,5.9-1.3.9-9.4,7.8-11.3-.8,8-5.1,16,1.6,23.1-1.9,10.9-6.8,20.3-20,23.3,2-3.5,5.4-4.5,8-6.5,1.1-.9,3.1-1.4,2.2-3.6-1-2.2-2.8-.3-4.1-.6-.2-.2-.3-.4-.5-.6,1.3-2.5,3.7-4.5,2.8-8.4-3.5,2.4-7,4.2-9.3,7.6h.2c-1.7.8-3.7,1.5-2.8,4.1h0c-3.5-.6-4.4,2.5-5.4,4.6-.6,1.3,1.4.5,2.2.4.3.3.6.7.9,1-1.5.7-2.3,3.3-4.7,2,0,0,.2.1.2.1-1-2.2-2.7-2.9-5-2.3-.3-.3-.6-.6-.9-.9ZM565.1,125.9c2.4-2.1,4.9-4.2,5.1-8.7-3,3-6.3,4.6-5.1,8.8-.3-.2-.5-.4-.8-.7-.1.2-.2.3-.3.5.3,0,.7,0,1,0Z"/>
            <path class="cls-3" d="M764.8,201.5c-4.1-1.2-4.2,5.5-8.4,4.1,0,0,.1.1.1.1-.1-1.5,2-2.6.7-4.5-3.4-.1-5.4,3.4-8.9,4.1.8-4.1,4.9-4.2,6.8-7.2-10.2-4.3-20.6-10-31.5-6.5-7.6,2.4-15,4-22.8,4.6-18.1,1.3-36,1-54.3-4.8,3-1.4,5.6-1.1,7.6-.2,6.6,3.2,13.8-1.6,19.4.5,6.1,2.3,9.4-6.3,14.8-1.5,1.1,2-2.6,2.1-2.2,4.3.5.1,1.1.4,1.7.4,11-.3,21.2-4.3,32-5.9,10.3-1.5,19.9-.3,29.4,3.5.5.2,1,.4,1.5.6,0-.5,0-1.1,0-1.6,0-1.5-1.5-2.8.4-5.2,0,8.6,7.9,8.5,12.1,12.4,1.2,1.1.7,2.1,1.4,3,0,0,.1-.2.1-.2Z"/>
            <path class="cls-3" d="M271.4,107.8c-2.9-1-4.7,1.2-6.9,2.8,2.6-5.8,11-9.3,5.9-17.3-4.3-.4-2.6,4.5-5.7,5.5.5-3.6-2.9-5.5-3.5-9.1-1.6,2.6-2,5.3-2.4,8.8-2.6-3.7-4.7-3.2-6.2.2-1.6-1.4-1.9-4.6-5.4-1.6,1.4-4.6.4-8.7,2.3-12.4h-.1c4.7,0,8-2.3,10.3-6.2,1.3-2.4,2.6-4.7,5.5-5.6,3.5,6.8-7.7,7.8-5.5,14.1,3,1,3-2.9,5.8-3.3.1,1.8.3,3.6.5,6,4.7-.5,8.4,4.9,12.4,3.6,6.7-2.1,2.7-9.7,5.9-14.4v25.3c-2.7-1.9-1.5-5.5-4.4-7.1-.3,2.9-.6,5.7-1,8.7-3.3-.1-1.3-3.4-3.2-4.6-1.6,2.3-3,4.4-4.5,6.6h.2ZM251.7,92.1c5.4.5,5-2.3,4.3-5.7-2.6,1.1-3.4,3.2-4.3,5.7ZM252.1,93.4c-.2-.2-.3-.3-.5-.5-.2.3-.4.6-.4.9,0,.1.3.3.4.4.2-.3.3-.6.5-.9Z"/>
            <path class="cls-3" d="M320.9,129.9c-2.8,1.6-4.7,4-6,7-.2-4,.3-7.3,4.2-9.8,5.9-4,10.7-9.1,12-16.5h-.1c1.7.8,2.1.3,1.4-1.3h0c4.9.3,7-2,7.1-6.9,0-4.4-.7-9,2.2-13.5,1.1,5.5-.9,11.1,4.1,15.3-.4-3.9-.9-7.7-1.1-11.6-.2-4-.8-8.1.5-12.9,1.7,6.5-.2,12.9,2.8,18.4,1.9-1.3,2.6-2.6,1.5-4.7,0-.2.9-3.4,3-2.4.9.4,2.5.4,2.2,3.2-.7,5.9-1.4,11.7-4.2,17-1.8,3.3-4.3,5.9-1.2,9.8,1.1,1.4-.4,2.8-2.8,3.2,0-4.7-2-8.4-5.4-11.8,2.2-.7,5-.7,5-4.2-6.5-1.5-9.2,4.7-13.1,7.4-4.2,2.9-9.2,6.8-7.6,13.8.5,2.2-.6,4.8-3.1,6.1-1.4-1.3-.2-2.6-.3-3.9.7-.6,1-1.3.4-2-.1-.2-1,.3-1.5.5Z"/>
            <path class="cls-3" d="M207.4,120.2c2.8-3.8,6.6-.9,10.3-1.4,1.7-3.7,1.9-7.6,1.7-11.6-3.3,0-5,1.3-5,4.6-3.1-3-2.6-5.2,3.2-12.7.2.2.5.5.7.7-.2,1.2-.4,2.3-.6,3.5-.2.4-.3.8-.5,1.2.6,0,1.1.1,1.7.2,2-.6,3.7-.9,3.6-3.9-.1-2.6.3-5.8,1.8-7.7,4.6-5.9,2.2-12.8,0-17.2-2.3-4.7-.4-7.5-.5-12.5,4.1,6,2,11.8,3.9,16.8,2.2,1,1.3-3,4.6-1.2,2.6,2.2,3,6.2,1.9,10.6-6.6-.3-7.6,1.2-7.1,10.2,4.7-.1,4.1-5.5,7-7.2.5.4,1,.7,1.6,1.1-1.1,4.3-2.1,8.6-3.1,12.6-2.7.9-2.3-2.1-4.1-2.1-5.1,3.5-10.3,7.1-5.7,14.4-1.8,1.5-3.4,2.9-5.4,4.6-2.3-4.3-6.4-2.7-10.1-3h.1Z"/>
            <path class="cls-3" d="M331.2,110.5c-2.5,2.1-5.2,3.4-8.5,2.5,0,0,.2.1.2.1.6-.8,1.1-1.6,1.7-2.3.6-.4,1.1-.7,1.7-1.1,2-.2,3.3-1.1,3.6-3.3-2.4-.9-3.8.3-5,2.1-.4.5-.8.9-1.2,1.4-9.7-.8-6.7-7.9-6.7-13.5.2-.3.4-.5.7-.8,6.2-3.8,2.5-9.7,3.1-14.6.2-1.5-.6-3.1,1.1-5,1.7,3.5,2.6,8.3,7.7,6.7.4.6.5.7.6.8-4.4.3-2.9,3.6-2.8,5.9,0,1.9.8,3.8,1.4,5.9,2.3-1.6,4.4-3.1,6.6-4.7-1.3,4.6-5.8,6.7-6.8,11.4,6.2-.2,2,5.1,4,7.3,0,0,0,0,0,0-1.7-.7-1.5.4-1.4,1.4h.1Z"/>
            <path class="cls-3" d="M160.6,76q3.1.7,6.9,3.7c.6-3.1,3.6-4.3,5.1-7.6,1.2,2.8,3.1,4.3,5.5,5.3,4.8-9.2,4.8-9.4-3.1-16.9-2.3.7-2,3.3-3.5,4.8-6.6-7.9-8.6,1.4-13.1,3.7,0-5.3,2.3-8.7,7.2-9,13.9-1,17.7.3,17.3,6.7-.3,4.9,2.6,12.4-6.6,13.2,1.2,4-6.3,3.2-4.3,7.7h.1c-5.8.6-9-1.8-8.9-8-2.8-.3-5.3-.5-8.5-.8,1.4,2.4,1.8,4.5-.2,6.2-.6-2.6-3.7-4.3-3.3-7.5,2.7-1.5,5.4,0,8,0,.7.4,1.5.8,2,0,.2-.3-.3-1-.5-1.5Z"/>
            <path class="cls-3" d="M189.7,77.5c.9-3.2-2.6-4.1-2.1-7.1,4.8.5,5.2,6.3,9.9,7.9,1.2-7.2,3.1-14.1,8.5-20.6.4,7.2.8,13.6,1.2,19.9,5.3-.2,7.8,3.3,5.8,7.6-.5,1.2-5,3.6.7,4.1.5,0,.1,1.5-.7,2.1-1.1.9-2.1,1.3-3.7.6-3.4-1.6-4.1-4.6-4.3-7.8-.3-5-.5-9.9-.7-15.3-5,2.2-2.5,7.7-5.5,10.8-2.8,2.9-4.1,6.1-8.2,1.7-1.6-1.7-3.2,0-3.2,2.1,0,1.3,2.2,2.5.4,4.1-4.1-4.2-3.9-5.4,1.9-10.1Z"/>
            <path class="cls-3" d="M302.6,106.5c-3.8.5-6.4,3.1-9.1,5.3-2.1,1.7-4.2,3-7.2,2.1.2-2.9,3.1-3.4,3.9-5.6-5.9-6.5,2-10.1,3.5-15.8,1.3,6.7,6.8,3.3,10.2,5.7.7-3,1.3-5.3,1.9-7.9,2.3,2.1,5,2.6,7.3,3.6,2.6-1.1.9-4.1,2.7-5.3,3.8,1.7.6,4.9,1.8,7.1-.2.3-.4.5-.7.8-6.4-2.4-2.5,4.8-5.6,5.5-2.5.7-5.9-.1-7.5,3.3h0c-1.3-.4-1.7.2-1.5,1.4h0ZM305.2,101q5.1-.2,3.9-5.6c-2.4.8-3,3-3.9,5.6Z"/>
            <path class="cls-3" d="M553.7,72.3c-5.4-6.8-5.3-7.2,3.7-12.4,1.5,1.2-1.2,3.9,2,4.7,3.1-5.1,1.6-12.6,7.8-16.8.3,4.5-4.8,9.1-.8,12.5,3.6,3.1,3.2,7.1,4.6,10.6,2.3,5.6-.8,14.2-5.4,16.6-1.2-4.6,4.7-7.5,2.8-12.2-1.6-4.1-3.2-8.2-5-12.6-2.4,2.2-.9,4.9-2.1,6.9-4-3.2-5.5.8-7.8,2.5h0Z"/>
            <path class="cls-3" d="M183.2,119.1c-2.5-3.5.6-5.6-.3-8.7-4.2,4.8-9.5,4.1-15.2,3.3,9-6.4,14-16.7,23.9-22,1.9-1,2.6-1.1,3.7,1.2-4.8,2-10.7,3.2-11,10.2,2.4.5,2.9-2.5,5.6-1.4-2.1,5.5-4.3,11.1-6.7,17.4Z"/>
            <path class="cls-3" d="M647.8,155.4c-2.5-.9-1.8,2.7-3.8,2.6q-2.5-20.6,6.5-27.2c0,5.7-1,11.8,7,13.2-3.3,3.9-8.7,5.9-9.8,11.5h.1Z"/>
            <path class="cls-3" d="M582.6,143.2c1-.4,1.9-.9,3.3-1.5,1.2,1.5,0,4.2,1.7,4.9,9-2.1,17.6-4.1,26.2-6,.9-.2,2.6.3,3,1,4.1,6.8,9.8,8.2,17.3,5.2-5.4,3-7.5,9-13.4,10.8,2.2-2.6,4.4-5.2,6.7-8-3.6-3.8-11.3.2-11.7-7.2-11.9,2.1-23,6.2-34.9,6.4-.3-2.3,2.7-3.3,1.8-5.6v.2Z"/>
            <path class="cls-3" d="M242.7,84.7c3,3.4-2.4,6-1,9.3-.3.5-.7.9-1,1.4-1.7-.4-.8-4.7-4.1-2.7-.4-.5-.7-1.1-1.1-1.6.5-10.9,2-21.6,5.6-32.5,1.4,5.1,2.9,10.2,4.3,15.3,0,0,0,0,0,0-6.5,2.3-5,6.6-2.7,11h-.1Z"/>
            <path class="cls-3" d="M446.6,163.6c-8.1,5.6-17.2,9.3-26.3,13.7,6.4-4.7-.2-13.5,6.2-17.9,3.4,4.5,5.7,4.8,12.8,1.6,1.4,1.4-1.7,2.5-.1,4,2.7,1.3,4.8-2.1,7.5-1.3h-.1ZM431,170c2.8-1.6,6.5-1.9,9.1-6.8-4.9,1.7-7.8,3-10.3,5.4-.5.5-1.7.7-.9,1.7.7.9,1.4,0,2.1-.2Z"/>
            <path class="cls-3" d="M669.6,116c.4,2.8-2.1,7.1,5.3,7-5.3,2.4-5.9,5.7-4.8,9.7,3.7,0,1.1-4.6,5-5.6-1,8.8-7.6,15.5-6.7,24.8-5.1-2.5-8.2-4.3-2.6-8.5,3.7-2.8,2.2-6.9,1.9-11.2-1.4,2.5-2.6,4.6-3.7,6.6-2.3.2-2.2-3.1-4.6-2.7.3,1.9.6,3.7,1,6.4-4.4-5.8-5-6.6,2.9-12.1,4-2.8,4.3-5.1,3.9-8.8-.3-2.3-.1-4.5,2.4-5.6h0Z"/>
            <path class="cls-3" d="M332.5,131c6.4-1.8,12.7,1.8,19.7-.6-1.5,5.1-.4,9.9-4.9,12.8,0,0,.1,0,.1,0-.5,0-.9,0-1.4,0h.1c-2-.6,1.2-2.8-1-3.5-1.3.8-3.3,1.3-1.8,3.5h0c-.5-.2-1-1.2-1.5-.2-.2.4,0,1,0,1.6h0c-1.6-2-3.1,2-4.6-.4,1.5-1.8,3.1-4.4,1.1-6.8-1.1-1.3-3.6-2-5.2.5-1.9-2.5,1.9-5-.8-7h0Z"/>
            <path class="cls-3" d="M476.6,116.2c1.2-2.7,3.5,1.6,4.9-2.4,0-1.9-.4-5.4-.4-9,0-3.4-1.9-4.1-4.7-3.9h.1c7.3-3,4.5-10.3,6.7-15.6v14.2c1.8,1.1,2.4-2,4-1,2,4.5-1.8,6.1-5.4,8.1,8.5,2.4,8.5,3.4.6,19.2-.3-4.2,1.9-8-1.8-11.7-1.2-.7-2.4,1.5-4.1,1.7,0,0,.1.2.1.2ZM488.3,110.4c.2-.2.3-.3.5-.5-.3-.2-.6-.4-.9-.4-.1,0-.3.3-.4.4.3.2.6.3.9.5Z"/>
            <path class="cls-3" d="M653.3,156.9c5.6,3.2,5.7,8.3.3,14.3.5,1.9,1.9,2.3,4.7,1.3-2.6,4.4-1.4,10.2-8.2,9.4-.7-3.5,2.2-6,3.1-9-3.4-2.2-6.1-1.8-7.9-.5,3.2-.6,9.2-11,8.1-15.5,0,0-.1.1-.1.1Z"/>
            <path class="cls-3" d="M384,173.1c-1.2-3.2,7.4-1.5,2.8-6.2,9.1-1,18.3-3.7,25.5,5.5-2.4,1.2-4.5,2.4-6.9,3.6-.6-3-1-5.4-1.6-8.2-5.9.5-6.2,6.2-9.3,9.3-2.3-1.4.5-3.1-.4-4.6-3.3-1.1-6.4-.7-9.3,1.4-.3-.3-.6-.5-.9-.8ZM392.1,168.5c.2.5.4,1.2.8,1.5,1.1.8,2.7,1.6,2.4-.9-.3-1.8-1.7-1.8-3.2-.6Z"/>
            <path class="cls-3" d="M185,250.7c-1.5-13.1-.9-26.1,1.1-39.2,2.1,13.1,5,26.1-1.1,39.2Z"/>
            <path class="cls-3" d="M553.7,72.2c1.9,5.6,4.8-1.3,7,.8,2.8,7.4,2.7,22.3-8.7,28.5.4-7.7,10.2-11.6,7.3-19.9.3.3.6.5.8.8.1-.2.2-.3.4-.5-.4,0-.8,0-1.1-.1-1.4.9-1.8,3.2-4.5,3-3.4-3.7-.4-8.3-1-12.4,0,0,0-.1,0-.1Z"/>
            <path class="cls-3" d="M163.4,262.2c-.1-2.6-1.7-5.2-.2-7.9,3.3,1.6.7,5.6,3,7.6,2.6-.8.7-3.9,2.8-5,.7,5.4,1.4,10.8,2.1,16.2-.4,0-.8.2-1.2.3-.9-2.8-1.8-5.6-3-9.1-.2,2.8-.4,4.9-.7,8.6-5.2-6.2-9.3-11.6-10.9-20.1,3.9,3.5,4.2,7.7,6.6,10.6.4.7.2,2,2,2-.2-1.1-.4-2.1-.6-3Z"/>
            <path class="cls-3" d="M321.2,159.4c-.7-7.4,1.9-10.3,10.7-12,1.2,3-2.5,7,1.8,9.4v-.2c.6,3.4-1.9,5.2-4.1,6.6-.9.6-.5-1.1-.4-1.8.6-1.1,1.7-2.7,0-3.3-1.3-.5-1.6,1-1.5,2.2-2.5,1.9-4.1-2.1-6.4-1.1v.2Z"/>
            <path class="cls-3" d="M582.7,143c-.9.5-1.9,1-2.8,1.6-2.4-1.2,0-3.5-1.8-5.2-1.1,5-6.7,1.1-8.3,5.2-4.9-5.6-4.8-5.8,1.6-8.1q8.2-3,11.1,5.4c.1.4,0,.9,0,1.3,0,0,.1-.2.1-.2Z"/>
            <path class="cls-3" d="M474.5,116.8c.7-.3,1.1-1.7,2.1-.6,0,0-.1-.2-.1-.2-1,3.8-3.4,6.6-6.3,9.1-7-5.5,0-8.6,1.9-12.4.3-.6,1.2-1.3.3-2-1-.7-1.2.5-1.5,1-.6.3-1.2.6-2.7,1.3,2-3.9,1.9-8,6.2-9.2,2.4,4.3,1.4,8.1-1.3,11.7-.3.6-.6,1.2-.9,1.8-.7.7-1.3,1.4-2,2.1-.9.8-2.5,1.6-1,2.8.6.5,1.7-.7,2.1-1.7.7-.7,1.4-1.5,2.2-2.2.3-.4.7-.9,1-1.3Z"/>
            <path class="cls-3" d="M313.4,283.3c-3-1.9-4.8,1.3-7.3,1.6-2.4.3-4.8.5-7.7.9,1.6-3.5,3.1-6.6,4.8-10.2,5.6-.8,8.9,2,10.2,7.7h0Z"/>
            <path class="cls-3" d="M156.6,177.4c-4,10.4-4.2,13.6,6.3,15,.2,2.1-3.4,2.1-2.9,3.5-1.7-3.1-10.1-1.9-8.4-9.3-1.4-2-4,.2-5.9-2.1,4.1-1.3,7.2-4,10.9-7.1Z"/>
            <path class="cls-3" d="M335.1,155.4c1-4.5,6.2-6.2,6.9-10.9,0,0,0,0,0,0,1.3.4,1.5-.4,1.4-1.4,0,0,0,0,0,0,.9.3,1.9-1.4,2.8,0,0,0-.1,0-.1,0,0,.4-.1.8-.2,1.2-1.8,1.2-3.3,2.5-3.1,5.3,3.7,0,3.2-2.8,4.1-4.4.5-.6,1.8-1.1.5-2.1,0,0-.1,0-.1,0,2.1.7,4.2,1.4,6.8,2.2-3.6,3.4-10.6,3.3-10.8,10,0,0,0,0,0,0-2.7-3.8-5.3-1.8-7.8.3l-.4-.4Z"/>
            <path class="cls-3" d="M387,303.6c4.2-1.3,7.7,2,11.6.4.8,4.8-1.2,7.7-5.7,7.9-5.9.3-3.8-5.4-5.9-8.3Z"/>
            <path class="cls-3" d="M292.8,162.2c-9.2,4.3-18.8,4.9-28.6,2.4,9.6.1,19-1.8,28.6-2.4Z"/>
            <path class="cls-3" d="M172,87.6c2-.5,3.2,1,3.7,2.2,1.6,4.4-1.6,8.5-1,13-3.4-1.8-6.1-3.4-3.3-7.4,1.6-2.3,1-5.2.7-7.9,0,0-.1.1-.1.1Z"/>
            <path class="cls-3" d="M534.3,162.8c2-1.6,4-3.2,6-4.8.3.3.6.7.9,1-.3,3.4,1.1,3.2,3.9,2.4,3.2-1,4.6-4.2,8-5.4,0,2.2-1.7,3.1-2.7,4.4-1,1.2-2.1,2.3-3.4,3.8-3.8-4-7.8-3.9-11.8-.5-.3-.3-.6-.7-.9-1Z"/>
            <path class="cls-3" d="M510.6,118.8c-1.9,3.9-5.6,6.9-4.6,12-.6,0-1.2-.2-1.8-.3.4-5,.7-9.9,1.1-15.2,1.6,1.2-.3,8.1,4.6,2.8.3.2.5.5.8.7Z"/>
            <path class="cls-3" d="M303.9,105.2c3,2.4,7.6,2.3,9.4,6.6-.6.8-.8,2.6-2.7,2.7-1.8-.9.4-3.2-2.6-4.2-1.2-.2-.9,3-3.1,3-2.1-1.8-1.8-4.4-2.3-6.8,0,0,0,.1,0,.1,1.5.5,1.9,0,1.5-1.5h0Z"/>
            <path class="cls-3" d="M502.2,103c-.4,2.9-.7,5.3-1.1,7.9-3.1-.3-3.5-5.9-7.8-2.1q2.4-6.3,8.9-5.8Z"/>
            <path class="cls-3" d="M462.9,137.7c4.5-3.5,9.4-5.1,15.8-3-2.9,2.8-5.5,5.2-9.8,6.4-.5-2.8,3.2-2.8,2.5-5.2-3.5-2.1-5.3,1.7-8,2.6-.2-.3-.4-.5-.6-.8Z"/>
            <path class="cls-3" d="M249.6,84.8c-2.3,0-4.6,0-6.9,0,0,0,.1.1.1.1-.4-4,5.1-6.5,2.7-11,0,0,0,0,0,0,1.7.8,3.4,1.6,5.2,2.4-.4,2.6-.8,5.6-1.2,8.6,0,0,.1-.1.1-.1Z"/>
            <path class="cls-3" d="M332.5,131c-3.3,0-2,4.8-5.5,5.1-.1-4.1,1.6-7.6,2.7-11.4,1.6-.6,2.7,1.8,4.2.4.6,2.4-3.2,3.5-1.5,6,0,0,0,0,0,0Z"/>
            <path class="cls-3" d="M503.6,80.9v16.1c-3.6-2.3-3.7-7.6,0-16.1Z"/>
            <path class="cls-3" d="M373.5,260.5h5.8c1,3.1.2,6.3.9,9.6-2.4-3.3-4.7-6.6-6.8-9.6Z"/>
            <path class="cls-3" d="M477.9,145.9c-.7,2.8-.2,6.1-4.2,7.1-2.4.6-3.3-.3-4-2.6,2.9-1.1,4.7-4.3,8.3-4.4h-.2Z"/>
            <path class="cls-3" d="M288.2,246.9c-2.3-4.4-1.9-8.8,0-13.3v13.3Z"/>
            <path class="cls-3" d="M270.9,111.5c.8,6.5-2.9,6.6-8.2,5.1,2-2.9,4.4-4.7,7-6.2.4.4.8.7,1.2,1.1Z"/>
            <path class="cls-3" d="M306.7,129.6c.7,3.6-1.8,2.6-4.6,2.5,2.8-2.9.5-6.8,3.5-9.7,2.1,2.3,3.6,4.4,1,7.2,1-.5,2.1-1,1.6-2.3-.1-.3-1.9-.4-2.3,0-.9,1-.6,1.9.8,2.2Z"/>
            <path class="cls-3" d="M647.7,155.5c1.6,1.6,5-4.2,5.5,1.4,0,0,.1-.1.1-.1-5,1-4.4,6.6-7.6,9.7-1.2-4.4,3.2-7.3,2-11.1,0,0-.1.1-.1.1Z"/>
            <path class="cls-3" d="M558.1,159.5c-.2,6.4-3.8,8.5-9.7,8.1h.2c2.7-3.2,5.1-7,9.7-8h-.2Z"/>
            <path class="cls-3" d="M435.2,263.8c.1,3.8-.1,7.4,1.5,11-4.4-3.2-4.1-7-1.5-11Z"/>
            <path class="cls-3" d="M399.5,288.8c2.8,4.1,6.3,8.2,1.2,13.1,1.9-4.6-.1-8.8-1.2-13.1Z"/>
            <path class="cls-3" d="M207.3,120.1c.3,2.1-2.1,2.7-2.4,5.9-.1,1.2,3.5.4,3.7,2.6-.4.3-.8.7-1.1.7-2.2-.1-4-1.2-4.3-3.4-.4-3,1.2-5,4.2-5.7,0,0-.1-.1-.1-.1Z"/>
            <path class="cls-3" d="M557.5,133.2c-3.2,2.2-6.5,4.4-9.7,6.6-.3-.3-.6-.7-.9-1,.7-1.9,3.4-2.6,3.1-5.1,0,0,0,.1,0,.1,1.9-.8,2.8-2.2,2.8-4.2,0,0-.2.1-.2.1,1.8,0,1.2,4,4,2.4.3.3.6.7.9,1Z"/>
            <path class="cls-3" d="M463.5,160c4.3-.9,5.7,2.1,7,4.4.9,1.6-.9,3.1-3.1,3.4-3-1.7.1-6.5-3.9-7.8Z"/>
            <path class="cls-3" d="M566.9,46.4c-4.3-3.7-2.7-6.4-1-10.1,2.7,3.3,2.4,6,1,10.1Z"/>
            <path class="cls-3" d="M601.7,230.3c-1.8-4.6,1.2-6.4,4.7-7.8,2.8,2.9-2,5.1-.7,7.8,0,0,0,0,0,0-1.4-2.4-2.8.9-4.1,0h.1Z"/>
            <path class="cls-3" d="M243,95.4c3.9,4.8-1.1,10.6,2,15.6-5.4-4-.2-10.3-3.5-14.7.5-.3,1-.6,1.5-.9Z"/>
            <path class="cls-3" d="M393.9,158.4q-5.9,3.6-9.8-3.2c3.5,2.2,6.1,4.7,9.8,3.2Z"/>
            <path class="cls-3" d="M500.5,141.9c-.6,3.9-1.2,7.8-6,11.8,2.6-5.1,4.3-8.4,6-11.8Z"/>
            <path class="cls-3" d="M482.7,136.2c-.8-1.6-2.2-2.6-3.7-3.2,1.6-3.2,3.9-4,7-2.6-.1,2.4-1,4.4-3.2,5.9Z"/>
            <path class="cls-3" d="M378.6,184.1c2.5.8,4.9,2.4,7.7,1.8.4,2-.9,3.9-2.1,3.2-2.1-1.2-6.3-.7-5.5-5.1v.2Z"/>
            <path class="cls-3" d="M635.7,193.5c-2.8.5-4-1.8-6.1-3.4,1.9-2.6,4-3.3,6.7-1.7q-2.2,1.9-.8,5.1h.2Z"/>
            <path class="cls-3" d="M434.3,175.8c-.2,6.3-4.6,3.3-7.6,3.5,1.9-2.6,4.4-4,7.7-3.4h-.1Z"/>
            <path class="cls-3" d="M151.3,92.5c1.4-5.1,5.2,1.6,7.2-1.5-.2,1.3-.3,2.6-.5,3.9-2-1.1-4-1.9-6.3-1.9,0,0-.4-.5-.4-.5Z"/>
            <path class="cls-3" d="M541.7,113.3c-1.1,1.9-2.7,3.3-4.9,4.1-.7-2-.7-3.8,0-5.7,2-.1,3,2.4,5.1,1.7,0,0-.1-.1-.1-.1Z"/>
            <path class="cls-3" d="M525.3,143.1c.1-.9,1.7-1.6.2-2.6,0,0,0,0,0,0,4.5.9,5.6-4,8.9-5.1.3.4.6.8.8,1.2-3,2.5-6,5.1-9,7.6-.3-.4-.6-.8-.9-1.1Z"/>
            <path class="cls-3" d="M552.7,148.7c2.4-2.4,4.8-5.1,8.3-1.7-3.3-2.5-5.4,2.5-8.5,1.5,0,0,.2.1.2.1Z"/>
            <path class="cls-3" d="M147.8,97.2c-.8,1.5-1.7,3-3.2,5.7,1.3-3.1-1-5.8,2.3-6.8.3.4.6.8.9,1.2Z"/>
            <path class="cls-3" d="M535.6,156.3c-2,1.6-3.9,3.2-5.9,4.9l-1.1-.9c2-1.6,4.1-3.2,6.1-4.9.3.3.5.6.8,1Z"/>
            <path class="cls-3" d="M519.4,156.2c-1.4,1.1-2.8,2.1-4.1,3.2-1.8-1.5-1-2.8,0-3.5.8-.6,2.1-.3,3.3-.5.3.3.5.6.8.8Z"/>
            <path class="cls-3" d="M321.5,114.6c0,4-3.7,2.6-5.6,3.8h0c1.9-1.1,3.8-2.4,5.7-3.7,0,0-.1-.1-.1-.1Z"/>
            <path class="cls-3" d="M547,145.8c1.4-1.8,3.2-3,5.7-4-.3,3.2-3.1,3.5-4.7,4.9-.3-.3-.6-.6-1-.9Z"/>
            <path class="cls-3" d="M315.9,118.4c-.9,1.4-1.8,2.8-3.2,5.2,2-2,3-3.3,3.3-5.1,0,0,0-.1,0-.1Z"/>
            <path class="cls-3" d="M541.6,149.9c1.5-1.8,3.2-3.2,5.4-4.1.3.3.6.6,1,.9-1.8,1.4-3.6,2.8-5.4,4.2-.3-.3-.7-.7-1-1Z"/>
            <path class="cls-3" d="M542.4,156c1.5-1.1,3.1-2.3,4.6-3.4.3.3.5.5.8.8-1.5,1.2-3,2.5-4.5,3.7l-.9-1Z"/>
            <path class="cls-3" d="M529,154.8c-1.6,1.2-3.2,2.4-4.7,3.5-.3-.3-.5-.7-.8-1,1.5-1.1,3.1-2.3,4.6-3.4.3.3.6.6,1,.9Z"/>
            <path class="cls-3" d="M532.2,143.2c1.2-2.1,3.1-3.3,5.1-4.5.3.3.6.6.9.9-1.7,1.4-3.4,2.9-5.2,4.3-.3-.3-.5-.5-.8-.8Z"/>
            <path class="cls-3" d="M399.4,108.3c1.9-2.5-.6-6.3,2.4-8.6,0,0,0,0,0,0-.5,3.2,1.6,6.7-1.2,9.7-.4-.4-.7-.7-1.1-1.1Z"/>
            <path class="cls-3" d="M531.5,150.7l4.7-3.6c.3.3.6.7.9,1-1.5,1.2-3.1,2.3-4.6,3.5-.3-.3-.6-.6-1-.9Z"/>
            <path class="cls-3" d="M537,153.3c1.5-1.1,3.1-2.3,4.6-3.4.3.3.7.7,1,1-1.6,1.1-3.2,2.2-4.8,3.4-.3-.3-.6-.7-.9-1Z"/>
            <path class="cls-3" d="M590.4,226.5c-1.6-2.2-3.1-3.6-1.2-5.9,1.6,1.6,1.1,3.3,1.2,5.9Z"/>
            <path class="cls-3" d="M528.6,147.8c-1.4,1.3-2.9,2.5-4.3,3.8-.3-.3-.6-.6-1-.9,1.5-1.2,3-2.5,4.5-3.7.3.3.5.5.8.8Z"/>
            <path class="cls-3" d="M434.4,175.9c.9-2.1,2.8-2.2,5.1-2.8-1.2,2.6-3.3,2.6-5.2,2.7,0,0,.1.1.1.1Z"/>
            <path class="cls-3" d="M538.4,127.8c-1.5,1.2-3,2.4-4.5,3.6-.3-.3-.6-.6-.8-.9,1.5-1.2,2.9-2.5,4.4-3.7.3.3.6.7.9,1Z"/>
            <path class="cls-3" d="M378.7,183.9c-1.1.7-2.3.6-2.6-.6-.3-1.5,1.2-1.9,2.2-1.7,2.1.5-.2,1.7.2,2.5,0,0,.1-.2.1-.2Z"/>
            <path class="cls-3" d="M276.8,177.2c-1.1,1.2-1.4,0-1.6-.6-.2-.5,0-1.1,0-1.7.2.3.4.5.6.8.1.2.4.2.5.4.1.4.2.8.3,1.2h.1Z"/>
            <path class="cls-3" d="M347.5,154.2c0-.7.2-1.5.9-1.3.9.3.4,1,0,1.5-.1.1-.5.2-.6.1-.2,0-.2-.4-.3-.6,0,0,0,.2,0,.2Z"/>
            <path class="cls-3" d="M386.7,151.6c.6-.6,1.1-.3,1.4.3,0,.2-.3.6-.4.9-.3-.4-.6-.9-.8-1.3,0,0-.1.1-.1.1Z"/>
            <path class="cls-3" d="M542.3,143.8c-1,.8-2.1,1.5-3.1,2.3-.3-.3-.5-.7-.8-1,1.1-.7,2.2-1.3,3.3-2,.2.2.4.4.6.6Z"/>
            <path class="cls-3" d="M522.1,160.4c-.9,1-1.8,2-3.3,2-.2-.2-.4-.4-.6-.6,1-.8,2-1.6,3.1-2.4.3.3.6.7.8,1Z"/>
            <path class="cls-3" d="M271.2,107.9c4.8,1.7-.3,2.4-.4,3.6-.4-.4-.8-.7-1.2-1.1.6-.9,1.1-1.7,1.7-2.6,0,0-.2.1-.2.1Z"/>
            <path class="cls-3" d="M285,189.4c1.1,0,1.1,2.2,2.7,1.5,0,0-.1,0-.1,0,0,.9,0,1.8,0,2.7-.2.2-.4.5-.6.7-1-1.3-1.9-2.7-2.9-4.1.3-.2.6-.5.8-.8Z"/>
            <path class="cls-3" d="M650.6,241.3c-1.4-1.4.3-1.6.8-2.4,1,1.4,0,1.8-.9,2.3h.1Z"/>
            <path class="cls-3" d="M601.6,230.2c-.7,2-2.7.7-3.9,1.5h.1c.6-2.1,2.5-1.2,3.9-1.4,0,0-.1-.1-.1-.1Z"/>
            <path class="cls-3" d="M385,173.9c-.5.9-.9,1.8-1.4,2.7-2.2-1.6-1.3-2.6.4-3.5.3.2.6.5.9.8Z"/>
            <path class="cls-3" d="M401.3,266.6c1.2,1.4,1.1,2.4-.9,2.7-.8-1.4.6-1.8,1.1-2.6,0,0-.2,0-.2,0Z"/>
            <path class="cls-3" d="M344.2,177.8c1.4.7,2.3,1.6,2.2,3.3-.2.2-.4.3-.6.5-.9-.9-1.7-1.8-2.6-2.8.3-.4.7-.7,1-1.1Z"/>
            <path class="cls-3" d="M284.1,190.2c-.7-1-1.3-2-3-4.7,2.8,1.6,3.7,2.4,3.8,3.9-.3.3-.5.5-.8.8Z"/>
            <path class="cls-3" d="M597.6,231.7c-1.2,1.7-2.4,2.7-3.9.2,1.3-1.6,2.7.4,4.1,0,0,0-.1-.1-.1-.1Z"/>
            <path class="cls-3" d="M541.7,87.4c.5-1.3,1.4-2.2,2.8-2.7.3.3.6.6.9.8-.8,1-1.7,1.9-2.5,2.9-.4-.3-.8-.7-1.2-1Z"/>
            <path class="cls-3" d="M504.3,111.5c0,.3-.2.5-.2.6,0,0,.2,0,.4.1,0-.2-.1-.4-.2-.8Z"/>
            <path class="cls-3" d="M403.6,80c-.4-1-.6-2,.4-3.2.3.9.5,1.6.7,2.3l-1.1.8Z"/>
            <path class="cls-3" d="M537.5,126.7c.7-.7,1.5-1.4,2.2-2.1.3.4.6.8.9,1.2-.7.7-1.5,1.3-2.2,2-.3-.3-.6-.7-.9-1Z"/>
            <path class="cls-3" d="M559.5,131.1c-.7.7-1.4,1.4-2,2.1-.3-.3-.6-.7-.9-1,.8-.5,1.6-1.1,2.4-1.6.2.2.3.4.5.6Z"/>
            <path class="cls-3" d="M114.1,143.8c-.7.9-1.5,1.4-2.6.5.5-.6,1-1.2,1.5-1.8.4.4.7.8,1.1,1.2Z"/>
            <path class="cls-3" d="M536.2,147.1c.7-.7,1.5-1.4,2.2-2,.3.3.6.6.8,1-.7.7-1.4,1.4-2.1,2-.3-.3-.6-.7-.9-1Z"/>
            <path class="cls-3" d="M519.9,154c.7-.7,1.4-1.5,2.1-2.2.3.4.6.7.9,1.1-.7.7-1.4,1.4-2.1,2.1-.3-.4-.6-.7-.9-1.1Z"/>
            <path class="cls-3" d="M537.8,154.3c-.7.7-1.5,1.3-2.2,2-.3-.3-.5-.6-.8-1,.7-.7,1.4-1.4,2.1-2.1.3.3.6.7.9,1Z"/>
            <path class="cls-3" d="M374.2,156.6c-.2,0-.3-.1-.5-.2.2-.2.4-.3.6-.5,0,0,.2.3.3.4-.2,0-.3.2-.5.2Z"/>
            <path class="cls-3" d="M543.3,157c-.7.7-1.4,1.3-2.1,2-.3-.3-.6-.7-.9-1,.7-.7,1.4-1.3,2.1-2,.3.3.6.7.9,1Z"/>
            <path class="cls-3" d="M558.3,159.6c-1-.3-.7-.9-.2-1.4.2-.2.7,0,1,0-.3.5-.7.9-1,1.4,0,0,.2,0,.2,0Z"/>
            <path class="cls-3" d="M442.6,159.6c.5-1.3,1.4-1.8,2.7-1.3,0,0-.1-.1-.1-.1-.3,1.8-1.5,1.5-2.8,1.3h.1Z"/>
            <path class="cls-3" d="M521.3,159.4c.7-.7,1.4-1.4,2.1-2.1.3.3.6.7.8,1-.7.7-1.4,1.4-2.1,2.1-.3-.3-.6-.6-.8-1Z"/>
            <path class="cls-3" d="M340.7,163.8c-1.5-1.7,0-2.3,1.1-3,.3.3.7.6,1,.9-.7.7-1.5,1.3-2.2,2,0,0,0,.2,0,.2Z"/>
            <path class="cls-3" d="M446.7,163.7c.3-1.8,1.8-1.2,2.9-1.3h.1c-.8.7-1.8,1.4-3.1,1.2,0,0,.1.1.1.1Z"/>
            <path class="cls-3" d="M528.4,162.4c-.7.7-1.4,1.5-2.2,2.2-.3-.4-.6-.8-.9-1.2.7-.7,1.5-1.5,2.2-2.2.3.4.6.8.9,1.2Z"/>
            <path class="cls-3" d="M535.1,163.8c-.7.7-1.4,1.5-2.1,2.2-.3-.4-.6-.7-.9-1.1.7-.7,1.4-1.4,2.1-2.1.3.3.6.7.9,1Z"/>
            <path class="cls-3" d="M233.2,170.4c0,1.1.6,1.2,1.5.8-1-.7-1.4-.4-1.6.6,0,0,0,0,0,0,.1-.2.4-.3.4-.5,0-.3-.3-.6-.4-1h0Z"/>
            <path class="cls-3" d="M236.5,175.1c.6-.4.9-1.8,1.7-1,.7.6,0,1.5-.9,1.8-.3-.3-.5-.6-.8-.9Z"/>
            <path class="cls-3" d="M233.1,177.3c.7-.3,1.4-.5,2.1-.8.3.3.6.7.9,1-.8,1.1-1.5,2.5-3,1,0,0,0,.2,0,.2,0-.5,0-1,0-1.4,0,0-.1.1-.1.1Z"/>
            <path class="cls-3" d="M276.7,177.2c1.2.4,1.5,1.4,1.6,2.5,0,0-.3.3-.3.3-1.2-.6-2.1-1.4-1.2-2.9,0,0-.1,0-.1,0Z"/>
            <path class="cls-3" d="M245.6,181.4c-1.4-1.4-.1-1.6.8-2.1.4,1.1,0,1.7-1,2,0,0,.2,0,.2,0Z"/>
            <path class="cls-3" d="M279.5,181.3c1.2.3,1.4,1.4,1.7,2.4-.2.2-.3.4-.5.5-.6-.7-1.2-1.5-1.7-2.2.2-.2.4-.5.6-.7Z"/>
            <path class="cls-3" d="M638.4,205.8c-.5-.8-.3-1.4.6-1.8.6,1,.2,1.4-.7,1.7,0,0,.1.1.1.1Z"/>
            <path class="cls-3" d="M636.4,208.2c.4-1,.1-2.5,2-2.3,0,0-.1-.1-.1-.1.2,1.2.1,2.3-1.3,2.8,0,0-.6-.3-.6-.3Z"/>
            <path class="cls-3" d="M664.1,249.3c.4-.4.8-.8,1.2-1.1,0,0,.4.2.6.3-.4.4-.9.8-1.3,1.1,0,0-.5-.3-.5-.3Z"/>
            <path class="cls-3" d="M441.1,294.2c.3,0,.7-.1,1-.2,0,.3,0,.6,0,.9-.3-.3-.5-.6-.8-.8h-.2Z"/>
            <path class="cls-3" d="M635.6,193.6c.2.3.4.5.6.8-.2,0-.4,0-.5,0,0-.3,0-.6.1-.8,0,0-.2,0-.2,0Z"/>
            <path class="cls-3" d="M281.1,183.7c.3.5.6.9.9,1.4,0,0-.3.3-.4.4-.3-.4-.6-.9-1-1.3.2-.2.3-.3.5-.5Z"/>
            <path class="cls-3" d="M236.6,92.7c-.2.4-.5.7-.9.9-.5-.4-1-.7-1.6-1.1.5-.5.9-.9,1.4-1.4.4.5.7,1.1,1.1,1.6Z"/>
            <path class="cls-3" d="M278.9,182c-.3-.7-.6-1.3-.9-2,0,0,.3-.3.3-.3,1,0,1.2.7,1.2,1.5-.2.2-.4.5-.6.7Z"/>
            <path class="cls-3" d="M237.4,175.9c-.4.5-.8,1-1.2,1.5-.3-.3-.6-.6-.9-1,.4-.5.9-.9,1.3-1.4.3.3.6.6.8.9Z"/>
            <path class="cls-3" d="M442.4,172.5c-.2.2-.4.4-.5.4-.2,0-.3-.3-.4-.4.2-.1.3-.4.5-.4.2,0,.3.3.5.4Z"/>
            <path class="cls-3" d="M150.3,94.3c-.4.5-.8,1-1.2,1.5-.3-.3-.6-.6-.9-.9.5-.4,1-.8,1.5-1.1.2.2.4.4.7.5Z"/>
            <path class="cls-3" d="M548.4,167.6c0,.3,0,.5,0,.8,0,0-.2-.2-.2-.3,0-.2.2-.3.4-.5,0,0-.2,0-.2,0Z"/>
            <path class="cls-3" d="M523.4,167c-.5.2-1.4.6-1.5.4-.5-.7,0-1.1.7-1.3.3.3.5.6.8.8Z"/>
            <path class="cls-3" d="M533,166c-.4.4-.9.7-1.3,1.1-.3-.3-.7-.6-1-.9.5-.4,1-.8,1.4-1.3.3.4.6.7.9,1.1Z"/>
            <path class="cls-3" d="M522.6,166.2c.4-.5.9-.9,1.3-1.4.3.3.7.6,1,.9-.5.4-1,.9-1.6,1.3-.3-.3-.5-.6-.8-.8Z"/>
            <path class="cls-3" d="M523.9,164.8c.5-.4.9-.9,1.4-1.3.3.4.6.8.9,1.2-.4.4-.8.7-1.2,1.1-.3-.3-.7-.6-1-.9Z"/>
            <path class="cls-3" d="M340.6,163.6c-.4.2-.8.5-1.2.7,0-.2-.1-.5,0-.6.4-.6.9-.6,1.3,0,0,0,0-.2,0-.2Z"/>
            <path class="cls-3" d="M518.8,162.4c-.2.6-.5,1.1-1.2.7.2-.4.4-.9.7-1.3.2.2.4.4.6.6Z"/>
            <path class="cls-3" d="M527.5,161.2c.4-.4.8-.7,1.2-1.1.4.3.7.6,1.1.9-.5.4-.9.9-1.4,1.3-.3-.4-.6-.8-.9-1.2Z"/>
            <path class="cls-3" d="M449.5,162.3v-.3s.1.2.1.2c0,0-.1.1-.1.1Z"/>
            <path class="cls-3" d="M442.5,159.5c.4.6.2,1-.5,1.2-.2,0-.4-.2-.5-.2.4-.3.8-.6,1.2-.9,0,0-.1-.1-.1-.1Z"/>
            <path class="cls-3" d="M321.3,159.3v.3c.1,0,0-.2,0-.2,0,0,0-.1,0-.1Z"/>
            <path class="cls-3" d="M241.7,94c.5.5.9.9,1.4,1.4-.5.3-1,.6-1.5.9-.4-.2-.7-.5-.8-.9.3-.5.7-.9,1-1.4Z"/>
            <path class="cls-3" d="M335.5,155.8c-.4.7-.5,2.1-1.8.9,0,0,.1.2.1.2,0-.8.4-1.4,1.3-1.4,0,0,.4.4.4.4Z"/>
            <path class="cls-3" d="M532.2,86c-.1.4-.2.8-.3,1.1-.2-.1-.4-.2-.5-.4.3-.2.7-.4,1-.7,0,0-.1-.1-.1-.1Z"/>
            <path class="cls-3" d="M518.6,155.4c.4-.5.9-.9,1.3-1.4.3.4.6.7.9,1.1-.5.4-.9.8-1.4,1.2-.3-.3-.5-.6-.8-.8Z"/>
            <path class="cls-3" d="M528,153.9c.5-.3,1.2-1.1,1.3-1,1.2.8,0,1.3-.4,1.9-.3-.3-.7-.6-1-.9Z"/>
            <path class="cls-3" d="M547,152.6c.4-.3,1.1-1,1.3-.9,1.2.9,0,1.2-.5,1.7-.3-.3-.5-.5-.8-.8Z"/>
            <path class="cls-3" d="M532.5,151.6c-.5.4-1.2,1.1-1.3,1-1.2-.8,0-1.3.4-1.9.3.3.7.6,1,.9Z"/>
            <path class="cls-3" d="M522,151.8c.4-.4.9-.8,1.3-1.1.3.3.7.6,1,.9-.5.4-1,.9-1.4,1.3-.3-.4-.6-.7-.9-1.1Z"/>
            <path class="cls-3" d="M551.3,150.1c-.4.4-.7.7-1.1,1.1-.1-.1-.3-.3-.4-.4.4-.2.9-.5,1.3-.7,0,0,.1.1.1.1Z"/>
            <path class="cls-3" d="M551.2,150c0-1.1.6-1.3,1.5-1.2,0,0-.2-.1-.2-.1.8,1.5-.4,1.3-1.2,1.5,0,0-.1-.1-.1-.1Z"/>
            <path class="cls-3" d="M441.2,294.1c-.9,0-1.3-.4-1.5-1.3.2-.2.4-.4.7-.5.6.5,1.7.8.6,1.9,0,0,.2-.1.2-.1Z"/>
            <path class="cls-3" d="M527.8,147c.5-.4,1-.8,1.5-1.3.3.3.5.5.8.8-.5.4-.9.9-1.4,1.3-.3-.3-.5-.6-.8-.8Z"/>
            <path class="cls-3" d="M529.3,145.7l1.5-1.3c.3.3.6.6.8.9-.5.4-1,.8-1.5,1.2-.2-.3-.5-.5-.8-.8Z"/>
            <path class="cls-3" d="M524.8,145.3c-.7.5-1.3,1.5-2.1.3,0-.1.7-.9,1.1-1.3.3.3.7.7,1,1Z"/>
            <path class="cls-3" d="M149.7,93.8c.6-.4,1.1-.9,1.7-1.3,0,0,.4.5.4.5,0,.8-.5,1.3-1.3,1.4-.2-.2-.4-.4-.7-.5Z"/>
            <path class="cls-3" d="M478,146.1c0-.3,0-.7-.1-1,.3,0,.6.2.9.2-.3.2-.6.5-.9.7,0,0,.2.1.2.1Z"/>
            <path class="cls-3" d="M533.1,144c-.5.4-1,.9-1.5,1.3-.3-.3-.6-.6-.8-.9.5-.4,1-.8,1.5-1.2.3.2.6.5.8.8Z"/>
            <path class="cls-3" d="M523.8,144.3l1.5-1.2c.3.4.6.8.9,1.1-.5.4-.9.7-1.4,1.1-.3-.3-.7-.7-1-1Z"/>
            <path class="cls-3" d="M652.8,252.8c-.4.4-.9.9-1.3,1.3-.3-.3-.7-.5-1-.9.5-.4.9-.9,1.4-1.3.3.3.6.6.9.8Z"/>
            <path class="cls-3" d="M654,251.4c-.4.5-.8.9-1.2,1.4-.3-.3-.6-.5-.9-.8.5-.4.9-.9,1.4-1.3.2.3.5.5.7.7Z"/>
            <path class="cls-3" d="M541.7,143.1c.1-.8.7-1.2,1.5-1.2,0,0-.2-.1-.2-.1,1.2,1.2-.2,1.4-.8,2-.2-.2-.4-.4-.6-.6Z"/>
            <path class="cls-3" d="M365.2,139.3c-.4.4-1,1.3-1.1,1.3-1.2-.7-.3-1.4.1-2.1.4.3.7.5,1,.8Z"/>
            <path class="cls-3" d="M146.9,96c.4-.4.9-.7,1.3-1.1.3.3.6.6.9.9-.4.5-.9.9-1.3,1.4-.3-.4-.6-.8-.9-1.2Z"/>
            <path class="cls-3" d="M536.6,135.3c-.5.4-1,.8-1.5,1.2-.3-.4-.6-.8-.8-1.2.4-.3.8-.7,1.2-1,.4.3.7.7,1.1,1Z"/>
            <path class="cls-3" d="M531.1,133.9c-.4.6-.8,1.7-1.7.8-.8-.8.4-1.3.8-1.8.3.4.6.7.9,1Z"/>
            <path class="cls-3" d="M530.2,132.9c.5-.4,1-.8,1.4-1.2.3.3.6.6.9.9-.5.4-.9.9-1.4,1.3-.3-.3-.6-.7-.9-1Z"/>
            <path class="cls-3" d="M534,131.3c-.5.4-1,.9-1.4,1.3-.3-.3-.6-.6-.9-.9.5-.4,1-.9,1.5-1.3.3.3.6.6.8.9Z"/>
            <path class="cls-3" d="M662.7,250.6c.5-.4.9-.9,1.4-1.3,0,0,.5.3.5.3.2,1-.4,1.5-1.2,1.9-.2-.3-.5-.5-.7-.8Z"/>
            <path class="cls-3" d="M182.8,127c-.3-.3-.6-.5-.9-.8.3,0,.6,0,.9-.1,0,.3-.1.7-.2,1,0,0,.1-.1.1-.1Z"/>
            <path class="cls-3" d="M653.2,250.6c.4-.5.9-1,1.3-1.4v-.2c1.3,1.1-.1,1.6-.6,2.4-.3-.2-.5-.5-.7-.7Z"/>
            <path class="cls-3" d="M539.7,124.6c.5-.4.9-.7,1.4-1.1.3.3.6.7.9,1-.5.4-1,.8-1.4,1.3-.3-.4-.6-.8-.9-1.2Z"/>
            <path class="cls-3" d="M543.7,123.4c-.5.4-1.1.7-1.6,1.1-.3-.3-.6-.6-.9-1,.5-.4,1.1-.7,1.6-1.1.3.3.6.7,1,1Z"/>
            <path class="cls-3" d="M528.1,124.1c.4-.4,1.1-1.1,1.2-1,1.2.8,0,1.3-.3,1.9-.3-.3-.6-.6-.9-.8Z"/>
            <path class="cls-3" d="M545.3,122.2c-.5.4-1.1.8-1.6,1.2-.3-.3-.6-.7-1-1,.5-.4,1.1-.8,1.6-1.2.3.3.6.6,1,.9Z"/>
            <path class="cls-3" d="M532.3,121.6c-.4.4-1.1,1.1-1.2,1-1.2-.8,0-1.2.4-1.8.3.3.5.5.8.8Z"/>
            <path class="cls-3" d="M544.3,121.3c.5-.3,1.1-1,1.3-.9,1.2.8,0,1.2-.3,1.8-.3-.3-.7-.6-1-.9Z"/>
            <path class="cls-3" d="M533.8,120.2c-.5.4-.9.9-1.4,1.3-.3-.2-.6-.5-.8-.8.5-.4,1.1-.7,1.6-1.1.2.2.4.4.6.5Z"/>
            <path class="cls-3" d="M548.8,119c-.4.7-.9,1.4-1.8.5.4-.4.8-.8,1.1-1.1.2.2.4.4.6.6Z"/>
            <path class="cls-3" d="M533.2,119.7c.5-.5.8-1.5,1.7-.5-.4.3-.8.7-1.2,1-.2-.2-.4-.4-.6-.5Z"/>
            <path class="cls-3" d="M675,249.3c-.8-.2-2.2.1-1.2-1.5v.2c.5.3,1.1.6,1.7,1,0,0-.5.4-.5.4Z"/>
            <path class="cls-3" d="M654.6,249.2c.3-.2.7-.4,1-.6,0,.3-.1.6-.2.9-.3-.1-.6-.3-.9-.4,0,0,0,.2,0,.2Z"/>
            <path class="cls-3" d="M550.5,118c-.6.4-1.1.7-1.7,1.1-.2-.2-.4-.4-.6-.6.5-.4,1.1-.8,1.6-1.1.2.2.5.5.7.7Z"/>
            <polygon class="cls-3" points="313.5 283.2 313.6 283.5 313.4 283.3 313.5 283.2"/>
            <path class="cls-3" d="M528.2,118.7c.1-.5,0-1.2,1-.9-.2.5-.4.9-.5,1.4,0,0-.4-.5-.4-.5Z"/>
            <path class="cls-3" d="M509.8,118.2c.4-.5.7-1,1.1-1.5.4.3.7.6,1.1.8,0,.4,0,.9-.2,1.3,0,0,.2-.2.2-.2-.5,0-.9.1-1.4.2-.3-.2-.5-.5-.8-.7Z"/>
            <path class="cls-3" d="M669.6,115.9h.2s-.2.1-.2.1c0,0,0-.1,0-.1Z"/>
            <path class="cls-3" d="M321.6,114.7c.4-.5.8-1,1.2-1.5,0,0-.2-.1-.2-.1.4,1.1.4,1.9-1.2,1.6,0,0,.1.1.1.1Z"/>
            <path class="cls-3" d="M543.1,112c0,.9-.5,1.3-1.4,1.3,0,0,.1.1.1.1-.6-1.5.3-1.5,1.3-1.4h-.1Z"/>
            <path class="cls-3" d="M543.2,112.1c0-.3.1-.7.2-1,.2.1.4.3.7.4-.3.2-.7.3-1,.5,0,0,.1.1.1.1Z"/>
            <path class="cls-3" d="M545.9,83.5c.3-.3.5-.6.8-.8,0,.3,0,.6,0,.9-.3,0-.7-.1-1-.2h.2Z"/>
            <path class="cls-3" d="M673.7,247.8c-.3,0-.6,0-.9.1,0-.2,0-.4,0-.6.3.2.5.4.8.6,0,0,0-.2,0-.2Z"/>
            <path class="cls-3" d="M649.2,242.5c-.4.5-.9,1-1.3,1.4-.3-.3-.6-.6-.8-.9.7-.4,1.2-1.7,2.2-.4,0,0-.1,0-.1,0Z"/>
            <path class="cls-3" d="M601.7,242.6c-.1.1-.3.3-.4.4,0,0-.2,0-.3,0,.3,0,.5-.1.8-.2,0,0,0-.1,0-.1Z"/>
            <path class="cls-3" d="M650.5,241.1c-.5.5-.9.9-1.4,1.4,0,0,.1,0,.1,0,0-.6.1-1.1.2-1.7.4.1.8.2,1.1.4,0,0-.1-.1-.1-.1Z"/>
            <path class="cls-3" d="M217.6,99.1c.5,0,1,0,1.5,0-.3.3-.5.5-.8.8-.2-.2-.5-.5-.7-.7Z"/>
            <path class="cls-3" d="M545.7,83.4c1.2,1,0,1.5-.4,2.2-.3-.3-.6-.5-.9-.8.5-.4,1-.8,1.5-1.2,0,0-.2-.1-.2-.1Z"/>
            <path class="cls-3" d="M377.5,85.1v-.4s0,.3,0,.3,0,.1,0,.1Z"/>
            <path class="cls-3" d="M592,228.9c.3.4.7.7,1,1.1-.2,0-.4.2-.6.3-.1-.5-.2-1-.3-1.5h-.1Z"/>
            <path class="cls-3" d="M592.2,228.8c-.4-.2-.8-.4-1.2-.6.1-.2.2-.3.3-.5.2.4.5.8.7,1.2,0,0,.1-.1.1-.1Z"/>
            <path class="cls-3" d="M446.6,292.8c.3.2.6.4.9.6l-.8.4c0-.3-.1-.6-.2-1,0,0,0,0,0,0Z"/>
            <path class="cls-3" d="M439.8,292.8c-.5-.4-.9-.9-1.4-1.3.3-.3.6-.6.9-.8.4.5.8,1.1,1.2,1.6-.2.2-.5.3-.7.5Z"/>
            <path class="cls-3" d="M476.4,101c0,.5-.1.9-.2,1.4-.2,0-.4-.1-.6-.2.3-.4.6-.7.9-1.1,0,0-.1-.1-.1-.1Z"/>
            <path class="cls-3" d="M211.5,162.3c-1.4.5-2.8.9-4.2,1.4.7-2.5,3.3-3.1,4.8-5.3-.2,1.6-.4,2.8-.6,3.9Z"/>
            <path class="cls-3" d="M206.1,166.3c-1.3.6-1.1,2.8-2.9,2.8.5-1.4,1.5-2.4,2.9-2.8Z"/>
            <path class="cls-3" d="M207.4,163.6c.5,1.4.2,2.5-1.4,2.9-.7-1.5,0-2.4,1.4-2.9Z"/>
            <path class="cls-3" d="M219.6,171.8c-1-.2-1.2-.9-.9-1.8,0-.1.5-.3.5-.2.4.6,1.2,1.1.4,2,0,0,0,0,0,0Z"/>
            <path class="cls-3" d="M211.1,175.3c.3,0,.6.2.9.3-.3,0-.6-.2-.9-.3,0,0,0,0,0,0Z"/>
            <path class="cls-3" d="M489,319.2c-.6-2-1-4.1.6-6,1.6,1.4.2,3.4,1.1,4.9-.6.4-1.1.7-1.7,1.1Z"/>
            <path class="cls-3" d="M504.9,321.1c-.4.1-.8.2-1.2.3-.6-1-.4-2.3.7-2.3,1.2,0,.3,1.3.5,2Z"/>
            <path class="cls-3" d="M381.4,135c.9.9-.1,1.7-.2,2.6-.9,0-1.6,1.7-2.6.2.2-1.7.8-3,2.8-2.8Z"/>
            <path class="cls-3" d="M378.7,137.8c0,.5.2,1.2,0,1.6-.5,1-1,0-1.5-.1,0-1,.3-1.6,1.5-1.5Z"/>
            <path class="cls-3" d="M382.8,133.7c0,1,0,2-1.5,1.5-.2-1.2-.2-2.2,1.5-1.5Z"/>
            <path class="cls-3" d="M384.1,132.3c0,.5,0,1,0,1.5-.5,0-1,0-1.5,0-.3-1.3-.3-2.2,1.4-1.5Z"/>
            <path class="cls-3" d="M437.8,136.9c.5-.4,1-.8,1.4-1.2.3.3.6.6.9.9-.5.4-.9.9-1.4,1.3-.3-.4-.6-.7-.9-1.1Z"/>
            <path class="cls-3" d="M448.1,135c.3,1.2-.4,1.5-1.5,1.5-.7-1.7.4-1.6,1.5-1.5Z"/>
            <path class="cls-3" d="M439.2,135.8c.6-.5,1.2-1.5,2-.3,0,.1-.7.8-1.1,1.2-.3-.3-.6-.6-.9-.9Z"/>
          </g>
        </g>
      </g>
    </g>
  </g>
</svg>